solid OpenSCAD_Model
  facet normal 1 -0 0
    outer loop
      vertex 30 3.8147e-07 26.8
      vertex 30 32.4 25.8
      vertex 30 32.4 26.8
    endloop
  endfacet
  facet normal 1 0 0
    outer loop
      vertex 30 32.4 25.8
      vertex 30 3.8147e-07 26.8
      vertex 30 3.8147e-07 25.8
    endloop
  endfacet
  facet normal 0 -1 0
    outer loop
      vertex 0 3.8147e-07 25.8
      vertex 30 3.8147e-07 26.8
      vertex 0 3.8147e-07 26.8
    endloop
  endfacet
  facet normal 0 -1 -0
    outer loop
      vertex 30 3.8147e-07 26.8
      vertex 0 3.8147e-07 25.8
      vertex 30 3.8147e-07 25.8
    endloop
  endfacet
  facet normal 0 1 -0
    outer loop
      vertex 30 32.4 25.8
      vertex 0 32.4 26.8
      vertex 30 32.4 26.8
    endloop
  endfacet
  facet normal 0 1 0
    outer loop
      vertex 0 32.4 26.8
      vertex 30 32.4 25.8
      vertex 0 32.4 25.8
    endloop
  endfacet
  facet normal -1 0 0
    outer loop
      vertex 0 3.8147e-07 25.8
      vertex 0 32.4 26.8
      vertex 0 32.4 25.8
    endloop
  endfacet
  facet normal -1 -0 0
    outer loop
      vertex 0 32.4 26.8
      vertex 0 3.8147e-07 25.8
      vertex 0 3.8147e-07 26.8
    endloop
  endfacet
  facet normal 0 0 1
    outer loop
      vertex 27 9 26.8
      vertex 30 32.4 26.8
      vertex 27 29.4 26.8
    endloop
  endfacet
  facet normal 0 0 1
    outer loop
      vertex 30 32.4 26.8
      vertex 3 29.4 26.8
      vertex 27 29.4 26.8
    endloop
  endfacet
  facet normal 0 0 1
    outer loop
      vertex 3 29.4 26.8
      vertex 0 32.4 26.8
      vertex 3 9 26.8
    endloop
  endfacet
  facet normal -0 0 1
    outer loop
      vertex 0 32.4 26.8
      vertex 3 29.4 26.8
      vertex 30 32.4 26.8
    endloop
  endfacet
  facet normal 0 0 1
    outer loop
      vertex 30 32.4 26.8
      vertex 27 9 26.8
      vertex 30 3.8147e-07 26.8
    endloop
  endfacet
  facet normal -0 0 1
    outer loop
      vertex 3 9 26.8
      vertex 30 3.8147e-07 26.8
      vertex 27 9 26.8
    endloop
  endfacet
  facet normal 0 0 1
    outer loop
      vertex 3 9 26.8
      vertex 0 3.8147e-07 26.8
      vertex 30 3.8147e-07 26.8
    endloop
  endfacet
  facet normal 0 0 1
    outer loop
      vertex 0 3.8147e-07 26.8
      vertex 3 9 26.8
      vertex 0 32.4 26.8
    endloop
  endfacet
  facet normal 0 0 -1
    outer loop
      vertex 30 3.8147e-07 25.8
      vertex 27 9 25.8
      vertex 30 32.4 25.8
    endloop
  endfacet
  facet normal 0 0 -1
    outer loop
      vertex 30 3.8147e-07 25.8
      vertex 3 9 25.8
      vertex 27 9 25.8
    endloop
  endfacet
  facet normal 0 0 -1
    outer loop
      vertex 0 32.4 25.8
      vertex 3 9 25.8
      vertex 0 3.8147e-07 25.8
    endloop
  endfacet
  facet normal 0 0 -1
    outer loop
      vertex 0 3.8147e-07 25.8
      vertex 3 9 25.8
      vertex 30 3.8147e-07 25.8
    endloop
  endfacet
  facet normal 0 0 -1
    outer loop
      vertex 27 29.4 25.8
      vertex 30 32.4 25.8
      vertex 27 9 25.8
    endloop
  endfacet
  facet normal 0 0 -1
    outer loop
      vertex 3 29.4 25.8
      vertex 30 32.4 25.8
      vertex 27 29.4 25.8
    endloop
  endfacet
  facet normal 0 0 -1
    outer loop
      vertex 3 29.4 25.8
      vertex 0 32.4 25.8
      vertex 30 32.4 25.8
    endloop
  endfacet
  facet normal 0 0 -1
    outer loop
      vertex 3 9 25.8
      vertex 0 32.4 25.8
      vertex 3 29.4 25.8
    endloop
  endfacet
  facet normal -1 0 0
    outer loop
      vertex 27 9 25.8
      vertex 27 29.4 26.8
      vertex 27 29.4 25.8
    endloop
  endfacet
  facet normal -1 -0 0
    outer loop
      vertex 27 29.4 26.8
      vertex 27 9 25.8
      vertex 27 9 26.8
    endloop
  endfacet
  facet normal 0 1 -0
    outer loop
      vertex 27 9 25.8
      vertex 3 9 26.8
      vertex 27 9 26.8
    endloop
  endfacet
  facet normal 0 1 0
    outer loop
      vertex 3 9 26.8
      vertex 27 9 25.8
      vertex 3 9 25.8
    endloop
  endfacet
  facet normal 0 -1 0
    outer loop
      vertex 3 29.4 25.8
      vertex 27 29.4 26.8
      vertex 3 29.4 26.8
    endloop
  endfacet
  facet normal 0 -1 -0
    outer loop
      vertex 27 29.4 26.8
      vertex 3 29.4 25.8
      vertex 27 29.4 25.8
    endloop
  endfacet
  facet normal 1 -0 0
    outer loop
      vertex 3 9 26.8
      vertex 3 29.4 25.8
      vertex 3 29.4 26.8
    endloop
  endfacet
  facet normal 1 0 0
    outer loop
      vertex 3 29.4 25.8
      vertex 3 9 26.8
      vertex 3 9 25.8
    endloop
  endfacet
endsolid OpenSCAD_Model
