solid OpenSCAD_Model
  facet normal 1 -0 0
    outer loop
      vertex 30 -32.4 26.8
      vertex 30 0 25.8
      vertex 30 0 26.8
    endloop
  endfacet
  facet normal 1 0 0
    outer loop
      vertex 30 0 25.8
      vertex 30 -32.4 26.8
      vertex 30 -32.4 25.8
    endloop
  endfacet
  facet normal 0 -1 0
    outer loop
      vertex 0 -32.4 25.8
      vertex 30 -32.4 26.8
      vertex 0 -32.4 26.8
    endloop
  endfacet
  facet normal 0 -1 -0
    outer loop
      vertex 30 -32.4 26.8
      vertex 0 -32.4 25.8
      vertex 30 -32.4 25.8
    endloop
  endfacet
  facet normal 0 1 -0
    outer loop
      vertex 30 0 25.8
      vertex 0 0 26.8
      vertex 30 0 26.8
    endloop
  endfacet
  facet normal 0 1 0
    outer loop
      vertex 0 0 26.8
      vertex 30 0 25.8
      vertex 0 0 25.8
    endloop
  endfacet
  facet normal -1 0 0
    outer loop
      vertex 0 -32.4 25.8
      vertex 0 0 26.8
      vertex 0 0 25.8
    endloop
  endfacet
  facet normal -1 -0 0
    outer loop
      vertex 0 0 26.8
      vertex 0 -32.4 25.8
      vertex 0 -32.4 26.8
    endloop
  endfacet
  facet normal 0 0 1
    outer loop
      vertex 30 0 26.8
      vertex 26 -10 26.8
      vertex 30 -32.4 26.8
    endloop
  endfacet
  facet normal 0 0 1
    outer loop
      vertex 30 0 26.8
      vertex 4 -10 26.8
      vertex 26 -10 26.8
    endloop
  endfacet
  facet normal 0 0 1
    outer loop
      vertex 0 -32.4 26.8
      vertex 4 -10 26.8
      vertex 0 0 26.8
    endloop
  endfacet
  facet normal -0 0 1
    outer loop
      vertex 0 0 26.8
      vertex 4 -10 26.8
      vertex 30 0 26.8
    endloop
  endfacet
  facet normal -0 0 1
    outer loop
      vertex 26 -28.4 26.8
      vertex 30 -32.4 26.8
      vertex 26 -10 26.8
    endloop
  endfacet
  facet normal -0 0 1
    outer loop
      vertex 4 -28.4 26.8
      vertex 30 -32.4 26.8
      vertex 26 -28.4 26.8
    endloop
  endfacet
  facet normal 0 0 1
    outer loop
      vertex 4 -28.4 26.8
      vertex 0 -32.4 26.8
      vertex 30 -32.4 26.8
    endloop
  endfacet
  facet normal 0 0 1
    outer loop
      vertex 4 -10 26.8
      vertex 0 -32.4 26.8
      vertex 4 -28.4 26.8
    endloop
  endfacet
  facet normal 0 0 -1
    outer loop
      vertex 26 -10 25.8
      vertex 30 -32.4 25.8
      vertex 26 -28.4 25.8
    endloop
  endfacet
  facet normal 0 0 -1
    outer loop
      vertex 30 -32.4 25.8
      vertex 4 -28.4 25.8
      vertex 26 -28.4 25.8
    endloop
  endfacet
  facet normal -0 0 -1
    outer loop
      vertex 4 -28.4 25.8
      vertex 0 -32.4 25.8
      vertex 4 -10 25.8
    endloop
  endfacet
  facet normal 0 0 -1
    outer loop
      vertex 0 -32.4 25.8
      vertex 4 -28.4 25.8
      vertex 30 -32.4 25.8
    endloop
  endfacet
  facet normal 0 0 -1
    outer loop
      vertex 30 -32.4 25.8
      vertex 26 -10 25.8
      vertex 30 0 25.8
    endloop
  endfacet
  facet normal 0 0 -1
    outer loop
      vertex 4 -10 25.8
      vertex 30 0 25.8
      vertex 26 -10 25.8
    endloop
  endfacet
  facet normal 0 0 -1
    outer loop
      vertex 4 -10 25.8
      vertex 0 0 25.8
      vertex 30 0 25.8
    endloop
  endfacet
  facet normal 0 0 -1
    outer loop
      vertex 0 0 25.8
      vertex 4 -10 25.8
      vertex 0 -32.4 25.8
    endloop
  endfacet
  facet normal -1 0 0
    outer loop
      vertex 26 -28.4 25.8
      vertex 26 -10 26.8
      vertex 26 -10 25.8
    endloop
  endfacet
  facet normal -1 -0 0
    outer loop
      vertex 26 -10 26.8
      vertex 26 -28.4 25.8
      vertex 26 -28.4 26.8
    endloop
  endfacet
  facet normal 0 1 -0
    outer loop
      vertex 26 -28.4 25.8
      vertex 4 -28.4 26.8
      vertex 26 -28.4 26.8
    endloop
  endfacet
  facet normal 0 1 0
    outer loop
      vertex 4 -28.4 26.8
      vertex 26 -28.4 25.8
      vertex 4 -28.4 25.8
    endloop
  endfacet
  facet normal 0 -1 0
    outer loop
      vertex 4 -10 25.8
      vertex 26 -10 26.8
      vertex 4 -10 26.8
    endloop
  endfacet
  facet normal 0 -1 -0
    outer loop
      vertex 26 -10 26.8
      vertex 4 -10 25.8
      vertex 26 -10 25.8
    endloop
  endfacet
  facet normal 1 -0 0
    outer loop
      vertex 4 -28.4 26.8
      vertex 4 -10 25.8
      vertex 4 -10 26.8
    endloop
  endfacet
  facet normal 1 0 0
    outer loop
      vertex 4 -10 25.8
      vertex 4 -28.4 26.8
      vertex 4 -28.4 25.8
    endloop
  endfacet
endsolid OpenSCAD_Model
