solid OpenSCAD_Model
  facet normal 1 -0 0
    outer loop
      vertex 0 -1 26.8
      vertex 0 0 0
      vertex 0 0 26.8
    endloop
  endfacet
  facet normal 1 0 0
    outer loop
      vertex 0 0 0
      vertex 0 -1 26.8
      vertex 0 -1 0
    endloop
  endfacet
  facet normal 0 -1 0
    outer loop
      vertex -30 -1 26.8
      vertex -21.182 -1 26
      vertex 0 -1 26.8
    endloop
  endfacet
  facet normal 0 -1 0
    outer loop
      vertex -30 -1 26.8
      vertex -21.182 -1 8
      vertex -21.182 -1 26
    endloop
  endfacet
  facet normal 0 -1 0
    outer loop
      vertex 0 -1 0
      vertex -21.182 -1 8
      vertex -30 -1 0
    endloop
  endfacet
  facet normal 0 -1 0
    outer loop
      vertex -30 -1 0
      vertex -21.182 -1 8
      vertex -30 -1 26.8
    endloop
  endfacet
  facet normal 0 -1 0
    outer loop
      vertex -5.182 -1 26
      vertex 0 -1 26.8
      vertex -21.182 -1 26
    endloop
  endfacet
  facet normal 0 -1 0
    outer loop
      vertex -5.182 -1 8
      vertex 0 -1 26.8
      vertex -5.182 -1 26
    endloop
  endfacet
  facet normal 0 -1 0
    outer loop
      vertex -5.182 -1 8
      vertex 0 -1 0
      vertex 0 -1 26.8
    endloop
  endfacet
  facet normal 0 -1 0
    outer loop
      vertex -21.182 -1 8
      vertex 0 -1 0
      vertex -5.182 -1 8
    endloop
  endfacet
  facet normal 0 1 0
    outer loop
      vertex -21.182 0 26
      vertex 0 0 26.8
      vertex -5.182 0 26
    endloop
  endfacet
  facet normal 0 1 0
    outer loop
      vertex 0 0 26.8
      vertex -5.182 0 8
      vertex -5.182 0 26
    endloop
  endfacet
  facet normal 0 1 0
    outer loop
      vertex -5.182 0 8
      vertex 0 0 0
      vertex -21.182 0 8
    endloop
  endfacet
  facet normal 0 1 -0
    outer loop
      vertex 0 0 0
      vertex -5.182 0 8
      vertex 0 0 26.8
    endloop
  endfacet
  facet normal 0 1 0
    outer loop
      vertex 0 0 26.8
      vertex -21.182 0 26
      vertex -30 0 26.8
    endloop
  endfacet
  facet normal 0 1 -0
    outer loop
      vertex -21.182 0 8
      vertex -30 0 26.8
      vertex -21.182 0 26
    endloop
  endfacet
  facet normal 0 1 0
    outer loop
      vertex -21.182 0 8
      vertex -30 0 0
      vertex -30 0 26.8
    endloop
  endfacet
  facet normal 0 1 0
    outer loop
      vertex -30 0 0
      vertex -21.182 0 8
      vertex 0 0 0
    endloop
  endfacet
  facet normal -1 0 0
    outer loop
      vertex -30 -1 0
      vertex -30 0 26.8
      vertex -30 0 0
    endloop
  endfacet
  facet normal -1 -0 0
    outer loop
      vertex -30 0 26.8
      vertex -30 -1 0
      vertex -30 -1 26.8
    endloop
  endfacet
  facet normal -0 0 1
    outer loop
      vertex -30 0 26.8
      vertex 0 -1 26.8
      vertex 0 0 26.8
    endloop
  endfacet
  facet normal 0 0 1
    outer loop
      vertex 0 -1 26.8
      vertex -30 0 26.8
      vertex -30 -1 26.8
    endloop
  endfacet
  facet normal 0 0 -1
    outer loop
      vertex -30 -1 0
      vertex 0 0 0
      vertex 0 -1 0
    endloop
  endfacet
  facet normal -0 0 -1
    outer loop
      vertex 0 0 0
      vertex -30 -1 0
      vertex -30 0 0
    endloop
  endfacet
  facet normal -1 0 0
    outer loop
      vertex -5.182 -1 8
      vertex -5.182 0 26
      vertex -5.182 0 8
    endloop
  endfacet
  facet normal -1 -0 0
    outer loop
      vertex -5.182 0 26
      vertex -5.182 -1 8
      vertex -5.182 -1 26
    endloop
  endfacet
  facet normal 1 -0 0
    outer loop
      vertex -21.182 -1 26
      vertex -21.182 0 8
      vertex -21.182 0 26
    endloop
  endfacet
  facet normal 1 0 0
    outer loop
      vertex -21.182 0 8
      vertex -21.182 -1 26
      vertex -21.182 -1 8
    endloop
  endfacet
  facet normal 0 0 -1
    outer loop
      vertex -21.182 -1 26
      vertex -5.182 0 26
      vertex -5.182 -1 26
    endloop
  endfacet
  facet normal -0 0 -1
    outer loop
      vertex -5.182 0 26
      vertex -21.182 -1 26
      vertex -21.182 0 26
    endloop
  endfacet
  facet normal -0 0 1
    outer loop
      vertex -21.182 0 8
      vertex -5.182 -1 8
      vertex -5.182 0 8
    endloop
  endfacet
  facet normal 0 0 1
    outer loop
      vertex -5.182 -1 8
      vertex -21.182 0 8
      vertex -21.182 -1 8
    endloop
  endfacet
endsolid OpenSCAD_Model
