solid OpenSCAD_Model
  facet normal 1 -0 0
    outer loop
      vertex 0 0 26.8
      vertex 0 1 0
      vertex 0 1 26.8
    endloop
  endfacet
  facet normal 1 0 0
    outer loop
      vertex 0 1 0
      vertex 0 0 26.8
      vertex 0 0 0
    endloop
  endfacet
  facet normal 0 -1 0
    outer loop
      vertex -30 0 26.8
      vertex -21.182 0 23
      vertex 0 0 26.8
    endloop
  endfacet
  facet normal 0 -1 0
    outer loop
      vertex -30 0 26.8
      vertex -21.182 0 5
      vertex -21.182 0 23
    endloop
  endfacet
  facet normal 0 -1 0
    outer loop
      vertex 0 0 0
      vertex -21.182 0 5
      vertex -30 0 0
    endloop
  endfacet
  facet normal 0 -1 0
    outer loop
      vertex -30 0 0
      vertex -21.182 0 5
      vertex -30 0 26.8
    endloop
  endfacet
  facet normal 0 -1 0
    outer loop
      vertex -5.182 0 23
      vertex 0 0 26.8
      vertex -21.182 0 23
    endloop
  endfacet
  facet normal 0 -1 0
    outer loop
      vertex -5.182 0 5
      vertex 0 0 26.8
      vertex -5.182 0 23
    endloop
  endfacet
  facet normal 0 -1 0
    outer loop
      vertex -5.182 0 5
      vertex 0 0 0
      vertex 0 0 26.8
    endloop
  endfacet
  facet normal 0 -1 0
    outer loop
      vertex -21.182 0 5
      vertex 0 0 0
      vertex -5.182 0 5
    endloop
  endfacet
  facet normal 0 1 0
    outer loop
      vertex -21.182 1 23
      vertex 0 1 26.8
      vertex -5.182 1 23
    endloop
  endfacet
  facet normal 0 1 0
    outer loop
      vertex 0 1 26.8
      vertex -5.182 1 5
      vertex -5.182 1 23
    endloop
  endfacet
  facet normal 0 1 0
    outer loop
      vertex -5.182 1 5
      vertex 0 1 0
      vertex -21.182 1 5
    endloop
  endfacet
  facet normal 0 1 -0
    outer loop
      vertex 0 1 0
      vertex -5.182 1 5
      vertex 0 1 26.8
    endloop
  endfacet
  facet normal 0 1 0
    outer loop
      vertex 0 1 26.8
      vertex -21.182 1 23
      vertex -30 1 26.8
    endloop
  endfacet
  facet normal 0 1 -0
    outer loop
      vertex -21.182 1 5
      vertex -30 1 26.8
      vertex -21.182 1 23
    endloop
  endfacet
  facet normal 0 1 0
    outer loop
      vertex -21.182 1 5
      vertex -30 1 0
      vertex -30 1 26.8
    endloop
  endfacet
  facet normal 0 1 0
    outer loop
      vertex -30 1 0
      vertex -21.182 1 5
      vertex 0 1 0
    endloop
  endfacet
  facet normal -1 0 0
    outer loop
      vertex -30 0 0
      vertex -30 1 26.8
      vertex -30 1 0
    endloop
  endfacet
  facet normal -1 -0 0
    outer loop
      vertex -30 1 26.8
      vertex -30 0 0
      vertex -30 0 26.8
    endloop
  endfacet
  facet normal -0 0 1
    outer loop
      vertex -30 1 26.8
      vertex 0 0 26.8
      vertex 0 1 26.8
    endloop
  endfacet
  facet normal 0 0 1
    outer loop
      vertex 0 0 26.8
      vertex -30 1 26.8
      vertex -30 0 26.8
    endloop
  endfacet
  facet normal 0 0 -1
    outer loop
      vertex -30 0 0
      vertex 0 1 0
      vertex 0 0 0
    endloop
  endfacet
  facet normal -0 0 -1
    outer loop
      vertex 0 1 0
      vertex -30 0 0
      vertex -30 1 0
    endloop
  endfacet
  facet normal -1 0 0
    outer loop
      vertex -5.182 0 5
      vertex -5.182 1 23
      vertex -5.182 1 5
    endloop
  endfacet
  facet normal -1 -0 0
    outer loop
      vertex -5.182 1 23
      vertex -5.182 0 5
      vertex -5.182 0 23
    endloop
  endfacet
  facet normal 1 -0 0
    outer loop
      vertex -21.182 0 23
      vertex -21.182 1 5
      vertex -21.182 1 23
    endloop
  endfacet
  facet normal 1 0 0
    outer loop
      vertex -21.182 1 5
      vertex -21.182 0 23
      vertex -21.182 0 5
    endloop
  endfacet
  facet normal 0 0 -1
    outer loop
      vertex -21.182 0 23
      vertex -5.182 1 23
      vertex -5.182 0 23
    endloop
  endfacet
  facet normal -0 0 -1
    outer loop
      vertex -5.182 1 23
      vertex -21.182 0 23
      vertex -21.182 1 23
    endloop
  endfacet
  facet normal -0 0 1
    outer loop
      vertex -21.182 1 5
      vertex -5.182 0 5
      vertex -5.182 1 5
    endloop
  endfacet
  facet normal 0 0 1
    outer loop
      vertex -5.182 0 5
      vertex -21.182 1 5
      vertex -21.182 0 5
    endloop
  endfacet
endsolid OpenSCAD_Model
