solid OpenSCAD_Model
  facet normal 1 -0 0
    outer loop
      vertex -5.72205e-07 0 26.8
      vertex -5.72205e-07 1 0
      vertex -5.72205e-07 1 26.8
    endloop
  endfacet
  facet normal 1 0 0
    outer loop
      vertex -5.72205e-07 1 0
      vertex -5.72205e-07 0 26.8
      vertex -5.72205e-07 0 0
    endloop
  endfacet
  facet normal 0 -1 0
    outer loop
      vertex -29.85 0 26.8
      vertex -21.032 0 23
      vertex -5.72205e-07 0 26.8
    endloop
  endfacet
  facet normal 0 -1 0
    outer loop
      vertex -29.85 0 26.8
      vertex -21.032 0 5
      vertex -21.032 0 23
    endloop
  endfacet
  facet normal 0 -1 0
    outer loop
      vertex -5.72205e-07 0 0
      vertex -21.032 0 5
      vertex -29.85 0 0
    endloop
  endfacet
  facet normal 0 -1 0
    outer loop
      vertex -29.85 0 0
      vertex -21.032 0 5
      vertex -29.85 0 26.8
    endloop
  endfacet
  facet normal 0 -1 0
    outer loop
      vertex -5.032 0 23
      vertex -5.72205e-07 0 26.8
      vertex -21.032 0 23
    endloop
  endfacet
  facet normal 0 -1 0
    outer loop
      vertex -5.032 0 5
      vertex -5.72205e-07 0 26.8
      vertex -5.032 0 23
    endloop
  endfacet
  facet normal 0 -1 0
    outer loop
      vertex -5.032 0 5
      vertex -5.72205e-07 0 0
      vertex -5.72205e-07 0 26.8
    endloop
  endfacet
  facet normal 0 -1 0
    outer loop
      vertex -21.032 0 5
      vertex -5.72205e-07 0 0
      vertex -5.032 0 5
    endloop
  endfacet
  facet normal 0 1 0
    outer loop
      vertex -21.032 1 23
      vertex -5.72205e-07 1 26.8
      vertex -5.032 1 23
    endloop
  endfacet
  facet normal 0 1 0
    outer loop
      vertex -5.72205e-07 1 26.8
      vertex -5.032 1 5
      vertex -5.032 1 23
    endloop
  endfacet
  facet normal 0 1 0
    outer loop
      vertex -5.032 1 5
      vertex -5.72205e-07 1 0
      vertex -21.032 1 5
    endloop
  endfacet
  facet normal 0 1 -0
    outer loop
      vertex -5.72205e-07 1 0
      vertex -5.032 1 5
      vertex -5.72205e-07 1 26.8
    endloop
  endfacet
  facet normal 0 1 0
    outer loop
      vertex -5.72205e-07 1 26.8
      vertex -21.032 1 23
      vertex -29.85 1 26.8
    endloop
  endfacet
  facet normal 0 1 -0
    outer loop
      vertex -21.032 1 5
      vertex -29.85 1 26.8
      vertex -21.032 1 23
    endloop
  endfacet
  facet normal 0 1 0
    outer loop
      vertex -21.032 1 5
      vertex -29.85 1 0
      vertex -29.85 1 26.8
    endloop
  endfacet
  facet normal 0 1 0
    outer loop
      vertex -29.85 1 0
      vertex -21.032 1 5
      vertex -5.72205e-07 1 0
    endloop
  endfacet
  facet normal -1 0 0
    outer loop
      vertex -29.85 0 0
      vertex -29.85 1 26.8
      vertex -29.85 1 0
    endloop
  endfacet
  facet normal -1 -0 0
    outer loop
      vertex -29.85 1 26.8
      vertex -29.85 0 0
      vertex -29.85 0 26.8
    endloop
  endfacet
  facet normal -0 0 1
    outer loop
      vertex -29.85 1 26.8
      vertex -5.72205e-07 0 26.8
      vertex -5.72205e-07 1 26.8
    endloop
  endfacet
  facet normal 0 0 1
    outer loop
      vertex -5.72205e-07 0 26.8
      vertex -29.85 1 26.8
      vertex -29.85 0 26.8
    endloop
  endfacet
  facet normal 0 0 -1
    outer loop
      vertex -29.85 0 0
      vertex -5.72205e-07 1 0
      vertex -5.72205e-07 0 0
    endloop
  endfacet
  facet normal -0 0 -1
    outer loop
      vertex -5.72205e-07 1 0
      vertex -29.85 0 0
      vertex -29.85 1 0
    endloop
  endfacet
  facet normal -1 0 0
    outer loop
      vertex -5.032 0 5
      vertex -5.032 1 23
      vertex -5.032 1 5
    endloop
  endfacet
  facet normal -1 -0 0
    outer loop
      vertex -5.032 1 23
      vertex -5.032 0 5
      vertex -5.032 0 23
    endloop
  endfacet
  facet normal 1 -0 0
    outer loop
      vertex -21.032 0 23
      vertex -21.032 1 5
      vertex -21.032 1 23
    endloop
  endfacet
  facet normal 1 0 0
    outer loop
      vertex -21.032 1 5
      vertex -21.032 0 23
      vertex -21.032 0 5
    endloop
  endfacet
  facet normal 0 0 -1
    outer loop
      vertex -21.032 0 23
      vertex -5.032 1 23
      vertex -5.032 0 23
    endloop
  endfacet
  facet normal -0 0 -1
    outer loop
      vertex -5.032 1 23
      vertex -21.032 0 23
      vertex -21.032 1 23
    endloop
  endfacet
  facet normal -0 0 1
    outer loop
      vertex -21.032 1 5
      vertex -5.032 0 5
      vertex -5.032 1 5
    endloop
  endfacet
  facet normal 0 0 1
    outer loop
      vertex -5.032 0 5
      vertex -21.032 1 5
      vertex -21.032 0 5
    endloop
  endfacet
endsolid OpenSCAD_Model
