solid OpenSCAD_Model
  facet normal -1 0 0
    outer loop
      vertex -14.325 0.0499992 0
      vertex -14.325 5 2.4
      vertex -14.325 5 0
    endloop
  endfacet
  facet normal -1 -0 0
    outer loop
      vertex -14.325 5 2.4
      vertex -14.325 0.0499992 0
      vertex -14.325 0.0499992 2.4
    endloop
  endfacet
  facet normal -0 0 1
    outer loop
      vertex -14.325 5 2.4
      vertex -9.73 0.0499992 2.4
      vertex -9.73 5 2.4
    endloop
  endfacet
  facet normal 0 0 1
    outer loop
      vertex -9.73 0.0499992 2.4
      vertex -14.325 5 2.4
      vertex -14.325 0.0499992 2.4
    endloop
  endfacet
  facet normal 0 0 -1
    outer loop
      vertex 0 0 0
      vertex -0.179999 0.0499992 0
      vertex 0 6 0
    endloop
  endfacet
  facet normal 0 0 -1
    outer loop
      vertex 0 0 0
      vertex -4.775 0.0499992 0
      vertex -0.179999 0.0499992 0
    endloop
  endfacet
  facet normal 0 0 -1
    outer loop
      vertex -4.775 0.0499992 0
      vertex -4.955 0.0499992 0
      vertex -4.775 5 0
    endloop
  endfacet
  facet normal 0 0 -1
    outer loop
      vertex 0 0 0
      vertex -4.955 0.0499992 0
      vertex -4.775 0.0499992 0
    endloop
  endfacet
  facet normal 0 0 -1
    outer loop
      vertex 0 0 0
      vertex -9.55 0.0499992 0
      vertex -4.955 0.0499992 0
    endloop
  endfacet
  facet normal 0 0 -1
    outer loop
      vertex -9.55 0.0499992 0
      vertex -9.73 5 0
      vertex -9.55 5 0
    endloop
  endfacet
  facet normal 0 0 -1
    outer loop
      vertex -9.55 0.0499992 0
      vertex -14.325 0.0499992 0
      vertex -9.73 5 0
    endloop
  endfacet
  facet normal 0 0 -1
    outer loop
      vertex 0 0 0
      vertex -14.325 0.0499992 0
      vertex -9.55 0.0499992 0
    endloop
  endfacet
  facet normal 0 0 -1
    outer loop
      vertex 0 0 0
      vertex -14.505 0.0499992 0
      vertex -14.325 0.0499992 0
    endloop
  endfacet
  facet normal 0 0 -1
    outer loop
      vertex -14.505 0.0499992 0
      vertex -18.92 5 0
      vertex -14.505 5 0
    endloop
  endfacet
  facet normal 0 0 -1
    outer loop
      vertex -19.1 0 0
      vertex -14.505 0.0499992 0
      vertex 0 0 0
    endloop
  endfacet
  facet normal 0 0 -1
    outer loop
      vertex -19.1 0 0
      vertex -18.92 5 0
      vertex -14.505 0.0499992 0
    endloop
  endfacet
  facet normal 0 0 -1
    outer loop
      vertex -19.1 6 0
      vertex -18.92 5 0
      vertex -19.1 0 0
    endloop
  endfacet
  facet normal 0 0 -1
    outer loop
      vertex -18.92 5 0
      vertex -19.1 6 0
      vertex -18.92 6 0
    endloop
  endfacet
  facet normal -0 0 -1
    outer loop
      vertex 0 6 0
      vertex -0.179999 0.0499992 0
      vertex -0.179999 6 0
    endloop
  endfacet
  facet normal -0 0 -1
    outer loop
      vertex -4.775 5 0
      vertex -4.955 0.0499992 0
      vertex -4.955 5 0
    endloop
  endfacet
  facet normal -0 0 -1
    outer loop
      vertex -9.73 5 0
      vertex -14.325 0.0499992 0
      vertex -14.325 5 0
    endloop
  endfacet
  facet normal 1 -0 0
    outer loop
      vertex -9.73 0.0499992 2.4
      vertex -9.73 5 0
      vertex -9.73 5 2.4
    endloop
  endfacet
  facet normal 1 0 0
    outer loop
      vertex -9.73 5 0
      vertex -9.73 0.0499992 2.4
      vertex -9.73 0.0499992 0
    endloop
  endfacet
  facet normal 0 1 -0
    outer loop
      vertex -9.73 5 0
      vertex -14.325 5 2.4
      vertex -9.73 5 2.4
    endloop
  endfacet
  facet normal 0 1 0
    outer loop
      vertex -14.325 5 2.4
      vertex -9.73 5 0
      vertex -14.325 5 0
    endloop
  endfacet
  facet normal 0 -1 0
    outer loop
      vertex -19.1 0 0
      vertex 0 0 26.8
      vertex -19.1 0 26.8
    endloop
  endfacet
  facet normal 0 -1 -0
    outer loop
      vertex 0 0 26.8
      vertex -19.1 0 0
      vertex 0 0 0
    endloop
  endfacet
  facet normal -1 0 0
    outer loop
      vertex -14.325 0.0499992 2.5
      vertex -14.325 5 4.9
      vertex -14.325 5 2.5
    endloop
  endfacet
  facet normal -1 -0 0
    outer loop
      vertex -14.325 5 4.9
      vertex -14.325 0.0499992 2.5
      vertex -14.325 0.0499992 4.9
    endloop
  endfacet
  facet normal -0 0 1
    outer loop
      vertex -14.325 5 4.9
      vertex -9.73 0.0499992 4.9
      vertex -9.73 5 4.9
    endloop
  endfacet
  facet normal 0 0 1
    outer loop
      vertex -9.73 0.0499992 4.9
      vertex -14.325 5 4.9
      vertex -14.325 0.0499992 4.9
    endloop
  endfacet
  facet normal 0 0 -1
    outer loop
      vertex -14.325 0.0499992 2.5
      vertex -9.73 5 2.5
      vertex -9.73 0.0499992 2.5
    endloop
  endfacet
  facet normal -0 0 -1
    outer loop
      vertex -9.73 5 2.5
      vertex -14.325 0.0499992 2.5
      vertex -14.325 5 2.5
    endloop
  endfacet
  facet normal 1 -0 0
    outer loop
      vertex -9.73 0.0499992 4.9
      vertex -9.73 5 2.5
      vertex -9.73 5 4.9
    endloop
  endfacet
  facet normal 1 0 0
    outer loop
      vertex -9.73 5 2.5
      vertex -9.73 0.0499992 4.9
      vertex -9.73 0.0499992 2.5
    endloop
  endfacet
  facet normal 0 1 -0
    outer loop
      vertex -9.73 5 2.5
      vertex -14.325 5 4.9
      vertex -9.73 5 4.9
    endloop
  endfacet
  facet normal 0 1 0
    outer loop
      vertex -14.325 5 4.9
      vertex -9.73 5 2.5
      vertex -14.325 5 2.5
    endloop
  endfacet
  facet normal -0 0 1
    outer loop
      vertex -18.92 5 2.4
      vertex -14.505 0.0499992 2.4
      vertex -14.505 5 2.4
    endloop
  endfacet
  facet normal 0 0 1
    outer loop
      vertex -14.505 0.0499992 2.4
      vertex -18.92 5 2.4
      vertex -18.92 0.0499992 2.4
    endloop
  endfacet
  facet normal 1 -0 0
    outer loop
      vertex -14.505 0.0499992 2.4
      vertex -14.505 5 0
      vertex -14.505 5 2.4
    endloop
  endfacet
  facet normal 1 0 0
    outer loop
      vertex -14.505 5 0
      vertex -14.505 0.0499992 2.4
      vertex -14.505 0.0499992 0
    endloop
  endfacet
  facet normal 0 1 -0
    outer loop
      vertex -14.505 5 0
      vertex -18.92 5 2.4
      vertex -14.505 5 2.4
    endloop
  endfacet
  facet normal 0 1 0
    outer loop
      vertex -18.92 5 2.4
      vertex -14.505 5 0
      vertex -18.92 5 0
    endloop
  endfacet
  facet normal -0 0 1
    outer loop
      vertex -18.92 5 4.9
      vertex -14.505 0.0499992 4.9
      vertex -14.505 5 4.9
    endloop
  endfacet
  facet normal 0 0 1
    outer loop
      vertex -14.505 0.0499992 4.9
      vertex -18.92 5 4.9
      vertex -18.92 0.0499992 4.9
    endloop
  endfacet
  facet normal 0 0 -1
    outer loop
      vertex -18.92 0.0499992 2.5
      vertex -14.505 5 2.5
      vertex -14.505 0.0499992 2.5
    endloop
  endfacet
  facet normal -0 0 -1
    outer loop
      vertex -14.505 5 2.5
      vertex -18.92 0.0499992 2.5
      vertex -18.92 5 2.5
    endloop
  endfacet
  facet normal 1 -0 0
    outer loop
      vertex -14.505 0.0499992 4.9
      vertex -14.505 5 2.5
      vertex -14.505 5 4.9
    endloop
  endfacet
  facet normal 1 0 0
    outer loop
      vertex -14.505 5 2.5
      vertex -14.505 0.0499992 4.9
      vertex -14.505 0.0499992 2.5
    endloop
  endfacet
  facet normal 0 1 -0
    outer loop
      vertex -14.505 5 2.5
      vertex -18.92 5 4.9
      vertex -14.505 5 4.9
    endloop
  endfacet
  facet normal 0 1 0
    outer loop
      vertex -18.92 5 4.9
      vertex -14.505 5 2.5
      vertex -18.92 5 2.5
    endloop
  endfacet
  facet normal -1 0 0
    outer loop
      vertex -4.775 0.0499992 5
      vertex -4.775 5 5.16
      vertex -4.775 5 5
    endloop
  endfacet
  facet normal -1 -0 0
    outer loop
      vertex -4.775 5 5.16
      vertex -4.775 0.0499992 5
      vertex -4.775 0.0499992 5.16
    endloop
  endfacet
  facet normal -0 0 1
    outer loop
      vertex -4.775 5 5.16
      vertex -0.18 0.0499992 5.16
      vertex -0.18 5 5.16
    endloop
  endfacet
  facet normal 0 0 1
    outer loop
      vertex -0.18 0.0499992 5.16
      vertex -4.775 5 5.16
      vertex -4.775 0.0499992 5.16
    endloop
  endfacet
  facet normal 0 0 -1
    outer loop
      vertex -4.775 0.0499992 5
      vertex -0.18 5 5
      vertex -0.18 0.0499992 5
    endloop
  endfacet
  facet normal -0 0 -1
    outer loop
      vertex -0.18 5 5
      vertex -4.775 0.0499992 5
      vertex -4.775 5 5
    endloop
  endfacet
  facet normal 1 -0 0
    outer loop
      vertex -0.18 0.0499992 5.16
      vertex -0.18 5 5
      vertex -0.18 5 5.16
    endloop
  endfacet
  facet normal 1 0 0
    outer loop
      vertex -0.18 5 5
      vertex -0.18 0.0499992 5.16
      vertex -0.18 0.0499992 5
    endloop
  endfacet
  facet normal 0 1 -0
    outer loop
      vertex -0.18 5 5
      vertex -4.775 5 5.16
      vertex -0.18 5 5.16
    endloop
  endfacet
  facet normal 0 1 0
    outer loop
      vertex -4.775 5 5.16
      vertex -0.18 5 5
      vertex -4.775 5 5
    endloop
  endfacet
  facet normal -1 0 0
    outer loop
      vertex -4.775 0.0499992 9.36
      vertex -4.775 5 9.52
      vertex -4.775 5 9.36
    endloop
  endfacet
  facet normal -1 -0 0
    outer loop
      vertex -4.775 5 9.52
      vertex -4.775 0.0499992 9.36
      vertex -4.775 0.0499992 9.52
    endloop
  endfacet
  facet normal -0 0 1
    outer loop
      vertex -4.775 5 9.52
      vertex -0.18 0.0499992 9.52
      vertex -0.18 5 9.52
    endloop
  endfacet
  facet normal 0 0 1
    outer loop
      vertex -0.18 0.0499992 9.52
      vertex -4.775 5 9.52
      vertex -4.775 0.0499992 9.52
    endloop
  endfacet
  facet normal 0 0 -1
    outer loop
      vertex -4.775 0.0499992 9.36
      vertex -0.18 5 9.36
      vertex -0.18 0.0499992 9.36
    endloop
  endfacet
  facet normal -0 0 -1
    outer loop
      vertex -0.18 5 9.36
      vertex -4.775 0.0499992 9.36
      vertex -4.775 5 9.36
    endloop
  endfacet
  facet normal 1 -0 0
    outer loop
      vertex -0.18 0.0499992 9.52
      vertex -0.18 5 9.36
      vertex -0.18 5 9.52
    endloop
  endfacet
  facet normal 1 0 0
    outer loop
      vertex -0.18 5 9.36
      vertex -0.18 0.0499992 9.52
      vertex -0.18 0.0499992 9.36
    endloop
  endfacet
  facet normal 0 1 -0
    outer loop
      vertex -0.18 5 9.36
      vertex -4.775 5 9.52
      vertex -0.18 5 9.52
    endloop
  endfacet
  facet normal 0 1 0
    outer loop
      vertex -4.775 5 9.52
      vertex -0.18 5 9.36
      vertex -4.775 5 9.36
    endloop
  endfacet
  facet normal -1 0 0
    outer loop
      vertex -4.775 0.0499992 13.72
      vertex -4.775 5 13.88
      vertex -4.775 5 13.72
    endloop
  endfacet
  facet normal -1 -0 0
    outer loop
      vertex -4.775 5 13.88
      vertex -4.775 0.0499992 13.72
      vertex -4.775 0.0499992 13.88
    endloop
  endfacet
  facet normal -0 0 1
    outer loop
      vertex -4.775 5 13.88
      vertex -0.18 0.0499992 13.88
      vertex -0.18 5 13.88
    endloop
  endfacet
  facet normal 0 0 1
    outer loop
      vertex -0.18 0.0499992 13.88
      vertex -4.775 5 13.88
      vertex -4.775 0.0499992 13.88
    endloop
  endfacet
  facet normal 0 0 -1
    outer loop
      vertex -4.775 0.0499992 13.72
      vertex -0.18 5 13.72
      vertex -0.18 0.0499992 13.72
    endloop
  endfacet
  facet normal -0 0 -1
    outer loop
      vertex -0.18 5 13.72
      vertex -4.775 0.0499992 13.72
      vertex -4.775 5 13.72
    endloop
  endfacet
  facet normal 1 -0 0
    outer loop
      vertex -0.18 0.0499992 13.88
      vertex -0.18 5 13.72
      vertex -0.18 5 13.88
    endloop
  endfacet
  facet normal 1 0 0
    outer loop
      vertex -0.18 5 13.72
      vertex -0.18 0.0499992 13.88
      vertex -0.18 0.0499992 13.72
    endloop
  endfacet
  facet normal 0 1 -0
    outer loop
      vertex -0.18 5 13.72
      vertex -4.775 5 13.88
      vertex -0.18 5 13.88
    endloop
  endfacet
  facet normal 0 1 0
    outer loop
      vertex -4.775 5 13.88
      vertex -0.18 5 13.72
      vertex -4.775 5 13.72
    endloop
  endfacet
  facet normal -1 0 0
    outer loop
      vertex -4.775 0.0499992 18.08
      vertex -4.775 5 18.24
      vertex -4.775 5 18.08
    endloop
  endfacet
  facet normal -1 -0 0
    outer loop
      vertex -4.775 5 18.24
      vertex -4.775 0.0499992 18.08
      vertex -4.775 0.0499992 18.24
    endloop
  endfacet
  facet normal -0 0 1
    outer loop
      vertex -4.775 5 18.24
      vertex -0.18 0.0499992 18.24
      vertex -0.18 5 18.24
    endloop
  endfacet
  facet normal 0 0 1
    outer loop
      vertex -0.18 0.0499992 18.24
      vertex -4.775 5 18.24
      vertex -4.775 0.0499992 18.24
    endloop
  endfacet
  facet normal 0 0 -1
    outer loop
      vertex -4.775 0.0499992 18.08
      vertex -0.18 5 18.08
      vertex -0.18 0.0499992 18.08
    endloop
  endfacet
  facet normal -0 0 -1
    outer loop
      vertex -0.18 5 18.08
      vertex -4.775 0.0499992 18.08
      vertex -4.775 5 18.08
    endloop
  endfacet
  facet normal 1 -0 0
    outer loop
      vertex -0.18 0.0499992 18.24
      vertex -0.18 5 18.08
      vertex -0.18 5 18.24
    endloop
  endfacet
  facet normal 1 0 0
    outer loop
      vertex -0.18 5 18.08
      vertex -0.18 0.0499992 18.24
      vertex -0.18 0.0499992 18.08
    endloop
  endfacet
  facet normal 0 1 -0
    outer loop
      vertex -0.18 5 18.08
      vertex -4.775 5 18.24
      vertex -0.18 5 18.24
    endloop
  endfacet
  facet normal 0 1 0
    outer loop
      vertex -4.775 5 18.24
      vertex -0.18 5 18.08
      vertex -4.775 5 18.08
    endloop
  endfacet
  facet normal -1 0 0
    outer loop
      vertex -4.775 0.0499992 22.44
      vertex -4.775 5 22.6
      vertex -4.775 5 22.44
    endloop
  endfacet
  facet normal -1 -0 0
    outer loop
      vertex -4.775 5 22.6
      vertex -4.775 0.0499992 22.44
      vertex -4.775 0.0499992 22.6
    endloop
  endfacet
  facet normal -0 0 1
    outer loop
      vertex -4.775 5 22.6
      vertex -0.18 0.0499992 22.6
      vertex -0.18 5 22.6
    endloop
  endfacet
  facet normal 0 0 1
    outer loop
      vertex -0.18 0.0499992 22.6
      vertex -4.775 5 22.6
      vertex -4.775 0.0499992 22.6
    endloop
  endfacet
  facet normal 0 0 -1
    outer loop
      vertex -4.775 0.0499992 22.44
      vertex -0.18 5 22.44
      vertex -0.18 0.0499992 22.44
    endloop
  endfacet
  facet normal -0 0 -1
    outer loop
      vertex -0.18 5 22.44
      vertex -4.775 0.0499992 22.44
      vertex -4.775 5 22.44
    endloop
  endfacet
  facet normal 1 -0 0
    outer loop
      vertex -0.18 0.0499992 22.6
      vertex -0.18 5 22.44
      vertex -0.18 5 22.6
    endloop
  endfacet
  facet normal 1 0 0
    outer loop
      vertex -0.18 5 22.44
      vertex -0.18 0.0499992 22.6
      vertex -0.18 0.0499992 22.44
    endloop
  endfacet
  facet normal 0 1 -0
    outer loop
      vertex -0.18 5 22.44
      vertex -4.775 5 22.6
      vertex -0.18 5 22.6
    endloop
  endfacet
  facet normal 0 1 0
    outer loop
      vertex -4.775 5 22.6
      vertex -0.18 5 22.44
      vertex -4.775 5 22.44
    endloop
  endfacet
  facet normal -0 0 1
    outer loop
      vertex -9.55 5 5.16
      vertex -4.955 0.0499992 5.16
      vertex -4.955 5 5.16
    endloop
  endfacet
  facet normal 0 0 1
    outer loop
      vertex -4.955 0.0499992 5.16
      vertex -9.55 5 5.16
      vertex -9.55 0.0499992 5.16
    endloop
  endfacet
  facet normal 0 0 -1
    outer loop
      vertex -9.55 0.0499992 5
      vertex -4.955 5 5
      vertex -4.955 0.0499992 5
    endloop
  endfacet
  facet normal -0 0 -1
    outer loop
      vertex -4.955 5 5
      vertex -9.55 0.0499992 5
      vertex -9.55 5 5
    endloop
  endfacet
  facet normal 1 -0 0
    outer loop
      vertex -4.955 0.0499992 5.16
      vertex -4.955 5 5
      vertex -4.955 5 5.16
    endloop
  endfacet
  facet normal 1 0 0
    outer loop
      vertex -4.955 5 5
      vertex -4.955 0.0499992 5.16
      vertex -4.955 0.0499992 5
    endloop
  endfacet
  facet normal 0 1 0
    outer loop
      vertex -4.955 5 5.16
      vertex -4.955 5 5
      vertex -9.55 5 5.16
    endloop
  endfacet
  facet normal 0 1 0
    outer loop
      vertex -4.955 5 9.52
      vertex -4.955 5 9.36
      vertex -9.55 5 9.52
    endloop
  endfacet
  facet normal 0 1 0
    outer loop
      vertex -4.955 5 13.88
      vertex -4.955 5 13.72
      vertex -9.55 5 13.88
    endloop
  endfacet
  facet normal 0 1 0
    outer loop
      vertex -4.955 5 18.24
      vertex -4.955 5 18.08
      vertex -9.55 5 18.24
    endloop
  endfacet
  facet normal 0 1 0
    outer loop
      vertex -4.955 5 22.6
      vertex -4.955 5 22.44
      vertex -9.55 5 22.6
    endloop
  endfacet
  facet normal 0 1 0
    outer loop
      vertex -9.55 5 26.62
      vertex -9.73 5 23.58
      vertex -9.73 5 26.62
    endloop
  endfacet
  facet normal 0 1 0
    outer loop
      vertex -9.73 5 23.58
      vertex -9.73 5 23.4
      vertex -18.92 5 23.58
    endloop
  endfacet
  facet normal 0 1 -0
    outer loop
      vertex -9.55 5 22.6
      vertex -9.73 5 23.58
      vertex -9.55 5 26.62
    endloop
  endfacet
  facet normal 0 1 0
    outer loop
      vertex -9.73 5 23.58
      vertex -9.55 5 22.6
      vertex -9.73 5 23.4
    endloop
  endfacet
  facet normal 0 1 0
    outer loop
      vertex -9.55 5 22.44
      vertex -9.55 5 22.6
      vertex -4.955 5 22.44
    endloop
  endfacet
  facet normal 0 1 -0
    outer loop
      vertex -9.55 5 22.44
      vertex -9.73 5 23.4
      vertex -9.55 5 22.6
    endloop
  endfacet
  facet normal 0 1 0
    outer loop
      vertex -9.55 5 22.44
      vertex -9.73 5 20.18
      vertex -9.73 5 23.4
    endloop
  endfacet
  facet normal 0 1 0
    outer loop
      vertex -9.73 5 20.18
      vertex -9.73 5 20
      vertex -18.92 5 20.18
    endloop
  endfacet
  facet normal 0 1 -0
    outer loop
      vertex -9.55 5 18.24
      vertex -9.73 5 20.18
      vertex -9.55 5 22.44
    endloop
  endfacet
  facet normal 0 1 0
    outer loop
      vertex -9.73 5 20.18
      vertex -9.55 5 18.24
      vertex -9.73 5 20
    endloop
  endfacet
  facet normal 0 1 0
    outer loop
      vertex -9.55 5 18.08
      vertex -9.55 5 18.24
      vertex -4.955 5 18.08
    endloop
  endfacet
  facet normal 0 1 -0
    outer loop
      vertex -9.55 5 18.08
      vertex -9.73 5 20
      vertex -9.55 5 18.24
    endloop
  endfacet
  facet normal 0 1 -0
    outer loop
      vertex -9.55 5 13.88
      vertex -9.73 5 20
      vertex -9.55 5 18.08
    endloop
  endfacet
  facet normal 0 1 0
    outer loop
      vertex -9.55 5 13.72
      vertex -9.55 5 13.88
      vertex -4.955 5 13.72
    endloop
  endfacet
  facet normal 0 1 -0
    outer loop
      vertex -9.55 5 13.72
      vertex -9.73 5 20
      vertex -9.55 5 13.88
    endloop
  endfacet
  facet normal 0 1 0
    outer loop
      vertex -9.73 5 5.18
      vertex -9.55 5 13.72
      vertex -9.55 5 9.52
    endloop
  endfacet
  facet normal 0 1 0
    outer loop
      vertex -9.55 5 9.36
      vertex -9.55 5 9.52
      vertex -4.955 5 9.36
    endloop
  endfacet
  facet normal 0 1 0
    outer loop
      vertex -9.73 5 5.18
      vertex -9.55 5 9.52
      vertex -9.55 5 9.36
    endloop
  endfacet
  facet normal 0 1 0
    outer loop
      vertex -9.55 5 13.72
      vertex -9.73 5 5.18
      vertex -9.73 5 20
    endloop
  endfacet
  facet normal 0 1 -0
    outer loop
      vertex -9.55 5 5.16
      vertex -9.73 5 5.18
      vertex -9.55 5 9.36
    endloop
  endfacet
  facet normal 0 1 0
    outer loop
      vertex -9.73 5 5
      vertex -9.73 5 5.18
      vertex -9.55 5 5.16
    endloop
  endfacet
  facet normal 0 1 0
    outer loop
      vertex -9.55 5 5
      vertex -9.55 5 5.16
      vertex -4.955 5 5
    endloop
  endfacet
  facet normal 0 1 0
    outer loop
      vertex -9.73 5 5
      vertex -9.55 5 5.16
      vertex -9.55 5 5
    endloop
  endfacet
  facet normal 0 1 0
    outer loop
      vertex -9.73 5 5.18
      vertex -9.73 5 5
      vertex -18.92 5 5.18
    endloop
  endfacet
  facet normal 0 1 0
    outer loop
      vertex -18.92 5 5.18
      vertex -9.73 5 5
      vertex -18.92 5 5
    endloop
  endfacet
  facet normal 0 1 0
    outer loop
      vertex -18.92 5 23.58
      vertex -9.73 5 23.4
      vertex -18.92 5 23.4
    endloop
  endfacet
  facet normal 0 1 0
    outer loop
      vertex -18.92 5 20.18
      vertex -9.73 5 20
      vertex -18.92 5 20
    endloop
  endfacet
  facet normal 0 1 -0
    outer loop
      vertex -9.55 5 0
      vertex -9.73 5 5
      vertex -9.55 5 5
    endloop
  endfacet
  facet normal 0 1 0
    outer loop
      vertex -9.73 5 5
      vertex -9.55 5 0
      vertex -9.73 5 0
    endloop
  endfacet
  facet normal -0 0 1
    outer loop
      vertex -9.55 5 9.52
      vertex -4.955 0.0499992 9.52
      vertex -4.955 5 9.52
    endloop
  endfacet
  facet normal 0 0 1
    outer loop
      vertex -4.955 0.0499992 9.52
      vertex -9.55 5 9.52
      vertex -9.55 0.0499992 9.52
    endloop
  endfacet
  facet normal 0 0 -1
    outer loop
      vertex -9.55 0.0499992 9.36
      vertex -4.955 5 9.36
      vertex -4.955 0.0499992 9.36
    endloop
  endfacet
  facet normal -0 0 -1
    outer loop
      vertex -4.955 5 9.36
      vertex -9.55 0.0499992 9.36
      vertex -9.55 5 9.36
    endloop
  endfacet
  facet normal 1 -0 0
    outer loop
      vertex -4.955 0.0499992 9.52
      vertex -4.955 5 9.36
      vertex -4.955 5 9.52
    endloop
  endfacet
  facet normal 1 0 0
    outer loop
      vertex -4.955 5 9.36
      vertex -4.955 0.0499992 9.52
      vertex -4.955 0.0499992 9.36
    endloop
  endfacet
  facet normal -0 0 1
    outer loop
      vertex -9.55 5 13.88
      vertex -4.955 0.0499992 13.88
      vertex -4.955 5 13.88
    endloop
  endfacet
  facet normal 0 0 1
    outer loop
      vertex -4.955 0.0499992 13.88
      vertex -9.55 5 13.88
      vertex -9.55 0.0499992 13.88
    endloop
  endfacet
  facet normal 0 0 -1
    outer loop
      vertex -9.55 0.0499992 13.72
      vertex -4.955 5 13.72
      vertex -4.955 0.0499992 13.72
    endloop
  endfacet
  facet normal -0 0 -1
    outer loop
      vertex -4.955 5 13.72
      vertex -9.55 0.0499992 13.72
      vertex -9.55 5 13.72
    endloop
  endfacet
  facet normal 1 -0 0
    outer loop
      vertex -4.955 0.0499992 13.88
      vertex -4.955 5 13.72
      vertex -4.955 5 13.88
    endloop
  endfacet
  facet normal 1 0 0
    outer loop
      vertex -4.955 5 13.72
      vertex -4.955 0.0499992 13.88
      vertex -4.955 0.0499992 13.72
    endloop
  endfacet
  facet normal -0 0 1
    outer loop
      vertex -9.55 5 18.24
      vertex -4.955 0.0499992 18.24
      vertex -4.955 5 18.24
    endloop
  endfacet
  facet normal 0 0 1
    outer loop
      vertex -4.955 0.0499992 18.24
      vertex -9.55 5 18.24
      vertex -9.55 0.0499992 18.24
    endloop
  endfacet
  facet normal 0 0 -1
    outer loop
      vertex -9.55 0.0499992 18.08
      vertex -4.955 5 18.08
      vertex -4.955 0.0499992 18.08
    endloop
  endfacet
  facet normal -0 0 -1
    outer loop
      vertex -4.955 5 18.08
      vertex -9.55 0.0499992 18.08
      vertex -9.55 5 18.08
    endloop
  endfacet
  facet normal 1 -0 0
    outer loop
      vertex -4.955 0.0499992 18.24
      vertex -4.955 5 18.08
      vertex -4.955 5 18.24
    endloop
  endfacet
  facet normal 1 0 0
    outer loop
      vertex -4.955 5 18.08
      vertex -4.955 0.0499992 18.24
      vertex -4.955 0.0499992 18.08
    endloop
  endfacet
  facet normal -0 0 1
    outer loop
      vertex -9.55 5 22.6
      vertex -4.955 0.0499992 22.6
      vertex -4.955 5 22.6
    endloop
  endfacet
  facet normal 0 0 1
    outer loop
      vertex -4.955 0.0499992 22.6
      vertex -9.55 5 22.6
      vertex -9.55 0.0499992 22.6
    endloop
  endfacet
  facet normal 0 0 -1
    outer loop
      vertex -9.55 0.0499992 22.44
      vertex -4.955 5 22.44
      vertex -4.955 0.0499992 22.44
    endloop
  endfacet
  facet normal -0 0 -1
    outer loop
      vertex -4.955 5 22.44
      vertex -9.55 0.0499992 22.44
      vertex -9.55 5 22.44
    endloop
  endfacet
  facet normal 1 -0 0
    outer loop
      vertex -4.955 0.0499992 22.6
      vertex -4.955 5 22.44
      vertex -4.955 5 22.6
    endloop
  endfacet
  facet normal 1 0 0
    outer loop
      vertex -4.955 5 22.44
      vertex -4.955 0.0499992 22.6
      vertex -4.955 0.0499992 22.44
    endloop
  endfacet
  facet normal -1 0 0
    outer loop
      vertex -19.1 0 0
      vertex -19.1 6 26.8
      vertex -19.1 6 0
    endloop
  endfacet
  facet normal -1 -0 0
    outer loop
      vertex -19.1 6 26.8
      vertex -19.1 0 0
      vertex -19.1 0 26.8
    endloop
  endfacet
  facet normal -0 0 1
    outer loop
      vertex -19.1 6 26.8
      vertex 0 0 26.8
      vertex 0 6 26.8
    endloop
  endfacet
  facet normal 0 0 1
    outer loop
      vertex 0 0 26.8
      vertex -19.1 6 26.8
      vertex -19.1 0 26.8
    endloop
  endfacet
  facet normal 1 -0 0
    outer loop
      vertex 0 0 26.8
      vertex 0 6 0
      vertex 0 6 26.8
    endloop
  endfacet
  facet normal 1 0 0
    outer loop
      vertex 0 6 0
      vertex 0 0 26.8
      vertex 0 0 0
    endloop
  endfacet
  facet normal 0 1 -0
    outer loop
      vertex -9.73 0.0499992 5.18
      vertex -18.92 0.0499992 20
      vertex -9.73 0.0499992 20
    endloop
  endfacet
  facet normal 0 1 0
    outer loop
      vertex -18.92 0.0499992 20
      vertex -9.73 0.0499992 5.18
      vertex -18.92 0.0499992 5.18
    endloop
  endfacet
  facet normal 0 1 -0
    outer loop
      vertex -14.325 0.0499992 0
      vertex -14.505 0.0499992 2.4
      vertex -14.325 0.0499992 2.4
    endloop
  endfacet
  facet normal 0 1 0
    outer loop
      vertex -14.505 0.0499992 2.4
      vertex -14.325 0.0499992 0
      vertex -14.505 0.0499992 0
    endloop
  endfacet
  facet normal 0 1 0
    outer loop
      vertex -14.325 0.0499992 2.4
      vertex -14.325 0.0499992 2.5
      vertex -9.73 0.0499992 2.5
    endloop
  endfacet
  facet normal 0 1 0
    outer loop
      vertex -14.325 0.0499992 2.5
      vertex -14.325 0.0499992 2.4
      vertex -14.505 0.0499992 2.5
    endloop
  endfacet
  facet normal 0 1 0
    outer loop
      vertex -14.325 0.0499992 2.4
      vertex -9.73 0.0499992 2.5
      vertex -9.73 0.0499992 2.4
    endloop
  endfacet
  facet normal 0 1 0
    outer loop
      vertex -14.505 0.0499992 2.4
      vertex -14.505 0.0499992 2.5
      vertex -14.325 0.0499992 2.4
    endloop
  endfacet
  facet normal 0 1 0
    outer loop
      vertex -14.505 0.0499992 2.5
      vertex -14.505 0.0499992 2.4
      vertex -18.92 0.0499992 2.5
    endloop
  endfacet
  facet normal 0 1 0
    outer loop
      vertex -18.92 0.0499992 2.5
      vertex -14.505 0.0499992 2.4
      vertex -18.92 0.0499992 2.4
    endloop
  endfacet
  facet normal 0 1 -0
    outer loop
      vertex -14.325 0.0499992 2.5
      vertex -14.505 0.0499992 4.9
      vertex -14.325 0.0499992 4.9
    endloop
  endfacet
  facet normal 0 1 0
    outer loop
      vertex -14.505 0.0499992 4.9
      vertex -14.325 0.0499992 2.5
      vertex -14.505 0.0499992 2.5
    endloop
  endfacet
  facet normal 0 1 0
    outer loop
      vertex -14.325 0.0499992 4.9
      vertex -9.73 0.0499992 5
      vertex -9.73 0.0499992 4.9
    endloop
  endfacet
  facet normal 0 1 0
    outer loop
      vertex -9.73 0.0499992 5
      vertex -14.325 0.0499992 4.9
      vertex -18.92 0.0499992 5
    endloop
  endfacet
  facet normal 0 1 -0
    outer loop
      vertex -14.505 0.0499992 4.9
      vertex -18.92 0.0499992 5
      vertex -14.325 0.0499992 4.9
    endloop
  endfacet
  facet normal 0 1 0
    outer loop
      vertex -18.92 0.0499992 5
      vertex -14.505 0.0499992 4.9
      vertex -18.92 0.0499992 4.9
    endloop
  endfacet
  facet normal 0 0 0
    outer loop
      vertex -9.73 0.0499992 5
      vertex -9.73 0.0499992 0
      vertex -9.73 0.0499992 2.4
    endloop
  endfacet
  facet normal 0 0 0
    outer loop
      vertex -9.73 0.0499992 2.4
      vertex -9.73 0.0499992 2.5
      vertex -9.73 0.0499992 4.9
    endloop
  endfacet
  facet normal -0 0 0
    outer loop
      vertex -9.73 0.0499992 4.9
      vertex -9.73 0.0499992 5
      vertex -9.73 0.0499992 2.4
    endloop
  endfacet
  facet normal 0 1 -0
    outer loop
      vertex -9.73 0.0499992 23.58
      vertex -18.92 0.0499992 26.62
      vertex -9.73 0.0499992 26.62
    endloop
  endfacet
  facet normal 0 1 0
    outer loop
      vertex -18.92 0.0499992 26.62
      vertex -9.73 0.0499992 23.58
      vertex -18.92 0.0499992 23.58
    endloop
  endfacet
  facet normal 0 1 -0
    outer loop
      vertex -9.73 0.0499992 20.18
      vertex -18.92 0.0499992 23.4
      vertex -9.73 0.0499992 23.4
    endloop
  endfacet
  facet normal 0 1 0
    outer loop
      vertex -18.92 0.0499992 23.4
      vertex -9.73 0.0499992 20.18
      vertex -18.92 0.0499992 20.18
    endloop
  endfacet
  facet normal 0 1 0
    outer loop
      vertex -0.179999 0.0499992 26.62
      vertex -0.18 0.0499992 22.6
      vertex -4.775 0.0499992 26.62
    endloop
  endfacet
  facet normal 0 1 0
    outer loop
      vertex -0.179999 0.0499992 26.62
      vertex -0.18 0.0499992 22.44
      vertex -0.18 0.0499992 22.6
    endloop
  endfacet
  facet normal 0 1 0
    outer loop
      vertex -0.18 0.0499992 22.44
      vertex -0.18 0.0499992 18.24
      vertex -4.775 0.0499992 22.44
    endloop
  endfacet
  facet normal 0 1 0
    outer loop
      vertex -0.179999 0.0499992 26.62
      vertex -0.18 0.0499992 18.24
      vertex -0.18 0.0499992 22.44
    endloop
  endfacet
  facet normal 0 1 0
    outer loop
      vertex -0.179999 0.0499992 26.62
      vertex -0.18 0.0499992 18.08
      vertex -0.18 0.0499992 18.24
    endloop
  endfacet
  facet normal 0 1 0
    outer loop
      vertex -0.18 0.0499992 18.08
      vertex -0.18 0.0499992 13.88
      vertex -4.775 0.0499992 18.08
    endloop
  endfacet
  facet normal 0 1 0
    outer loop
      vertex -0.179999 0.0499992 26.62
      vertex -0.18 0.0499992 13.88
      vertex -0.18 0.0499992 18.08
    endloop
  endfacet
  facet normal 0 1 0
    outer loop
      vertex -0.179999 0.0499992 26.62
      vertex -0.18 0.0499992 13.72
      vertex -0.18 0.0499992 13.88
    endloop
  endfacet
  facet normal 0 1 0
    outer loop
      vertex -0.18 0.0499992 13.72
      vertex -0.18 0.0499992 9.52
      vertex -4.775 0.0499992 13.72
    endloop
  endfacet
  facet normal 0 1 0
    outer loop
      vertex -0.179999 0.0499992 26.62
      vertex -0.18 0.0499992 9.52
      vertex -0.18 0.0499992 13.72
    endloop
  endfacet
  facet normal 0 1 0
    outer loop
      vertex -0.179999 0.0499992 26.62
      vertex -0.18 0.0499992 9.36
      vertex -0.18 0.0499992 9.52
    endloop
  endfacet
  facet normal 0 1 0
    outer loop
      vertex -0.18 0.0499992 9.36
      vertex -0.18 0.0499992 5.16
      vertex -4.775 0.0499992 9.36
    endloop
  endfacet
  facet normal 0 1 0
    outer loop
      vertex -0.179999 0.0499992 26.62
      vertex -0.18 0.0499992 5.16
      vertex -0.18 0.0499992 9.36
    endloop
  endfacet
  facet normal 0 1 0
    outer loop
      vertex -0.179999 0.0499992 26.62
      vertex -0.18 0.0499992 5
      vertex -0.18 0.0499992 5.16
    endloop
  endfacet
  facet normal 0 1 0
    outer loop
      vertex -0.18 0.0499992 5
      vertex -0.179999 0.0499992 0
      vertex -4.775 0.0499992 5
    endloop
  endfacet
  facet normal 0 1 -0
    outer loop
      vertex -0.179999 0.0499992 0
      vertex -0.18 0.0499992 5
      vertex -0.179999 0.0499992 26.62
    endloop
  endfacet
  facet normal 0 1 0
    outer loop
      vertex -4.775 0.0499992 22.6
      vertex -4.775 0.0499992 26.62
      vertex -0.18 0.0499992 22.6
    endloop
  endfacet
  facet normal 0 0 0
    outer loop
      vertex -4.775 0.0499992 22.44
      vertex -4.775 0.0499992 26.62
      vertex -4.775 0.0499992 22.6
    endloop
  endfacet
  facet normal 0 1 0
    outer loop
      vertex -4.775 0.0499992 18.24
      vertex -4.775 0.0499992 22.44
      vertex -0.18 0.0499992 18.24
    endloop
  endfacet
  facet normal 0 0 0
    outer loop
      vertex -4.775 0.0499992 18.24
      vertex -4.775 0.0499992 26.62
      vertex -4.775 0.0499992 22.44
    endloop
  endfacet
  facet normal 0 0 0
    outer loop
      vertex -4.775 0.0499992 18.08
      vertex -4.775 0.0499992 26.62
      vertex -4.775 0.0499992 18.24
    endloop
  endfacet
  facet normal 0 1 0
    outer loop
      vertex -4.775 0.0499992 13.88
      vertex -4.775 0.0499992 18.08
      vertex -0.18 0.0499992 13.88
    endloop
  endfacet
  facet normal 0 0 0
    outer loop
      vertex -4.775 0.0499992 13.88
      vertex -4.775 0.0499992 26.62
      vertex -4.775 0.0499992 18.08
    endloop
  endfacet
  facet normal 0 0 0
    outer loop
      vertex -4.775 0.0499992 13.72
      vertex -4.775 0.0499992 26.62
      vertex -4.775 0.0499992 13.88
    endloop
  endfacet
  facet normal 0 1 0
    outer loop
      vertex -4.775 0.0499992 9.52
      vertex -4.775 0.0499992 13.72
      vertex -0.18 0.0499992 9.52
    endloop
  endfacet
  facet normal 0 0 0
    outer loop
      vertex -4.775 0.0499992 9.52
      vertex -4.775 0.0499992 26.62
      vertex -4.775 0.0499992 13.72
    endloop
  endfacet
  facet normal 0 0 0
    outer loop
      vertex -4.775 0.0499992 9.36
      vertex -4.775 0.0499992 26.62
      vertex -4.775 0.0499992 9.52
    endloop
  endfacet
  facet normal 0 1 0
    outer loop
      vertex -4.775 0.0499992 5.16
      vertex -4.775 0.0499992 9.36
      vertex -0.18 0.0499992 5.16
    endloop
  endfacet
  facet normal 0 0 0
    outer loop
      vertex -4.775 0.0499992 5.16
      vertex -4.775 0.0499992 26.62
      vertex -4.775 0.0499992 9.36
    endloop
  endfacet
  facet normal 0 0 0
    outer loop
      vertex -4.775 0.0499992 5
      vertex -4.775 0.0499992 26.62
      vertex -4.775 0.0499992 5.16
    endloop
  endfacet
  facet normal 0 -0 0
    outer loop
      vertex -4.775 0.0499992 5
      vertex -4.775 0.0499992 0
      vertex -4.775 0.0499992 26.62
    endloop
  endfacet
  facet normal 0 1 0
    outer loop
      vertex -4.775 0.0499992 0
      vertex -4.775 0.0499992 5
      vertex -0.179999 0.0499992 0
    endloop
  endfacet
  facet normal 0 1 -0
    outer loop
      vertex -4.955 0.0499992 0
      vertex -9.55 0.0499992 5
      vertex -4.955 0.0499992 5
    endloop
  endfacet
  facet normal 0 1 0
    outer loop
      vertex -9.55 0.0499992 5
      vertex -4.955 0.0499992 0
      vertex -9.55 0.0499992 0
    endloop
  endfacet
  facet normal 0 1 -0
    outer loop
      vertex -4.955 0.0499992 5.16
      vertex -9.55 0.0499992 9.36
      vertex -4.955 0.0499992 9.36
    endloop
  endfacet
  facet normal 0 1 0
    outer loop
      vertex -9.55 0.0499992 9.36
      vertex -4.955 0.0499992 5.16
      vertex -9.55 0.0499992 5.16
    endloop
  endfacet
  facet normal 0 1 -0
    outer loop
      vertex -4.955 0.0499992 9.52
      vertex -9.55 0.0499992 13.72
      vertex -4.955 0.0499992 13.72
    endloop
  endfacet
  facet normal 0 1 0
    outer loop
      vertex -9.55 0.0499992 13.72
      vertex -4.955 0.0499992 9.52
      vertex -9.55 0.0499992 9.52
    endloop
  endfacet
  facet normal 0 1 -0
    outer loop
      vertex -4.955 0.0499992 13.88
      vertex -9.55 0.0499992 18.08
      vertex -4.955 0.0499992 18.08
    endloop
  endfacet
  facet normal 0 1 0
    outer loop
      vertex -9.55 0.0499992 18.08
      vertex -4.955 0.0499992 13.88
      vertex -9.55 0.0499992 13.88
    endloop
  endfacet
  facet normal 0 1 -0
    outer loop
      vertex -4.955 0.0499992 18.24
      vertex -9.55 0.0499992 22.44
      vertex -4.955 0.0499992 22.44
    endloop
  endfacet
  facet normal 0 1 0
    outer loop
      vertex -9.55 0.0499992 22.44
      vertex -4.955 0.0499992 18.24
      vertex -9.55 0.0499992 18.24
    endloop
  endfacet
  facet normal 0 1 -0
    outer loop
      vertex -4.955 0.0499992 22.6
      vertex -9.55 0.0499992 26.62
      vertex -4.955 0.0499992 26.62
    endloop
  endfacet
  facet normal 0 1 0
    outer loop
      vertex -9.55 0.0499992 26.62
      vertex -4.955 0.0499992 22.6
      vertex -9.55 0.0499992 22.6
    endloop
  endfacet
  facet normal 0 0 0
    outer loop
      vertex -4.955 0.0499992 9.52
      vertex -4.955 0.0499992 13.72
      vertex -4.955 0.0499992 13.88
    endloop
  endfacet
  facet normal 0 0 0
    outer loop
      vertex -4.955 0.0499992 0
      vertex -4.955 0.0499992 5
      vertex -4.955 0.0499992 5.16
    endloop
  endfacet
  facet normal 0 0 0
    outer loop
      vertex -4.955 0.0499992 5.16
      vertex -4.955 0.0499992 9.36
      vertex -4.955 0.0499992 9.52
    endloop
  endfacet
  facet normal 0 0 0
    outer loop
      vertex -4.955 0.0499992 5.16
      vertex -4.955 0.0499992 9.52
      vertex -4.955 0.0499992 13.88
    endloop
  endfacet
  facet normal 0 0 0
    outer loop
      vertex -4.955 0.0499992 13.88
      vertex -4.955 0.0499992 18.08
      vertex -4.955 0.0499992 18.24
    endloop
  endfacet
  facet normal 0 0 0
    outer loop
      vertex -4.955 0.0499992 18.24
      vertex -4.955 0.0499992 22.44
      vertex -4.955 0.0499992 22.6
    endloop
  endfacet
  facet normal 0 0 0
    outer loop
      vertex -4.955 0.0499992 0
      vertex -4.955 0.0499992 5.16
      vertex -4.955 0.0499992 13.88
    endloop
  endfacet
  facet normal 0 0 0
    outer loop
      vertex -4.955 0.0499992 0
      vertex -4.955 0.0499992 13.88
      vertex -4.955 0.0499992 18.24
    endloop
  endfacet
  facet normal -0 0 0
    outer loop
      vertex -4.955 0.0499992 22.6
      vertex -4.955 0.0499992 26.62
      vertex -4.955 0.0499992 0
    endloop
  endfacet
  facet normal 0 0 0
    outer loop
      vertex -4.955 0.0499992 22.6
      vertex -4.955 0.0499992 0
      vertex -4.955 0.0499992 18.24
    endloop
  endfacet
  facet normal -1 0 0
    outer loop
      vertex -0.179999 0.0499992 0
      vertex -0.179999 6 26.62
      vertex -0.179999 6 0
    endloop
  endfacet
  facet normal -1 -0 0
    outer loop
      vertex -0.179999 6 26.62
      vertex -0.179999 0.0499992 0
      vertex -0.179999 0.0499992 26.62
    endloop
  endfacet
  facet normal 0 1 0
    outer loop
      vertex 0 6 26.8
      vertex -0.179999 6 26.62
      vertex -19.1 6 26.8
    endloop
  endfacet
  facet normal 0 1 -0
    outer loop
      vertex 0 6 0
      vertex -0.179999 6 26.62
      vertex 0 6 26.8
    endloop
  endfacet
  facet normal 0 1 0
    outer loop
      vertex -0.179999 6 26.62
      vertex 0 6 0
      vertex -0.179999 6 0
    endloop
  endfacet
  facet normal 0 1 -0
    outer loop
      vertex -18.92 6 26.62
      vertex -19.1 6 26.8
      vertex -0.179999 6 26.62
    endloop
  endfacet
  facet normal 0 1 0
    outer loop
      vertex -19.1 6 0
      vertex -18.92 6 26.62
      vertex -18.92 6 0
    endloop
  endfacet
  facet normal 0 1 0
    outer loop
      vertex -18.92 6 26.62
      vertex -19.1 6 0
      vertex -19.1 6 26.8
    endloop
  endfacet
  facet normal 1 -0 0
    outer loop
      vertex -18.92 0.0499992 2.5
      vertex -18.92 5 2.4
      vertex -18.92 5 2.5
    endloop
  endfacet
  facet normal 1 0 0
    outer loop
      vertex -18.92 5 2.4
      vertex -18.92 0.0499992 2.5
      vertex -18.92 0.0499992 2.4
    endloop
  endfacet
  facet normal 1 -0 0
    outer loop
      vertex -18.92 0.0499992 5
      vertex -18.92 5 4.9
      vertex -18.92 5 5
    endloop
  endfacet
  facet normal 1 0 0
    outer loop
      vertex -18.92 5 4.9
      vertex -18.92 0.0499992 5
      vertex -18.92 0.0499992 4.9
    endloop
  endfacet
  facet normal 1 0 0
    outer loop
      vertex -18.92 5 20
      vertex -18.92 3.09511 18.9691
      vertex -18.92 5 5.18
    endloop
  endfacet
  facet normal 1 0 0
    outer loop
      vertex -18.92 5 20
      vertex -18.92 3.05878 19.0809
      vertex -18.92 3.09511 18.9691
    endloop
  endfacet
  facet normal 1 0 0
    outer loop
      vertex -18.92 5 20
      vertex -18.92 2.94122 19.0809
      vertex -18.92 3.05878 19.0809
    endloop
  endfacet
  facet normal 1 0 0
    outer loop
      vertex -18.92 2.94122 19.0809
      vertex -18.92 0.0499992 20
      vertex -18.92 2.90489 18.9691
    endloop
  endfacet
  facet normal 1 -0 0
    outer loop
      vertex -18.92 0.0499992 20
      vertex -18.92 2.94122 19.0809
      vertex -18.92 5 20
    endloop
  endfacet
  facet normal 1 -0 0
    outer loop
      vertex -18.92 0.0499992 23.4
      vertex -18.92 5 20.18
      vertex -18.92 5 23.4
    endloop
  endfacet
  facet normal 1 0 0
    outer loop
      vertex -18.92 5 20.18
      vertex -18.92 0.0499992 23.4
      vertex -18.92 0.0499992 20.18
    endloop
  endfacet
  facet normal 1 0 0
    outer loop
      vertex -18.92 5 23.4
      vertex -18.92 6 26.62
      vertex -18.92 5 23.58
    endloop
  endfacet
  facet normal 1 -0 0
    outer loop
      vertex -18.92 0.0499992 26.62
      vertex -18.92 5 23.58
      vertex -18.92 6 26.62
    endloop
  endfacet
  facet normal 1 0 0
    outer loop
      vertex -18.92 5 23.58
      vertex -18.92 0.0499992 26.62
      vertex -18.92 0.0499992 23.58
    endloop
  endfacet
  facet normal 1 0 0
    outer loop
      vertex -18.92 5 20.18
      vertex -18.92 6 26.62
      vertex -18.92 5 23.4
    endloop
  endfacet
  facet normal 1 0 0
    outer loop
      vertex -18.92 5 20
      vertex -18.92 6 26.62
      vertex -18.92 5 20.18
    endloop
  endfacet
  facet normal 1 0 0
    outer loop
      vertex -18.92 6 26.62
      vertex -18.92 5 20
      vertex -18.92 6 0
    endloop
  endfacet
  facet normal 1 -0 0
    outer loop
      vertex -18.92 5 5.18
      vertex -18.92 6 0
      vertex -18.92 5 20
    endloop
  endfacet
  facet normal 1 -0 0
    outer loop
      vertex -18.92 5 5
      vertex -18.92 6 0
      vertex -18.92 5 5.18
    endloop
  endfacet
  facet normal 1 -0 0
    outer loop
      vertex -18.92 5 4.9
      vertex -18.92 6 0
      vertex -18.92 5 5
    endloop
  endfacet
  facet normal 1 -0 0
    outer loop
      vertex -18.92 5 2.5
      vertex -18.92 6 0
      vertex -18.92 5 4.9
    endloop
  endfacet
  facet normal 1 -0 0
    outer loop
      vertex -18.92 5 2.4
      vertex -18.92 6 0
      vertex -18.92 5 2.5
    endloop
  endfacet
  facet normal 1 0 0
    outer loop
      vertex -18.92 6 0
      vertex -18.92 5 2.4
      vertex -18.92 5 0
    endloop
  endfacet
  facet normal 1 -0 0
    outer loop
      vertex -18.92 3 18.9
      vertex -18.92 5 5.18
      vertex -18.92 3.09511 18.9691
    endloop
  endfacet
  facet normal 1 0 0
    outer loop
      vertex -18.92 0.0499992 20
      vertex -18.92 3 18.9
      vertex -18.92 2.90489 18.9691
    endloop
  endfacet
  facet normal 1 0 0
    outer loop
      vertex -18.92 3 18.9
      vertex -18.92 0.0499992 20
      vertex -18.92 0.0499992 5.18
    endloop
  endfacet
  facet normal 1 0 0
    outer loop
      vertex -18.92 3 18.9
      vertex -18.92 0.0499992 5.18
      vertex -18.92 5 5.18
    endloop
  endfacet
  facet normal 0 0 -1
    outer loop
      vertex -9.73 0.0499992 26.62
      vertex -18.92 0.0499992 26.62
      vertex -9.73 5 26.62
    endloop
  endfacet
  facet normal 0 0 -1
    outer loop
      vertex -4.955 0.0499992 26.62
      vertex -9.55 0.0499992 26.62
      vertex -4.955 5 26.62
    endloop
  endfacet
  facet normal 0 0 -1
    outer loop
      vertex -4.775 5 26.62
      vertex -0.179999 0.0499992 26.62
      vertex -4.775 0.0499992 26.62
    endloop
  endfacet
  facet normal 0 0 -1
    outer loop
      vertex -0.179999 0.0499992 26.62
      vertex -4.775 5 26.62
      vertex -0.179999 6 26.62
    endloop
  endfacet
  facet normal 0 0 -1
    outer loop
      vertex -4.955 5 26.62
      vertex -0.179999 6 26.62
      vertex -4.775 5 26.62
    endloop
  endfacet
  facet normal 0 0 -1
    outer loop
      vertex -9.55 5 26.62
      vertex -4.955 5 26.62
      vertex -9.55 0.0499992 26.62
    endloop
  endfacet
  facet normal 0 0 -1
    outer loop
      vertex -9.55 5 26.62
      vertex -0.179999 6 26.62
      vertex -4.955 5 26.62
    endloop
  endfacet
  facet normal 0 0 -1
    outer loop
      vertex -9.73 5 26.62
      vertex -0.179999 6 26.62
      vertex -9.55 5 26.62
    endloop
  endfacet
  facet normal 0 0 -1
    outer loop
      vertex -9.73 5 26.62
      vertex -18.92 6 26.62
      vertex -0.179999 6 26.62
    endloop
  endfacet
  facet normal 0 0 -1
    outer loop
      vertex -18.92 6 26.62
      vertex -9.73 5 26.62
      vertex -18.92 0.0499992 26.62
    endloop
  endfacet
  facet normal -1 0 0
    outer loop
      vertex -9.73 0.0499992 0
      vertex -9.73 5 5
      vertex -9.73 5 0
    endloop
  endfacet
  facet normal -1 -0 0
    outer loop
      vertex -9.73 5 5
      vertex -9.73 0.0499992 0
      vertex -9.73 0.0499992 5
    endloop
  endfacet
  facet normal -1 0 0
    outer loop
      vertex -9.73 0.0499992 20.18
      vertex -9.73 5 23.4
      vertex -9.73 5 20.18
    endloop
  endfacet
  facet normal -1 -0 0
    outer loop
      vertex -9.73 5 23.4
      vertex -9.73 0.0499992 20.18
      vertex -9.73 0.0499992 23.4
    endloop
  endfacet
  facet normal -1 0 0
    outer loop
      vertex -9.73 5 5.18
      vertex -9.73 3.09511 18.9691
      vertex -9.73 5 20
    endloop
  endfacet
  facet normal -1 0 0
    outer loop
      vertex -9.73 5 5.18
      vertex -9.73 3 18.9
      vertex -9.73 3.09511 18.9691
    endloop
  endfacet
  facet normal -1 0 0
    outer loop
      vertex -9.73 0.0499992 5.18
      vertex -9.73 3 18.9
      vertex -9.73 5 5.18
    endloop
  endfacet
  facet normal -1 0 0
    outer loop
      vertex -9.73 0.0499992 20
      vertex -9.73 3 18.9
      vertex -9.73 0.0499992 5.18
    endloop
  endfacet
  facet normal -1 0 0
    outer loop
      vertex -9.73 3.05878 19.0809
      vertex -9.73 5 20
      vertex -9.73 3.09511 18.9691
    endloop
  endfacet
  facet normal -1 0 0
    outer loop
      vertex -9.73 2.94122 19.0809
      vertex -9.73 5 20
      vertex -9.73 3.05878 19.0809
    endloop
  endfacet
  facet normal -1 0 0
    outer loop
      vertex -9.73 2.94122 19.0809
      vertex -9.73 0.0499992 20
      vertex -9.73 5 20
    endloop
  endfacet
  facet normal -1 0 0
    outer loop
      vertex -9.73 2.90489 18.9691
      vertex -9.73 0.0499992 20
      vertex -9.73 2.94122 19.0809
    endloop
  endfacet
  facet normal -1 0 0
    outer loop
      vertex -9.73 3 18.9
      vertex -9.73 0.0499992 20
      vertex -9.73 2.90489 18.9691
    endloop
  endfacet
  facet normal -1 0 0
    outer loop
      vertex -9.73 0.0499992 23.58
      vertex -9.73 5 26.62
      vertex -9.73 5 23.58
    endloop
  endfacet
  facet normal -1 -0 0
    outer loop
      vertex -9.73 5 26.62
      vertex -9.73 0.0499992 23.58
      vertex -9.73 0.0499992 26.62
    endloop
  endfacet
  facet normal 1 -0 0
    outer loop
      vertex -9.55 0.0499992 5
      vertex -9.55 5 0
      vertex -9.55 5 5
    endloop
  endfacet
  facet normal 1 0 0
    outer loop
      vertex -9.55 5 0
      vertex -9.55 0.0499992 5
      vertex -9.55 0.0499992 0
    endloop
  endfacet
  facet normal 1 -0 0
    outer loop
      vertex -9.55 0.0499992 26.62
      vertex -9.55 5 22.6
      vertex -9.55 5 26.62
    endloop
  endfacet
  facet normal 1 0 0
    outer loop
      vertex -9.55 5 22.6
      vertex -9.55 0.0499992 26.62
      vertex -9.55 0.0499992 22.6
    endloop
  endfacet
  facet normal 1 -0 0
    outer loop
      vertex -9.55 0.0499992 13.72
      vertex -9.55 5 9.52
      vertex -9.55 5 13.72
    endloop
  endfacet
  facet normal 1 0 0
    outer loop
      vertex -9.55 5 9.52
      vertex -9.55 0.0499992 13.72
      vertex -9.55 0.0499992 9.52
    endloop
  endfacet
  facet normal 1 -0 0
    outer loop
      vertex -9.55 0.0499992 9.36
      vertex -9.55 5 5.16
      vertex -9.55 5 9.36
    endloop
  endfacet
  facet normal 1 0 0
    outer loop
      vertex -9.55 5 5.16
      vertex -9.55 0.0499992 9.36
      vertex -9.55 0.0499992 5.16
    endloop
  endfacet
  facet normal 1 -0 0
    outer loop
      vertex -9.55 0.0499992 18.08
      vertex -9.55 5 13.88
      vertex -9.55 5 18.08
    endloop
  endfacet
  facet normal 1 0 0
    outer loop
      vertex -9.55 5 13.88
      vertex -9.55 0.0499992 18.08
      vertex -9.55 0.0499992 13.88
    endloop
  endfacet
  facet normal 1 -0 0
    outer loop
      vertex -9.55 0.0499992 22.44
      vertex -9.55 5 18.24
      vertex -9.55 5 22.44
    endloop
  endfacet
  facet normal 1 0 0
    outer loop
      vertex -9.55 5 18.24
      vertex -9.55 0.0499992 22.44
      vertex -9.55 0.0499992 18.24
    endloop
  endfacet
  facet normal 0 0.951047 0.309048
    outer loop
      vertex -9.73 3.09511 18.9691
      vertex -18.92 3.05878 19.0809
      vertex -9.73 3.05878 19.0809
    endloop
  endfacet
  facet normal 0 0.951047 0.309048
    outer loop
      vertex -18.92 3.05878 19.0809
      vertex -9.73 3.09511 18.9691
      vertex -18.92 3.09511 18.9691
    endloop
  endfacet
  facet normal -0 0 1
    outer loop
      vertex -18.92 3.05878 19.0809
      vertex -9.73 2.94122 19.0809
      vertex -9.73 3.05878 19.0809
    endloop
  endfacet
  facet normal 0 0 1
    outer loop
      vertex -9.73 2.94122 19.0809
      vertex -18.92 3.05878 19.0809
      vertex -18.92 2.94122 19.0809
    endloop
  endfacet
  facet normal 0 -0.951047 0.309048
    outer loop
      vertex -18.92 2.90489 18.9691
      vertex -9.73 2.94122 19.0809
      vertex -18.92 2.94122 19.0809
    endloop
  endfacet
  facet normal 0 -0.951047 0.309048
    outer loop
      vertex -9.73 2.94122 19.0809
      vertex -18.92 2.90489 18.9691
      vertex -9.73 2.90489 18.9691
    endloop
  endfacet
  facet normal 0 0.587777 -0.809023
    outer loop
      vertex -18.92 3 18.9
      vertex -9.73 3.09511 18.9691
      vertex -9.73 3 18.9
    endloop
  endfacet
  facet normal 0 0.587777 -0.809023
    outer loop
      vertex -9.73 3.09511 18.9691
      vertex -18.92 3 18.9
      vertex -18.92 3.09511 18.9691
    endloop
  endfacet
  facet normal 0 -0.587777 -0.809023
    outer loop
      vertex -18.92 2.90489 18.9691
      vertex -9.73 3 18.9
      vertex -9.73 2.90489 18.9691
    endloop
  endfacet
  facet normal -0 -0.587777 -0.809023
    outer loop
      vertex -9.73 3 18.9
      vertex -18.92 2.90489 18.9691
      vertex -18.92 3 18.9
    endloop
  endfacet
  facet normal -0 0 1
    outer loop
      vertex -18.92 5 20.18
      vertex -9.73 0.0499992 20.18
      vertex -9.73 5 20.18
    endloop
  endfacet
  facet normal 0 0 1
    outer loop
      vertex -9.73 0.0499992 20.18
      vertex -18.92 5 20.18
      vertex -18.92 0.0499992 20.18
    endloop
  endfacet
  facet normal 0 0 -1
    outer loop
      vertex -18.92 0.0499992 20
      vertex -9.73 5 20
      vertex -9.73 0.0499992 20
    endloop
  endfacet
  facet normal -0 0 -1
    outer loop
      vertex -9.73 5 20
      vertex -18.92 0.0499992 20
      vertex -18.92 5 20
    endloop
  endfacet
  facet normal -0 0 1
    outer loop
      vertex -18.92 5 23.58
      vertex -9.73 0.0499992 23.58
      vertex -9.73 5 23.58
    endloop
  endfacet
  facet normal 0 0 1
    outer loop
      vertex -9.73 0.0499992 23.58
      vertex -18.92 5 23.58
      vertex -18.92 0.0499992 23.58
    endloop
  endfacet
  facet normal 0 0 -1
    outer loop
      vertex -18.92 0.0499992 23.4
      vertex -9.73 5 23.4
      vertex -9.73 0.0499992 23.4
    endloop
  endfacet
  facet normal -0 0 -1
    outer loop
      vertex -9.73 5 23.4
      vertex -18.92 0.0499992 23.4
      vertex -18.92 5 23.4
    endloop
  endfacet
  facet normal -0 0 1
    outer loop
      vertex -18.92 5 5.18
      vertex -9.73 0.0499992 5.18
      vertex -9.73 5 5.18
    endloop
  endfacet
  facet normal 0 0 1
    outer loop
      vertex -9.73 0.0499992 5.18
      vertex -18.92 5 5.18
      vertex -18.92 0.0499992 5.18
    endloop
  endfacet
  facet normal 0 0 -1
    outer loop
      vertex -18.92 0.0499992 5
      vertex -9.73 5 5
      vertex -9.73 0.0499992 5
    endloop
  endfacet
  facet normal -0 0 -1
    outer loop
      vertex -9.73 5 5
      vertex -18.92 0.0499992 5
      vertex -18.92 5 5
    endloop
  endfacet
  facet normal -1 0 0
    outer loop
      vertex -4.955 0.0499992 0
      vertex -4.955 5 26.62
      vertex -4.955 5 0
    endloop
  endfacet
  facet normal -1 -0 0
    outer loop
      vertex -4.955 5 26.62
      vertex -4.955 0.0499992 0
      vertex -4.955 0.0499992 26.62
    endloop
  endfacet
  facet normal 1 -0 0
    outer loop
      vertex -4.775 0.0499992 26.62
      vertex -4.775 5 0
      vertex -4.775 5 26.62
    endloop
  endfacet
  facet normal 1 0 0
    outer loop
      vertex -4.775 5 0
      vertex -4.775 0.0499992 26.62
      vertex -4.775 0.0499992 0
    endloop
  endfacet
  facet normal 0 1 -0
    outer loop
      vertex -4.775 5 0
      vertex -4.955 5 26.62
      vertex -4.775 5 26.62
    endloop
  endfacet
  facet normal 0 1 0
    outer loop
      vertex -4.955 5 26.62
      vertex -4.775 5 0
      vertex -4.955 5 0
    endloop
  endfacet
endsolid OpenSCAD_Model
