solid OpenSCAD_Model
  facet normal -1 0 0
    outer loop
      vertex 14.64 0 6.61867
      vertex 14.64 26.62 6.79856
      vertex 14.64 26.62 6.61867
    endloop
  endfacet
  facet normal -1 -0 0
    outer loop
      vertex 14.64 26.62 6.79856
      vertex 14.64 0 6.61867
      vertex 14.64 0 6.79856
    endloop
  endfacet
  facet normal 0 1 0
    outer loop
      vertex 15.0515 26.8 6.77399
      vertex 14.8451 26.8 6.8
      vertex 14.8877 26.8 6.79702
    endloop
  endfacet
  facet normal 0 1 0
    outer loop
      vertex 14.8451 26.8 6.8
      vertex 15.0515 26.8 6.77399
      vertex 17 26.8 4.64553
    endloop
  endfacet
  facet normal 0 1 0
    outer loop
      vertex 17 26.8 4.64553
      vertex 15.0515 26.8 6.77399
      vertex 15.2134 26.8 6.7396
    endloop
  endfacet
  facet normal 0 1 0
    outer loop
      vertex 17 26.8 4.64553
      vertex 15.2134 26.8 6.7396
      vertex 15.3724 26.8 6.694
    endloop
  endfacet
  facet normal 0 1 0
    outer loop
      vertex 17 26.8 4.64553
      vertex 15.3724 26.8 6.694
      vertex 15.5278 26.8 6.63742
    endloop
  endfacet
  facet normal 0 1 0
    outer loop
      vertex 17 26.8 4.64553
      vertex 15.5278 26.8 6.63742
      vertex 15.6789 26.8 6.57014
    endloop
  endfacet
  facet normal 0 1 0
    outer loop
      vertex 17 26.8 4.64553
      vertex 15.6789 26.8 6.57014
      vertex 15.825 26.8 6.49248
    endloop
  endfacet
  facet normal 0 1 0
    outer loop
      vertex 17 26.8 4.64553
      vertex 15.825 26.8 6.49248
      vertex 15.9653 26.8 6.40482
    endloop
  endfacet
  facet normal 0 1 0
    outer loop
      vertex 17 26.8 4.64553
      vertex 15.9653 26.8 6.40482
      vertex 16.0991 26.8 6.30759
    endloop
  endfacet
  facet normal 0 1 0
    outer loop
      vertex 17 26.8 4.64553
      vertex 16.0991 26.8 6.30759
      vertex 16.2258 26.8 6.20125
    endloop
  endfacet
  facet normal 0 1 0
    outer loop
      vertex 17 26.8 4.64553
      vertex 16.2258 26.8 6.20125
      vertex 16.3448 26.8 6.08634
    endloop
  endfacet
  facet normal 0 1 0
    outer loop
      vertex 17 26.8 4.64553
      vertex 16.3448 26.8 6.08634
      vertex 16.4555 26.8 5.96341
    endloop
  endfacet
  facet normal 0 1 0
    outer loop
      vertex 17 26.8 4.64553
      vertex 16.4555 26.8 5.96341
      vertex 16.5574 26.8 5.83305
    endloop
  endfacet
  facet normal 0 1 0
    outer loop
      vertex 17 26.8 4.64553
      vertex 16.5574 26.8 5.83305
      vertex 16.6499 26.8 5.69591
    endloop
  endfacet
  facet normal 0 1 0
    outer loop
      vertex 17 26.8 4.64553
      vertex 16.6499 26.8 5.69591
      vertex 16.7326 26.8 5.55265
    endloop
  endfacet
  facet normal 0 1 0
    outer loop
      vertex 17 26.8 4.64553
      vertex 16.7326 26.8 5.55265
      vertex 16.8051 26.8 5.40397
    endloop
  endfacet
  facet normal 0 1 0
    outer loop
      vertex 17 26.8 4.64553
      vertex 16.8051 26.8 5.40397
      vertex 16.8671 26.8 5.25059
    endloop
  endfacet
  facet normal 0 1 0
    outer loop
      vertex 17 26.8 4.64553
      vertex 16.8671 26.8 5.25059
      vertex 16.9182 26.8 5.09326
    endloop
  endfacet
  facet normal 0 1 0
    outer loop
      vertex 17 26.8 4.64553
      vertex 16.9182 26.8 5.09326
      vertex 16.9582 26.8 4.93275
    endloop
  endfacet
  facet normal 0 1 0
    outer loop
      vertex 17 26.8 4.64553
      vertex 16.9582 26.8 4.93275
      vertex 16.9869 26.8 4.76984
    endloop
  endfacet
  facet normal 0 1 0
    outer loop
      vertex 14.8451 26.8 6.8
      vertex 17 26.8 4.64553
      vertex 17 26.8 0
    endloop
  endfacet
  facet normal 0 1 0
    outer loop
      vertex 14.8451 26.8 6.8
      vertex 17 26.8 0
      vertex 0 26.8 0
    endloop
  endfacet
  facet normal 0 1 0
    outer loop
      vertex 14.8451 26.8 6.8
      vertex 0 26.8 0
      vertex 0 26.8 6.8
    endloop
  endfacet
  facet normal 0 -1 0
    outer loop
      vertex 14.7161 0 6.61867
      vertex 14.7224 0 6.79856
      vertex 14.64 0 6.79856
    endloop
  endfacet
  facet normal 0 -1 -0
    outer loop
      vertex 14.7224 0 6.79856
      vertex 14.7161 0 6.61867
      vertex 14.8867 0 6.78707
    endloop
  endfacet
  facet normal 0 -1 -0
    outer loop
      vertex 14.8867 0 6.78707
      vertex 14.8679 0 6.60806
      vertex 15.0498 0 6.76415
    endloop
  endfacet
  facet normal 0 -1 0
    outer loop
      vertex 15.0186 0 6.58688
      vertex 15.0498 0 6.76415
      vertex 14.8679 0 6.60806
    endloop
  endfacet
  facet normal 0 -1 0
    outer loop
      vertex 15.1674 0 6.55524
      vertex 15.2109 0 6.7299
      vertex 15.0186 0 6.58688
    endloop
  endfacet
  facet normal 0 -1 0
    outer loop
      vertex 14.7161 0 6.61867
      vertex 14.64 0 6.79856
      vertex 14.64 0 6.61867
    endloop
  endfacet
  facet normal 0 -1 0
    outer loop
      vertex 14.8867 0 6.78707
      vertex 14.7161 0 6.61867
      vertex 14.8679 0 6.60806
    endloop
  endfacet
  facet normal 0 -1 -0
    outer loop
      vertex 15.0498 0 6.76415
      vertex 15.0186 0 6.58688
      vertex 15.2109 0 6.7299
    endloop
  endfacet
  facet normal 0 -1 -0
    outer loop
      vertex 15.2109 0 6.7299
      vertex 15.1674 0 6.55524
      vertex 15.3693 0 6.68449
    endloop
  endfacet
  facet normal 0 -1 0
    outer loop
      vertex 15.3137 0 6.5133
      vertex 15.3693 0 6.68449
      vertex 15.1674 0 6.55524
    endloop
  endfacet
  facet normal 0 -1 -0
    outer loop
      vertex 15.3693 0 6.68449
      vertex 15.3137 0 6.5133
      vertex 15.5241 0 6.62815
    endloop
  endfacet
  facet normal 0 -1 0
    outer loop
      vertex 15.4566 0 6.46126
      vertex 15.5241 0 6.62815
      vertex 15.3137 0 6.5133
    endloop
  endfacet
  facet normal 0 -1 -0
    outer loop
      vertex 15.5241 0 6.62815
      vertex 15.4566 0 6.46126
      vertex 15.6746 0 6.56115
    endloop
  endfacet
  facet normal 0 -1 0
    outer loop
      vertex 15.5956 0 6.39937
      vertex 15.6746 0 6.56115
      vertex 15.4566 0 6.46126
    endloop
  endfacet
  facet normal 0 -1 -0
    outer loop
      vertex 15.6746 0 6.56115
      vertex 15.5956 0 6.39937
      vertex 15.82 0 6.48382
    endloop
  endfacet
  facet normal 0 -1 0
    outer loop
      vertex 15.73 0 6.32793
      vertex 15.82 0 6.48382
      vertex 15.5956 0 6.39937
    endloop
  endfacet
  facet normal 0 -1 -0
    outer loop
      vertex 15.82 0 6.48382
      vertex 15.73 0 6.32793
      vertex 15.9597 0 6.39653
    endloop
  endfacet
  facet normal 0 -1 0
    outer loop
      vertex 15.859 0 6.2473
      vertex 15.9597 0 6.39653
      vertex 15.73 0 6.32793
    endloop
  endfacet
  facet normal 0 -1 -0
    outer loop
      vertex 15.9597 0 6.39653
      vertex 15.859 0 6.2473
      vertex 16.093 0 6.29971
    endloop
  endfacet
  facet normal 0 -1 0
    outer loop
      vertex 15.9821 0 6.15786
      vertex 16.093 0 6.29971
      vertex 15.859 0 6.2473
    endloop
  endfacet
  facet normal 0 -1 -0
    outer loop
      vertex 16.093 0 6.29971
      vertex 15.9821 0 6.15786
      vertex 16.2191 0 6.19382
    endloop
  endfacet
  facet normal 0 -1 0
    outer loop
      vertex 16.0987 0 6.06006
      vertex 16.2191 0 6.19382
      vertex 15.9821 0 6.15786
    endloop
  endfacet
  facet normal 0 -1 -0
    outer loop
      vertex 16.2191 0 6.19382
      vertex 16.0987 0 6.06006
      vertex 16.3376 0 6.07939
    endloop
  endfacet
  facet normal 0 -1 0
    outer loop
      vertex 16.2082 0 5.95435
      vertex 16.3376 0 6.07939
      vertex 16.0987 0 6.06006
    endloop
  endfacet
  facet normal 0 -1 -0
    outer loop
      vertex 16.3376 0 6.07939
      vertex 16.2082 0 5.95435
      vertex 16.4479 0 5.95698
    endloop
  endfacet
  facet normal 0 -1 0
    outer loop
      vertex 16.31 0 5.84128
      vertex 16.4479 0 5.95698
      vertex 16.2082 0 5.95435
    endloop
  endfacet
  facet normal 0 -1 0
    outer loop
      vertex 16.31 0 5.84128
      vertex 16.5493 0 5.82717
      vertex 16.4479 0 5.95698
    endloop
  endfacet
  facet normal 0 -1 0
    outer loop
      vertex 16.4037 0 5.72137
      vertex 16.5493 0 5.82717
      vertex 16.31 0 5.84128
    endloop
  endfacet
  facet normal 0 -1 0
    outer loop
      vertex 16.4037 0 5.72137
      vertex 16.6414 0 5.69061
      vertex 16.5493 0 5.82717
    endloop
  endfacet
  facet normal 0 -1 0
    outer loop
      vertex 16.4887 0 5.59522
      vertex 16.6414 0 5.69061
      vertex 16.4037 0 5.72137
    endloop
  endfacet
  facet normal 0 -1 0
    outer loop
      vertex 16.4887 0 5.59522
      vertex 16.7238 0 5.54795
      vertex 16.6414 0 5.69061
    endloop
  endfacet
  facet normal 0 -1 0
    outer loop
      vertex 16.5648 0 5.46345
      vertex 16.7238 0 5.54795
      vertex 16.4887 0 5.59522
    endloop
  endfacet
  facet normal 0 -1 0
    outer loop
      vertex 16.5648 0 5.46345
      vertex 16.796 0 5.3999
      vertex 16.7238 0 5.54795
    endloop
  endfacet
  facet normal 0 -1 0
    outer loop
      vertex 16.6315 0 5.32669
      vertex 16.796 0 5.3999
      vertex 16.5648 0 5.46345
    endloop
  endfacet
  facet normal 0 -1 -0
    outer loop
      vertex 16.796 0 5.3999
      vertex 16.6315 0 5.32669
      vertex 16.82 0 5.34041
    endloop
  endfacet
  facet normal 0 -1 0
    outer loop
      vertex 16.82 0 5.34041
      vertex 16.8671 0 5.25059
      vertex 16.82 0 5.36709
    endloop
  endfacet
  facet normal 0 -1 0
    outer loop
      vertex 16.6885 0 5.1856
      vertex 16.82 0 5.34041
      vertex 16.6315 0 5.32669
    endloop
  endfacet
  facet normal 0 -1 -0
    outer loop
      vertex 16.82 0 5.34041
      vertex 16.6885 0 5.1856
      vertex 16.8671 0 5.25059
    endloop
  endfacet
  facet normal 0 -1 0
    outer loop
      vertex 16.6885 0 5.1856
      vertex 16.9182 0 5.09326
      vertex 16.8671 0 5.25059
    endloop
  endfacet
  facet normal 0 -1 0
    outer loop
      vertex 16.7355 0 5.04089
      vertex 16.9182 0 5.09326
      vertex 16.6885 0 5.1856
    endloop
  endfacet
  facet normal 0 -1 0
    outer loop
      vertex 16.7355 0 5.04089
      vertex 16.9582 0 4.93275
      vertex 16.9182 0 5.09326
    endloop
  endfacet
  facet normal 0 -1 0
    outer loop
      vertex 16.7724 0 4.89325
      vertex 16.9582 0 4.93275
      vertex 16.7355 0 5.04089
    endloop
  endfacet
  facet normal 0 -1 0
    outer loop
      vertex 16.7724 0 4.89325
      vertex 16.9869 0 4.76984
      vertex 16.9582 0 4.93275
    endloop
  endfacet
  facet normal 0 -1 0
    outer loop
      vertex 16.7988 0 4.7434
      vertex 16.9869 0 4.76984
      vertex 16.7724 0 4.89325
    endloop
  endfacet
  facet normal 0 -1 0
    outer loop
      vertex 16.7988 0 4.7434
      vertex 17 0 4.64553
      vertex 16.9869 0 4.76984
    endloop
  endfacet
  facet normal 0 -1 0
    outer loop
      vertex 16.8147 0 4.59207
      vertex 17 0 4.64553
      vertex 16.7988 0 4.7434
    endloop
  endfacet
  facet normal 0 -1 0
    outer loop
      vertex 16.82 0 4.44
      vertex 17 0 4.64553
      vertex 16.8147 0 4.59207
    endloop
  endfacet
  facet normal 0 -1 0
    outer loop
      vertex 17 0 0
      vertex 16.82 0 4.44
      vertex 16.82 0 0
    endloop
  endfacet
  facet normal 0 -1 0
    outer loop
      vertex 16.82 0 4.44
      vertex 17 0 0
      vertex 17 0 4.64553
    endloop
  endfacet
  facet normal 0.829068 -0 0.559147
    outer loop
      vertex 16.5493 0 5.82717
      vertex 16.6414 26.62 5.69061
      vertex 16.5493 26.62 5.82717
    endloop
  endfacet
  facet normal 0.829068 0 0.559147
    outer loop
      vertex 16.6414 26.62 5.69061
      vertex 16.5493 0 5.82717
      vertex 16.6414 0 5.69061
    endloop
  endfacet
  facet normal 0.529901 0 0.84806
    outer loop
      vertex 15.82 26.62 6.48382
      vertex 15.9597 0 6.39653
      vertex 15.9597 26.62 6.39653
    endloop
  endfacet
  facet normal 0.529901 0 0.84806
    outer loop
      vertex 15.9597 0 6.39653
      vertex 15.82 26.62 6.48382
      vertex 15.82 0 6.48382
    endloop
  endfacet
  facet normal 0.406702 0 0.913561
    outer loop
      vertex 15.5241 26.62 6.62815
      vertex 15.6746 0 6.56115
      vertex 15.6746 26.62 6.56115
    endloop
  endfacet
  facet normal 0.406702 0 0.913561
    outer loop
      vertex 15.6746 0 6.56115
      vertex 15.5241 26.62 6.62815
      vertex 15.5241 0 6.62815
    endloop
  endfacet
  facet normal 0.0697627 0 0.997564
    outer loop
      vertex 14.7224 26.62 6.79856
      vertex 14.8867 0 6.78707
      vertex 14.8867 26.62 6.78707
    endloop
  endfacet
  facet normal 0.0697627 0 0.997564
    outer loop
      vertex 14.8867 0 6.78707
      vertex 14.7224 26.62 6.79856
      vertex 14.7224 0 6.79856
    endloop
  endfacet
  facet normal 0.898815 -0 0.438328
    outer loop
      vertex 16.7238 0 5.54795
      vertex 16.796 26.62 5.3999
      vertex 16.7238 26.62 5.54795
    endloop
  endfacet
  facet normal 0.898815 0 0.438328
    outer loop
      vertex 16.796 26.62 5.3999
      vertex 16.7238 0 5.54795
      vertex 16.796 0 5.3999
    endloop
  endfacet
  facet normal 0.865933 -0 0.50016
    outer loop
      vertex 16.6414 0 5.69061
      vertex 16.7238 26.62 5.54795
      vertex 16.6414 26.62 5.69061
    endloop
  endfacet
  facet normal 0.865933 0 0.50016
    outer loop
      vertex 16.7238 26.62 5.54795
      vertex 16.6414 0 5.69061
      vertex 16.7238 0 5.54795
    endloop
  endfacet
  facet normal 0.788066 -0 0.615591
    outer loop
      vertex 16.4479 0 5.95698
      vertex 16.5493 26.62 5.82717
      vertex 16.4479 26.62 5.95698
    endloop
  endfacet
  facet normal 0.788066 0 0.615591
    outer loop
      vertex 16.5493 26.62 5.82717
      vertex 16.4479 0 5.95698
      vertex 16.5493 0 5.82717
    endloop
  endfacet
  facet normal 0.275579 0 0.961279
    outer loop
      vertex 15.2109 26.62 6.7299
      vertex 15.3693 0 6.68449
      vertex 15.3693 26.62 6.68449
    endloop
  endfacet
  facet normal 0.275579 0 0.961279
    outer loop
      vertex 15.3693 0 6.68449
      vertex 15.2109 26.62 6.7299
      vertex 15.2109 0 6.7299
    endloop
  endfacet
  facet normal -0 0 1
    outer loop
      vertex 14.64 26.62 6.79856
      vertex 14.7224 0 6.79856
      vertex 14.7224 26.62 6.79856
    endloop
  endfacet
  facet normal 0 0 1
    outer loop
      vertex 14.7224 0 6.79856
      vertex 14.64 26.62 6.79856
      vertex 14.64 0 6.79856
    endloop
  endfacet
  facet normal 0.342006 0 0.939698
    outer loop
      vertex 15.3693 26.62 6.68449
      vertex 15.5241 0 6.62815
      vertex 15.5241 26.62 6.62815
    endloop
  endfacet
  facet normal 0.342006 0 0.939698
    outer loop
      vertex 15.5241 0 6.62815
      vertex 15.3693 26.62 6.68449
      vertex 15.3693 0 6.68449
    endloop
  endfacet
  facet normal 0.13916 0 0.99027
    outer loop
      vertex 14.8867 26.62 6.78707
      vertex 15.0498 0 6.76415
      vertex 15.0498 26.62 6.76415
    endloop
  endfacet
  facet normal 0.13916 0 0.99027
    outer loop
      vertex 15.0498 0 6.76415
      vertex 14.8867 26.62 6.78707
      vertex 14.8867 0 6.78707
    endloop
  endfacet
  facet normal 0.643071 0 0.765807
    outer loop
      vertex 16.093 26.62 6.29971
      vertex 16.2191 0 6.19382
      vertex 16.2191 26.62 6.19382
    endloop
  endfacet
  facet normal 0.643071 0 0.765807
    outer loop
      vertex 16.2191 0 6.19382
      vertex 16.093 26.62 6.29971
      vertex 16.093 0 6.29971
    endloop
  endfacet
  facet normal 0.469564 0 0.882899
    outer loop
      vertex 15.6746 26.62 6.56115
      vertex 15.82 0 6.48382
      vertex 15.82 26.62 6.48382
    endloop
  endfacet
  facet normal 0.469564 0 0.882899
    outer loop
      vertex 15.82 0 6.48382
      vertex 15.6746 26.62 6.56115
      vertex 15.6746 0 6.56115
    endloop
  endfacet
  facet normal 0.587674 0 0.809098
    outer loop
      vertex 15.9597 26.62 6.39653
      vertex 16.093 0 6.29971
      vertex 16.093 26.62 6.29971
    endloop
  endfacet
  facet normal 0.587674 0 0.809098
    outer loop
      vertex 16.093 0 6.29971
      vertex 15.9597 26.62 6.39653
      vertex 15.9597 0 6.39653
    endloop
  endfacet
  facet normal 0.927376 -0 0.374131
    outer loop
      vertex 16.796 0 5.3999
      vertex 16.82 26.62 5.34041
      vertex 16.796 26.62 5.3999
    endloop
  endfacet
  facet normal 0.927376 0 0.374131
    outer loop
      vertex 16.82 26.62 5.34041
      vertex 16.796 0 5.3999
      vertex 16.82 0 5.34041
    endloop
  endfacet
  facet normal 0.742899 -0 0.669404
    outer loop
      vertex 16.3376 0 6.07939
      vertex 16.4479 26.62 5.95698
      vertex 16.3376 26.62 6.07939
    endloop
  endfacet
  facet normal 0.742899 0 0.669404
    outer loop
      vertex 16.4479 26.62 5.95698
      vertex 16.3376 0 6.07939
      vertex 16.4479 0 5.95698
    endloop
  endfacet
  facet normal 0.694645 0 0.719352
    outer loop
      vertex 16.2191 26.62 6.19382
      vertex 16.3376 0 6.07939
      vertex 16.3376 26.62 6.07939
    endloop
  endfacet
  facet normal 0.694645 0 0.719352
    outer loop
      vertex 16.3376 0 6.07939
      vertex 16.2191 26.62 6.19382
      vertex 16.2191 0 6.19382
    endloop
  endfacet
  facet normal 0.207953 0 0.978139
    outer loop
      vertex 15.0498 26.62 6.76415
      vertex 15.2109 0 6.7299
      vertex 15.2109 26.62 6.7299
    endloop
  endfacet
  facet normal 0.207953 0 0.978139
    outer loop
      vertex 15.2109 0 6.7299
      vertex 15.0498 26.62 6.76415
      vertex 15.0498 0 6.76415
    endloop
  endfacet
  facet normal -0.829309 0 -0.55879
    outer loop
      vertex 16.4887 0 5.59522
      vertex 16.4037 26.62 5.72137
      vertex 16.4887 26.62 5.59522
    endloop
  endfacet
  facet normal -0.829309 -0 -0.55879
    outer loop
      vertex 16.4037 26.62 5.72137
      vertex 16.4887 0 5.59522
      vertex 16.4037 0 5.72137
    endloop
  endfacet
  facet normal -0.970158 0 -0.242474
    outer loop
      vertex 16.7724 0 4.89325
      vertex 16.7355 26.62 5.04089
      vertex 16.7724 26.62 4.89325
    endloop
  endfacet
  facet normal -0.970158 -0 -0.242474
    outer loop
      vertex 16.7355 26.62 5.04089
      vertex 16.7724 0 4.89325
      vertex 16.7355 0 5.04089
    endloop
  endfacet
  facet normal -0.78796 0 -0.615727
    outer loop
      vertex 16.4037 0 5.72137
      vertex 16.31 26.62 5.84128
      vertex 16.4037 26.62 5.72137
    endloop
  endfacet
  facet normal -0.78796 -0 -0.615727
    outer loop
      vertex 16.31 26.62 5.84128
      vertex 16.4037 0 5.72137
      vertex 16.31 0 5.84128
    endloop
  endfacet
  facet normal -0.642637 0 -0.766171
    outer loop
      vertex 15.9821 0 6.15786
      vertex 16.0987 26.62 6.06006
      vertex 16.0987 0 6.06006
    endloop
  endfacet
  facet normal -0.642637 0 -0.766171
    outer loop
      vertex 16.0987 26.62 6.06006
      vertex 15.9821 0 6.15786
      vertex 15.9821 26.62 6.15786
    endloop
  endfacet
  facet normal -0.865961 0 -0.500111
    outer loop
      vertex 16.5648 0 5.46345
      vertex 16.4887 26.62 5.59522
      vertex 16.5648 26.62 5.46345
    endloop
  endfacet
  facet normal -0.865961 -0 -0.500111
    outer loop
      vertex 16.4887 26.62 5.59522
      vertex 16.5648 0 5.46345
      vertex 16.4887 0 5.59522
    endloop
  endfacet
  facet normal -0.999393 0 -0.0348312
    outer loop
      vertex 16.82 0 4.44
      vertex 16.8147 26.62 4.59207
      vertex 16.82 26.62 4.44
    endloop
  endfacet
  facet normal -0.999393 -0 -0.0348312
    outer loop
      vertex 16.8147 26.62 4.59207
      vertex 16.82 0 4.44
      vertex 16.8147 0 4.59207
    endloop
  endfacet
  facet normal 0 0 -1
    outer loop
      vertex 14.64 0 6.61867
      vertex 14.7161 26.62 6.61867
      vertex 14.7161 0 6.61867
    endloop
  endfacet
  facet normal -0 0 -1
    outer loop
      vertex 14.7161 26.62 6.61867
      vertex 14.64 0 6.61867
      vertex 14.64 26.62 6.61867
    endloop
  endfacet
  facet normal -0.984833 0 -0.173504
    outer loop
      vertex 16.7988 0 4.7434
      vertex 16.7724 26.62 4.89325
      vertex 16.7988 26.62 4.7434
    endloop
  endfacet
  facet normal -0.984833 -0 -0.173504
    outer loop
      vertex 16.7724 26.62 4.89325
      vertex 16.7988 0 4.7434
      vertex 16.7724 0 4.89325
    endloop
  endfacet
  facet normal -0.275571 0 -0.961281
    outer loop
      vertex 15.1674 0 6.55524
      vertex 15.3137 26.62 6.5133
      vertex 15.3137 0 6.5133
    endloop
  endfacet
  facet normal -0.275571 0 -0.961281
    outer loop
      vertex 15.3137 26.62 6.5133
      vertex 15.1674 0 6.55524
      vertex 15.1674 26.62 6.55524
    endloop
  endfacet
  facet normal -0.994526 0 -0.104493
    outer loop
      vertex 16.8147 0 4.59207
      vertex 16.7988 26.62 4.7434
      vertex 16.8147 26.62 4.59207
    endloop
  endfacet
  facet normal -0.994526 -0 -0.104493
    outer loop
      vertex 16.7988 26.62 4.7434
      vertex 16.8147 0 4.59207
      vertex 16.7988 0 4.7434
    endloop
  endfacet
  facet normal -0.743173 0 -0.669099
    outer loop
      vertex 16.31 0 5.84128
      vertex 16.2082 26.62 5.95435
      vertex 16.31 26.62 5.84128
    endloop
  endfacet
  facet normal -0.743173 -0 -0.669099
    outer loop
      vertex 16.2082 26.62 5.95435
      vertex 16.31 0 5.84128
      vertex 16.2082 0 5.95435
    endloop
  endfacet
  facet normal -0.0697245 0 -0.997566
    outer loop
      vertex 14.7161 0 6.61867
      vertex 14.8679 26.62 6.60806
      vertex 14.8679 0 6.60806
    endloop
  endfacet
  facet normal -0.0697245 0 -0.997566
    outer loop
      vertex 14.8679 26.62 6.60806
      vertex 14.7161 0 6.61867
      vertex 14.7161 26.62 6.61867
    endloop
  endfacet
  facet normal -0.406754 0 -0.913538
    outer loop
      vertex 15.4566 0 6.46126
      vertex 15.5956 26.62 6.39937
      vertex 15.5956 0 6.39937
    endloop
  endfacet
  facet normal -0.406754 0 -0.913538
    outer loop
      vertex 15.5956 26.62 6.39937
      vertex 15.4566 0 6.46126
      vertex 15.4566 26.62 6.46126
    endloop
  endfacet
  facet normal -0.8988 0 -0.438359
    outer loop
      vertex 16.6315 0 5.32669
      vertex 16.5648 26.62 5.46345
      vertex 16.6315 26.62 5.32669
    endloop
  endfacet
  facet normal -0.8988 -0 -0.438359
    outer loop
      vertex 16.5648 26.62 5.46345
      vertex 16.6315 0 5.32669
      vertex 16.5648 0 5.46345
    endloop
  endfacet
  facet normal -0.927193 0 -0.374584
    outer loop
      vertex 16.6885 0 5.1856
      vertex 16.6315 26.62 5.32669
      vertex 16.6885 26.62 5.1856
    endloop
  endfacet
  facet normal -0.927193 -0 -0.374584
    outer loop
      vertex 16.6315 26.62 5.32669
      vertex 16.6885 0 5.1856
      vertex 16.6315 0 5.32669
    endloop
  endfacet
  facet normal -0.530023 0 -0.847984
    outer loop
      vertex 15.73 0 6.32793
      vertex 15.859 26.62 6.2473
      vertex 15.859 0 6.2473
    endloop
  endfacet
  facet normal -0.530023 0 -0.847984
    outer loop
      vertex 15.859 26.62 6.2473
      vertex 15.73 0 6.32793
      vertex 15.73 26.62 6.32793
    endloop
  endfacet
  facet normal -0.587796 0 -0.809009
    outer loop
      vertex 15.859 0 6.2473
      vertex 15.9821 26.62 6.15786
      vertex 15.9821 0 6.15786
    endloop
  endfacet
  facet normal -0.587796 0 -0.809009
    outer loop
      vertex 15.9821 26.62 6.15786
      vertex 15.859 0 6.2473
      vertex 15.859 26.62 6.2473
    endloop
  endfacet
  facet normal -0.951093 0 -0.308903
    outer loop
      vertex 16.7355 0 5.04089
      vertex 16.6885 26.62 5.1856
      vertex 16.7355 26.62 5.04089
    endloop
  endfacet
  facet normal -0.951093 -0 -0.308903
    outer loop
      vertex 16.6885 26.62 5.1856
      vertex 16.7355 0 5.04089
      vertex 16.6885 0 5.1856
    endloop
  endfacet
  facet normal -0.46936 0 -0.883007
    outer loop
      vertex 15.5956 0 6.39937
      vertex 15.73 26.62 6.32793
      vertex 15.73 0 6.32793
    endloop
  endfacet
  facet normal -0.46936 0 -0.883007
    outer loop
      vertex 15.73 26.62 6.32793
      vertex 15.5956 0 6.39937
      vertex 15.5956 26.62 6.39937
    endloop
  endfacet
  facet normal -0.694546 0 -0.719448
    outer loop
      vertex 16.0987 0 6.06006
      vertex 16.2082 26.62 5.95435
      vertex 16.2082 0 5.95435
    endloop
  endfacet
  facet normal -0.694546 0 -0.719448
    outer loop
      vertex 16.2082 26.62 5.95435
      vertex 16.0987 0 6.06006
      vertex 16.0987 26.62 6.06006
    endloop
  endfacet
  facet normal -0.207985 0 -0.978132
    outer loop
      vertex 15.0186 0 6.58688
      vertex 15.1674 26.62 6.55524
      vertex 15.1674 0 6.55524
    endloop
  endfacet
  facet normal -0.207985 0 -0.978132
    outer loop
      vertex 15.1674 26.62 6.55524
      vertex 15.0186 0 6.58688
      vertex 15.0186 26.62 6.58688
    endloop
  endfacet
  facet normal -0.342187 0 -0.939632
    outer loop
      vertex 15.3137 0 6.5133
      vertex 15.4566 26.62 6.46126
      vertex 15.4566 0 6.46126
    endloop
  endfacet
  facet normal -0.342187 0 -0.939632
    outer loop
      vertex 15.4566 26.62 6.46126
      vertex 15.3137 0 6.5133
      vertex 15.3137 26.62 6.5133
    endloop
  endfacet
  facet normal -0.139176 0 -0.990268
    outer loop
      vertex 14.8679 0 6.60806
      vertex 15.0186 26.62 6.58688
      vertex 15.0186 0 6.58688
    endloop
  endfacet
  facet normal -0.139176 0 -0.990268
    outer loop
      vertex 15.0186 26.62 6.58688
      vertex 14.8679 0 6.60806
      vertex 14.8679 26.62 6.60806
    endloop
  endfacet
  facet normal -1 0 0
    outer loop
      vertex 16.82 0 0
      vertex 16.82 26.62 4.44
      vertex 16.82 26.62 0
    endloop
  endfacet
  facet normal -1 -0 0
    outer loop
      vertex 16.82 26.62 4.44
      vertex 16.82 0 0
      vertex 16.82 0 4.44
    endloop
  endfacet
  facet normal -1 0 0
    outer loop
      vertex 16.82 0 5.34041
      vertex 16.82 26.62 5.36709
      vertex 16.82 26.62 5.34041
    endloop
  endfacet
  facet normal -1 -0 0
    outer loop
      vertex 16.82 26.62 5.36709
      vertex 16.82 0 5.34041
      vertex 16.82 0 5.36709
    endloop
  endfacet
  facet normal 0 0 1
    outer loop
      vertex 14.8451 26.8 6.8
      vertex 11.256 26.62 6.8
      vertex 14.8451 26.62 6.8
    endloop
  endfacet
  facet normal 0 0 1
    outer loop
      vertex 11.256 26.62 6.8
      vertex 7.026 26.62 6.8
      vertex 11.256 0 6.8
    endloop
  endfacet
  facet normal 0 0 1
    outer loop
      vertex 14.8451 26.8 6.8
      vertex 7.026 26.62 6.8
      vertex 11.256 26.62 6.8
    endloop
  endfacet
  facet normal 0 0 1
    outer loop
      vertex 14.8451 26.8 6.8
      vertex 6.18 26.62 6.8
      vertex 7.026 26.62 6.8
    endloop
  endfacet
  facet normal 0 0 1
    outer loop
      vertex 6.18 26.62 6.8
      vertex 6 26.62 6.8
      vertex 6.18 0 6.8
    endloop
  endfacet
  facet normal 0 0 1
    outer loop
      vertex 14.8451 26.8 6.8
      vertex 6 26.62 6.8
      vertex 6.18 26.62 6.8
    endloop
  endfacet
  facet normal -0 0 1
    outer loop
      vertex 0 26.8 6.8
      vertex 6 26.62 6.8
      vertex 14.8451 26.8 6.8
    endloop
  endfacet
  facet normal 0 0 1
    outer loop
      vertex 6 26.62 6.8
      vertex 0 26.8 6.8
      vertex 1.21658 26.62 6.8
    endloop
  endfacet
  facet normal 0 0 1
    outer loop
      vertex 0 26.8 6.8
      vertex 0.179999 20 6.8
      vertex 0.179999 26.62 6.8
    endloop
  endfacet
  facet normal 0 0 1
    outer loop
      vertex 1.21658 26.62 6.8
      vertex 0 26.8 6.8
      vertex 0.179999 26.62 6.8
    endloop
  endfacet
  facet normal 0 0 1
    outer loop
      vertex 0.179999 20 6.8
      vertex 0 26.8 6.8
      vertex 0 0 6.8
    endloop
  endfacet
  facet normal 0 0 1
    outer loop
      vertex 0.179999 20 6.8
      vertex 0 0 6.8
      vertex 0.179999 0 6.8
    endloop
  endfacet
  facet normal 0 0 1
    outer loop
      vertex 11.256 0 6.8
      vertex 7.026 26.62 6.8
      vertex 7.026 0 6.8
    endloop
  endfacet
  facet normal 0 0 1
    outer loop
      vertex 6.18 0 6.8
      vertex 6 26.62 6.8
      vertex 6 0 6.8
    endloop
  endfacet
  facet normal 0 0 -1
    outer loop
      vertex 14.64 2.01 0
      vertex 14.82 0 0
      vertex 14.64 0 0
    endloop
  endfacet
  facet normal 0 0 -1
    outer loop
      vertex 16.82 26.62 0
      vertex 17 0 0
      vertex 16.82 0 0
    endloop
  endfacet
  facet normal 0 0 -1
    outer loop
      vertex 17 0 0
      vertex 16.82 26.62 0
      vertex 17 26.8 0
    endloop
  endfacet
  facet normal 0 0 -1
    outer loop
      vertex 14.82 26.62 0
      vertex 17 26.8 0
      vertex 16.82 26.62 0
    endloop
  endfacet
  facet normal 0 0 -1
    outer loop
      vertex 14.64 2.19 0
      vertex 14.82 0 0
      vertex 14.64 2.01 0
    endloop
  endfacet
  facet normal 0 0 -1
    outer loop
      vertex 14.64 4.02 0
      vertex 14.82 0 0
      vertex 14.64 2.19 0
    endloop
  endfacet
  facet normal 0 0 -1
    outer loop
      vertex 14.64 4.2 0
      vertex 14.82 0 0
      vertex 14.64 4.02 0
    endloop
  endfacet
  facet normal 0 0 -1
    outer loop
      vertex 14.64 20 0
      vertex 14.82 0 0
      vertex 14.64 4.2 0
    endloop
  endfacet
  facet normal 0 0 -1
    outer loop
      vertex 14.82 0 0
      vertex 14.64 20 0
      vertex 14.82 26.62 0
    endloop
  endfacet
  facet normal 0 0 -1
    outer loop
      vertex 14.64 20.18 0
      vertex 14.82 26.62 0
      vertex 14.64 20 0
    endloop
  endfacet
  facet normal 0 0 -1
    outer loop
      vertex 14.64 23.4 0
      vertex 14.82 26.62 0
      vertex 14.64 20.18 0
    endloop
  endfacet
  facet normal 0 0 -1
    outer loop
      vertex 14.64 23.58 0
      vertex 14.82 26.62 0
      vertex 14.64 23.4 0
    endloop
  endfacet
  facet normal 0 0 -1
    outer loop
      vertex 14.64 26.62 0
      vertex 14.82 26.62 0
      vertex 14.64 23.58 0
    endloop
  endfacet
  facet normal 0 0 -1
    outer loop
      vertex 14.64 26.62 0
      vertex 17 26.8 0
      vertex 14.82 26.62 0
    endloop
  endfacet
  facet normal 0 0 -1
    outer loop
      vertex 6.18 26.62 0
      vertex 17 26.8 0
      vertex 14.64 26.62 0
    endloop
  endfacet
  facet normal 0 0 -1
    outer loop
      vertex 6 23.4 0
      vertex 6.18 23.4 0
      vertex 6 20.18 0
    endloop
  endfacet
  facet normal 0 0 -1
    outer loop
      vertex 6.18 23.4 0
      vertex 6 23.4 0
      vertex 6.18 23.58 0
    endloop
  endfacet
  facet normal 0 0 -1
    outer loop
      vertex 6 23.58 0
      vertex 6.18 23.58 0
      vertex 6 23.4 0
    endloop
  endfacet
  facet normal 0 0 -1
    outer loop
      vertex 6.18 23.58 0
      vertex 6 23.58 0
      vertex 6.18 26.62 0
    endloop
  endfacet
  facet normal 0 0 -1
    outer loop
      vertex 6 26.62 0
      vertex 6.18 26.62 0
      vertex 6 23.58 0
    endloop
  endfacet
  facet normal 0 0 -1
    outer loop
      vertex 0 26.8 0
      vertex 6.18 26.62 0
      vertex 6 26.62 0
    endloop
  endfacet
  facet normal 0 0 -1
    outer loop
      vertex 0 26.8 0
      vertex 6 26.62 0
      vertex 0.179999 26.62 0
    endloop
  endfacet
  facet normal 0 0 -1
    outer loop
      vertex 6.18 26.62 0
      vertex 0 26.8 0
      vertex 17 26.8 0
    endloop
  endfacet
  facet normal 0 0 -1
    outer loop
      vertex 0.179999 23.58 0
      vertex 0 26.8 0
      vertex 0.179999 26.62 0
    endloop
  endfacet
  facet normal 0 0 -1
    outer loop
      vertex 0.179999 23.4 0
      vertex 6 23.58 0
      vertex 6 23.4 0
    endloop
  endfacet
  facet normal -0 0 -1
    outer loop
      vertex 6 23.58 0
      vertex 0.179999 23.4 0
      vertex 0.179999 23.58 0
    endloop
  endfacet
  facet normal 0 0 -1
    outer loop
      vertex 0.179999 20 0
      vertex 6 20.18 0
      vertex 6 20 0
    endloop
  endfacet
  facet normal -0 0 -1
    outer loop
      vertex 6 20.18 0
      vertex 0.179999 20 0
      vertex 0.179999 20.18 0
    endloop
  endfacet
  facet normal 0 0 -1
    outer loop
      vertex 0 0 0
      vertex 6.18 2.01 0
      vertex 6.18 0 0
    endloop
  endfacet
  facet normal 0 -0 -1
    outer loop
      vertex 0.179999 4.2 0
      vertex 6.18 2.01 0
      vertex 0 0 0
    endloop
  endfacet
  facet normal 0 0 -1
    outer loop
      vertex 6.18 2.19 0
      vertex 6 4.2 0
      vertex 6.18 4.02 0
    endloop
  endfacet
  facet normal 0 0 -1
    outer loop
      vertex 6.18 4.02 0
      vertex 6 4.2 0
      vertex 6.18 4.2 0
    endloop
  endfacet
  facet normal 0 0 -1
    outer loop
      vertex 6.18 4.2 0
      vertex 6 4.2 0
      vertex 6.18 20 0
    endloop
  endfacet
  facet normal 0 0 -1
    outer loop
      vertex 6 20 0
      vertex 6.18 20 0
      vertex 6 4.2 0
    endloop
  endfacet
  facet normal 0 0 -1
    outer loop
      vertex 6.18 20 0
      vertex 6 20 0
      vertex 6.18 20.18 0
    endloop
  endfacet
  facet normal 0 0 -1
    outer loop
      vertex 6 20.18 0
      vertex 6.18 20.18 0
      vertex 6 20 0
    endloop
  endfacet
  facet normal 0 0 -1
    outer loop
      vertex 6.18 20.18 0
      vertex 6 20.18 0
      vertex 6.18 23.4 0
    endloop
  endfacet
  facet normal 0 0 -1
    outer loop
      vertex 6.18 2.19 0
      vertex 0.179999 4.2 0
      vertex 6 4.2 0
    endloop
  endfacet
  facet normal 0 0 -1
    outer loop
      vertex 0 0 0
      vertex 0.179999 20 0
      vertex 0.179999 4.2 0
    endloop
  endfacet
  facet normal 0 0 -1
    outer loop
      vertex 0 26.8 0
      vertex 0.179999 20 0
      vertex 0 0 0
    endloop
  endfacet
  facet normal 0 0 -1
    outer loop
      vertex 0.179999 20 0
      vertex 0 26.8 0
      vertex 0.179999 20.18 0
    endloop
  endfacet
  facet normal 0 0 -1
    outer loop
      vertex 0.179999 20.18 0
      vertex 0 26.8 0
      vertex 0.179999 23.4 0
    endloop
  endfacet
  facet normal 0 0 -1
    outer loop
      vertex 0.179999 23.4 0
      vertex 0 26.8 0
      vertex 0.179999 23.58 0
    endloop
  endfacet
  facet normal 0 0 -1
    outer loop
      vertex 6.18 2.01 0
      vertex 0.179999 4.2 0
      vertex 6.18 2.19 0
    endloop
  endfacet
  facet normal 0 0 -1
    outer loop
      vertex 6.18 23.4 0
      vertex 14.64 23.58 0
      vertex 14.64 23.4 0
    endloop
  endfacet
  facet normal -0 0 -1
    outer loop
      vertex 14.64 23.58 0
      vertex 6.18 23.4 0
      vertex 6.18 23.58 0
    endloop
  endfacet
  facet normal 0 0 -1
    outer loop
      vertex 6.18 20 0
      vertex 14.64 20.18 0
      vertex 14.64 20 0
    endloop
  endfacet
  facet normal -0 0 -1
    outer loop
      vertex 14.64 20.18 0
      vertex 6.18 20 0
      vertex 6.18 20.18 0
    endloop
  endfacet
  facet normal 0 0 -1
    outer loop
      vertex 6.18 4.02 0
      vertex 14.64 4.2 0
      vertex 14.64 4.02 0
    endloop
  endfacet
  facet normal -0 0 -1
    outer loop
      vertex 14.64 4.2 0
      vertex 6.18 4.02 0
      vertex 6.18 4.2 0
    endloop
  endfacet
  facet normal 0 0 -1
    outer loop
      vertex 6.18 2.01 0
      vertex 14.64 2.19 0
      vertex 14.64 2.01 0
    endloop
  endfacet
  facet normal -0 0 -1
    outer loop
      vertex 14.64 2.19 0
      vertex 6.18 2.01 0
      vertex 6.18 2.19 0
    endloop
  endfacet
  facet normal 1 0 0
    outer loop
      vertex 0.179999 26.62 6.8
      vertex 0.179999 23.58 6.62
      vertex 0.179999 26.62 0
    endloop
  endfacet
  facet normal 1 0 0
    outer loop
      vertex 0.179999 26.62 6.8
      vertex 0.179999 23.4 6.62
      vertex 0.179999 23.58 6.62
    endloop
  endfacet
  facet normal 1 0 0
    outer loop
      vertex 0.179999 23.4 6.62
      vertex 0.179999 20.18 6.62
      vertex 0.179999 23.4 0
    endloop
  endfacet
  facet normal 1 -0 0
    outer loop
      vertex 0.179999 20 6.8
      vertex 0.179999 23.4 6.62
      vertex 0.179999 26.62 6.8
    endloop
  endfacet
  facet normal 1 0 0
    outer loop
      vertex 0.179999 23.4 6.62
      vertex 0.179999 20 6.8
      vertex 0.179999 20.18 6.62
    endloop
  endfacet
  facet normal 1 0 0
    outer loop
      vertex 0.179999 20 6.8
      vertex 0.179999 20 6.62
      vertex 0.179999 20.18 6.62
    endloop
  endfacet
  facet normal 1 0 0
    outer loop
      vertex 0.179999 4.2 4
      vertex 0.179999 20 6.62
      vertex 0.179999 20 6.8
    endloop
  endfacet
  facet normal 1 0 0
    outer loop
      vertex 0.179999 20 6.62
      vertex 0.179999 4.2 4
      vertex 0.179999 20 0
    endloop
  endfacet
  facet normal 1 -0 0
    outer loop
      vertex 0.179999 0 6.8
      vertex 0.179999 4.2 4
      vertex 0.179999 20 6.8
    endloop
  endfacet
  facet normal 1 0 0
    outer loop
      vertex 0.179999 4.2 4
      vertex 0.179999 0 6.8
      vertex 0.179999 0 4
    endloop
  endfacet
  facet normal 1 0 0
    outer loop
      vertex 0.179999 26.62 0
      vertex 0.179999 23.58 6.62
      vertex 0.179999 23.58 0
    endloop
  endfacet
  facet normal 1 0 0
    outer loop
      vertex 0.179999 23.4 0
      vertex 0.179999 20.18 6.62
      vertex 0.179999 20.18 0
    endloop
  endfacet
  facet normal 1 0 0
    outer loop
      vertex 0.179999 20 0
      vertex 0.179999 4.2 4
      vertex 0.179999 4.2 0
    endloop
  endfacet
  facet normal 0 -1 0
    outer loop
      vertex 0.179999 26.62 6.8
      vertex 0.179999 26.62 0
      vertex 0.211256 26.62 6.62273
    endloop
  endfacet
  facet normal 0 -1 0
    outer loop
      vertex 0.179999 26.62 0
      vertex 1.21658 26.62 6.8
      vertex 0.211256 26.62 6.62273
    endloop
  endfacet
  facet normal 0 -1 -0
    outer loop
      vertex 1.21658 26.62 6.8
      vertex 0.179999 26.62 0
      vertex 6 26.62 0
    endloop
  endfacet
  facet normal 0 -1 0
    outer loop
      vertex 1.21658 26.62 6.8
      vertex 6 26.62 0
      vertex 6 26.62 6.8
    endloop
  endfacet
  facet normal 0 -1 0
    outer loop
      vertex 6.18 26.62 6.8
      vertex 7.026 26.62 6.62
      vertex 7.026 26.62 6.8
    endloop
  endfacet
  facet normal 0 -1 0
    outer loop
      vertex 8.295 26.62 6.44
      vertex 11.256 26.62 6.62
      vertex 7.026 26.62 6.62
    endloop
  endfacet
  facet normal 0 -1 0
    outer loop
      vertex 14.64 26.62 5.8
      vertex 14.7161 26.62 6.61867
      vertex 14.64 26.62 6.61867
    endloop
  endfacet
  facet normal 0 -1 0
    outer loop
      vertex 11.256 26.62 6.62
      vertex 12.525 26.62 6.44
      vertex 14.64 26.62 6.61867
    endloop
  endfacet
  facet normal 0 -1 0
    outer loop
      vertex 12.525 26.62 6.26
      vertex 14.64 26.62 6.61867
      vertex 12.525 26.62 6.44
    endloop
  endfacet
  facet normal 0 -1 -0
    outer loop
      vertex 14.7161 26.62 6.61867
      vertex 14.64 26.62 5.8
      vertex 14.82 26.62 5.8
    endloop
  endfacet
  facet normal 0 -1 0
    outer loop
      vertex 14.7161 26.62 6.61867
      vertex 14.82 26.62 5.8
      vertex 14.8679 26.62 6.60806
    endloop
  endfacet
  facet normal 0 -1 -0
    outer loop
      vertex 14.8679 26.62 6.60806
      vertex 14.82 26.62 5.8
      vertex 15.0186 26.62 6.58688
    endloop
  endfacet
  facet normal 0 -1 -0
    outer loop
      vertex 11.256 26.62 6.62
      vertex 8.295 26.62 6.44
      vertex 12.525 26.62 6.44
    endloop
  endfacet
  facet normal 0 -1 0
    outer loop
      vertex 7.026 26.62 6.62
      vertex 8.295 26.62 6.26
      vertex 8.295 26.62 6.44
    endloop
  endfacet
  facet normal 0 -1 0
    outer loop
      vertex 6.18 26.62 0
      vertex 7.026 26.62 6.62
      vertex 6.18 26.62 6.8
    endloop
  endfacet
  facet normal 0 -1 0
    outer loop
      vertex 14.64 26.62 0
      vertex 12.525 26.62 6.26
      vertex 8.295 26.62 6.26
    endloop
  endfacet
  facet normal 0 -1 -0
    outer loop
      vertex 15.1674 26.62 6.55524
      vertex 14.82 26.62 5.8
      vertex 15.3137 26.62 6.5133
    endloop
  endfacet
  facet normal 0 -1 -0
    outer loop
      vertex 15.3137 26.62 6.5133
      vertex 14.82 26.62 5.8
      vertex 15.859 26.62 6.2473
    endloop
  endfacet
  facet normal 0 -1 -0
    outer loop
      vertex 15.859 26.62 6.2473
      vertex 14.82 26.62 5.8
      vertex 15.9821 26.62 6.15786
    endloop
  endfacet
  facet normal 0 -1 -0
    outer loop
      vertex 15.9821 26.62 6.15786
      vertex 14.82 26.62 5.8
      vertex 16.0987 26.62 6.06006
    endloop
  endfacet
  facet normal 0 -1 -0
    outer loop
      vertex 16.0987 26.62 6.06006
      vertex 14.82 26.62 5.8
      vertex 16.2082 26.62 5.95435
    endloop
  endfacet
  facet normal 0 -1 -0
    outer loop
      vertex 7.026 26.62 6.62
      vertex 6.18 26.62 0
      vertex 8.295 26.62 6.26
    endloop
  endfacet
  facet normal 0 -1 0
    outer loop
      vertex 14.64 26.62 0
      vertex 8.295 26.62 6.26
      vertex 6.18 26.62 0
    endloop
  endfacet
  facet normal 0 -1 0
    outer loop
      vertex 12.525 26.62 6.26
      vertex 14.64 26.62 0
      vertex 14.64 26.62 5.8
    endloop
  endfacet
  facet normal 0 -1 0
    outer loop
      vertex 11.256 26.62 6.8
      vertex 14.64 26.62 6.79856
      vertex 14.8451 26.62 6.8
    endloop
  endfacet
  facet normal 0 -1 0
    outer loop
      vertex 11.256 26.62 6.62
      vertex 14.64 26.62 6.79856
      vertex 11.256 26.62 6.8
    endloop
  endfacet
  facet normal 0 -1 -0
    outer loop
      vertex 14.64 26.62 6.79856
      vertex 11.256 26.62 6.62
      vertex 14.64 26.62 6.61867
    endloop
  endfacet
  facet normal 0 -1 0
    outer loop
      vertex 14.7224 26.62 6.79856
      vertex 14.8451 26.62 6.8
      vertex 14.64 26.62 6.79856
    endloop
  endfacet
  facet normal 0 -1 0
    outer loop
      vertex 14.8867 26.62 6.78707
      vertex 14.8451 26.62 6.8
      vertex 14.7224 26.62 6.79856
    endloop
  endfacet
  facet normal 0 -1 0
    outer loop
      vertex 14.8451 26.62 6.8
      vertex 14.8867 26.62 6.78707
      vertex 14.8877 26.62 6.79702
    endloop
  endfacet
  facet normal 0 -1 0
    outer loop
      vertex 14.8867 26.62 6.78707
      vertex 15.0515 26.62 6.77399
      vertex 14.8877 26.62 6.79702
    endloop
  endfacet
  facet normal 0 -1 0
    outer loop
      vertex 15.0498 26.62 6.76415
      vertex 15.0515 26.62 6.77399
      vertex 14.8867 26.62 6.78707
    endloop
  endfacet
  facet normal 0 -1 0
    outer loop
      vertex 15.0498 26.62 6.76415
      vertex 15.2134 26.62 6.7396
      vertex 15.0515 26.62 6.77399
    endloop
  endfacet
  facet normal 0 -1 0
    outer loop
      vertex 15.2109 26.62 6.7299
      vertex 15.2134 26.62 6.7396
      vertex 15.0498 26.62 6.76415
    endloop
  endfacet
  facet normal 0 -1 0
    outer loop
      vertex 15.2109 26.62 6.7299
      vertex 15.3724 26.62 6.694
      vertex 15.2134 26.62 6.7396
    endloop
  endfacet
  facet normal 0 -1 0
    outer loop
      vertex 15.3693 26.62 6.68449
      vertex 15.3724 26.62 6.694
      vertex 15.2109 26.62 6.7299
    endloop
  endfacet
  facet normal 0 -1 0
    outer loop
      vertex 15.3693 26.62 6.68449
      vertex 15.5278 26.62 6.63742
      vertex 15.3724 26.62 6.694
    endloop
  endfacet
  facet normal 0 -1 0
    outer loop
      vertex 15.5241 26.62 6.62815
      vertex 15.5278 26.62 6.63742
      vertex 15.3693 26.62 6.68449
    endloop
  endfacet
  facet normal 0 -1 0
    outer loop
      vertex 15.5241 26.62 6.62815
      vertex 15.6789 26.62 6.57014
      vertex 15.5278 26.62 6.63742
    endloop
  endfacet
  facet normal 0 -1 0
    outer loop
      vertex 15.6746 26.62 6.56115
      vertex 15.6789 26.62 6.57014
      vertex 15.5241 26.62 6.62815
    endloop
  endfacet
  facet normal 0 -1 0
    outer loop
      vertex 15.6746 26.62 6.56115
      vertex 15.825 26.62 6.49248
      vertex 15.6789 26.62 6.57014
    endloop
  endfacet
  facet normal 0 -1 0
    outer loop
      vertex 15.82 26.62 6.48382
      vertex 15.825 26.62 6.49248
      vertex 15.6746 26.62 6.56115
    endloop
  endfacet
  facet normal 0 -1 0
    outer loop
      vertex 15.82 26.62 6.48382
      vertex 15.9653 26.62 6.40482
      vertex 15.825 26.62 6.49248
    endloop
  endfacet
  facet normal 0 -1 0
    outer loop
      vertex 15.9597 26.62 6.39653
      vertex 15.9653 26.62 6.40482
      vertex 15.82 26.62 6.48382
    endloop
  endfacet
  facet normal 0 -1 0
    outer loop
      vertex 15.9597 26.62 6.39653
      vertex 16.0991 26.62 6.30759
      vertex 15.9653 26.62 6.40482
    endloop
  endfacet
  facet normal 0 -1 0
    outer loop
      vertex 16.093 26.62 6.29971
      vertex 16.0991 26.62 6.30759
      vertex 15.9597 26.62 6.39653
    endloop
  endfacet
  facet normal 0 -1 0
    outer loop
      vertex 16.093 26.62 6.29971
      vertex 16.2258 26.62 6.20125
      vertex 16.0991 26.62 6.30759
    endloop
  endfacet
  facet normal 0 -1 0
    outer loop
      vertex 16.2191 26.62 6.19382
      vertex 16.2258 26.62 6.20125
      vertex 16.093 26.62 6.29971
    endloop
  endfacet
  facet normal 0 -1 0
    outer loop
      vertex 16.2191 26.62 6.19382
      vertex 16.3448 26.62 6.08634
      vertex 16.2258 26.62 6.20125
    endloop
  endfacet
  facet normal 0 -1 0
    outer loop
      vertex 16.3376 26.62 6.07939
      vertex 16.3448 26.62 6.08634
      vertex 16.2191 26.62 6.19382
    endloop
  endfacet
  facet normal 0 -1 0
    outer loop
      vertex 16.3376 26.62 6.07939
      vertex 16.4555 26.62 5.96341
      vertex 16.3448 26.62 6.08634
    endloop
  endfacet
  facet normal 0 -1 0
    outer loop
      vertex 16.4479 26.62 5.95698
      vertex 16.4555 26.62 5.96341
      vertex 16.3376 26.62 6.07939
    endloop
  endfacet
  facet normal 0 -1 0
    outer loop
      vertex 16.4479 26.62 5.95698
      vertex 16.5574 26.62 5.83305
      vertex 16.4555 26.62 5.96341
    endloop
  endfacet
  facet normal 0 -1 0
    outer loop
      vertex 16.5493 26.62 5.82717
      vertex 16.5574 26.62 5.83305
      vertex 16.4479 26.62 5.95698
    endloop
  endfacet
  facet normal 0 -1 0
    outer loop
      vertex 16.5493 26.62 5.82717
      vertex 16.6499 26.62 5.69591
      vertex 16.5574 26.62 5.83305
    endloop
  endfacet
  facet normal 0 -1 0
    outer loop
      vertex 16.6414 26.62 5.69061
      vertex 16.6499 26.62 5.69591
      vertex 16.5493 26.62 5.82717
    endloop
  endfacet
  facet normal 0 -1 0
    outer loop
      vertex 16.6414 26.62 5.69061
      vertex 16.7326 26.62 5.55265
      vertex 16.6499 26.62 5.69591
    endloop
  endfacet
  facet normal 0 -1 0
    outer loop
      vertex 16.7238 26.62 5.54795
      vertex 16.7326 26.62 5.55265
      vertex 16.6414 26.62 5.69061
    endloop
  endfacet
  facet normal 0 -1 0
    outer loop
      vertex 16.7238 26.62 5.54795
      vertex 16.8051 26.62 5.40397
      vertex 16.7326 26.62 5.55265
    endloop
  endfacet
  facet normal 0 -1 0
    outer loop
      vertex 16.796 26.62 5.3999
      vertex 16.8051 26.62 5.40397
      vertex 16.7238 26.62 5.54795
    endloop
  endfacet
  facet normal 0 -1 0
    outer loop
      vertex 16.796 26.62 5.3999
      vertex 16.82 26.62 5.36709
      vertex 16.8051 26.62 5.40397
    endloop
  endfacet
  facet normal -0 -1 -0
    outer loop
      vertex 16.82 26.62 5.36709
      vertex 16.796 26.62 5.3999
      vertex 16.82 26.62 5.34041
    endloop
  endfacet
  facet normal 0 -1 -0
    outer loop
      vertex 14.64 26.62 6.61867
      vertex 12.525 26.62 6.26
      vertex 14.64 26.62 5.8
    endloop
  endfacet
  facet normal 0 -1 -0
    outer loop
      vertex 15.0186 26.62 6.58688
      vertex 14.82 26.62 5.8
      vertex 15.1674 26.62 6.55524
    endloop
  endfacet
  facet normal 0 -1 0
    outer loop
      vertex 15.3137 26.62 6.5133
      vertex 15.859 26.62 6.2473
      vertex 15.4566 26.62 6.46126
    endloop
  endfacet
  facet normal 0 -1 0
    outer loop
      vertex 15.4566 26.62 6.46126
      vertex 15.859 26.62 6.2473
      vertex 15.5956 26.62 6.39937
    endloop
  endfacet
  facet normal 0 -1 0
    outer loop
      vertex 15.5956 26.62 6.39937
      vertex 15.859 26.62 6.2473
      vertex 15.73 26.62 6.32793
    endloop
  endfacet
  facet normal 0 -1 -0
    outer loop
      vertex 16.2082 26.62 5.95435
      vertex 14.82 26.62 5.8
      vertex 16.31 26.62 5.84128
    endloop
  endfacet
  facet normal 0 -1 0
    outer loop
      vertex 14.82 26.62 5.8
      vertex 16.4037 26.62 5.72137
      vertex 16.31 26.62 5.84128
    endloop
  endfacet
  facet normal 0 -1 0
    outer loop
      vertex 14.82 26.62 5.8
      vertex 16.4887 26.62 5.59522
      vertex 16.4037 26.62 5.72137
    endloop
  endfacet
  facet normal 0 -1 0
    outer loop
      vertex 14.82 26.62 5.8
      vertex 16.5648 26.62 5.46345
      vertex 16.4887 26.62 5.59522
    endloop
  endfacet
  facet normal 0 -1 0
    outer loop
      vertex 14.82 26.62 5.8
      vertex 16.6315 26.62 5.32669
      vertex 16.5648 26.62 5.46345
    endloop
  endfacet
  facet normal 0 -1 0
    outer loop
      vertex 14.82 26.62 5.8
      vertex 16.6885 26.62 5.1856
      vertex 16.6315 26.62 5.32669
    endloop
  endfacet
  facet normal 0 -1 0
    outer loop
      vertex 14.82 26.62 5.8
      vertex 16.7355 26.62 5.04089
      vertex 16.6885 26.62 5.1856
    endloop
  endfacet
  facet normal 0 -1 0
    outer loop
      vertex 14.82 26.62 5.8
      vertex 16.7724 26.62 4.89325
      vertex 16.7355 26.62 5.04089
    endloop
  endfacet
  facet normal 0 -1 0
    outer loop
      vertex 14.82 26.62 5.8
      vertex 16.7988 26.62 4.7434
      vertex 16.7724 26.62 4.89325
    endloop
  endfacet
  facet normal 0 -1 0
    outer loop
      vertex 14.82 26.62 5.8
      vertex 16.8147 26.62 4.59207
      vertex 16.7988 26.62 4.7434
    endloop
  endfacet
  facet normal 0 -1 0
    outer loop
      vertex 14.82 26.62 5.8
      vertex 16.82 26.62 4.44
      vertex 16.8147 26.62 4.59207
    endloop
  endfacet
  facet normal 0 -1 0
    outer loop
      vertex 14.82 26.62 0
      vertex 16.82 26.62 4.44
      vertex 14.82 26.62 5.8
    endloop
  endfacet
  facet normal 0 -1 -0
    outer loop
      vertex 16.82 26.62 4.44
      vertex 14.82 26.62 0
      vertex 16.82 26.62 0
    endloop
  endfacet
  facet normal 0 1 0
    outer loop
      vertex 1.21658 26.62 6.8
      vertex 5.91158 26.62 7.81063
      vertex 5.94284 26.62 7.63337
    endloop
  endfacet
  facet normal 0 1 0
    outer loop
      vertex 5.91158 26.62 7.81063
      vertex 1.21658 26.62 6.8
      vertex 0.179999 26.62 6.8
    endloop
  endfacet
  facet normal -1 0 0
    outer loop
      vertex 0 0 0
      vertex 0 26.8 6.8
      vertex 0 26.8 0
    endloop
  endfacet
  facet normal -1 -0 0
    outer loop
      vertex 0 26.8 6.8
      vertex 0 0 0
      vertex 0 0 6.8
    endloop
  endfacet
  facet normal 0 -1 0
    outer loop
      vertex 0 0 6.8
      vertex 0.179999 0 4
      vertex 0.179999 0 6.8
    endloop
  endfacet
  facet normal 0 -1 -0
    outer loop
      vertex 0.179999 0 4
      vertex 0 0 0
      vertex 6 0 4
    endloop
  endfacet
  facet normal 0 -1 0
    outer loop
      vertex 0 0 0
      vertex 0.179999 0 4
      vertex 0 0 6.8
    endloop
  endfacet
  facet normal 0 -1 0
    outer loop
      vertex 6 0 4
      vertex 6.18 0 6.8
      vertex 6 0 6.8
    endloop
  endfacet
  facet normal 0 -1 0
    outer loop
      vertex 6 0 4
      vertex 6.18 0 0
      vertex 6.18 0 6.8
    endloop
  endfacet
  facet normal 0 -1 0
    outer loop
      vertex 6.18 0 0
      vertex 6 0 4
      vertex 0 0 0
    endloop
  endfacet
  facet normal 1 -0 0
    outer loop
      vertex 17 0 4.64553
      vertex 17 26.8 0
      vertex 17 26.8 4.64553
    endloop
  endfacet
  facet normal 1 0 0
    outer loop
      vertex 17 26.8 0
      vertex 17 0 4.64553
      vertex 17 0 0
    endloop
  endfacet
  facet normal -1 0 0
    outer loop
      vertex 14.64 23.58 0
      vertex 14.64 26.62 5.8
      vertex 14.64 26.62 0
    endloop
  endfacet
  facet normal -1 -0 0
    outer loop
      vertex 14.64 26.62 5.8
      vertex 14.64 23.58 0
      vertex 14.64 23.58 5.8
    endloop
  endfacet
  facet normal -1 0 0
    outer loop
      vertex 14.64 20.18 0
      vertex 14.64 23.4 5.8
      vertex 14.64 23.4 0
    endloop
  endfacet
  facet normal -1 -0 0
    outer loop
      vertex 14.64 23.4 5.8
      vertex 14.64 20.18 0
      vertex 14.64 20.18 5.8
    endloop
  endfacet
  facet normal -1 0 0
    outer loop
      vertex 14.64 0 0
      vertex 14.64 2.01 5.8
      vertex 14.64 2.01 0
    endloop
  endfacet
  facet normal -1 -0 0
    outer loop
      vertex 14.64 2.01 5.8
      vertex 14.64 0 0
      vertex 14.64 0 5.8
    endloop
  endfacet
  facet normal -1 0 0
    outer loop
      vertex 14.64 20 0
      vertex 14.64 19.18 3.4
      vertex 14.64 20 5.8
    endloop
  endfacet
  facet normal -1 0 0
    outer loop
      vertex 14.64 20 0
      vertex 14.64 19 3.4
      vertex 14.64 19.18 3.4
    endloop
  endfacet
  facet normal -1 0 0
    outer loop
      vertex 14.64 4.2 5.8
      vertex 14.64 19 3.4
      vertex 14.64 4.2 0
    endloop
  endfacet
  facet normal -1 0 0
    outer loop
      vertex 14.64 4.2 0
      vertex 14.64 19 3.4
      vertex 14.64 20 0
    endloop
  endfacet
  facet normal -1 0 0
    outer loop
      vertex 14.64 19.18 3.58
      vertex 14.64 20 5.8
      vertex 14.64 19.18 3.4
    endloop
  endfacet
  facet normal -1 0 0
    outer loop
      vertex 14.64 19 3.58
      vertex 14.64 20 5.8
      vertex 14.64 19.18 3.58
    endloop
  endfacet
  facet normal -1 0 0
    outer loop
      vertex 14.64 19 3.4
      vertex 14.64 4.2 5.8
      vertex 14.64 19 3.58
    endloop
  endfacet
  facet normal -1 0 0
    outer loop
      vertex 14.64 19 3.58
      vertex 14.64 4.2 5.8
      vertex 14.64 20 5.8
    endloop
  endfacet
  facet normal -1 0 0
    outer loop
      vertex 14.64 2.19 0
      vertex 14.64 4.02 5.8
      vertex 14.64 4.02 0
    endloop
  endfacet
  facet normal -1 -0 0
    outer loop
      vertex 14.64 4.02 5.8
      vertex 14.64 2.19 0
      vertex 14.64 2.19 5.8
    endloop
  endfacet
  facet normal -0 0 1
    outer loop
      vertex 6.18 2.19 5.8
      vertex 14.64 2.01 5.8
      vertex 14.64 2.19 5.8
    endloop
  endfacet
  facet normal 0 0 1
    outer loop
      vertex 14.64 2.01 5.8
      vertex 6.18 2.19 5.8
      vertex 6.18 2.01 5.8
    endloop
  endfacet
  facet normal -0 0 1
    outer loop
      vertex 6.18 4.2 5.8
      vertex 14.64 4.02 5.8
      vertex 14.64 4.2 5.8
    endloop
  endfacet
  facet normal 0 0 1
    outer loop
      vertex 14.64 4.02 5.8
      vertex 6.18 4.2 5.8
      vertex 6.18 4.02 5.8
    endloop
  endfacet
  facet normal -0 0 1
    outer loop
      vertex 6.18 20.18 5.8
      vertex 14.64 20 5.8
      vertex 14.64 20.18 5.8
    endloop
  endfacet
  facet normal 0 0 1
    outer loop
      vertex 14.64 20 5.8
      vertex 6.18 20.18 5.8
      vertex 6.18 20 5.8
    endloop
  endfacet
  facet normal -0 0 1
    outer loop
      vertex 6.18 23.58 5.8
      vertex 14.64 23.4 5.8
      vertex 14.64 23.58 5.8
    endloop
  endfacet
  facet normal 0 0 1
    outer loop
      vertex 14.64 23.4 5.8
      vertex 6.18 23.58 5.8
      vertex 6.18 23.4 5.8
    endloop
  endfacet
  facet normal 0 0 1
    outer loop
      vertex 14.64 23.58 5.8
      vertex 14.82 26.62 5.8
      vertex 14.64 26.62 5.8
    endloop
  endfacet
  facet normal 0 0 1
    outer loop
      vertex 14.64 23.4 5.8
      vertex 14.82 26.62 5.8
      vertex 14.64 23.58 5.8
    endloop
  endfacet
  facet normal 0 0 1
    outer loop
      vertex 14.64 20.18 5.8
      vertex 14.82 26.62 5.8
      vertex 14.64 23.4 5.8
    endloop
  endfacet
  facet normal 0 0 1
    outer loop
      vertex 14.64 20 5.8
      vertex 14.82 26.62 5.8
      vertex 14.64 20.18 5.8
    endloop
  endfacet
  facet normal 0 0 1
    outer loop
      vertex 14.82 26.62 5.8
      vertex 14.64 20 5.8
      vertex 14.82 0 5.8
    endloop
  endfacet
  facet normal -0 0 1
    outer loop
      vertex 14.64 4.2 5.8
      vertex 14.82 0 5.8
      vertex 14.64 20 5.8
    endloop
  endfacet
  facet normal -0 0 1
    outer loop
      vertex 14.64 4.02 5.8
      vertex 14.82 0 5.8
      vertex 14.64 4.2 5.8
    endloop
  endfacet
  facet normal -0 0 1
    outer loop
      vertex 14.64 2.19 5.8
      vertex 14.82 0 5.8
      vertex 14.64 4.02 5.8
    endloop
  endfacet
  facet normal -0 0 1
    outer loop
      vertex 14.64 2.01 5.8
      vertex 14.82 0 5.8
      vertex 14.64 2.19 5.8
    endloop
  endfacet
  facet normal 0 0 1
    outer loop
      vertex 14.82 0 5.8
      vertex 14.64 2.01 5.8
      vertex 14.64 0 5.8
    endloop
  endfacet
  facet normal 1 0 0
    outer loop
      vertex 6.18 26.62 6.8
      vertex 6.18 23.58 5.8
      vertex 6.18 26.62 0
    endloop
  endfacet
  facet normal 1 0 0
    outer loop
      vertex 6.18 26.62 6.8
      vertex 6.18 23.4 5.8
      vertex 6.18 23.58 5.8
    endloop
  endfacet
  facet normal 1 0 0
    outer loop
      vertex 6.18 23.4 5.8
      vertex 6.18 20.18 5.8
      vertex 6.18 23.4 0
    endloop
  endfacet
  facet normal 1 0 0
    outer loop
      vertex 6.18 26.62 6.8
      vertex 6.18 20.18 5.8
      vertex 6.18 23.4 5.8
    endloop
  endfacet
  facet normal 1 0 0
    outer loop
      vertex 6.18 26.62 6.8
      vertex 6.18 20 5.8
      vertex 6.18 20.18 5.8
    endloop
  endfacet
  facet normal 1 0 0
    outer loop
      vertex 6.18 19.18 3.4
      vertex 6.18 20 5.8
      vertex 6.18 19.18 3.58
    endloop
  endfacet
  facet normal 1 0 0
    outer loop
      vertex 6.18 20 5.8
      vertex 6.18 19 3.58
      vertex 6.18 19.18 3.58
    endloop
  endfacet
  facet normal 1 0 0
    outer loop
      vertex 6.18 19 3.58
      vertex 6.18 4.2 5.8
      vertex 6.18 19 3.4
    endloop
  endfacet
  facet normal 1 0 0
    outer loop
      vertex 6.18 20 5.8
      vertex 6.18 4.2 5.8
      vertex 6.18 19 3.58
    endloop
  endfacet
  facet normal 1 -0 0
    outer loop
      vertex 6.18 0 6.8
      vertex 6.18 20 5.8
      vertex 6.18 26.62 6.8
    endloop
  endfacet
  facet normal 1 0 0
    outer loop
      vertex 6.18 20 5.8
      vertex 6.18 0 6.8
      vertex 6.18 4.2 5.8
    endloop
  endfacet
  facet normal 1 0 0
    outer loop
      vertex 6.18 4.02 5.8
      vertex 6.18 2.19 5.8
      vertex 6.18 4.02 0
    endloop
  endfacet
  facet normal 1 0 0
    outer loop
      vertex 6.18 4.2 5.8
      vertex 6.18 0 6.8
      vertex 6.18 4.02 5.8
    endloop
  endfacet
  facet normal 1 0 0
    outer loop
      vertex 6.18 4.02 5.8
      vertex 6.18 0 6.8
      vertex 6.18 2.19 5.8
    endloop
  endfacet
  facet normal 1 0 0
    outer loop
      vertex 6.18 2.19 5.8
      vertex 6.18 0 6.8
      vertex 6.18 2.01 5.8
    endloop
  endfacet
  facet normal 1 0 0
    outer loop
      vertex 6.18 0 0
      vertex 6.18 2.01 5.8
      vertex 6.18 0 6.8
    endloop
  endfacet
  facet normal 1 0 0
    outer loop
      vertex 6.18 2.01 5.8
      vertex 6.18 0 0
      vertex 6.18 2.01 0
    endloop
  endfacet
  facet normal 1 0 0
    outer loop
      vertex 6.18 26.62 0
      vertex 6.18 23.58 5.8
      vertex 6.18 23.58 0
    endloop
  endfacet
  facet normal 1 0 0
    outer loop
      vertex 6.18 23.4 0
      vertex 6.18 20.18 5.8
      vertex 6.18 20.18 0
    endloop
  endfacet
  facet normal 1 0 0
    outer loop
      vertex 6.18 20 5.8
      vertex 6.18 19.18 3.4
      vertex 6.18 20 0
    endloop
  endfacet
  facet normal 1 -0 0
    outer loop
      vertex 6.18 19 3.4
      vertex 6.18 20 0
      vertex 6.18 19.18 3.4
    endloop
  endfacet
  facet normal 1 0 0
    outer loop
      vertex 6.18 4.2 0
      vertex 6.18 19 3.4
      vertex 6.18 4.2 5.8
    endloop
  endfacet
  facet normal 1 0 0
    outer loop
      vertex 6.18 19 3.4
      vertex 6.18 4.2 0
      vertex 6.18 20 0
    endloop
  endfacet
  facet normal 1 0 0
    outer loop
      vertex 6.18 4.02 0
      vertex 6.18 2.19 5.8
      vertex 6.18 2.19 0
    endloop
  endfacet
  facet normal 0 1 -0
    outer loop
      vertex 14.64 20.18 0
      vertex 6.18 20.18 5.8
      vertex 14.64 20.18 5.8
    endloop
  endfacet
  facet normal 0 1 0
    outer loop
      vertex 6.18 20.18 5.8
      vertex 14.64 20.18 0
      vertex 6.18 20.18 0
    endloop
  endfacet
  facet normal 0 1 -0
    outer loop
      vertex 6 20.18 0
      vertex 0.179999 20.18 6.62
      vertex 6 20.18 6.62
    endloop
  endfacet
  facet normal 0 1 0
    outer loop
      vertex 0.179999 20.18 6.62
      vertex 6 20.18 0
      vertex 0.179999 20.18 0
    endloop
  endfacet
  facet normal 0 -1 0
    outer loop
      vertex 6.18 20 0
      vertex 14.64 20 5.8
      vertex 6.18 20 5.8
    endloop
  endfacet
  facet normal 0 -1 -0
    outer loop
      vertex 14.64 20 5.8
      vertex 6.18 20 0
      vertex 14.64 20 0
    endloop
  endfacet
  facet normal 0 -1 0
    outer loop
      vertex 0.179999 20 0
      vertex 6 20 6.62
      vertex 0.179999 20 6.62
    endloop
  endfacet
  facet normal 0 -1 -0
    outer loop
      vertex 6 20 6.62
      vertex 0.179999 20 0
      vertex 6 20 0
    endloop
  endfacet
  facet normal 0 1 -0
    outer loop
      vertex 14.64 23.58 0
      vertex 6.18 23.58 5.8
      vertex 14.64 23.58 5.8
    endloop
  endfacet
  facet normal 0 1 0
    outer loop
      vertex 6.18 23.58 5.8
      vertex 14.64 23.58 0
      vertex 6.18 23.58 0
    endloop
  endfacet
  facet normal 0 1 -0
    outer loop
      vertex 6 23.58 0
      vertex 0.179999 23.58 6.62
      vertex 6 23.58 6.62
    endloop
  endfacet
  facet normal 0 1 0
    outer loop
      vertex 0.179999 23.58 6.62
      vertex 6 23.58 0
      vertex 0.179999 23.58 0
    endloop
  endfacet
  facet normal 0 -1 0
    outer loop
      vertex 6.18 23.4 0
      vertex 14.64 23.4 5.8
      vertex 6.18 23.4 5.8
    endloop
  endfacet
  facet normal 0 -1 -0
    outer loop
      vertex 14.64 23.4 5.8
      vertex 6.18 23.4 0
      vertex 14.64 23.4 0
    endloop
  endfacet
  facet normal 0 -1 0
    outer loop
      vertex 0.179999 23.4 0
      vertex 6 23.4 6.62
      vertex 0.179999 23.4 6.62
    endloop
  endfacet
  facet normal 0 -1 -0
    outer loop
      vertex 6 23.4 6.62
      vertex 0.179999 23.4 0
      vertex 6 23.4 0
    endloop
  endfacet
  facet normal -0 0 1
    outer loop
      vertex 6.18 19.18 3.58
      vertex 14.64 19 3.58
      vertex 14.64 19.18 3.58
    endloop
  endfacet
  facet normal 0 0 1
    outer loop
      vertex 14.64 19 3.58
      vertex 6.18 19.18 3.58
      vertex 6.18 19 3.58
    endloop
  endfacet
  facet normal 0 0 -1
    outer loop
      vertex 6.18 19 3.4
      vertex 14.64 19.18 3.4
      vertex 14.64 19 3.4
    endloop
  endfacet
  facet normal -0 0 -1
    outer loop
      vertex 14.64 19.18 3.4
      vertex 6.18 19 3.4
      vertex 6.18 19.18 3.4
    endloop
  endfacet
  facet normal 0 1 -0
    outer loop
      vertex 14.64 19.18 3.4
      vertex 6.18 19.18 3.58
      vertex 14.64 19.18 3.58
    endloop
  endfacet
  facet normal 0 1 0
    outer loop
      vertex 6.18 19.18 3.58
      vertex 14.64 19.18 3.4
      vertex 6.18 19.18 3.4
    endloop
  endfacet
  facet normal 0 -1 0
    outer loop
      vertex 6.18 19 3.4
      vertex 14.64 19 3.58
      vertex 6.18 19 3.58
    endloop
  endfacet
  facet normal 0 -1 -0
    outer loop
      vertex 14.64 19 3.58
      vertex 6.18 19 3.4
      vertex 14.64 19 3.4
    endloop
  endfacet
  facet normal 0 1 -0
    outer loop
      vertex 14.64 4.2 0
      vertex 6.18 4.2 5.8
      vertex 14.64 4.2 5.8
    endloop
  endfacet
  facet normal 0 1 0
    outer loop
      vertex 6.18 4.2 5.8
      vertex 14.64 4.2 0
      vertex 6.18 4.2 0
    endloop
  endfacet
  facet normal 0 1 -0
    outer loop
      vertex 6 4.2 0
      vertex 0.179999 4.2 4
      vertex 6 4.2 4
    endloop
  endfacet
  facet normal 0 1 0
    outer loop
      vertex 0.179999 4.2 4
      vertex 6 4.2 0
      vertex 0.179999 4.2 0
    endloop
  endfacet
  facet normal 0 -1 0
    outer loop
      vertex 6.18 4.02 0
      vertex 14.64 4.02 5.8
      vertex 6.18 4.02 5.8
    endloop
  endfacet
  facet normal 0 -1 -0
    outer loop
      vertex 14.64 4.02 5.8
      vertex 6.18 4.02 0
      vertex 14.64 4.02 0
    endloop
  endfacet
  facet normal 0 1 -0
    outer loop
      vertex 14.64 2.19 0
      vertex 6.18 2.19 5.8
      vertex 14.64 2.19 5.8
    endloop
  endfacet
  facet normal 0 1 0
    outer loop
      vertex 6.18 2.19 5.8
      vertex 14.64 2.19 0
      vertex 6.18 2.19 0
    endloop
  endfacet
  facet normal 0 -1 0
    outer loop
      vertex 6.18 2.01 0
      vertex 14.64 2.01 5.8
      vertex 6.18 2.01 5.8
    endloop
  endfacet
  facet normal 0 -1 -0
    outer loop
      vertex 14.64 2.01 5.8
      vertex 6.18 2.01 0
      vertex 14.64 2.01 0
    endloop
  endfacet
  facet normal 1 -0 0
    outer loop
      vertex 14.46 0.299999 6.3
      vertex 14.46 0.48 0.5
      vertex 14.46 0.48 6.3
    endloop
  endfacet
  facet normal 1 0 0
    outer loop
      vertex 14.46 0.48 0.5
      vertex 14.46 0.299999 6.3
      vertex 14.46 0.299999 0.5
    endloop
  endfacet
  facet normal -0 0 1
    outer loop
      vertex 6.36 0.48 6.3
      vertex 8.295 0.299999 6.3
      vertex 8.295 0.48 6.3
    endloop
  endfacet
  facet normal 0 0 1
    outer loop
      vertex 8.295 0.299999 6.3
      vertex 6.36 0.48 6.3
      vertex 6.36 0.299999 6.3
    endloop
  endfacet
  facet normal -0 0 1
    outer loop
      vertex 12.525 0.48 6.3
      vertex 14.46 0.299999 6.3
      vertex 14.46 0.48 6.3
    endloop
  endfacet
  facet normal 0 0 1
    outer loop
      vertex 14.46 0.299999 6.3
      vertex 12.525 0.48 6.3
      vertex 12.525 0.299999 6.3
    endloop
  endfacet
  facet normal 0 0 -1
    outer loop
      vertex 6.36 0.299999 0.5
      vertex 14.46 0.48 0.5
      vertex 14.46 0.299999 0.5
    endloop
  endfacet
  facet normal -0 0 -1
    outer loop
      vertex 14.46 0.48 0.5
      vertex 6.36 0.299999 0.5
      vertex 6.36 0.48 0.5
    endloop
  endfacet
  facet normal -1 0 0
    outer loop
      vertex 6.36 0.299999 0.5
      vertex 6.36 0.48 6.3
      vertex 6.36 0.48 0.5
    endloop
  endfacet
  facet normal -1 -0 0
    outer loop
      vertex 6.36 0.48 6.3
      vertex 6.36 0.299999 0.5
      vertex 6.36 0.299999 6.3
    endloop
  endfacet
  facet normal 0 1 0
    outer loop
      vertex 14.46 0.48 6.3
      vertex 12.525 0.48 6.26
      vertex 12.525 0.48 6.3
    endloop
  endfacet
  facet normal 0 1 0
    outer loop
      vertex 12.525 0.48 6.26
      vertex 14.46 0.48 0.5
      vertex 8.295 0.48 6.26
    endloop
  endfacet
  facet normal 0 1 -0
    outer loop
      vertex 14.46 0.48 0.5
      vertex 12.525 0.48 6.26
      vertex 14.46 0.48 6.3
    endloop
  endfacet
  facet normal 0 1 -0
    outer loop
      vertex 8.295 0.48 6.26
      vertex 6.36 0.48 6.3
      vertex 8.295 0.48 6.3
    endloop
  endfacet
  facet normal 0 1 0
    outer loop
      vertex 6.36 0.48 0.5
      vertex 8.295 0.48 6.26
      vertex 14.46 0.48 0.5
    endloop
  endfacet
  facet normal 0 1 0
    outer loop
      vertex 8.295 0.48 6.26
      vertex 6.36 0.48 0.5
      vertex 6.36 0.48 6.3
    endloop
  endfacet
  facet normal 0 -1 0
    outer loop
      vertex 6.36 0.299999 6.3
      vertex 8.295 0.299999 6.26
      vertex 8.295 0.299999 6.3
    endloop
  endfacet
  facet normal 0 -1 -0
    outer loop
      vertex 8.295 0.299999 6.26
      vertex 6.36 0.299999 0.5
      vertex 12.525 0.299999 6.26
    endloop
  endfacet
  facet normal 0 -1 0
    outer loop
      vertex 6.36 0.299999 0.5
      vertex 8.295 0.299999 6.26
      vertex 6.36 0.299999 6.3
    endloop
  endfacet
  facet normal 0 -1 0
    outer loop
      vertex 12.525 0.299999 6.26
      vertex 14.46 0.299999 6.3
      vertex 12.525 0.299999 6.3
    endloop
  endfacet
  facet normal 0 -1 0
    outer loop
      vertex 14.46 0.299999 0.5
      vertex 12.525 0.299999 6.26
      vertex 6.36 0.299999 0.5
    endloop
  endfacet
  facet normal 0 -1 0
    outer loop
      vertex 12.525 0.299999 6.26
      vertex 14.46 0.299999 0.5
      vertex 14.46 0.299999 6.3
    endloop
  endfacet
  facet normal 1 -0 0
    outer loop
      vertex 14.46 2.31 6.3
      vertex 14.46 2.49 0.5
      vertex 14.46 2.49 6.3
    endloop
  endfacet
  facet normal 1 0 0
    outer loop
      vertex 14.46 2.49 0.5
      vertex 14.46 2.31 6.3
      vertex 14.46 2.31 0.5
    endloop
  endfacet
  facet normal -0 0 1
    outer loop
      vertex 6.36 2.49 6.3
      vertex 8.295 2.31 6.3
      vertex 8.295 2.49 6.3
    endloop
  endfacet
  facet normal 0 0 1
    outer loop
      vertex 8.295 2.31 6.3
      vertex 6.36 2.49 6.3
      vertex 6.36 2.31 6.3
    endloop
  endfacet
  facet normal -0 0 1
    outer loop
      vertex 12.525 2.49 6.3
      vertex 14.46 2.31 6.3
      vertex 14.46 2.49 6.3
    endloop
  endfacet
  facet normal 0 0 1
    outer loop
      vertex 14.46 2.31 6.3
      vertex 12.525 2.49 6.3
      vertex 12.525 2.31 6.3
    endloop
  endfacet
  facet normal 0 0 -1
    outer loop
      vertex 6.36 2.31 0.5
      vertex 14.46 2.49 0.5
      vertex 14.46 2.31 0.5
    endloop
  endfacet
  facet normal -0 0 -1
    outer loop
      vertex 14.46 2.49 0.5
      vertex 6.36 2.31 0.5
      vertex 6.36 2.49 0.5
    endloop
  endfacet
  facet normal -1 0 0
    outer loop
      vertex 6.36 2.31 0.5
      vertex 6.36 2.49 6.3
      vertex 6.36 2.49 0.5
    endloop
  endfacet
  facet normal -1 -0 0
    outer loop
      vertex 6.36 2.49 6.3
      vertex 6.36 2.31 0.5
      vertex 6.36 2.31 6.3
    endloop
  endfacet
  facet normal 0 1 0
    outer loop
      vertex 14.46 2.49 6.3
      vertex 12.525 2.49 6.26
      vertex 12.525 2.49 6.3
    endloop
  endfacet
  facet normal 0 1 0
    outer loop
      vertex 12.525 2.49 6.26
      vertex 14.46 2.49 0.5
      vertex 8.295 2.49 6.26
    endloop
  endfacet
  facet normal 0 1 -0
    outer loop
      vertex 14.46 2.49 0.5
      vertex 12.525 2.49 6.26
      vertex 14.46 2.49 6.3
    endloop
  endfacet
  facet normal 0 1 -0
    outer loop
      vertex 8.295 2.49 6.26
      vertex 6.36 2.49 6.3
      vertex 8.295 2.49 6.3
    endloop
  endfacet
  facet normal 0 1 0
    outer loop
      vertex 6.36 2.49 0.5
      vertex 8.295 2.49 6.26
      vertex 14.46 2.49 0.5
    endloop
  endfacet
  facet normal 0 1 0
    outer loop
      vertex 8.295 2.49 6.26
      vertex 6.36 2.49 0.5
      vertex 6.36 2.49 6.3
    endloop
  endfacet
  facet normal 0 -1 0
    outer loop
      vertex 6.36 2.31 6.3
      vertex 8.295 2.31 6.26
      vertex 8.295 2.31 6.3
    endloop
  endfacet
  facet normal 0 -1 -0
    outer loop
      vertex 8.295 2.31 6.26
      vertex 6.36 2.31 0.5
      vertex 12.525 2.31 6.26
    endloop
  endfacet
  facet normal 0 -1 0
    outer loop
      vertex 6.36 2.31 0.5
      vertex 8.295 2.31 6.26
      vertex 6.36 2.31 6.3
    endloop
  endfacet
  facet normal 0 -1 0
    outer loop
      vertex 12.525 2.31 6.26
      vertex 14.46 2.31 6.3
      vertex 12.525 2.31 6.3
    endloop
  endfacet
  facet normal 0 -1 0
    outer loop
      vertex 14.46 2.31 0.5
      vertex 12.525 2.31 6.26
      vertex 6.36 2.31 0.5
    endloop
  endfacet
  facet normal 0 -1 0
    outer loop
      vertex 12.525 2.31 6.26
      vertex 14.46 2.31 0.5
      vertex 14.46 2.31 6.3
    endloop
  endfacet
  facet normal 1 -0 0
    outer loop
      vertex 14.82 0 5.8
      vertex 14.82 26.62 0
      vertex 14.82 26.62 5.8
    endloop
  endfacet
  facet normal 1 0 0
    outer loop
      vertex 14.82 26.62 0
      vertex 14.82 0 5.8
      vertex 14.82 0 0
    endloop
  endfacet
  facet normal 0 -1 0
    outer loop
      vertex 14.64 0 0
      vertex 14.82 0 5.8
      vertex 14.64 0 5.8
    endloop
  endfacet
  facet normal 0 -1 -0
    outer loop
      vertex 14.82 0 5.8
      vertex 14.64 0 0
      vertex 14.82 0 0
    endloop
  endfacet
  facet normal 1 -0 0
    outer loop
      vertex 11.256 0 6.8
      vertex 11.256 26.62 6.62
      vertex 11.256 26.62 6.8
    endloop
  endfacet
  facet normal 1 0 0
    outer loop
      vertex 11.256 26.62 6.62
      vertex 11.256 0 6.8
      vertex 11.256 0 6.62
    endloop
  endfacet
  facet normal 0 0 -1
    outer loop
      vertex 7.026 0 6.62
      vertex 11.256 26.62 6.62
      vertex 11.256 0 6.62
    endloop
  endfacet
  facet normal -0 0 -1
    outer loop
      vertex 11.256 26.62 6.62
      vertex 7.026 0 6.62
      vertex 7.026 26.62 6.62
    endloop
  endfacet
  facet normal -1 0 0
    outer loop
      vertex 7.026 0 6.62
      vertex 7.026 26.62 6.8
      vertex 7.026 26.62 6.62
    endloop
  endfacet
  facet normal -1 -0 0
    outer loop
      vertex 7.026 26.62 6.8
      vertex 7.026 0 6.62
      vertex 7.026 0 6.8
    endloop
  endfacet
  facet normal 0 -1 0
    outer loop
      vertex 7.026 0 6.62
      vertex 11.256 0 6.8
      vertex 7.026 0 6.8
    endloop
  endfacet
  facet normal 0 -1 -0
    outer loop
      vertex 11.256 0 6.8
      vertex 7.026 0 6.62
      vertex 11.256 0 6.62
    endloop
  endfacet
  facet normal 1 0 0
    outer loop
      vertex 12.525 26.62 6.44
      vertex 12.525 2.49 6.3
      vertex 12.525 26.62 6.26
    endloop
  endfacet
  facet normal 1 -0 0
    outer loop
      vertex 12.525 0 6.44
      vertex 12.525 2.49 6.3
      vertex 12.525 26.62 6.44
    endloop
  endfacet
  facet normal 1 0 0
    outer loop
      vertex 12.525 2.31 6.3
      vertex 12.525 0.48 6.3
      vertex 12.525 2.31 6.26
    endloop
  endfacet
  facet normal 1 0 0
    outer loop
      vertex 12.525 2.49 6.3
      vertex 12.525 0 6.44
      vertex 12.525 2.31 6.3
    endloop
  endfacet
  facet normal 1 0 0
    outer loop
      vertex 12.525 2.31 6.3
      vertex 12.525 0 6.44
      vertex 12.525 0.48 6.3
    endloop
  endfacet
  facet normal 1 0 0
    outer loop
      vertex 12.525 0.48 6.3
      vertex 12.525 0 6.44
      vertex 12.525 0.299999 6.3
    endloop
  endfacet
  facet normal 1 0 0
    outer loop
      vertex 12.525 0 6.26
      vertex 12.525 0.299999 6.3
      vertex 12.525 0 6.44
    endloop
  endfacet
  facet normal 1 0 0
    outer loop
      vertex 12.525 0.299999 6.3
      vertex 12.525 0 6.26
      vertex 12.525 0.299999 6.26
    endloop
  endfacet
  facet normal 1 0 0
    outer loop
      vertex 12.525 26.62 6.26
      vertex 12.525 2.49 6.3
      vertex 12.525 2.49 6.26
    endloop
  endfacet
  facet normal 1 0 0
    outer loop
      vertex 12.525 2.31 6.26
      vertex 12.525 0.48 6.3
      vertex 12.525 0.48 6.26
    endloop
  endfacet
  facet normal -0 0 1
    outer loop
      vertex 8.295 26.62 6.44
      vertex 12.525 0 6.44
      vertex 12.525 26.62 6.44
    endloop
  endfacet
  facet normal 0 0 1
    outer loop
      vertex 12.525 0 6.44
      vertex 8.295 26.62 6.44
      vertex 8.295 0 6.44
    endloop
  endfacet
  facet normal 0 0 -1
    outer loop
      vertex 8.295 0 6.26
      vertex 12.525 0.299999 6.26
      vertex 12.525 0 6.26
    endloop
  endfacet
  facet normal -0 0 -1
    outer loop
      vertex 12.525 0.299999 6.26
      vertex 8.295 0 6.26
      vertex 8.295 0.299999 6.26
    endloop
  endfacet
  facet normal 0 0 -1
    outer loop
      vertex 8.295 2.49 6.26
      vertex 12.525 26.62 6.26
      vertex 12.525 2.49 6.26
    endloop
  endfacet
  facet normal -0 0 -1
    outer loop
      vertex 12.525 26.62 6.26
      vertex 8.295 2.49 6.26
      vertex 8.295 26.62 6.26
    endloop
  endfacet
  facet normal 0 0 -1
    outer loop
      vertex 8.295 0.48 6.26
      vertex 12.525 2.31 6.26
      vertex 12.525 0.48 6.26
    endloop
  endfacet
  facet normal -0 0 -1
    outer loop
      vertex 12.525 2.31 6.26
      vertex 8.295 0.48 6.26
      vertex 8.295 2.31 6.26
    endloop
  endfacet
  facet normal -1 0 0
    outer loop
      vertex 8.295 0.299999 6.26
      vertex 8.295 0 6.26
      vertex 8.295 0.299999 6.3
    endloop
  endfacet
  facet normal -1 0 0
    outer loop
      vertex 8.295 2.31 6.26
      vertex 8.295 0.48 6.26
      vertex 8.295 2.31 6.3
    endloop
  endfacet
  facet normal -1 0 0
    outer loop
      vertex 8.295 2.49 6.26
      vertex 8.295 26.62 6.44
      vertex 8.295 26.62 6.26
    endloop
  endfacet
  facet normal -1 0 0
    outer loop
      vertex 8.295 2.49 6.3
      vertex 8.295 26.62 6.44
      vertex 8.295 2.49 6.26
    endloop
  endfacet
  facet normal -1 0 0
    outer loop
      vertex 8.295 0 6.44
      vertex 8.295 2.49 6.3
      vertex 8.295 2.31 6.3
    endloop
  endfacet
  facet normal -1 0 0
    outer loop
      vertex 8.295 0.48 6.3
      vertex 8.295 2.31 6.3
      vertex 8.295 0.48 6.26
    endloop
  endfacet
  facet normal -1 0 0
    outer loop
      vertex 8.295 0 6.44
      vertex 8.295 2.31 6.3
      vertex 8.295 0.48 6.3
    endloop
  endfacet
  facet normal -1 0 0
    outer loop
      vertex 8.295 0 6.44
      vertex 8.295 0.48 6.3
      vertex 8.295 0.299999 6.3
    endloop
  endfacet
  facet normal -1 0 0
    outer loop
      vertex 8.295 2.49 6.3
      vertex 8.295 0 6.44
      vertex 8.295 26.62 6.44
    endloop
  endfacet
  facet normal -1 0 0
    outer loop
      vertex 8.295 0 6.44
      vertex 8.295 0.299999 6.3
      vertex 8.295 0 6.26
    endloop
  endfacet
  facet normal 0 -1 0
    outer loop
      vertex 8.295 0 6.26
      vertex 12.525 0 6.44
      vertex 8.295 0 6.44
    endloop
  endfacet
  facet normal 0 -1 -0
    outer loop
      vertex 12.525 0 6.44
      vertex 8.295 0 6.26
      vertex 12.525 0 6.26
    endloop
  endfacet
  facet normal -1 0 0
    outer loop
      vertex 6 4.2 4
      vertex 6 20 0
      vertex 6 4.2 0
    endloop
  endfacet
  facet normal -1 0 0
    outer loop
      vertex 6 23.4 0
      vertex 6 20.18 0
      vertex 6 23.4 6.62
    endloop
  endfacet
  facet normal -1 0 0
    outer loop
      vertex 6 23.58 6.62
      vertex 6 26.62 0
      vertex 6 23.58 0
    endloop
  endfacet
  facet normal -1 0 0
    outer loop
      vertex 6 26.62 0
      vertex 6 23.58 6.62
      vertex 6 26.62 6.8
    endloop
  endfacet
  facet normal -1 0 0
    outer loop
      vertex 6 23.4 6.62
      vertex 6 26.62 6.8
      vertex 6 23.58 6.62
    endloop
  endfacet
  facet normal -1 0 0
    outer loop
      vertex 6 20.18 6.62
      vertex 6 23.4 6.62
      vertex 6 20.18 0
    endloop
  endfacet
  facet normal -1 0 0
    outer loop
      vertex 6 20.18 6.62
      vertex 6 26.62 6.8
      vertex 6 23.4 6.62
    endloop
  endfacet
  facet normal -1 0 0
    outer loop
      vertex 6 20 6.62
      vertex 6 26.62 6.8
      vertex 6 20.18 6.62
    endloop
  endfacet
  facet normal -1 0 0
    outer loop
      vertex 6 20 0
      vertex 6 4.2 4
      vertex 6 20 6.62
    endloop
  endfacet
  facet normal -1 0 0
    outer loop
      vertex 6 0 6.8
      vertex 6 4.2 4
      vertex 6 0 4
    endloop
  endfacet
  facet normal -1 0 0
    outer loop
      vertex 6 20 6.62
      vertex 6 0 6.8
      vertex 6 26.62 6.8
    endloop
  endfacet
  facet normal -1 0 0
    outer loop
      vertex 6 4.2 4
      vertex 6 0 6.8
      vertex 6 20 6.62
    endloop
  endfacet
  facet normal -0 0 1
    outer loop
      vertex 0.179999 4.2 4
      vertex 6 0 4
      vertex 6 4.2 4
    endloop
  endfacet
  facet normal 0 0 1
    outer loop
      vertex 6 0 4
      vertex 0.179999 4.2 4
      vertex 0.179999 0 4
    endloop
  endfacet
  facet normal -0 0 1
    outer loop
      vertex 0.179999 20.18 6.62
      vertex 6 20 6.62
      vertex 6 20.18 6.62
    endloop
  endfacet
  facet normal 0 0 1
    outer loop
      vertex 6 20 6.62
      vertex 0.179999 20.18 6.62
      vertex 0.179999 20 6.62
    endloop
  endfacet
  facet normal -0 0 1
    outer loop
      vertex 0.179999 23.58 6.62
      vertex 6 23.4 6.62
      vertex 6 23.58 6.62
    endloop
  endfacet
  facet normal 0 0 1
    outer loop
      vertex 6 23.4 6.62
      vertex 0.179999 23.58 6.62
      vertex 0.179999 23.4 6.62
    endloop
  endfacet
  facet normal 0.173649 0 -0.984808
    outer loop
      vertex 5.94284 20 7.63337
      vertex 1.21658 26.62 6.8
      vertex 5.94284 26.62 7.63337
    endloop
  endfacet
  facet normal 0.173649 4.47678e-07 -0.984808
    outer loop
      vertex 0.211256 20 6.62273
      vertex 1.21658 26.62 6.8
      vertex 5.94284 20 7.63337
    endloop
  endfacet
  facet normal 0.173652 0 -0.984807
    outer loop
      vertex 1.21658 26.62 6.8
      vertex 0.211256 20 6.62273
      vertex 0.211256 26.62 6.62273
    endloop
  endfacet
  facet normal 0.984804 -0 0.173671
    outer loop
      vertex 5.91158 20 7.81063
      vertex 5.94284 26.62 7.63337
      vertex 5.91158 26.62 7.81063
    endloop
  endfacet
  facet normal 0.984804 0 0.173671
    outer loop
      vertex 5.94284 26.62 7.63337
      vertex 5.91158 20 7.81063
      vertex 5.94284 20 7.63337
    endloop
  endfacet
  facet normal -0.984808 0 -0.173646
    outer loop
      vertex 0.211256 20 6.62273
      vertex 0.179999 26.62 6.8
      vertex 0.211256 26.62 6.62273
    endloop
  endfacet
  facet normal -0.984808 -0 -0.173646
    outer loop
      vertex 0.179999 26.62 6.8
      vertex 0.211256 20 6.62273
      vertex 0.179999 20 6.8
    endloop
  endfacet
  facet normal -0.173648 0 0.984808
    outer loop
      vertex 0.179999 26.62 6.8
      vertex 5.91158 20 7.81063
      vertex 5.91158 26.62 7.81063
    endloop
  endfacet
  facet normal -0.173648 0 0.984808
    outer loop
      vertex 5.91158 20 7.81063
      vertex 0.179999 26.62 6.8
      vertex 0.179999 20 6.8
    endloop
  endfacet
  facet normal 0 -1 0
    outer loop
      vertex 0.179999 20 6.8
      vertex 5.94284 20 7.63337
      vertex 5.91158 20 7.81063
    endloop
  endfacet
  facet normal 0 -1 0
    outer loop
      vertex 5.94284 20 7.63337
      vertex 0.179999 20 6.8
      vertex 0.211256 20 6.62273
    endloop
  endfacet
  facet normal 0.275679 0 0.96125
    outer loop
      vertex 15.2134 26.8 6.7396
      vertex 15.3724 26.62 6.694
      vertex 15.3724 26.8 6.694
    endloop
  endfacet
  facet normal 0.275679 0 0.96125
    outer loop
      vertex 15.3724 26.62 6.694
      vertex 15.2134 26.8 6.7396
      vertex 15.2134 26.62 6.7396
    endloop
  endfacet
  facet normal 0.994493 -0 0.104801
    outer loop
      vertex 16.9869 0 4.76984
      vertex 17 26.8 4.64553
      vertex 16.9869 26.8 4.76984
    endloop
  endfacet
  facet normal 0.994493 0 0.104801
    outer loop
      vertex 17 26.8 4.64553
      vertex 16.9869 0 4.76984
      vertex 17 0 4.64553
    endloop
  endfacet
  facet normal 0.0697825 0 0.997562
    outer loop
      vertex 14.8451 26.8 6.8
      vertex 14.8877 26.62 6.79702
      vertex 14.8877 26.8 6.79702
    endloop
  endfacet
  facet normal 0.0697825 0 0.997562
    outer loop
      vertex 14.8877 26.62 6.79702
      vertex 14.8451 26.8 6.8
      vertex 14.8451 26.62 6.8
    endloop
  endfacet
  facet normal 0.984834 -0 0.173499
    outer loop
      vertex 16.9582 0 4.93275
      vertex 16.9869 26.8 4.76984
      vertex 16.9582 26.8 4.93275
    endloop
  endfacet
  facet normal 0.984834 0 0.173499
    outer loop
      vertex 16.9869 26.8 4.76984
      vertex 16.9582 0 4.93275
      vertex 16.9869 0 4.76984
    endloop
  endfacet
  facet normal 0.529879 0 0.848073
    outer loop
      vertex 15.825 26.8 6.49248
      vertex 15.9653 26.62 6.40482
      vertex 15.9653 26.8 6.40482
    endloop
  endfacet
  facet normal 0.529879 0 0.848073
    outer loop
      vertex 15.9653 26.62 6.40482
      vertex 15.825 26.8 6.49248
      vertex 15.825 26.62 6.49248
    endloop
  endfacet
  facet normal 0.951091 -0 0.30891
    outer loop
      vertex 16.8671 0 5.25059
      vertex 16.9182 26.8 5.09326
      vertex 16.8671 26.8 5.25059
    endloop
  endfacet
  facet normal 0.951091 0 0.30891
    outer loop
      vertex 16.9182 26.8 5.09326
      vertex 16.8671 0 5.25059
      vertex 16.9182 0 5.09326
    endloop
  endfacet
  facet normal 0.139229 0 0.99026
    outer loop
      vertex 14.8877 26.8 6.79702
      vertex 15.0515 26.62 6.77399
      vertex 15.0515 26.8 6.77399
    endloop
  endfacet
  facet normal 0.139229 0 0.99026
    outer loop
      vertex 15.0515 26.62 6.77399
      vertex 14.8877 26.8 6.79702
      vertex 14.8877 26.62 6.79702
    endloop
  endfacet
  facet normal 0.207779 0 0.978176
    outer loop
      vertex 15.0515 26.8 6.77399
      vertex 15.2134 26.62 6.7396
      vertex 15.2134 26.8 6.7396
    endloop
  endfacet
  facet normal 0.207779 0 0.978176
    outer loop
      vertex 15.2134 26.62 6.7396
      vertex 15.0515 26.8 6.77399
      vertex 15.0515 26.62 6.77399
    endloop
  endfacet
  facet normal 0.970324 -0 0.24181
    outer loop
      vertex 16.9182 0 5.09326
      vertex 16.9582 26.8 4.93275
      vertex 16.9182 26.8 5.09326
    endloop
  endfacet
  facet normal 0.970324 0 0.24181
    outer loop
      vertex 16.9582 26.8 4.93275
      vertex 16.9182 0 5.09326
      vertex 16.9582 0 4.93275
    endloop
  endfacet
  facet normal 0.406767 0 0.913532
    outer loop
      vertex 15.5278 26.8 6.63742
      vertex 15.6789 26.62 6.57014
      vertex 15.6789 26.8 6.57014
    endloop
  endfacet
  facet normal 0.406767 0 0.913532
    outer loop
      vertex 15.6789 26.62 6.57014
      vertex 15.5278 26.8 6.63742
      vertex 15.5278 26.62 6.63742
    endloop
  endfacet
  facet normal 0.866055 -0 0.499949
    outer loop
      vertex 16.6499 26.62 5.69591
      vertex 16.7326 26.8 5.55265
      vertex 16.6499 26.8 5.69591
    endloop
  endfacet
  facet normal 0.866055 0 0.499949
    outer loop
      vertex 16.7326 26.8 5.55265
      vertex 16.6499 26.62 5.69591
      vertex 16.7326 26.62 5.55265
    endloop
  endfacet
  facet normal 0.694637 0 0.719361
    outer loop
      vertex 16.2258 26.8 6.20125
      vertex 16.3448 26.62 6.08634
      vertex 16.3448 26.8 6.08634
    endloop
  endfacet
  facet normal 0.694637 0 0.719361
    outer loop
      vertex 16.3448 26.62 6.08634
      vertex 16.2258 26.8 6.20125
      vertex 16.2258 26.62 6.20125
    endloop
  endfacet
  facet normal 0.898832 -0 0.438293
    outer loop
      vertex 16.7326 26.62 5.55265
      vertex 16.8051 26.8 5.40397
      vertex 16.7326 26.8 5.55265
    endloop
  endfacet
  facet normal 0.898832 0 0.438293
    outer loop
      vertex 16.8051 26.8 5.40397
      vertex 16.7326 26.62 5.55265
      vertex 16.8051 26.62 5.40397
    endloop
  endfacet
  facet normal 0.587859 0 0.808963
    outer loop
      vertex 15.9653 26.8 6.40482
      vertex 16.0991 26.62 6.30759
      vertex 16.0991 26.8 6.30759
    endloop
  endfacet
  facet normal 0.587859 0 0.808963
    outer loop
      vertex 16.0991 26.62 6.30759
      vertex 15.9653 26.8 6.40482
      vertex 15.9653 26.62 6.40482
    endloop
  endfacet
  facet normal 0.787859 -0 0.615855
    outer loop
      vertex 16.4555 26.62 5.96341
      vertex 16.5574 26.8 5.83305
      vertex 16.4555 26.8 5.96341
    endloop
  endfacet
  facet normal 0.787859 0 0.615855
    outer loop
      vertex 16.5574 26.8 5.83305
      vertex 16.4555 26.62 5.96341
      vertex 16.5574 26.62 5.83305
    endloop
  endfacet
  facet normal 0.469364 0 0.883005
    outer loop
      vertex 15.6789 26.8 6.57014
      vertex 15.825 26.62 6.49248
      vertex 15.825 26.8 6.49248
    endloop
  endfacet
  facet normal 0.469364 0 0.883005
    outer loop
      vertex 15.825 26.62 6.49248
      vertex 15.6789 26.8 6.57014
      vertex 15.6789 26.62 6.57014
    endloop
  endfacet
  facet normal 0.342122 0 0.939656
    outer loop
      vertex 15.3724 26.8 6.694
      vertex 15.5278 26.62 6.63742
      vertex 15.5278 26.8 6.63742
    endloop
  endfacet
  facet normal 0.342122 0 0.939656
    outer loop
      vertex 15.5278 26.62 6.63742
      vertex 15.3724 26.8 6.694
      vertex 15.3724 26.62 6.694
    endloop
  endfacet
  facet normal 0.829043 -0 0.559184
    outer loop
      vertex 16.5574 26.62 5.83305
      vertex 16.6499 26.8 5.69591
      vertex 16.5574 26.8 5.83305
    endloop
  endfacet
  facet normal 0.829043 0 0.559184
    outer loop
      vertex 16.6499 26.8 5.69591
      vertex 16.5574 26.62 5.83305
      vertex 16.6499 26.62 5.69591
    endloop
  endfacet
  facet normal 0.64288 0 0.765967
    outer loop
      vertex 16.0991 26.8 6.30759
      vertex 16.2258 26.62 6.20125
      vertex 16.2258 26.8 6.20125
    endloop
  endfacet
  facet normal 0.64288 0 0.765967
    outer loop
      vertex 16.2258 26.62 6.20125
      vertex 16.0991 26.8 6.30759
      vertex 16.0991 26.62 6.30759
    endloop
  endfacet
  facet normal 0.927188 0 0.374596
    outer loop
      vertex 16.82 26.62 5.36709
      vertex 16.8051 26.8 5.40397
      vertex 16.8051 26.62 5.40397
    endloop
  endfacet
  facet normal 0.92712 -4.02301e-05 0.374765
    outer loop
      vertex 16.8051 26.8 5.40397
      vertex 16.82 26.62 5.36709
      vertex 16.8671 26.8 5.25059
    endloop
  endfacet
  facet normal 0.927098 0 0.374818
    outer loop
      vertex 16.8671 0 5.25059
      vertex 16.82 26.62 5.36709
      vertex 16.82 0 5.36709
    endloop
  endfacet
  facet normal 0.927098 0 0.374818
    outer loop
      vertex 16.82 26.62 5.36709
      vertex 16.8671 0 5.25059
      vertex 16.8671 26.8 5.25059
    endloop
  endfacet
  facet normal 0.743105 -0 0.669175
    outer loop
      vertex 16.3448 26.62 6.08634
      vertex 16.4555 26.8 5.96341
      vertex 16.3448 26.8 6.08634
    endloop
  endfacet
  facet normal 0.743105 0 0.669175
    outer loop
      vertex 16.4555 26.8 5.96341
      vertex 16.3448 26.62 6.08634
      vertex 16.4555 26.62 5.96341
    endloop
  endfacet
endsolid OpenSCAD_Model
