solid OpenSCAD_Model
  facet normal -1 0 0
    outer loop
      vertex 15.14 0 6.61898
      vertex 15.14 26.62 6.79887
      vertex 15.14 26.62 6.61898
    endloop
  endfacet
  facet normal -1 -0 0
    outer loop
      vertex 15.14 26.62 6.79887
      vertex 15.14 0 6.61898
      vertex 15.14 0 6.79887
    endloop
  endfacet
  facet normal 0 1 0
    outer loop
      vertex 15.4647 26.8 6.78159
      vertex 15.332 26.8 6.8
      vertex 15.3355 26.8 6.79976
    endloop
  endfacet
  facet normal 0 1 0
    outer loop
      vertex 15.332 26.8 6.8
      vertex 15.4647 26.8 6.78159
      vertex 17 26.8 5.12224
    endloop
  endfacet
  facet normal 0 1 0
    outer loop
      vertex 17 26.8 5.12224
      vertex 15.4647 26.8 6.78159
      vertex 15.5924 26.8 6.75445
    endloop
  endfacet
  facet normal 0 1 0
    outer loop
      vertex 17 26.8 5.12224
      vertex 15.5924 26.8 6.75445
      vertex 15.7179 26.8 6.71847
    endloop
  endfacet
  facet normal 0 1 0
    outer loop
      vertex 17 26.8 5.12224
      vertex 15.7179 26.8 6.71847
      vertex 15.8405 26.8 6.67383
    endloop
  endfacet
  facet normal 0 1 0
    outer loop
      vertex 17 26.8 5.12224
      vertex 15.8405 26.8 6.67383
      vertex 15.9598 26.8 6.62074
    endloop
  endfacet
  facet normal 0 1 0
    outer loop
      vertex 17 26.8 5.12224
      vertex 15.9598 26.8 6.62074
      vertex 16.075 26.8 6.55947
    endloop
  endfacet
  facet normal 0 1 0
    outer loop
      vertex 17 26.8 5.12224
      vertex 16.075 26.8 6.55947
      vertex 16.1857 26.8 6.4903
    endloop
  endfacet
  facet normal 0 1 0
    outer loop
      vertex 17 26.8 5.12224
      vertex 16.1857 26.8 6.4903
      vertex 16.2913 26.8 6.41358
    endloop
  endfacet
  facet normal 0 1 0
    outer loop
      vertex 17 26.8 5.12224
      vertex 16.2913 26.8 6.41358
      vertex 16.3913 26.8 6.32968
    endloop
  endfacet
  facet normal 0 1 0
    outer loop
      vertex 17 26.8 5.12224
      vertex 16.3913 26.8 6.32968
      vertex 16.4852 26.8 6.23901
    endloop
  endfacet
  facet normal 0 1 0
    outer loop
      vertex 17 26.8 5.12224
      vertex 16.4852 26.8 6.23901
      vertex 16.5725 26.8 6.14201
    endloop
  endfacet
  facet normal 0 1 0
    outer loop
      vertex 17 26.8 5.12224
      vertex 16.5725 26.8 6.14201
      vertex 16.6529 26.8 6.03916
    endloop
  endfacet
  facet normal 0 1 0
    outer loop
      vertex 17 26.8 5.12224
      vertex 16.6529 26.8 6.03916
      vertex 16.7258 26.8 5.93095
    endloop
  endfacet
  facet normal 0 1 0
    outer loop
      vertex 17 26.8 5.12224
      vertex 16.7258 26.8 5.93095
      vertex 16.7911 26.8 5.81791
    endloop
  endfacet
  facet normal 0 1 0
    outer loop
      vertex 17 26.8 5.12224
      vertex 16.7911 26.8 5.81791
      vertex 16.8483 26.8 5.7006
    endloop
  endfacet
  facet normal 0 1 0
    outer loop
      vertex 17 26.8 5.12224
      vertex 16.8483 26.8 5.7006
      vertex 16.8972 26.8 5.57958
    endloop
  endfacet
  facet normal 0 1 0
    outer loop
      vertex 17 26.8 5.12224
      vertex 16.8972 26.8 5.57958
      vertex 16.9376 26.8 5.45544
    endloop
  endfacet
  facet normal 0 1 0
    outer loop
      vertex 17 26.8 5.12224
      vertex 16.9376 26.8 5.45544
      vertex 16.9691 26.8 5.32879
    endloop
  endfacet
  facet normal 0 1 0
    outer loop
      vertex 17 26.8 5.12224
      vertex 16.9691 26.8 5.32879
      vertex 16.9918 26.8 5.20025
    endloop
  endfacet
  facet normal 0 1 0
    outer loop
      vertex 15.332 26.8 6.8
      vertex 17 26.8 5.12224
      vertex 17 26.8 0
    endloop
  endfacet
  facet normal 0 1 0
    outer loop
      vertex 15.332 26.8 6.8
      vertex 17 26.8 0
      vertex 0 26.8 0
    endloop
  endfacet
  facet normal 0 1 0
    outer loop
      vertex 15.332 26.8 6.8
      vertex 0 26.8 0
      vertex 0 26.8 6.8
    endloop
  endfacet
  facet normal 0 -1 0
    outer loop
      vertex 15.1986 0 6.61898
      vertex 15.2049 0 6.79887
      vertex 15.14 0 6.79887
    endloop
  endfacet
  facet normal 0 -1 -0
    outer loop
      vertex 15.2049 0 6.79887
      vertex 15.1986 0 6.61898
      vertex 15.3344 0 6.78981
    endloop
  endfacet
  facet normal 0 -1 -0
    outer loop
      vertex 15.3344 0 6.78981
      vertex 15.3156 0 6.6108
      vertex 15.463 0 6.77174
    endloop
  endfacet
  facet normal 0 -1 0
    outer loop
      vertex 15.4317 0 6.59448
      vertex 15.463 0 6.77174
      vertex 15.3156 0 6.6108
    endloop
  endfacet
  facet normal 0 -1 0
    outer loop
      vertex 15.5464 0 6.5701
      vertex 15.59 0 6.74475
      vertex 15.4317 0 6.59448
    endloop
  endfacet
  facet normal 0 -1 0
    outer loop
      vertex 15.1986 0 6.61898
      vertex 15.14 0 6.79887
      vertex 15.14 0 6.61898
    endloop
  endfacet
  facet normal 0 -1 0
    outer loop
      vertex 15.3344 0 6.78981
      vertex 15.1986 0 6.61898
      vertex 15.3156 0 6.6108
    endloop
  endfacet
  facet normal 0 -1 -0
    outer loop
      vertex 15.463 0 6.77174
      vertex 15.4317 0 6.59448
      vertex 15.59 0 6.74475
    endloop
  endfacet
  facet normal 0 -1 -0
    outer loop
      vertex 15.59 0 6.74475
      vertex 15.5464 0 6.5701
      vertex 15.7148 0 6.70896
    endloop
  endfacet
  facet normal 0 -1 0
    outer loop
      vertex 15.6591 0 6.53777
      vertex 15.7148 0 6.70896
      vertex 15.5464 0 6.5701
    endloop
  endfacet
  facet normal 0 -1 -0
    outer loop
      vertex 15.7148 0 6.70896
      vertex 15.6591 0 6.53777
      vertex 15.8368 0 6.66456
    endloop
  endfacet
  facet normal 0 -1 0
    outer loop
      vertex 15.7693 0 6.49767
      vertex 15.8368 0 6.66456
      vertex 15.6591 0 6.53777
    endloop
  endfacet
  facet normal 0 -1 -0
    outer loop
      vertex 15.8368 0 6.66456
      vertex 15.7693 0 6.49767
      vertex 15.9554 0 6.61176
    endloop
  endfacet
  facet normal 0 -1 0
    outer loop
      vertex 15.8765 0 6.44997
      vertex 15.9554 0 6.61176
      vertex 15.7693 0 6.49767
    endloop
  endfacet
  facet normal 0 -1 -0
    outer loop
      vertex 15.9554 0 6.61176
      vertex 15.8765 0 6.44997
      vertex 16.07 0 6.55081
    endloop
  endfacet
  facet normal 0 -1 0
    outer loop
      vertex 15.98 0 6.39492
      vertex 16.07 0 6.55081
      vertex 15.8765 0 6.44997
    endloop
  endfacet
  facet normal 0 -1 -0
    outer loop
      vertex 16.07 0 6.55081
      vertex 15.98 0 6.39492
      vertex 16.1801 0 6.48201
    endloop
  endfacet
  facet normal 0 -1 0
    outer loop
      vertex 16.0794 0 6.33278
      vertex 16.1801 0 6.48201
      vertex 15.98 0 6.39492
    endloop
  endfacet
  facet normal 0 -1 -0
    outer loop
      vertex 16.1801 0 6.48201
      vertex 16.0794 0 6.33278
      vertex 16.2851 0 6.4057
    endloop
  endfacet
  facet normal 0 -1 0
    outer loop
      vertex 16.1743 0 6.26386
      vertex 16.2851 0 6.4057
      vertex 16.0794 0 6.33278
    endloop
  endfacet
  facet normal 0 -1 -0
    outer loop
      vertex 16.2851 0 6.4057
      vertex 16.1743 0 6.26386
      vertex 16.3846 0 6.32225
    endloop
  endfacet
  facet normal 0 -1 0
    outer loop
      vertex 16.2641 0 6.18848
      vertex 16.3846 0 6.32225
      vertex 16.1743 0 6.26386
    endloop
  endfacet
  facet normal 0 -1 -0
    outer loop
      vertex 16.3846 0 6.32225
      vertex 16.2641 0 6.18848
      vertex 16.478 0 6.23206
    endloop
  endfacet
  facet normal 0 -1 0
    outer loop
      vertex 16.3485 0 6.10703
      vertex 16.478 0 6.23206
      vertex 16.2641 0 6.18848
    endloop
  endfacet
  facet normal 0 -1 -0
    outer loop
      vertex 16.478 0 6.23206
      vertex 16.3485 0 6.10703
      vertex 16.5648 0 6.13558
    endloop
  endfacet
  facet normal 0 -1 0
    outer loop
      vertex 16.427 0 6.01988
      vertex 16.5648 0 6.13558
      vertex 16.3485 0 6.10703
    endloop
  endfacet
  facet normal 0 -1 -0
    outer loop
      vertex 16.5648 0 6.13558
      vertex 16.427 0 6.01988
      vertex 16.6448 0 6.03328
    endloop
  endfacet
  facet normal 0 -1 0
    outer loop
      vertex 16.4991 0 5.92748
      vertex 16.6448 0 6.03328
      vertex 16.427 0 6.01988
    endloop
  endfacet
  facet normal 0 -1 0
    outer loop
      vertex 16.4991 0 5.92748
      vertex 16.7174 0 5.92565
      vertex 16.6448 0 6.03328
    endloop
  endfacet
  facet normal 0 -1 0
    outer loop
      vertex 16.5647 0 5.83026
      vertex 16.7174 0 5.92565
      vertex 16.4991 0 5.92748
    endloop
  endfacet
  facet normal 0 -1 0
    outer loop
      vertex 16.5647 0 5.83026
      vertex 16.7823 0 5.81322
      vertex 16.7174 0 5.92565
    endloop
  endfacet
  facet normal 0 -1 0
    outer loop
      vertex 16.6234 0 5.72871
      vertex 16.7823 0 5.81322
      vertex 16.5647 0 5.83026
    endloop
  endfacet
  facet normal 0 -1 -0
    outer loop
      vertex 16.7823 0 5.81322
      vertex 16.6234 0 5.72871
      vertex 16.82 0 5.73588
    endloop
  endfacet
  facet normal 0 -1 0
    outer loop
      vertex 16.82 0 5.73588
      vertex 16.8483 0 5.7006
      vertex 16.82 0 5.75868
    endloop
  endfacet
  facet normal 0 -1 0
    outer loop
      vertex 16.6748 0 5.62332
      vertex 16.82 0 5.73588
      vertex 16.6234 0 5.72871
    endloop
  endfacet
  facet normal 0 -1 -0
    outer loop
      vertex 16.82 0 5.73588
      vertex 16.6748 0 5.62332
      vertex 16.8483 0 5.7006
    endloop
  endfacet
  facet normal 0 -1 0
    outer loop
      vertex 16.6748 0 5.62332
      vertex 16.8972 0 5.57958
      vertex 16.8483 0 5.7006
    endloop
  endfacet
  facet normal 0 -1 0
    outer loop
      vertex 16.7187 0 5.51459
      vertex 16.8972 0 5.57958
      vertex 16.6748 0 5.62332
    endloop
  endfacet
  facet normal 0 -1 0
    outer loop
      vertex 16.7187 0 5.51459
      vertex 16.9376 0 5.45544
      vertex 16.8972 0 5.57958
    endloop
  endfacet
  facet normal 0 -1 0
    outer loop
      vertex 16.7549 0 5.40307
      vertex 16.9376 0 5.45544
      vertex 16.7187 0 5.51459
    endloop
  endfacet
  facet normal 0 -1 0
    outer loop
      vertex 16.7549 0 5.40307
      vertex 16.9691 0 5.32879
      vertex 16.9376 0 5.45544
    endloop
  endfacet
  facet normal 0 -1 0
    outer loop
      vertex 16.7833 0 5.28929
      vertex 16.9691 0 5.32879
      vertex 16.7549 0 5.40307
    endloop
  endfacet
  facet normal 0 -1 0
    outer loop
      vertex 16.7833 0 5.28929
      vertex 16.9918 0 5.20025
      vertex 16.9691 0 5.32879
    endloop
  endfacet
  facet normal 0 -1 0
    outer loop
      vertex 16.8036 0 5.17381
      vertex 16.9918 0 5.20025
      vertex 16.7833 0 5.28929
    endloop
  endfacet
  facet normal 0 -1 0
    outer loop
      vertex 16.8036 0 5.17381
      vertex 17 0 5.12224
      vertex 16.9918 0 5.20025
    endloop
  endfacet
  facet normal 0 -1 0
    outer loop
      vertex 16.8159 0 5.05719
      vertex 17 0 5.12224
      vertex 16.8036 0 5.17381
    endloop
  endfacet
  facet normal 0 -1 0
    outer loop
      vertex 16.82 0 4.94
      vertex 17 0 5.12224
      vertex 16.8159 0 5.05719
    endloop
  endfacet
  facet normal 0 -1 0
    outer loop
      vertex 17 0 0
      vertex 16.82 0 4.94
      vertex 16.82 0 0
    endloop
  endfacet
  facet normal 0 -1 0
    outer loop
      vertex 16.82 0 4.94
      vertex 17 0 0
      vertex 17 0 5.12224
    endloop
  endfacet
  facet normal 0.0697908 0 0.997562
    outer loop
      vertex 15.2049 26.62 6.79887
      vertex 15.3344 0 6.78981
      vertex 15.3344 26.62 6.78981
    endloop
  endfacet
  facet normal 0.0697908 0 0.997562
    outer loop
      vertex 15.3344 0 6.78981
      vertex 15.2049 26.62 6.79887
      vertex 15.2049 0 6.79887
    endloop
  endfacet
  facet normal 0.866064 -0 0.499934
    outer loop
      vertex 16.7174 0 5.92565
      vertex 16.7823 26.62 5.81322
      vertex 16.7174 26.62 5.92565
    endloop
  endfacet
  facet normal 0.866064 0 0.499934
    outer loop
      vertex 16.7823 26.62 5.81322
      vertex 16.7174 0 5.92565
      vertex 16.7823 0 5.81322
    endloop
  endfacet
  facet normal 0.787732 -0 0.616018
    outer loop
      vertex 16.5648 0 6.13558
      vertex 16.6448 26.62 6.03328
      vertex 16.5648 26.62 6.13558
    endloop
  endfacet
  facet normal 0.787732 0 0.616018
    outer loop
      vertex 16.6448 26.62 6.03328
      vertex 16.5648 0 6.13558
      vertex 16.6448 0 6.03328
    endloop
  endfacet
  facet normal 0.469568 0 0.882896
    outer loop
      vertex 15.9554 26.62 6.61176
      vertex 16.07 0 6.55081
      vertex 16.07 26.62 6.55081
    endloop
  endfacet
  facet normal 0.469568 0 0.882896
    outer loop
      vertex 16.07 0 6.55081
      vertex 15.9554 26.62 6.61176
      vertex 15.9554 0 6.61176
    endloop
  endfacet
  facet normal 0.829028 -0 0.559207
    outer loop
      vertex 16.6448 0 6.03328
      vertex 16.7174 26.62 5.92565
      vertex 16.6448 26.62 6.03328
    endloop
  endfacet
  facet normal 0.829028 0 0.559207
    outer loop
      vertex 16.7174 26.62 5.92565
      vertex 16.6448 0 6.03328
      vertex 16.7174 0 5.92565
    endloop
  endfacet
  facet normal 0.34199 0 0.939703
    outer loop
      vertex 15.7148 26.62 6.70896
      vertex 15.8368 0 6.66456
      vertex 15.8368 26.62 6.66456
    endloop
  endfacet
  facet normal 0.34199 0 0.939703
    outer loop
      vertex 15.8368 0 6.66456
      vertex 15.7148 26.62 6.70896
      vertex 15.7148 0 6.70896
    endloop
  endfacet
  facet normal 0.52993 0 0.848042
    outer loop
      vertex 16.07 26.62 6.55081
      vertex 16.1801 0 6.48201
      vertex 16.1801 26.62 6.48201
    endloop
  endfacet
  facet normal 0.52993 0 0.848042
    outer loop
      vertex 16.1801 0 6.48201
      vertex 16.07 26.62 6.55081
      vertex 16.07 0 6.55081
    endloop
  endfacet
  facet normal 0.743417 -0 0.668828
    outer loop
      vertex 16.478 0 6.23206
      vertex 16.5648 26.62 6.13558
      vertex 16.478 26.62 6.23206
    endloop
  endfacet
  facet normal 0.743417 0 0.668828
    outer loop
      vertex 16.5648 26.62 6.13558
      vertex 16.478 0 6.23206
      vertex 16.5648 0 6.13558
    endloop
  endfacet
  facet normal 0.587901 0 0.808933
    outer loop
      vertex 16.1801 26.62 6.48201
      vertex 16.2851 0 6.4057
      vertex 16.2851 26.62 6.4057
    endloop
  endfacet
  facet normal 0.587901 0 0.808933
    outer loop
      vertex 16.2851 0 6.4057
      vertex 16.1801 26.62 6.48201
      vertex 16.1801 0 6.48201
    endloop
  endfacet
  facet normal 0.139146 0 0.990272
    outer loop
      vertex 15.3344 26.62 6.78981
      vertex 15.463 0 6.77174
      vertex 15.463 26.62 6.77174
    endloop
  endfacet
  facet normal 0.139146 0 0.990272
    outer loop
      vertex 15.463 0 6.77174
      vertex 15.3344 26.62 6.78981
      vertex 15.3344 0 6.78981
    endloop
  endfacet
  facet normal 0.694637 0 0.71936
    outer loop
      vertex 16.3846 26.62 6.32225
      vertex 16.478 0 6.23206
      vertex 16.478 26.62 6.23206
    endloop
  endfacet
  facet normal 0.694637 0 0.71936
    outer loop
      vertex 16.478 0 6.23206
      vertex 16.3846 26.62 6.32225
      vertex 16.3846 0 6.32225
    endloop
  endfacet
  facet normal 0.40671 0 0.913557
    outer loop
      vertex 15.8368 26.62 6.66456
      vertex 15.9554 0 6.61176
      vertex 15.9554 26.62 6.61176
    endloop
  endfacet
  facet normal 0.40671 0 0.913557
    outer loop
      vertex 15.9554 0 6.61176
      vertex 15.8368 26.62 6.66456
      vertex 15.8368 0 6.66456
    endloop
  endfacet
  facet normal 0.642605 0 0.766198
    outer loop
      vertex 16.2851 26.62 6.4057
      vertex 16.3846 0 6.32225
      vertex 16.3846 26.62 6.32225
    endloop
  endfacet
  facet normal 0.642605 0 0.766198
    outer loop
      vertex 16.3846 0 6.32225
      vertex 16.2851 26.62 6.4057
      vertex 16.2851 0 6.4057
    endloop
  endfacet
  facet normal -0 0 1
    outer loop
      vertex 15.14 26.62 6.79887
      vertex 15.2049 0 6.79887
      vertex 15.2049 26.62 6.79887
    endloop
  endfacet
  facet normal 0 0 1
    outer loop
      vertex 15.2049 0 6.79887
      vertex 15.14 26.62 6.79887
      vertex 15.14 0 6.79887
    endloop
  endfacet
  facet normal 0.275667 0 0.961253
    outer loop
      vertex 15.59 26.62 6.74475
      vertex 15.7148 0 6.70896
      vertex 15.7148 26.62 6.70896
    endloop
  endfacet
  facet normal 0.275667 0 0.961253
    outer loop
      vertex 15.7148 0 6.70896
      vertex 15.59 26.62 6.74475
      vertex 15.59 0 6.74475
    endloop
  endfacet
  facet normal 0.207877 0 0.978155
    outer loop
      vertex 15.463 26.62 6.77174
      vertex 15.59 0 6.74475
      vertex 15.59 26.62 6.74475
    endloop
  endfacet
  facet normal 0.207877 0 0.978155
    outer loop
      vertex 15.59 0 6.74475
      vertex 15.463 26.62 6.77174
      vertex 15.463 0 6.77174
    endloop
  endfacet
  facet normal 0.898891 -1.30678e-05 0.438172
    outer loop
      vertex 16.7823 26.62 5.81322
      vertex 16.7887 23.58 5.8
      vertex 16.82 26.62 5.73588
    endloop
  endfacet
  facet normal 0.900073 0 0.435739
    outer loop
      vertex 16.7823 26.62 5.81322
      vertex 16.7887 23.4 5.8
      vertex 16.7887 23.58 5.8
    endloop
  endfacet
  facet normal 0.898647 0 0.438672
    outer loop
      vertex 16.7887 23.4 5.8
      vertex 16.7887 20.18 5.8
      vertex 16.82 23.4 5.73588
    endloop
  endfacet
  facet normal 0.900073 0 0.435739
    outer loop
      vertex 16.7823 26.62 5.81322
      vertex 16.7887 20.18 5.8
      vertex 16.7887 23.4 5.8
    endloop
  endfacet
  facet normal 0.900073 0 0.435739
    outer loop
      vertex 16.7823 26.62 5.81322
      vertex 16.7887 20 5.8
      vertex 16.7887 20.18 5.8
    endloop
  endfacet
  facet normal 0.900073 -0 0.435739
    outer loop
      vertex 16.7823 0 5.81322
      vertex 16.7887 20 5.8
      vertex 16.7823 26.62 5.81322
    endloop
  endfacet
  facet normal 0.898647 2.39518e-06 0.438672
    outer loop
      vertex 16.7823 0 5.81322
      vertex 16.82 20 5.73588
      vertex 16.7887 20 5.8
    endloop
  endfacet
  facet normal 0.898891 0 0.438172
    outer loop
      vertex 16.82 20 5.73588
      vertex 16.7823 0 5.81322
      vertex 16.82 0 5.73588
    endloop
  endfacet
  facet normal 0.898647 0 0.438672
    outer loop
      vertex 16.82 26.62 5.73588
      vertex 16.7887 23.58 5.8
      vertex 16.82 23.58 5.73588
    endloop
  endfacet
  facet normal 0.898647 0 0.438672
    outer loop
      vertex 16.82 23.4 5.73588
      vertex 16.7887 20.18 5.8
      vertex 16.82 20.18 5.73588
    endloop
  endfacet
  facet normal -0.341948 0 -0.939719
    outer loop
      vertex 15.6591 0 6.53777
      vertex 15.7693 26.62 6.49767
      vertex 15.7693 0 6.49767
    endloop
  endfacet
  facet normal -0.341948 0 -0.939719
    outer loop
      vertex 15.7693 26.62 6.49767
      vertex 15.6591 0 6.53777
      vertex 15.6591 26.62 6.53777
    endloop
  endfacet
  facet normal -0.20791 0 -0.978148
    outer loop
      vertex 15.4317 0 6.59448
      vertex 15.5464 26.62 6.5701
      vertex 15.5464 0 6.5701
    endloop
  endfacet
  facet normal -0.20791 0 -0.978148
    outer loop
      vertex 15.5464 26.62 6.5701
      vertex 15.4317 0 6.59448
      vertex 15.4317 26.62 6.59448
    endloop
  endfacet
  facet normal -0.275746 0 -0.961231
    outer loop
      vertex 15.5464 0 6.5701
      vertex 15.6591 26.62 6.53777
      vertex 15.6591 0 6.53777
    endloop
  endfacet
  facet normal -0.275746 0 -0.961231
    outer loop
      vertex 15.6591 26.62 6.53777
      vertex 15.5464 0 6.5701
      vertex 15.5464 26.62 6.5701
    endloop
  endfacet
  facet normal -0.951144 0 -0.308747
    outer loop
      vertex 16.7549 0 5.40307
      vertex 16.7187 20 5.51459
      vertex 16.7549 20 5.40307
    endloop
  endfacet
  facet normal -0.951144 -0 -0.308747
    outer loop
      vertex 16.7187 20 5.51459
      vertex 16.7549 0 5.40307
      vertex 16.7187 0 5.51459
    endloop
  endfacet
  facet normal -0.951144 0 -0.308747
    outer loop
      vertex 16.7549 20.18 5.40307
      vertex 16.7187 23.4 5.51459
      vertex 16.7549 23.4 5.40307
    endloop
  endfacet
  facet normal -0.951144 -0 -0.308747
    outer loop
      vertex 16.7187 23.4 5.51459
      vertex 16.7549 20.18 5.40307
      vertex 16.7187 20.18 5.51459
    endloop
  endfacet
  facet normal -0.951144 0 -0.308747
    outer loop
      vertex 16.7549 23.58 5.40307
      vertex 16.7187 26.62 5.51459
      vertex 16.7549 26.62 5.40307
    endloop
  endfacet
  facet normal -0.951144 -0 -0.308747
    outer loop
      vertex 16.7187 26.62 5.51459
      vertex 16.7549 23.58 5.40307
      vertex 16.7187 23.58 5.51459
    endloop
  endfacet
  facet normal -0.898801 0 -0.438356
    outer loop
      vertex 16.6748 0 5.62332
      vertex 16.6234 20 5.72871
      vertex 16.6748 20 5.62332
    endloop
  endfacet
  facet normal -0.898801 -0 -0.438356
    outer loop
      vertex 16.6234 20 5.72871
      vertex 16.6748 0 5.62332
      vertex 16.6234 0 5.72871
    endloop
  endfacet
  facet normal -0.898801 0 -0.438356
    outer loop
      vertex 16.6748 23.58 5.62332
      vertex 16.6234 26.62 5.72871
      vertex 16.6748 26.62 5.62332
    endloop
  endfacet
  facet normal -0.898801 -0 -0.438356
    outer loop
      vertex 16.6234 26.62 5.72871
      vertex 16.6748 23.58 5.62332
      vertex 16.6234 23.58 5.72871
    endloop
  endfacet
  facet normal -0.898801 0 -0.438356
    outer loop
      vertex 16.6748 20.18 5.62332
      vertex 16.6234 23.4 5.72871
      vertex 16.6748 23.4 5.62332
    endloop
  endfacet
  facet normal -0.898801 -0 -0.438356
    outer loop
      vertex 16.6234 23.4 5.72871
      vertex 16.6748 20.18 5.62332
      vertex 16.6234 20.18 5.72871
    endloop
  endfacet
  facet normal -0.69442 0 -0.71957
    outer loop
      vertex 16.2641 0 6.18848
      vertex 16.3485 26.62 6.10703
      vertex 16.3485 0 6.10703
    endloop
  endfacet
  facet normal -0.69442 0 -0.71957
    outer loop
      vertex 16.3485 26.62 6.10703
      vertex 16.2641 0 6.18848
      vertex 16.2641 26.62 6.18848
    endloop
  endfacet
  facet normal -0.984898 0 -0.173133
    outer loop
      vertex 16.8036 0 5.17381
      vertex 16.7833 20 5.28929
      vertex 16.8036 20 5.17381
    endloop
  endfacet
  facet normal -0.984898 -0 -0.173133
    outer loop
      vertex 16.7833 20 5.28929
      vertex 16.8036 0 5.17381
      vertex 16.7833 0 5.28929
    endloop
  endfacet
  facet normal -0.984898 0 -0.173133
    outer loop
      vertex 16.8036 20.18 5.17381
      vertex 16.7833 23.4 5.28929
      vertex 16.8036 23.4 5.17381
    endloop
  endfacet
  facet normal -0.984898 -0 -0.173133
    outer loop
      vertex 16.7833 23.4 5.28929
      vertex 16.8036 20.18 5.17381
      vertex 16.7833 20.18 5.28929
    endloop
  endfacet
  facet normal -0.984898 0 -0.173133
    outer loop
      vertex 16.8036 23.58 5.17381
      vertex 16.7833 26.62 5.28929
      vertex 16.8036 26.62 5.17381
    endloop
  endfacet
  facet normal -0.984898 -0 -0.173133
    outer loop
      vertex 16.7833 26.62 5.28929
      vertex 16.8036 23.58 5.17381
      vertex 16.7833 23.58 5.28929
    endloop
  endfacet
  facet normal -0.530091 0 -0.847941
    outer loop
      vertex 15.98 0 6.39492
      vertex 16.0794 26.62 6.33278
      vertex 16.0794 0 6.33278
    endloop
  endfacet
  facet normal -0.530091 0 -0.847941
    outer loop
      vertex 16.0794 26.62 6.33278
      vertex 15.98 0 6.39492
      vertex 15.98 26.62 6.39492
    endloop
  endfacet
  facet normal -0.999389 0 -0.0349645
    outer loop
      vertex 16.82 0 4.94
      vertex 16.8159 20 5.05719
      vertex 16.82 20 4.94
    endloop
  endfacet
  facet normal -0.999389 -0 -0.0349645
    outer loop
      vertex 16.8159 20 5.05719
      vertex 16.82 0 4.94
      vertex 16.8159 0 5.05719
    endloop
  endfacet
  facet normal -0.999389 0 -0.0349645
    outer loop
      vertex 16.82 23.58 4.94
      vertex 16.8159 26.62 5.05719
      vertex 16.82 26.62 4.94
    endloop
  endfacet
  facet normal -0.999389 -0 -0.0349645
    outer loop
      vertex 16.8159 26.62 5.05719
      vertex 16.82 23.58 4.94
      vertex 16.8159 23.58 5.05719
    endloop
  endfacet
  facet normal -0.999389 0 -0.0349645
    outer loop
      vertex 16.82 20.18 4.94
      vertex 16.8159 23.4 5.05719
      vertex 16.82 23.4 4.94
    endloop
  endfacet
  facet normal -0.999389 -0 -0.0349645
    outer loop
      vertex 16.8159 23.4 5.05719
      vertex 16.82 20.18 4.94
      vertex 16.8159 20.18 5.05719
    endloop
  endfacet
  facet normal -0.743019 0 -0.669271
    outer loop
      vertex 16.427 0 6.01988
      vertex 16.3485 26.62 6.10703
      vertex 16.427 26.62 6.01988
    endloop
  endfacet
  facet normal -0.743019 -0 -0.669271
    outer loop
      vertex 16.3485 26.62 6.10703
      vertex 16.427 0 6.01988
      vertex 16.3485 0 6.10703
    endloop
  endfacet
  facet normal -0.865811 -0 -0.500371
    outer loop
      vertex 16.6234 20 5.72871
      vertex 16.6234 0 5.72871
      vertex 16.5822 20 5.8
    endloop
  endfacet
  facet normal -0.865811 -0 -0.500371
    outer loop
      vertex 16.6234 23.4 5.72871
      vertex 16.6234 20.18 5.72871
      vertex 16.5822 23.4 5.8
    endloop
  endfacet
  facet normal -0.865767 0 -0.500448
    outer loop
      vertex 16.6234 23.58 5.72871
      vertex 16.5647 26.62 5.83026
      vertex 16.6234 26.62 5.72871
    endloop
  endfacet
  facet normal -0.865811 -3.44772e-06 -0.500371
    outer loop
      vertex 16.5822 23.58 5.8
      vertex 16.5647 26.62 5.83026
      vertex 16.6234 23.58 5.72871
    endloop
  endfacet
  facet normal -0.865661 0 -0.50063
    outer loop
      vertex 16.5822 23.4 5.8
      vertex 16.5647 26.62 5.83026
      vertex 16.5822 23.58 5.8
    endloop
  endfacet
  facet normal -0.865811 0 -0.500371
    outer loop
      vertex 16.5822 20.18 5.8
      vertex 16.5822 23.4 5.8
      vertex 16.6234 20.18 5.72871
    endloop
  endfacet
  facet normal -0.865661 0 -0.50063
    outer loop
      vertex 16.5822 20.18 5.8
      vertex 16.5647 26.62 5.83026
      vertex 16.5822 23.4 5.8
    endloop
  endfacet
  facet normal -0.865661 0 -0.50063
    outer loop
      vertex 16.5822 20 5.8
      vertex 16.5647 26.62 5.83026
      vertex 16.5822 20.18 5.8
    endloop
  endfacet
  facet normal -0.865767 3.67876e-07 -0.500448
    outer loop
      vertex 16.5647 0 5.83026
      vertex 16.5822 20 5.8
      vertex 16.6234 0 5.72871
    endloop
  endfacet
  facet normal -0.865661 0 -0.50063
    outer loop
      vertex 16.5822 20 5.8
      vertex 16.5647 0 5.83026
      vertex 16.5647 26.62 5.83026
    endloop
  endfacet
  facet normal -0.970233 0 -0.242174
    outer loop
      vertex 16.7833 0 5.28929
      vertex 16.7549 20 5.40307
      vertex 16.7833 20 5.28929
    endloop
  endfacet
  facet normal -0.970233 -0 -0.242174
    outer loop
      vertex 16.7549 20 5.40307
      vertex 16.7833 0 5.28929
      vertex 16.7549 0 5.40307
    endloop
  endfacet
  facet normal -0.970233 0 -0.242174
    outer loop
      vertex 16.7833 20.18 5.28929
      vertex 16.7549 23.4 5.40307
      vertex 16.7833 23.4 5.28929
    endloop
  endfacet
  facet normal -0.970233 -0 -0.242174
    outer loop
      vertex 16.7549 23.4 5.40307
      vertex 16.7833 20.18 5.28929
      vertex 16.7549 20.18 5.40307
    endloop
  endfacet
  facet normal -0.970233 0 -0.242174
    outer loop
      vertex 16.7833 23.58 5.28929
      vertex 16.7549 26.62 5.40307
      vertex 16.7833 26.62 5.28929
    endloop
  endfacet
  facet normal -0.970233 -0 -0.242174
    outer loop
      vertex 16.7549 26.62 5.40307
      vertex 16.7833 23.58 5.28929
      vertex 16.7549 23.58 5.40307
    endloop
  endfacet
  facet normal -0.994484 0 -0.104889
    outer loop
      vertex 16.8159 0 5.05719
      vertex 16.8036 20 5.17381
      vertex 16.8159 20 5.05719
    endloop
  endfacet
  facet normal -0.994484 -0 -0.104889
    outer loop
      vertex 16.8036 20 5.17381
      vertex 16.8159 0 5.05719
      vertex 16.8036 0 5.17381
    endloop
  endfacet
  facet normal -0.994484 0 -0.104889
    outer loop
      vertex 16.8159 23.58 5.05719
      vertex 16.8036 26.62 5.17381
      vertex 16.8159 26.62 5.05719
    endloop
  endfacet
  facet normal -0.994484 -0 -0.104889
    outer loop
      vertex 16.8036 26.62 5.17381
      vertex 16.8159 23.58 5.05719
      vertex 16.8036 23.58 5.17381
    endloop
  endfacet
  facet normal -0.994484 0 -0.104889
    outer loop
      vertex 16.8159 20.18 5.05719
      vertex 16.8036 23.4 5.17381
      vertex 16.8159 23.4 5.05719
    endloop
  endfacet
  facet normal -0.994484 -0 -0.104889
    outer loop
      vertex 16.8036 23.4 5.17381
      vertex 16.8159 20.18 5.05719
      vertex 16.8036 20.18 5.17381
    endloop
  endfacet
  facet normal 0 0 -1
    outer loop
      vertex 15.14 0 6.61898
      vertex 15.1986 26.62 6.61898
      vertex 15.1986 0 6.61898
    endloop
  endfacet
  facet normal -0 0 -1
    outer loop
      vertex 15.1986 26.62 6.61898
      vertex 15.14 0 6.61898
      vertex 15.14 26.62 6.61898
    endloop
  endfacet
  facet normal -0.788386 0 -0.61518
    outer loop
      vertex 16.4991 0 5.92748
      vertex 16.427 26.62 6.01988
      vertex 16.4991 26.62 5.92748
    endloop
  endfacet
  facet normal -0.788386 -0 -0.61518
    outer loop
      vertex 16.427 26.62 6.01988
      vertex 16.4991 0 5.92748
      vertex 16.427 0 6.01988
    endloop
  endfacet
  facet normal -0.406534 0 -0.913636
    outer loop
      vertex 15.7693 0 6.49767
      vertex 15.8765 26.62 6.44997
      vertex 15.8765 0 6.44997
    endloop
  endfacet
  facet normal -0.406534 0 -0.913636
    outer loop
      vertex 15.8765 26.62 6.44997
      vertex 15.7693 0 6.49767
      vertex 15.7693 26.62 6.49767
    endloop
  endfacet
  facet normal -0.0697443 0 -0.997565
    outer loop
      vertex 15.1986 0 6.61898
      vertex 15.3156 26.62 6.6108
      vertex 15.3156 0 6.6108
    endloop
  endfacet
  facet normal -0.0697443 0 -0.997565
    outer loop
      vertex 15.3156 26.62 6.6108
      vertex 15.1986 0 6.61898
      vertex 15.1986 26.62 6.61898
    endloop
  endfacet
  facet normal -0.1392 0 -0.990264
    outer loop
      vertex 15.3156 0 6.6108
      vertex 15.4317 26.62 6.59448
      vertex 15.4317 0 6.59448
    endloop
  endfacet
  facet normal -0.1392 0 -0.990264
    outer loop
      vertex 15.4317 26.62 6.59448
      vertex 15.3156 0 6.6108
      vertex 15.3156 26.62 6.6108
    endloop
  endfacet
  facet normal -0.828942 0 -0.559335
    outer loop
      vertex 16.5647 0 5.83026
      vertex 16.4991 26.62 5.92748
      vertex 16.5647 26.62 5.83026
    endloop
  endfacet
  facet normal -0.828942 -0 -0.559335
    outer loop
      vertex 16.4991 26.62 5.92748
      vertex 16.5647 0 5.83026
      vertex 16.4991 0 5.92748
    endloop
  endfacet
  facet normal -0.587624 0 -0.809134
    outer loop
      vertex 16.0794 0 6.33278
      vertex 16.1743 26.62 6.26386
      vertex 16.1743 0 6.26386
    endloop
  endfacet
  facet normal -0.587624 0 -0.809134
    outer loop
      vertex 16.1743 26.62 6.26386
      vertex 16.0794 0 6.33278
      vertex 16.0794 26.62 6.33278
    endloop
  endfacet
  facet normal -0.469592 0 -0.882884
    outer loop
      vertex 15.8765 0 6.44997
      vertex 15.98 26.62 6.39492
      vertex 15.98 0 6.39492
    endloop
  endfacet
  facet normal -0.469592 0 -0.882884
    outer loop
      vertex 15.98 26.62 6.39492
      vertex 15.8765 0 6.44997
      vertex 15.8765 26.62 6.44997
    endloop
  endfacet
  facet normal -0.927272 0 -0.374388
    outer loop
      vertex 16.7187 0 5.51459
      vertex 16.6748 20 5.62332
      vertex 16.7187 20 5.51459
    endloop
  endfacet
  facet normal -0.927272 -0 -0.374388
    outer loop
      vertex 16.6748 20 5.62332
      vertex 16.7187 0 5.51459
      vertex 16.6748 0 5.62332
    endloop
  endfacet
  facet normal -0.927272 0 -0.374388
    outer loop
      vertex 16.7187 23.58 5.51459
      vertex 16.6748 26.62 5.62332
      vertex 16.7187 26.62 5.51459
    endloop
  endfacet
  facet normal -0.927272 -0 -0.374388
    outer loop
      vertex 16.6748 26.62 5.62332
      vertex 16.7187 23.58 5.51459
      vertex 16.6748 23.58 5.62332
    endloop
  endfacet
  facet normal -0.927272 0 -0.374388
    outer loop
      vertex 16.7187 20.18 5.51459
      vertex 16.6748 23.4 5.62332
      vertex 16.7187 23.4 5.51459
    endloop
  endfacet
  facet normal -0.927272 -0 -0.374388
    outer loop
      vertex 16.6748 23.4 5.62332
      vertex 16.7187 20.18 5.51459
      vertex 16.6748 20.18 5.62332
    endloop
  endfacet
  facet normal -0.642932 0 -0.765923
    outer loop
      vertex 16.1743 0 6.26386
      vertex 16.2641 26.62 6.18848
      vertex 16.2641 0 6.18848
    endloop
  endfacet
  facet normal -0.642932 0 -0.765923
    outer loop
      vertex 16.2641 26.62 6.18848
      vertex 16.1743 0 6.26386
      vertex 16.1743 26.62 6.26386
    endloop
  endfacet
  facet normal -1 0 0
    outer loop
      vertex 16.82 0 0
      vertex 16.82 20 4.94
      vertex 16.82 20 0
    endloop
  endfacet
  facet normal -1 -0 0
    outer loop
      vertex 16.82 20 4.94
      vertex 16.82 0 0
      vertex 16.82 0 4.94
    endloop
  endfacet
  facet normal -1 0 0
    outer loop
      vertex 16.82 20.18 0
      vertex 16.82 23.4 4.94
      vertex 16.82 23.4 0
    endloop
  endfacet
  facet normal -1 -0 0
    outer loop
      vertex 16.82 23.4 4.94
      vertex 16.82 20.18 0
      vertex 16.82 20.18 4.94
    endloop
  endfacet
  facet normal -1 0 0
    outer loop
      vertex 16.82 23.58 0
      vertex 16.82 26.62 4.94
      vertex 16.82 26.62 0
    endloop
  endfacet
  facet normal -1 -0 0
    outer loop
      vertex 16.82 26.62 4.94
      vertex 16.82 23.58 0
      vertex 16.82 23.58 4.94
    endloop
  endfacet
  facet normal -1 0 0
    outer loop
      vertex 16.82 0 5.73588
      vertex 16.82 20 5.75868
      vertex 16.82 20 5.73588
    endloop
  endfacet
  facet normal -1 -0 0
    outer loop
      vertex 16.82 20 5.75868
      vertex 16.82 0 5.73588
      vertex 16.82 0 5.75868
    endloop
  endfacet
  facet normal -1 0 0
    outer loop
      vertex 16.82 20.18 5.73588
      vertex 16.82 23.4 5.75868
      vertex 16.82 23.4 5.73588
    endloop
  endfacet
  facet normal -1 -0 0
    outer loop
      vertex 16.82 23.4 5.75868
      vertex 16.82 20.18 5.73588
      vertex 16.82 20.18 5.75868
    endloop
  endfacet
  facet normal -1 0 0
    outer loop
      vertex 16.82 23.58 5.73588
      vertex 16.82 26.62 5.75868
      vertex 16.82 26.62 5.73588
    endloop
  endfacet
  facet normal -1 -0 0
    outer loop
      vertex 16.82 26.62 5.75868
      vertex 16.82 23.58 5.73588
      vertex 16.82 23.58 5.75868
    endloop
  endfacet
  facet normal 0 0 1
    outer loop
      vertex 15.332 26.8 6.8
      vertex 0.179999 26.62 6.8
      vertex 15.332 26.62 6.8
    endloop
  endfacet
  facet normal 0 0 1
    outer loop
      vertex 0 26.8 6.8
      vertex 0.179999 2.98 6.8
      vertex 0.179999 26.62 6.8
    endloop
  endfacet
  facet normal 0 0 1
    outer loop
      vertex 0 0 6.8
      vertex 0.179999 2.98 6.8
      vertex 0 26.8 6.8
    endloop
  endfacet
  facet normal 0 0 1
    outer loop
      vertex 0.179999 2.98 6.8
      vertex 0 0 6.8
      vertex 0.179999 2.8 6.8
    endloop
  endfacet
  facet normal 0 0 1
    outer loop
      vertex 0.179999 2.8 6.8
      vertex 0 0 6.8
      vertex 0.179999 0.48 6.8
    endloop
  endfacet
  facet normal -0 0 1
    outer loop
      vertex 0 26.8 6.8
      vertex 0.179999 26.62 6.8
      vertex 15.332 26.8 6.8
    endloop
  endfacet
  facet normal 0 0 1
    outer loop
      vertex 0.179999 0.48 6.8
      vertex 0 0 6.8
      vertex 0.179999 0.299999 6.8
    endloop
  endfacet
  facet normal 0 0 1
    outer loop
      vertex 0.179999 0.299999 6.8
      vertex 0 0 6.8
      vertex 0.179999 0 6.8
    endloop
  endfacet
  facet normal 0 0 -1
    outer loop
      vertex 15.14 2.5 0
      vertex 15.32 0 0
      vertex 15.14 0 0
    endloop
  endfacet
  facet normal 0 0 -1
    outer loop
      vertex 10.14 23.4 0
      vertex 16.82 23.58 0
      vertex 16.82 23.4 0
    endloop
  endfacet
  facet normal -0 0 -1
    outer loop
      vertex 16.82 23.58 0
      vertex 10.14 23.4 0
      vertex 10.14 23.58 0
    endloop
  endfacet
  facet normal 0 0 -1
    outer loop
      vertex 15.32 20 0
      vertex 16.82 20.18 0
      vertex 16.82 20 0
    endloop
  endfacet
  facet normal 0 0 -1
    outer loop
      vertex 15.14 2.68 0
      vertex 15.32 0 0
      vertex 15.14 2.5 0
    endloop
  endfacet
  facet normal 0 0 -1
    outer loop
      vertex 15.14 5 0
      vertex 15.32 0 0
      vertex 15.14 2.68 0
    endloop
  endfacet
  facet normal 0 0 -1
    outer loop
      vertex 15.14 5.18 0
      vertex 15.32 0 0
      vertex 15.14 5 0
    endloop
  endfacet
  facet normal 0 0 -1
    outer loop
      vertex 15.32 0 0
      vertex 15.14 5.18 0
      vertex 15.32 20 0
    endloop
  endfacet
  facet normal 0 0 -1
    outer loop
      vertex 15.14 20 0
      vertex 15.32 20 0
      vertex 15.14 5.18 0
    endloop
  endfacet
  facet normal 0 0 -1
    outer loop
      vertex 15.14 20 0
      vertex 16.82 20.18 0
      vertex 15.32 20 0
    endloop
  endfacet
  facet normal 0 0 -1
    outer loop
      vertex 10.14 20.18 0
      vertex 15.14 20 0
      vertex 10.14 20 0
    endloop
  endfacet
  facet normal 0 0 -1
    outer loop
      vertex 15.14 20 0
      vertex 10.14 20.18 0
      vertex 16.82 20.18 0
    endloop
  endfacet
  facet normal 0 0 -1
    outer loop
      vertex 16.82 20 0
      vertex 17 0 0
      vertex 16.82 0 0
    endloop
  endfacet
  facet normal 0 0 -1
    outer loop
      vertex 17 0 0
      vertex 16.82 20 0
      vertex 17 26.8 0
    endloop
  endfacet
  facet normal 0 0 -1
    outer loop
      vertex 16.82 20.18 0
      vertex 17 26.8 0
      vertex 16.82 20 0
    endloop
  endfacet
  facet normal 0 0 -1
    outer loop
      vertex 16.82 23.4 0
      vertex 17 26.8 0
      vertex 16.82 20.18 0
    endloop
  endfacet
  facet normal 0 0 -1
    outer loop
      vertex 16.82 23.58 0
      vertex 17 26.8 0
      vertex 16.82 23.4 0
    endloop
  endfacet
  facet normal 0 0 -1
    outer loop
      vertex 16.82 26.62 0
      vertex 17 26.8 0
      vertex 16.82 23.58 0
    endloop
  endfacet
  facet normal 0 0 -1
    outer loop
      vertex 10.14 26.62 0
      vertex 17 26.8 0
      vertex 16.82 26.62 0
    endloop
  endfacet
  facet normal 0 0 -1
    outer loop
      vertex 9.96 20 0
      vertex 10.14 20 0
      vertex 9.96 5.18 0
    endloop
  endfacet
  facet normal 0 0 -1
    outer loop
      vertex 10.14 20 0
      vertex 9.96 20 0
      vertex 10.14 20.18 0
    endloop
  endfacet
  facet normal 0 0 -1
    outer loop
      vertex 9.96 20.18 0
      vertex 10.14 20.18 0
      vertex 9.96 20 0
    endloop
  endfacet
  facet normal 0 0 -1
    outer loop
      vertex 10.14 20.18 0
      vertex 9.96 20.18 0
      vertex 10.14 23.4 0
    endloop
  endfacet
  facet normal 0 0 -1
    outer loop
      vertex 9.96 23.4 0
      vertex 10.14 23.4 0
      vertex 9.96 20.18 0
    endloop
  endfacet
  facet normal 0 0 -1
    outer loop
      vertex 10.14 23.4 0
      vertex 9.96 23.4 0
      vertex 10.14 23.58 0
    endloop
  endfacet
  facet normal 0 0 -1
    outer loop
      vertex 9.96 23.58 0
      vertex 10.14 23.58 0
      vertex 9.96 23.4 0
    endloop
  endfacet
  facet normal 0 0 -1
    outer loop
      vertex 10.14 23.58 0
      vertex 9.96 23.58 0
      vertex 10.14 26.62 0
    endloop
  endfacet
  facet normal 0 0 -1
    outer loop
      vertex 9.96 26.62 0
      vertex 10.14 26.62 0
      vertex 9.96 23.58 0
    endloop
  endfacet
  facet normal 0 0 -1
    outer loop
      vertex 9.96 26.62 0
      vertex 17 26.8 0
      vertex 10.14 26.62 0
    endloop
  endfacet
  facet normal 0 0 -1
    outer loop
      vertex 0 26.8 0
      vertex 9.96 26.62 0
      vertex 0.179999 26.62 0
    endloop
  endfacet
  facet normal 0 0 -1
    outer loop
      vertex 9.96 26.62 0
      vertex 0 26.8 0
      vertex 17 26.8 0
    endloop
  endfacet
  facet normal 0 0 -1
    outer loop
      vertex 0.179999 23.58 0
      vertex 0 26.8 0
      vertex 0.179999 26.62 0
    endloop
  endfacet
  facet normal 0 0 -1
    outer loop
      vertex 0 0 0
      vertex 0.179999 2.5 0
      vertex 0.179999 0 0
    endloop
  endfacet
  facet normal -0 0 -1
    outer loop
      vertex 0.179999 2.5 0
      vertex 0 0 0
      vertex 0.179999 2.68 0
    endloop
  endfacet
  facet normal -0 0 -1
    outer loop
      vertex 0.179999 2.68 0
      vertex 0 0 0
      vertex 0.179999 5 0
    endloop
  endfacet
  facet normal -0 0 -1
    outer loop
      vertex 0.179999 5 0
      vertex 0 0 0
      vertex 0.179999 5.18 0
    endloop
  endfacet
  facet normal -0 0 -1
    outer loop
      vertex 0.179999 5.18 0
      vertex 0 0 0
      vertex 0.179999 20 0
    endloop
  endfacet
  facet normal 0 0 -1
    outer loop
      vertex 0 26.8 0
      vertex 0.179999 20 0
      vertex 0 0 0
    endloop
  endfacet
  facet normal 0 0 -1
    outer loop
      vertex 0.179999 20 0
      vertex 0 26.8 0
      vertex 0.179999 20.18 0
    endloop
  endfacet
  facet normal 0 0 -1
    outer loop
      vertex 0.179999 20.18 0
      vertex 0 26.8 0
      vertex 0.179999 23.4 0
    endloop
  endfacet
  facet normal 0 0 -1
    outer loop
      vertex 0.179999 23.4 0
      vertex 0 26.8 0
      vertex 0.179999 23.58 0
    endloop
  endfacet
  facet normal 0 0 -1
    outer loop
      vertex 0.179999 23.4 0
      vertex 9.96 23.58 0
      vertex 9.96 23.4 0
    endloop
  endfacet
  facet normal -0 0 -1
    outer loop
      vertex 9.96 23.58 0
      vertex 0.179999 23.4 0
      vertex 0.179999 23.58 0
    endloop
  endfacet
  facet normal 0 0 -1
    outer loop
      vertex 0.179999 20 0
      vertex 9.96 20.18 0
      vertex 9.96 20 0
    endloop
  endfacet
  facet normal -0 0 -1
    outer loop
      vertex 9.96 20.18 0
      vertex 0.179999 20 0
      vertex 0.179999 20.18 0
    endloop
  endfacet
  facet normal 0 0 -1
    outer loop
      vertex 0.179999 5 0
      vertex 9.96 5.18 0
      vertex 9.96 5 0
    endloop
  endfacet
  facet normal -0 0 -1
    outer loop
      vertex 9.96 5.18 0
      vertex 0.179999 5 0
      vertex 0.179999 5.18 0
    endloop
  endfacet
  facet normal 0 0 -1
    outer loop
      vertex 0.179999 2.5 0
      vertex 9.96 2.68 0
      vertex 9.96 2.5 0
    endloop
  endfacet
  facet normal -0 0 -1
    outer loop
      vertex 9.96 2.68 0
      vertex 0.179999 2.5 0
      vertex 0.179999 2.68 0
    endloop
  endfacet
  facet normal 0 0 -1
    outer loop
      vertex 9.96 0 0
      vertex 10.14 2.5 0
      vertex 10.14 0 0
    endloop
  endfacet
  facet normal 0 0 -1
    outer loop
      vertex 9.96 2.5 0
      vertex 10.14 2.5 0
      vertex 9.96 0 0
    endloop
  endfacet
  facet normal 0 0 -1
    outer loop
      vertex 10.14 2.5 0
      vertex 9.96 2.5 0
      vertex 10.14 2.68 0
    endloop
  endfacet
  facet normal 0 0 -1
    outer loop
      vertex 9.96 2.68 0
      vertex 10.14 2.68 0
      vertex 9.96 2.5 0
    endloop
  endfacet
  facet normal 0 0 -1
    outer loop
      vertex 10.14 2.68 0
      vertex 9.96 2.68 0
      vertex 10.14 5 0
    endloop
  endfacet
  facet normal 0 0 -1
    outer loop
      vertex 9.96 5 0
      vertex 10.14 5 0
      vertex 9.96 2.68 0
    endloop
  endfacet
  facet normal 0 0 -1
    outer loop
      vertex 10.14 5 0
      vertex 9.96 5 0
      vertex 10.14 5.18 0
    endloop
  endfacet
  facet normal 0 0 -1
    outer loop
      vertex 9.96 5.18 0
      vertex 10.14 5.18 0
      vertex 9.96 5 0
    endloop
  endfacet
  facet normal 0 0 -1
    outer loop
      vertex 10.14 5.18 0
      vertex 9.96 5.18 0
      vertex 10.14 20 0
    endloop
  endfacet
  facet normal 0 0 -1
    outer loop
      vertex 10.14 5 0
      vertex 15.14 5.18 0
      vertex 15.14 5 0
    endloop
  endfacet
  facet normal -0 0 -1
    outer loop
      vertex 15.14 5.18 0
      vertex 10.14 5 0
      vertex 10.14 5.18 0
    endloop
  endfacet
  facet normal 0 0 -1
    outer loop
      vertex 10.14 2.5 0
      vertex 15.14 2.68 0
      vertex 15.14 2.5 0
    endloop
  endfacet
  facet normal -0 0 -1
    outer loop
      vertex 15.14 2.68 0
      vertex 10.14 2.5 0
      vertex 10.14 2.68 0
    endloop
  endfacet
  facet normal -1 0 0
    outer loop
      vertex 0.179999 2.8 6.8
      vertex 0.179999 2.98 7.8
      vertex 0.179999 2.98 6.8
    endloop
  endfacet
  facet normal -1 -0 0
    outer loop
      vertex 0.179999 2.98 7.8
      vertex 0.179999 2.8 6.8
      vertex 0.179999 2.8 7.8
    endloop
  endfacet
  facet normal 1 0 0
    outer loop
      vertex 0.179999 0.299999 6.8
      vertex 0.179999 0 6.8
      vertex 0.179999 0.299999 2
    endloop
  endfacet
  facet normal 1 0 0
    outer loop
      vertex 0.179999 2.8 6.8
      vertex 0.179999 2.68 5.8
      vertex 0.179999 2.8 2
    endloop
  endfacet
  facet normal 1 0 0
    outer loop
      vertex 0.179999 2.8 6.8
      vertex 0.179999 2.5 5.8
      vertex 0.179999 2.68 5.8
    endloop
  endfacet
  facet normal 1 -0 0
    outer loop
      vertex 0.179999 0.48 6.8
      vertex 0.179999 2.5 5.8
      vertex 0.179999 2.8 6.8
    endloop
  endfacet
  facet normal 1 0 0
    outer loop
      vertex 0.179999 0.48 2
      vertex 0.179999 2.5 5.8
      vertex 0.179999 0.48 6.8
    endloop
  endfacet
  facet normal 1 0 0
    outer loop
      vertex 0.179999 2.5 5.8
      vertex 0.179999 0.48 2
      vertex 0.179999 2.5 0
    endloop
  endfacet
  facet normal 1 0 0
    outer loop
      vertex 0.179999 0 0
      vertex 0.179999 0.48 2
      vertex 0.179999 0.299999 2
    endloop
  endfacet
  facet normal 1 0 0
    outer loop
      vertex 0.179999 0.48 2
      vertex 0.179999 0 0
      vertex 0.179999 2.5 0
    endloop
  endfacet
  facet normal 1 0 0
    outer loop
      vertex 0.179999 0 0
      vertex 0.179999 0.299999 2
      vertex 0.179999 0 6.8
    endloop
  endfacet
  facet normal 1 0 0
    outer loop
      vertex 0.179999 26.62 6.8
      vertex 0.179999 23.58 5.8
      vertex 0.179999 26.62 0
    endloop
  endfacet
  facet normal 1 0 0
    outer loop
      vertex 0.179999 26.62 6.8
      vertex 0.179999 23.4 5.8
      vertex 0.179999 23.58 5.8
    endloop
  endfacet
  facet normal 1 0 0
    outer loop
      vertex 0.179999 23.4 5.8
      vertex 0.179999 20.18 5.8
      vertex 0.179999 23.4 0
    endloop
  endfacet
  facet normal 1 0 0
    outer loop
      vertex 0.179999 26.62 6.8
      vertex 0.179999 20.18 5.8
      vertex 0.179999 23.4 5.8
    endloop
  endfacet
  facet normal 1 0 0
    outer loop
      vertex 0.179999 26.62 6.8
      vertex 0.179999 20 5.8
      vertex 0.179999 20.18 5.8
    endloop
  endfacet
  facet normal 1 0 0
    outer loop
      vertex 0.179999 19.18 3.4
      vertex 0.179999 20 5.8
      vertex 0.179999 19.18 3.58
    endloop
  endfacet
  facet normal 1 0 0
    outer loop
      vertex 0.179999 20 5.8
      vertex 0.179999 19 3.58
      vertex 0.179999 19.18 3.58
    endloop
  endfacet
  facet normal 1 0 0
    outer loop
      vertex 0.179999 19 3.58
      vertex 0.179999 5.18 5.8
      vertex 0.179999 19 3.4
    endloop
  endfacet
  facet normal 1 0 0
    outer loop
      vertex 0.179999 20 5.8
      vertex 0.179999 5.18 5.8
      vertex 0.179999 19 3.58
    endloop
  endfacet
  facet normal 1 -0 0
    outer loop
      vertex 0.179999 2.98 6.8
      vertex 0.179999 20 5.8
      vertex 0.179999 26.62 6.8
    endloop
  endfacet
  facet normal 1 0 0
    outer loop
      vertex 0.179999 20 5.8
      vertex 0.179999 2.98 6.8
      vertex 0.179999 5.18 5.8
    endloop
  endfacet
  facet normal 1 0 0
    outer loop
      vertex 0.179999 5.18 5.8
      vertex 0.179999 2.98 6.8
      vertex 0.179999 5 5.8
    endloop
  endfacet
  facet normal 1 0 0
    outer loop
      vertex 0.179999 2.98 2
      vertex 0.179999 5 5.8
      vertex 0.179999 2.98 6.8
    endloop
  endfacet
  facet normal 1 0 0
    outer loop
      vertex 0.179999 5 5.8
      vertex 0.179999 2.98 2
      vertex 0.179999 5 0
    endloop
  endfacet
  facet normal 1 0 0
    outer loop
      vertex 0.179999 2.68 0
      vertex 0.179999 2.98 2
      vertex 0.179999 2.8 2
    endloop
  endfacet
  facet normal 1 0 0
    outer loop
      vertex 0.179999 2.98 2
      vertex 0.179999 2.68 0
      vertex 0.179999 5 0
    endloop
  endfacet
  facet normal 1 0 0
    outer loop
      vertex 0.179999 2.68 0
      vertex 0.179999 2.8 2
      vertex 0.179999 2.68 5.8
    endloop
  endfacet
  facet normal 1 0 0
    outer loop
      vertex 0.179999 26.62 0
      vertex 0.179999 23.58 5.8
      vertex 0.179999 23.58 0
    endloop
  endfacet
  facet normal 1 0 0
    outer loop
      vertex 0.179999 23.4 0
      vertex 0.179999 20.18 5.8
      vertex 0.179999 20.18 0
    endloop
  endfacet
  facet normal 1 0 0
    outer loop
      vertex 0.179999 20 5.8
      vertex 0.179999 19.18 3.4
      vertex 0.179999 20 0
    endloop
  endfacet
  facet normal 1 -0 0
    outer loop
      vertex 0.179999 19 3.4
      vertex 0.179999 20 0
      vertex 0.179999 19.18 3.4
    endloop
  endfacet
  facet normal 1 0 0
    outer loop
      vertex 0.179999 5.18 0
      vertex 0.179999 19 3.4
      vertex 0.179999 5.18 5.8
    endloop
  endfacet
  facet normal 1 0 0
    outer loop
      vertex 0.179999 19 3.4
      vertex 0.179999 5.18 0
      vertex 0.179999 20 0
    endloop
  endfacet
  facet normal -1 0 0
    outer loop
      vertex 0.179999 0.299999 6.8
      vertex 0.179999 0.48 7.8
      vertex 0.179999 0.48 6.8
    endloop
  endfacet
  facet normal -1 -0 0
    outer loop
      vertex 0.179999 0.48 7.8
      vertex 0.179999 0.299999 6.8
      vertex 0.179999 0.299999 7.8
    endloop
  endfacet
  facet normal 0 -1 0
    outer loop
      vertex 15.14 26.62 6.79887
      vertex 15.332 26.62 6.8
      vertex 0.179999 26.62 6.8
    endloop
  endfacet
  facet normal 0 -1 0
    outer loop
      vertex 15.2049 26.62 6.79887
      vertex 15.332 26.62 6.8
      vertex 15.14 26.62 6.79887
    endloop
  endfacet
  facet normal 0 -1 0
    outer loop
      vertex 9.96 26.62 5.8
      vertex 15.14 26.62 6.79887
      vertex 0.179999 26.62 6.8
    endloop
  endfacet
  facet normal 0 -1 0
    outer loop
      vertex 15.14 26.62 6.61898
      vertex 15.3156 26.62 6.6108
      vertex 15.1986 26.62 6.61898
    endloop
  endfacet
  facet normal 0 -1 0
    outer loop
      vertex 10.14 26.62 5.8
      vertex 15.14 26.62 6.79887
      vertex 9.96 26.62 5.8
    endloop
  endfacet
  facet normal 0 -1 -0
    outer loop
      vertex 15.14 26.62 6.79887
      vertex 10.14 26.62 5.8
      vertex 15.14 26.62 6.61898
    endloop
  endfacet
  facet normal 0 -1 0
    outer loop
      vertex 16.82 26.62 4.94
      vertex 15.14 26.62 6.61898
      vertex 10.14 26.62 5.8
    endloop
  endfacet
  facet normal 0 -1 0
    outer loop
      vertex 15.14 26.62 6.61898
      vertex 16.82 26.62 4.94
      vertex 15.3156 26.62 6.6108
    endloop
  endfacet
  facet normal 0 -1 0
    outer loop
      vertex 15.3156 26.62 6.6108
      vertex 16.82 26.62 4.94
      vertex 15.4317 26.62 6.59448
    endloop
  endfacet
  facet normal 0 -1 0
    outer loop
      vertex 15.4317 26.62 6.59448
      vertex 16.82 26.62 4.94
      vertex 15.5464 26.62 6.5701
    endloop
  endfacet
  facet normal 0 -1 0
    outer loop
      vertex 15.5464 26.62 6.5701
      vertex 16.82 26.62 4.94
      vertex 15.6591 26.62 6.53777
    endloop
  endfacet
  facet normal 0 -1 0
    outer loop
      vertex 15.6591 26.62 6.53777
      vertex 16.82 26.62 4.94
      vertex 15.7693 26.62 6.49767
    endloop
  endfacet
  facet normal 0 -1 0
    outer loop
      vertex 15.7693 26.62 6.49767
      vertex 16.82 26.62 4.94
      vertex 15.8765 26.62 6.44997
    endloop
  endfacet
  facet normal 0 -1 0
    outer loop
      vertex 15.98 26.62 6.39492
      vertex 16.82 26.62 4.94
      vertex 16.0794 26.62 6.33278
    endloop
  endfacet
  facet normal 0 -1 0
    outer loop
      vertex 16.0794 26.62 6.33278
      vertex 16.82 26.62 4.94
      vertex 16.1743 26.62 6.26386
    endloop
  endfacet
  facet normal 0 -1 0
    outer loop
      vertex 16.1743 26.62 6.26386
      vertex 16.82 26.62 4.94
      vertex 16.2641 26.62 6.18848
    endloop
  endfacet
  facet normal 0 -1 0
    outer loop
      vertex 16.2641 26.62 6.18848
      vertex 16.82 26.62 4.94
      vertex 16.3485 26.62 6.10703
    endloop
  endfacet
  facet normal 0 -1 0
    outer loop
      vertex 16.3485 26.62 6.10703
      vertex 16.82 26.62 4.94
      vertex 16.427 26.62 6.01988
    endloop
  endfacet
  facet normal 0 -1 0
    outer loop
      vertex 15.8765 26.62 6.44997
      vertex 16.82 26.62 4.94
      vertex 15.98 26.62 6.39492
    endloop
  endfacet
  facet normal 0 -1 0
    outer loop
      vertex 0.179999 26.62 0
      vertex 9.96 26.62 5.8
      vertex 0.179999 26.62 6.8
    endloop
  endfacet
  facet normal 0 -1 -0
    outer loop
      vertex 9.96 26.62 5.8
      vertex 0.179999 26.62 0
      vertex 9.96 26.62 0
    endloop
  endfacet
  facet normal 0 -1 0
    outer loop
      vertex 15.3344 26.62 6.78981
      vertex 15.332 26.62 6.8
      vertex 15.2049 26.62 6.79887
    endloop
  endfacet
  facet normal 0 -1 0
    outer loop
      vertex 15.332 26.62 6.8
      vertex 15.3344 26.62 6.78981
      vertex 15.3355 26.62 6.79976
    endloop
  endfacet
  facet normal 0 -1 0
    outer loop
      vertex 15.3344 26.62 6.78981
      vertex 15.4647 26.62 6.78159
      vertex 15.3355 26.62 6.79976
    endloop
  endfacet
  facet normal 0 -1 0
    outer loop
      vertex 15.463 26.62 6.77174
      vertex 15.4647 26.62 6.78159
      vertex 15.3344 26.62 6.78981
    endloop
  endfacet
  facet normal 0 -1 0
    outer loop
      vertex 15.463 26.62 6.77174
      vertex 15.5924 26.62 6.75445
      vertex 15.4647 26.62 6.78159
    endloop
  endfacet
  facet normal 0 -1 0
    outer loop
      vertex 15.59 26.62 6.74475
      vertex 15.5924 26.62 6.75445
      vertex 15.463 26.62 6.77174
    endloop
  endfacet
  facet normal 0 -1 0
    outer loop
      vertex 15.59 26.62 6.74475
      vertex 15.7179 26.62 6.71847
      vertex 15.5924 26.62 6.75445
    endloop
  endfacet
  facet normal 0 -1 0
    outer loop
      vertex 15.7148 26.62 6.70896
      vertex 15.7179 26.62 6.71847
      vertex 15.59 26.62 6.74475
    endloop
  endfacet
  facet normal 0 -1 0
    outer loop
      vertex 15.7148 26.62 6.70896
      vertex 15.8405 26.62 6.67383
      vertex 15.7179 26.62 6.71847
    endloop
  endfacet
  facet normal 0 -1 0
    outer loop
      vertex 15.8368 26.62 6.66456
      vertex 15.8405 26.62 6.67383
      vertex 15.7148 26.62 6.70896
    endloop
  endfacet
  facet normal 0 -1 0
    outer loop
      vertex 15.8368 26.62 6.66456
      vertex 15.9598 26.62 6.62074
      vertex 15.8405 26.62 6.67383
    endloop
  endfacet
  facet normal 0 -1 0
    outer loop
      vertex 15.9554 26.62 6.61176
      vertex 15.9598 26.62 6.62074
      vertex 15.8368 26.62 6.66456
    endloop
  endfacet
  facet normal 0 -1 0
    outer loop
      vertex 15.9554 26.62 6.61176
      vertex 16.075 26.62 6.55947
      vertex 15.9598 26.62 6.62074
    endloop
  endfacet
  facet normal 0 -1 0
    outer loop
      vertex 16.07 26.62 6.55081
      vertex 16.075 26.62 6.55947
      vertex 15.9554 26.62 6.61176
    endloop
  endfacet
  facet normal 0 -1 0
    outer loop
      vertex 16.07 26.62 6.55081
      vertex 16.1857 26.62 6.4903
      vertex 16.075 26.62 6.55947
    endloop
  endfacet
  facet normal 0 -1 0
    outer loop
      vertex 16.1801 26.62 6.48201
      vertex 16.1857 26.62 6.4903
      vertex 16.07 26.62 6.55081
    endloop
  endfacet
  facet normal 0 -1 0
    outer loop
      vertex 16.1801 26.62 6.48201
      vertex 16.2913 26.62 6.41358
      vertex 16.1857 26.62 6.4903
    endloop
  endfacet
  facet normal 0 -1 0
    outer loop
      vertex 16.2851 26.62 6.4057
      vertex 16.2913 26.62 6.41358
      vertex 16.1801 26.62 6.48201
    endloop
  endfacet
  facet normal 0 -1 0
    outer loop
      vertex 16.2851 26.62 6.4057
      vertex 16.3913 26.62 6.32968
      vertex 16.2913 26.62 6.41358
    endloop
  endfacet
  facet normal 0 -1 0
    outer loop
      vertex 16.3846 26.62 6.32225
      vertex 16.3913 26.62 6.32968
      vertex 16.2851 26.62 6.4057
    endloop
  endfacet
  facet normal 0 -1 0
    outer loop
      vertex 16.3846 26.62 6.32225
      vertex 16.4852 26.62 6.23901
      vertex 16.3913 26.62 6.32968
    endloop
  endfacet
  facet normal 0 -1 0
    outer loop
      vertex 16.478 26.62 6.23206
      vertex 16.4852 26.62 6.23901
      vertex 16.3846 26.62 6.32225
    endloop
  endfacet
  facet normal 0 -1 0
    outer loop
      vertex 16.478 26.62 6.23206
      vertex 16.5725 26.62 6.14201
      vertex 16.4852 26.62 6.23901
    endloop
  endfacet
  facet normal 0 -1 0
    outer loop
      vertex 16.5648 26.62 6.13558
      vertex 16.5725 26.62 6.14201
      vertex 16.478 26.62 6.23206
    endloop
  endfacet
  facet normal 0 -1 0
    outer loop
      vertex 16.5648 26.62 6.13558
      vertex 16.6529 26.62 6.03916
      vertex 16.5725 26.62 6.14201
    endloop
  endfacet
  facet normal 0 -1 0
    outer loop
      vertex 16.6448 26.62 6.03328
      vertex 16.6529 26.62 6.03916
      vertex 16.5648 26.62 6.13558
    endloop
  endfacet
  facet normal 0 -1 0
    outer loop
      vertex 16.6448 26.62 6.03328
      vertex 16.7258 26.62 5.93095
      vertex 16.6529 26.62 6.03916
    endloop
  endfacet
  facet normal 0 -1 0
    outer loop
      vertex 16.7174 26.62 5.92565
      vertex 16.7258 26.62 5.93095
      vertex 16.6448 26.62 6.03328
    endloop
  endfacet
  facet normal 0 -1 0
    outer loop
      vertex 16.7174 26.62 5.92565
      vertex 16.7911 26.62 5.81791
      vertex 16.7258 26.62 5.93095
    endloop
  endfacet
  facet normal 0 -1 0
    outer loop
      vertex 16.7823 26.62 5.81322
      vertex 16.7911 26.62 5.81791
      vertex 16.7174 26.62 5.92565
    endloop
  endfacet
  facet normal 0 -1 0
    outer loop
      vertex 16.7823 26.62 5.81322
      vertex 16.82 26.62 5.75868
      vertex 16.7911 26.62 5.81791
    endloop
  endfacet
  facet normal -0 -1 -0
    outer loop
      vertex 16.82 26.62 5.75868
      vertex 16.7823 26.62 5.81322
      vertex 16.82 26.62 5.73588
    endloop
  endfacet
  facet normal 0 -1 0
    outer loop
      vertex 16.427 26.62 6.01988
      vertex 16.82 26.62 4.94
      vertex 16.4991 26.62 5.92748
    endloop
  endfacet
  facet normal 0 -1 0
    outer loop
      vertex 16.4991 26.62 5.92748
      vertex 16.82 26.62 4.94
      vertex 16.5647 26.62 5.83026
    endloop
  endfacet
  facet normal 0 -1 0
    outer loop
      vertex 16.5647 26.62 5.83026
      vertex 16.82 26.62 4.94
      vertex 16.6234 26.62 5.72871
    endloop
  endfacet
  facet normal 0 -1 0
    outer loop
      vertex 16.6234 26.62 5.72871
      vertex 16.82 26.62 4.94
      vertex 16.6748 26.62 5.62332
    endloop
  endfacet
  facet normal 0 -1 0
    outer loop
      vertex 16.6748 26.62 5.62332
      vertex 16.82 26.62 4.94
      vertex 16.7187 26.62 5.51459
    endloop
  endfacet
  facet normal 0 -1 0
    outer loop
      vertex 16.7187 26.62 5.51459
      vertex 16.82 26.62 4.94
      vertex 16.7549 26.62 5.40307
    endloop
  endfacet
  facet normal 0 -1 0
    outer loop
      vertex 16.7549 26.62 5.40307
      vertex 16.82 26.62 4.94
      vertex 16.7833 26.62 5.28929
    endloop
  endfacet
  facet normal 0 -1 0
    outer loop
      vertex 16.7833 26.62 5.28929
      vertex 16.82 26.62 4.94
      vertex 16.8036 26.62 5.17381
    endloop
  endfacet
  facet normal 0 -1 0
    outer loop
      vertex 16.8036 26.62 5.17381
      vertex 16.82 26.62 4.94
      vertex 16.8159 26.62 5.05719
    endloop
  endfacet
  facet normal 0 -1 0
    outer loop
      vertex 10.14 26.62 0
      vertex 16.82 26.62 4.94
      vertex 10.14 26.62 5.8
    endloop
  endfacet
  facet normal 0 -1 -0
    outer loop
      vertex 16.82 26.62 4.94
      vertex 10.14 26.62 0
      vertex 16.82 26.62 0
    endloop
  endfacet
  facet normal -0 0 1
    outer loop
      vertex 0.179999 2.68 5.8
      vertex 9.96 2.5 5.8
      vertex 9.96 2.68 5.8
    endloop
  endfacet
  facet normal 0 0 1
    outer loop
      vertex 9.96 2.5 5.8
      vertex 0.179999 2.68 5.8
      vertex 0.179999 2.5 5.8
    endloop
  endfacet
  facet normal -0 0 1
    outer loop
      vertex 0.179999 5.18 5.8
      vertex 9.96 5 5.8
      vertex 9.96 5.18 5.8
    endloop
  endfacet
  facet normal 0 0 1
    outer loop
      vertex 9.96 5 5.8
      vertex 0.179999 5.18 5.8
      vertex 0.179999 5 5.8
    endloop
  endfacet
  facet normal -0 0 1
    outer loop
      vertex 0.179999 20.18 5.8
      vertex 9.96 20 5.8
      vertex 9.96 20.18 5.8
    endloop
  endfacet
  facet normal 0 0 1
    outer loop
      vertex 9.96 20 5.8
      vertex 0.179999 20.18 5.8
      vertex 0.179999 20 5.8
    endloop
  endfacet
  facet normal -0 0 1
    outer loop
      vertex 0.179999 23.58 5.8
      vertex 9.96 23.4 5.8
      vertex 9.96 23.58 5.8
    endloop
  endfacet
  facet normal 0 0 1
    outer loop
      vertex 9.96 23.4 5.8
      vertex 0.179999 23.58 5.8
      vertex 0.179999 23.4 5.8
    endloop
  endfacet
  facet normal 0 0 1
    outer loop
      vertex 9.96 23.58 5.8
      vertex 10.14 23.58 5.8
      vertex 10.14 26.62 5.8
    endloop
  endfacet
  facet normal 0 0 1
    outer loop
      vertex 10.14 23.58 5.8
      vertex 9.96 23.58 5.8
      vertex 10.14 23.4 5.8
    endloop
  endfacet
  facet normal 0 0 1
    outer loop
      vertex 10.14 23.4 5.8
      vertex 9.96 23.4 5.8
      vertex 10.14 20.18 5.8
    endloop
  endfacet
  facet normal 0 0 1
    outer loop
      vertex 9.96 20.18 5.8
      vertex 10.14 20.18 5.8
      vertex 9.96 23.4 5.8
    endloop
  endfacet
  facet normal 0 0 1
    outer loop
      vertex 10.14 20 5.8
      vertex 9.96 20 5.8
      vertex 10.14 5.18 5.8
    endloop
  endfacet
  facet normal 0 0 1
    outer loop
      vertex 9.96 5.18 5.8
      vertex 10.14 5.18 5.8
      vertex 9.96 20 5.8
    endloop
  endfacet
  facet normal 0 0 1
    outer loop
      vertex 10.14 5.18 5.8
      vertex 9.96 5.18 5.8
      vertex 10.14 5 5.8
    endloop
  endfacet
  facet normal 0 0 1
    outer loop
      vertex 9.96 5 5.8
      vertex 10.14 5 5.8
      vertex 9.96 5.18 5.8
    endloop
  endfacet
  facet normal 0 0 1
    outer loop
      vertex 9.96 23.58 5.8
      vertex 10.14 26.62 5.8
      vertex 9.96 26.62 5.8
    endloop
  endfacet
  facet normal 0 0 1
    outer loop
      vertex 10.14 23.4 5.8
      vertex 9.96 23.58 5.8
      vertex 9.96 23.4 5.8
    endloop
  endfacet
  facet normal 0 0 1
    outer loop
      vertex 10.14 20.18 5.8
      vertex 9.96 20.18 5.8
      vertex 10.14 20 5.8
    endloop
  endfacet
  facet normal 0 0 1
    outer loop
      vertex 10.14 20 5.8
      vertex 9.96 20.18 5.8
      vertex 9.96 20 5.8
    endloop
  endfacet
  facet normal 0 0 1
    outer loop
      vertex 9.96 2.98 5.8
      vertex 10.14 5 5.8
      vertex 9.96 5 5.8
    endloop
  endfacet
  facet normal 0 0 1
    outer loop
      vertex 10.14 5 5.8
      vertex 9.96 2.98 5.8
      vertex 10.14 2.68 5.8
    endloop
  endfacet
  facet normal -0 0 1
    outer loop
      vertex 9.96 2.8 5.8
      vertex 10.14 2.68 5.8
      vertex 9.96 2.98 5.8
    endloop
  endfacet
  facet normal 0 0 1
    outer loop
      vertex 9.96 2.68 5.8
      vertex 10.14 2.68 5.8
      vertex 9.96 2.8 5.8
    endloop
  endfacet
  facet normal 0 0 1
    outer loop
      vertex 10.14 2.68 5.8
      vertex 9.96 2.68 5.8
      vertex 10.14 2.5 5.8
    endloop
  endfacet
  facet normal 0 0 1
    outer loop
      vertex 9.96 2.5 5.8
      vertex 10.14 2.5 5.8
      vertex 9.96 2.68 5.8
    endloop
  endfacet
  facet normal 0 0 1
    outer loop
      vertex 9.96 0.48 5.8
      vertex 10.14 2.5 5.8
      vertex 9.96 2.5 5.8
    endloop
  endfacet
  facet normal 0 0 1
    outer loop
      vertex 10.14 2.5 5.8
      vertex 9.96 0.48 5.8
      vertex 10.14 0 5.8
    endloop
  endfacet
  facet normal -0 0 1
    outer loop
      vertex 9.96 0.299999 5.8
      vertex 10.14 0 5.8
      vertex 9.96 0.48 5.8
    endloop
  endfacet
  facet normal 0 0 1
    outer loop
      vertex 10.14 0 5.8
      vertex 9.96 0.299999 5.8
      vertex 9.96 0 5.8
    endloop
  endfacet
  facet normal -0 0 1
    outer loop
      vertex 10.14 23.58 5.8
      vertex 16.5822 23.4 5.8
      vertex 16.5822 23.58 5.8
    endloop
  endfacet
  facet normal 0 0 1
    outer loop
      vertex 16.5822 23.4 5.8
      vertex 10.14 23.58 5.8
      vertex 10.14 23.4 5.8
    endloop
  endfacet
  facet normal -0 0 1
    outer loop
      vertex 10.14 2.68 5.8
      vertex 15.14 2.5 5.8
      vertex 15.14 2.68 5.8
    endloop
  endfacet
  facet normal 0 0 1
    outer loop
      vertex 15.14 2.5 5.8
      vertex 10.14 2.68 5.8
      vertex 10.14 2.5 5.8
    endloop
  endfacet
  facet normal -0 0 1
    outer loop
      vertex 10.14 5.18 5.8
      vertex 15.14 5 5.8
      vertex 15.14 5.18 5.8
    endloop
  endfacet
  facet normal 0 0 1
    outer loop
      vertex 15.14 5 5.8
      vertex 10.14 5.18 5.8
      vertex 10.14 5 5.8
    endloop
  endfacet
  facet normal 0 0 1
    outer loop
      vertex 16.5822 20.18 5.8
      vertex 15.32 20 5.8
      vertex 16.5822 20 5.8
    endloop
  endfacet
  facet normal 0 0 1
    outer loop
      vertex 15.14 5.18 5.8
      vertex 15.32 20 5.8
      vertex 15.14 20 5.8
    endloop
  endfacet
  facet normal 0 0 1
    outer loop
      vertex 16.5822 20.18 5.8
      vertex 15.14 20 5.8
      vertex 15.32 20 5.8
    endloop
  endfacet
  facet normal -0 0 1
    outer loop
      vertex 10.14 20.18 5.8
      vertex 15.14 20 5.8
      vertex 16.5822 20.18 5.8
    endloop
  endfacet
  facet normal 0 0 1
    outer loop
      vertex 15.14 20 5.8
      vertex 10.14 20.18 5.8
      vertex 10.14 20 5.8
    endloop
  endfacet
  facet normal 0 0 1
    outer loop
      vertex 15.32 20 5.8
      vertex 15.14 5.18 5.8
      vertex 15.32 0 5.8
    endloop
  endfacet
  facet normal -0 0 1
    outer loop
      vertex 15.14 5 5.8
      vertex 15.32 0 5.8
      vertex 15.14 5.18 5.8
    endloop
  endfacet
  facet normal -0 0 1
    outer loop
      vertex 15.14 2.68 5.8
      vertex 15.32 0 5.8
      vertex 15.14 5 5.8
    endloop
  endfacet
  facet normal -0 0 1
    outer loop
      vertex 15.14 2.5 5.8
      vertex 15.32 0 5.8
      vertex 15.14 2.68 5.8
    endloop
  endfacet
  facet normal 0 0 1
    outer loop
      vertex 15.32 0 5.8
      vertex 15.14 2.5 5.8
      vertex 15.14 0 5.8
    endloop
  endfacet
  facet normal -0 0 1
    outer loop
      vertex 16.7887 20.18 5.8
      vertex 16.7998 20 5.8
      vertex 16.7998 20.18 5.8
    endloop
  endfacet
  facet normal 0 0 1
    outer loop
      vertex 16.7998 20 5.8
      vertex 16.7887 20.18 5.8
      vertex 16.7887 20 5.8
    endloop
  endfacet
  facet normal -0 0 1
    outer loop
      vertex 16.7887 23.58 5.8
      vertex 16.7998 23.4 5.8
      vertex 16.7998 23.58 5.8
    endloop
  endfacet
  facet normal 0 0 1
    outer loop
      vertex 16.7998 23.4 5.8
      vertex 16.7887 23.58 5.8
      vertex 16.7887 23.4 5.8
    endloop
  endfacet
  facet normal 0 1 -0
    outer loop
      vertex 9.96 20.18 0
      vertex 0.179999 20.18 5.8
      vertex 9.96 20.18 5.8
    endloop
  endfacet
  facet normal 0 1 0
    outer loop
      vertex 0.179999 20.18 5.8
      vertex 9.96 20.18 0
      vertex 0.179999 20.18 0
    endloop
  endfacet
  facet normal 0 1 0
    outer loop
      vertex 16.82 20.18 4.94
      vertex 16.5822 20.18 5.8
      vertex 16.6234 20.18 5.72871
    endloop
  endfacet
  facet normal 0 1 0
    outer loop
      vertex 16.82 20.18 4.94
      vertex 16.6234 20.18 5.72871
      vertex 16.6748 20.18 5.62332
    endloop
  endfacet
  facet normal 0 1 0
    outer loop
      vertex 16.82 20.18 4.94
      vertex 16.6748 20.18 5.62332
      vertex 16.7187 20.18 5.51459
    endloop
  endfacet
  facet normal 0 1 0
    outer loop
      vertex 16.82 20.18 4.94
      vertex 16.7187 20.18 5.51459
      vertex 16.7549 20.18 5.40307
    endloop
  endfacet
  facet normal 0 1 0
    outer loop
      vertex 16.82 20.18 4.94
      vertex 16.7549 20.18 5.40307
      vertex 16.7833 20.18 5.28929
    endloop
  endfacet
  facet normal 0 1 0
    outer loop
      vertex 16.82 20.18 4.94
      vertex 16.7833 20.18 5.28929
      vertex 16.8036 20.18 5.17381
    endloop
  endfacet
  facet normal 0 1 0
    outer loop
      vertex 16.82 20.18 4.94
      vertex 16.8036 20.18 5.17381
      vertex 16.8159 20.18 5.05719
    endloop
  endfacet
  facet normal 0 1 0
    outer loop
      vertex 16.5822 20.18 5.8
      vertex 16.82 20.18 4.94
      vertex 10.14 20.18 5.8
    endloop
  endfacet
  facet normal 0 1 0
    outer loop
      vertex 10.14 20.18 0
      vertex 16.82 20.18 4.94
      vertex 16.82 20.18 0
    endloop
  endfacet
  facet normal 0 1 0
    outer loop
      vertex 16.82 20.18 4.94
      vertex 10.14 20.18 0
      vertex 10.14 20.18 5.8
    endloop
  endfacet
  facet normal 0 1 0
    outer loop
      vertex 16.82 20.18 5.75868
      vertex 16.7887 20.18 5.8
      vertex 16.7998 20.18 5.8
    endloop
  endfacet
  facet normal 0 1 0
    outer loop
      vertex 16.7887 20.18 5.8
      vertex 16.82 20.18 5.75868
      vertex 16.82 20.18 5.73588
    endloop
  endfacet
  facet normal 0 -1 0
    outer loop
      vertex 10.14 20 0
      vertex 15.14 20 5.8
      vertex 10.14 20 5.8
    endloop
  endfacet
  facet normal 0 -1 -0
    outer loop
      vertex 15.14 20 5.8
      vertex 10.14 20 0
      vertex 15.14 20 0
    endloop
  endfacet
  facet normal 0 -1 0
    outer loop
      vertex 15.32 20 5.8
      vertex 16.6234 20 5.72871
      vertex 16.5822 20 5.8
    endloop
  endfacet
  facet normal 0 -1 0
    outer loop
      vertex 15.32 20 5.8
      vertex 16.6748 20 5.62332
      vertex 16.6234 20 5.72871
    endloop
  endfacet
  facet normal 0 -1 0
    outer loop
      vertex 15.32 20 5.8
      vertex 16.7187 20 5.51459
      vertex 16.6748 20 5.62332
    endloop
  endfacet
  facet normal 0 -1 0
    outer loop
      vertex 15.32 20 5.8
      vertex 16.7549 20 5.40307
      vertex 16.7187 20 5.51459
    endloop
  endfacet
  facet normal 0 -1 0
    outer loop
      vertex 15.32 20 5.8
      vertex 16.7833 20 5.28929
      vertex 16.7549 20 5.40307
    endloop
  endfacet
  facet normal 0 -1 0
    outer loop
      vertex 15.32 20 5.8
      vertex 16.8036 20 5.17381
      vertex 16.7833 20 5.28929
    endloop
  endfacet
  facet normal 0 -1 0
    outer loop
      vertex 15.32 20 5.8
      vertex 16.8159 20 5.05719
      vertex 16.8036 20 5.17381
    endloop
  endfacet
  facet normal 0 -1 0
    outer loop
      vertex 15.32 20 5.8
      vertex 16.82 20 4.94
      vertex 16.8159 20 5.05719
    endloop
  endfacet
  facet normal 0 -1 0
    outer loop
      vertex 15.32 20 0
      vertex 16.82 20 4.94
      vertex 15.32 20 5.8
    endloop
  endfacet
  facet normal 0 -1 -0
    outer loop
      vertex 16.82 20 4.94
      vertex 15.32 20 0
      vertex 16.82 20 0
    endloop
  endfacet
  facet normal 0 -1 0
    outer loop
      vertex 0.179999 20 0
      vertex 9.96 20 5.8
      vertex 0.179999 20 5.8
    endloop
  endfacet
  facet normal 0 -1 -0
    outer loop
      vertex 9.96 20 5.8
      vertex 0.179999 20 0
      vertex 9.96 20 0
    endloop
  endfacet
  facet normal 0 -1 0
    outer loop
      vertex 16.7887 20 5.8
      vertex 16.82 20 5.75868
      vertex 16.7998 20 5.8
    endloop
  endfacet
  facet normal -0 -1 -0
    outer loop
      vertex 16.82 20 5.75868
      vertex 16.7887 20 5.8
      vertex 16.82 20 5.73588
    endloop
  endfacet
  facet normal 0 1 -0
    outer loop
      vertex 9.96 23.58 0
      vertex 0.179999 23.58 5.8
      vertex 9.96 23.58 5.8
    endloop
  endfacet
  facet normal 0 1 0
    outer loop
      vertex 0.179999 23.58 5.8
      vertex 9.96 23.58 0
      vertex 0.179999 23.58 0
    endloop
  endfacet
  facet normal 0 1 0
    outer loop
      vertex 16.82 23.58 4.94
      vertex 16.5822 23.58 5.8
      vertex 16.6234 23.58 5.72871
    endloop
  endfacet
  facet normal 0 1 0
    outer loop
      vertex 16.82 23.58 4.94
      vertex 16.6234 23.58 5.72871
      vertex 16.6748 23.58 5.62332
    endloop
  endfacet
  facet normal 0 1 0
    outer loop
      vertex 16.82 23.58 4.94
      vertex 16.6748 23.58 5.62332
      vertex 16.7187 23.58 5.51459
    endloop
  endfacet
  facet normal 0 1 0
    outer loop
      vertex 16.82 23.58 4.94
      vertex 16.7187 23.58 5.51459
      vertex 16.7549 23.58 5.40307
    endloop
  endfacet
  facet normal 0 1 0
    outer loop
      vertex 16.82 23.58 4.94
      vertex 16.7549 23.58 5.40307
      vertex 16.7833 23.58 5.28929
    endloop
  endfacet
  facet normal 0 1 0
    outer loop
      vertex 16.82 23.58 4.94
      vertex 16.7833 23.58 5.28929
      vertex 16.8036 23.58 5.17381
    endloop
  endfacet
  facet normal 0 1 0
    outer loop
      vertex 16.82 23.58 4.94
      vertex 16.8036 23.58 5.17381
      vertex 16.8159 23.58 5.05719
    endloop
  endfacet
  facet normal 0 1 0
    outer loop
      vertex 16.5822 23.58 5.8
      vertex 16.82 23.58 4.94
      vertex 10.14 23.58 5.8
    endloop
  endfacet
  facet normal 0 1 0
    outer loop
      vertex 10.14 23.58 0
      vertex 16.82 23.58 4.94
      vertex 16.82 23.58 0
    endloop
  endfacet
  facet normal 0 1 0
    outer loop
      vertex 16.82 23.58 4.94
      vertex 10.14 23.58 0
      vertex 10.14 23.58 5.8
    endloop
  endfacet
  facet normal 0 1 0
    outer loop
      vertex 16.82 23.58 5.75868
      vertex 16.7887 23.58 5.8
      vertex 16.7998 23.58 5.8
    endloop
  endfacet
  facet normal 0 1 0
    outer loop
      vertex 16.7887 23.58 5.8
      vertex 16.82 23.58 5.75868
      vertex 16.82 23.58 5.73588
    endloop
  endfacet
  facet normal 0 -1 0
    outer loop
      vertex 0.179999 23.4 0
      vertex 9.96 23.4 5.8
      vertex 0.179999 23.4 5.8
    endloop
  endfacet
  facet normal 0 -1 -0
    outer loop
      vertex 9.96 23.4 5.8
      vertex 0.179999 23.4 0
      vertex 9.96 23.4 0
    endloop
  endfacet
  facet normal 0 -1 0
    outer loop
      vertex 16.82 23.4 4.94
      vertex 16.5822 23.4 5.8
      vertex 10.14 23.4 5.8
    endloop
  endfacet
  facet normal 0 -1 0
    outer loop
      vertex 16.5822 23.4 5.8
      vertex 16.82 23.4 4.94
      vertex 16.6234 23.4 5.72871
    endloop
  endfacet
  facet normal 0 -1 0
    outer loop
      vertex 16.6234 23.4 5.72871
      vertex 16.82 23.4 4.94
      vertex 16.6748 23.4 5.62332
    endloop
  endfacet
  facet normal 0 -1 0
    outer loop
      vertex 16.6748 23.4 5.62332
      vertex 16.82 23.4 4.94
      vertex 16.7187 23.4 5.51459
    endloop
  endfacet
  facet normal 0 -1 0
    outer loop
      vertex 16.7187 23.4 5.51459
      vertex 16.82 23.4 4.94
      vertex 16.7549 23.4 5.40307
    endloop
  endfacet
  facet normal 0 -1 0
    outer loop
      vertex 16.7549 23.4 5.40307
      vertex 16.82 23.4 4.94
      vertex 16.7833 23.4 5.28929
    endloop
  endfacet
  facet normal 0 -1 0
    outer loop
      vertex 16.7833 23.4 5.28929
      vertex 16.82 23.4 4.94
      vertex 16.8036 23.4 5.17381
    endloop
  endfacet
  facet normal 0 -1 0
    outer loop
      vertex 16.8036 23.4 5.17381
      vertex 16.82 23.4 4.94
      vertex 16.8159 23.4 5.05719
    endloop
  endfacet
  facet normal 0 -1 0
    outer loop
      vertex 10.14 23.4 0
      vertex 16.82 23.4 4.94
      vertex 10.14 23.4 5.8
    endloop
  endfacet
  facet normal 0 -1 -0
    outer loop
      vertex 16.82 23.4 4.94
      vertex 10.14 23.4 0
      vertex 16.82 23.4 0
    endloop
  endfacet
  facet normal 0 -1 0
    outer loop
      vertex 16.7887 23.4 5.8
      vertex 16.82 23.4 5.75868
      vertex 16.7998 23.4 5.8
    endloop
  endfacet
  facet normal -0 -1 -0
    outer loop
      vertex 16.82 23.4 5.75868
      vertex 16.7887 23.4 5.8
      vertex 16.82 23.4 5.73588
    endloop
  endfacet
  facet normal 1 -0 0
    outer loop
      vertex 10.14 23.58 5.8
      vertex 10.14 26.62 0
      vertex 10.14 26.62 5.8
    endloop
  endfacet
  facet normal 1 0 0
    outer loop
      vertex 10.14 26.62 0
      vertex 10.14 23.58 5.8
      vertex 10.14 23.58 0
    endloop
  endfacet
  facet normal 1 -0 0
    outer loop
      vertex 10.14 0 5.8
      vertex 10.14 2.5 0
      vertex 10.14 2.5 5.8
    endloop
  endfacet
  facet normal 1 0 0
    outer loop
      vertex 10.14 2.5 0
      vertex 10.14 0 5.8
      vertex 10.14 0 0
    endloop
  endfacet
  facet normal 1 -0 0
    outer loop
      vertex 10.14 20.18 5.8
      vertex 10.14 23.4 0
      vertex 10.14 23.4 5.8
    endloop
  endfacet
  facet normal 1 0 0
    outer loop
      vertex 10.14 23.4 0
      vertex 10.14 20.18 5.8
      vertex 10.14 20.18 0
    endloop
  endfacet
  facet normal 1 -0 0
    outer loop
      vertex 10.14 5.18 5.8
      vertex 10.14 20 0
      vertex 10.14 20 5.8
    endloop
  endfacet
  facet normal 1 0 0
    outer loop
      vertex 10.14 20 0
      vertex 10.14 5.18 5.8
      vertex 10.14 5.18 0
    endloop
  endfacet
  facet normal 1 -0 0
    outer loop
      vertex 10.14 2.68 5.8
      vertex 10.14 5 0
      vertex 10.14 5 5.8
    endloop
  endfacet
  facet normal 1 0 0
    outer loop
      vertex 10.14 5 0
      vertex 10.14 2.68 5.8
      vertex 10.14 2.68 0
    endloop
  endfacet
  facet normal -0 0 1
    outer loop
      vertex 0.179999 19.18 3.58
      vertex 9.96 19 3.58
      vertex 9.96 19.18 3.58
    endloop
  endfacet
  facet normal 0 0 1
    outer loop
      vertex 9.96 19 3.58
      vertex 0.179999 19.18 3.58
      vertex 0.179999 19 3.58
    endloop
  endfacet
  facet normal 0 0 -1
    outer loop
      vertex 0.179999 19 3.4
      vertex 9.96 19.18 3.4
      vertex 9.96 19 3.4
    endloop
  endfacet
  facet normal -0 0 -1
    outer loop
      vertex 9.96 19.18 3.4
      vertex 0.179999 19 3.4
      vertex 0.179999 19.18 3.4
    endloop
  endfacet
  facet normal 0 1 -0
    outer loop
      vertex 9.96 19.18 3.4
      vertex 0.179999 19.18 3.58
      vertex 9.96 19.18 3.58
    endloop
  endfacet
  facet normal 0 1 0
    outer loop
      vertex 0.179999 19.18 3.58
      vertex 9.96 19.18 3.4
      vertex 0.179999 19.18 3.4
    endloop
  endfacet
  facet normal 0 -1 0
    outer loop
      vertex 0.179999 19 3.4
      vertex 9.96 19 3.58
      vertex 0.179999 19 3.58
    endloop
  endfacet
  facet normal 0 -1 -0
    outer loop
      vertex 9.96 19 3.58
      vertex 0.179999 19 3.4
      vertex 9.96 19 3.4
    endloop
  endfacet
  facet normal 1 -0 0
    outer loop
      vertex 15.32 0 5.8
      vertex 15.32 20 0
      vertex 15.32 20 5.8
    endloop
  endfacet
  facet normal 1 0 0
    outer loop
      vertex 15.32 20 0
      vertex 15.32 0 5.8
      vertex 15.32 0 0
    endloop
  endfacet
  facet normal 0 1 -0
    outer loop
      vertex 9.96 5.18 0
      vertex 0.179999 5.18 5.8
      vertex 9.96 5.18 5.8
    endloop
  endfacet
  facet normal 0 1 0
    outer loop
      vertex 0.179999 5.18 5.8
      vertex 9.96 5.18 0
      vertex 0.179999 5.18 0
    endloop
  endfacet
  facet normal 0 1 -0
    outer loop
      vertex 15.14 5.18 0
      vertex 10.14 5.18 5.8
      vertex 15.14 5.18 5.8
    endloop
  endfacet
  facet normal 0 1 0
    outer loop
      vertex 10.14 5.18 5.8
      vertex 15.14 5.18 0
      vertex 10.14 5.18 0
    endloop
  endfacet
  facet normal 0 -1 0
    outer loop
      vertex 0.179999 5 0
      vertex 9.96 5 5.8
      vertex 0.179999 5 5.8
    endloop
  endfacet
  facet normal 0 -1 -0
    outer loop
      vertex 9.96 5 5.8
      vertex 0.179999 5 0
      vertex 9.96 5 0
    endloop
  endfacet
  facet normal 0 -1 0
    outer loop
      vertex 10.14 5 0
      vertex 15.14 5 5.8
      vertex 10.14 5 5.8
    endloop
  endfacet
  facet normal 0 -1 -0
    outer loop
      vertex 15.14 5 5.8
      vertex 10.14 5 0
      vertex 15.14 5 0
    endloop
  endfacet
  facet normal 0 1 -0
    outer loop
      vertex 9.96 2.68 0
      vertex 0.179999 2.68 5.8
      vertex 9.96 2.68 5.8
    endloop
  endfacet
  facet normal 0 1 0
    outer loop
      vertex 0.179999 2.68 5.8
      vertex 9.96 2.68 0
      vertex 0.179999 2.68 0
    endloop
  endfacet
  facet normal 0 1 -0
    outer loop
      vertex 15.14 2.68 0
      vertex 10.14 2.68 5.8
      vertex 15.14 2.68 5.8
    endloop
  endfacet
  facet normal 0 1 0
    outer loop
      vertex 10.14 2.68 5.8
      vertex 15.14 2.68 0
      vertex 10.14 2.68 0
    endloop
  endfacet
  facet normal 0 -1 0
    outer loop
      vertex 0.179999 2.5 0
      vertex 9.96 2.5 5.8
      vertex 0.179999 2.5 5.8
    endloop
  endfacet
  facet normal 0 -1 -0
    outer loop
      vertex 9.96 2.5 5.8
      vertex 0.179999 2.5 0
      vertex 9.96 2.5 0
    endloop
  endfacet
  facet normal 0 -1 0
    outer loop
      vertex 10.14 2.5 0
      vertex 15.14 2.5 5.8
      vertex 10.14 2.5 5.8
    endloop
  endfacet
  facet normal 0 -1 -0
    outer loop
      vertex 15.14 2.5 5.8
      vertex 10.14 2.5 0
      vertex 15.14 2.5 0
    endloop
  endfacet
  facet normal 1 -0 0
    outer loop
      vertex 9.96 2.8 7.8
      vertex 9.96 2.98 5.8
      vertex 9.96 2.98 7.8
    endloop
  endfacet
  facet normal 1 0 0
    outer loop
      vertex 9.96 2.98 5.8
      vertex 9.96 2.8 7.8
      vertex 9.96 2.8 5.8
    endloop
  endfacet
  facet normal -1 0 0
    outer loop
      vertex 9.96 5 0
      vertex 9.96 2.98 2
      vertex 9.96 5 5.8
    endloop
  endfacet
  facet normal -1 0 0
    outer loop
      vertex 9.96 2.68 0
      vertex 9.96 2.98 2
      vertex 9.96 5 0
    endloop
  endfacet
  facet normal -1 -0 0
    outer loop
      vertex 9.96 2.98 2
      vertex 9.96 2.68 0
      vertex 9.96 2.8 2
    endloop
  endfacet
  facet normal -1 0 0
    outer loop
      vertex 9.96 2.68 5.8
      vertex 9.96 2.8 2
      vertex 9.96 2.68 0
    endloop
  endfacet
  facet normal -1 0 0
    outer loop
      vertex 9.96 2.8 2
      vertex 9.96 2.68 5.8
      vertex 9.96 2.8 5.8
    endloop
  endfacet
  facet normal -1 -0 0
    outer loop
      vertex 9.96 5 5.8
      vertex 9.96 2.98 2
      vertex 9.96 2.98 5.8
    endloop
  endfacet
  facet normal -1 0 0
    outer loop
      vertex 9.96 23.58 0
      vertex 9.96 26.62 5.8
      vertex 9.96 26.62 0
    endloop
  endfacet
  facet normal -1 -0 0
    outer loop
      vertex 9.96 26.62 5.8
      vertex 9.96 23.58 0
      vertex 9.96 23.58 5.8
    endloop
  endfacet
  facet normal -1 0 0
    outer loop
      vertex 9.96 2.5 0
      vertex 9.96 0.48 2
      vertex 9.96 2.5 5.8
    endloop
  endfacet
  facet normal -1 0 0
    outer loop
      vertex 9.96 0 0
      vertex 9.96 0.48 2
      vertex 9.96 2.5 0
    endloop
  endfacet
  facet normal -1 -0 0
    outer loop
      vertex 9.96 0.48 2
      vertex 9.96 0 0
      vertex 9.96 0.299999 2
    endloop
  endfacet
  facet normal -1 0 0
    outer loop
      vertex 9.96 0 5.8
      vertex 9.96 0.299999 2
      vertex 9.96 0 0
    endloop
  endfacet
  facet normal -1 0 0
    outer loop
      vertex 9.96 0.299999 2
      vertex 9.96 0 5.8
      vertex 9.96 0.299999 5.8
    endloop
  endfacet
  facet normal -1 -0 0
    outer loop
      vertex 9.96 2.5 5.8
      vertex 9.96 0.48 2
      vertex 9.96 0.48 5.8
    endloop
  endfacet
  facet normal 1 -0 0
    outer loop
      vertex 9.96 0.299999 7.8
      vertex 9.96 0.48 5.8
      vertex 9.96 0.48 7.8
    endloop
  endfacet
  facet normal 1 0 0
    outer loop
      vertex 9.96 0.48 5.8
      vertex 9.96 0.299999 7.8
      vertex 9.96 0.299999 5.8
    endloop
  endfacet
  facet normal -1 0 0
    outer loop
      vertex 9.96 20.18 0
      vertex 9.96 23.4 5.8
      vertex 9.96 23.4 0
    endloop
  endfacet
  facet normal -1 -0 0
    outer loop
      vertex 9.96 23.4 5.8
      vertex 9.96 20.18 0
      vertex 9.96 20.18 5.8
    endloop
  endfacet
  facet normal -1 0 0
    outer loop
      vertex 9.96 20 0
      vertex 9.96 19.18 3.4
      vertex 9.96 20 5.8
    endloop
  endfacet
  facet normal -1 0 0
    outer loop
      vertex 9.96 20 0
      vertex 9.96 19 3.4
      vertex 9.96 19.18 3.4
    endloop
  endfacet
  facet normal -1 0 0
    outer loop
      vertex 9.96 5.18 5.8
      vertex 9.96 19 3.4
      vertex 9.96 5.18 0
    endloop
  endfacet
  facet normal -1 0 0
    outer loop
      vertex 9.96 5.18 0
      vertex 9.96 19 3.4
      vertex 9.96 20 0
    endloop
  endfacet
  facet normal -1 0 0
    outer loop
      vertex 9.96 19.18 3.58
      vertex 9.96 20 5.8
      vertex 9.96 19.18 3.4
    endloop
  endfacet
  facet normal -1 0 0
    outer loop
      vertex 9.96 19 3.58
      vertex 9.96 20 5.8
      vertex 9.96 19.18 3.58
    endloop
  endfacet
  facet normal -1 0 0
    outer loop
      vertex 9.96 19 3.4
      vertex 9.96 5.18 5.8
      vertex 9.96 19 3.58
    endloop
  endfacet
  facet normal -1 0 0
    outer loop
      vertex 9.96 19 3.58
      vertex 9.96 5.18 5.8
      vertex 9.96 20 5.8
    endloop
  endfacet
  facet normal -0 0 1
    outer loop
      vertex 0.179999 0.48 7.8
      vertex 9.96 0.299999 7.8
      vertex 9.96 0.48 7.8
    endloop
  endfacet
  facet normal 0 0 1
    outer loop
      vertex 9.96 0.299999 7.8
      vertex 0.179999 0.48 7.8
      vertex 0.179999 0.299999 7.8
    endloop
  endfacet
  facet normal 0 0 -1
    outer loop
      vertex 0.179999 0.299999 2
      vertex 9.96 0.48 2
      vertex 9.96 0.299999 2
    endloop
  endfacet
  facet normal -0 0 -1
    outer loop
      vertex 9.96 0.48 2
      vertex 0.179999 0.299999 2
      vertex 0.179999 0.48 2
    endloop
  endfacet
  facet normal 0 1 0
    outer loop
      vertex 9.96 0.48 7.8
      vertex 0.179999 0.48 6.8
      vertex 0.179999 0.48 7.8
    endloop
  endfacet
  facet normal 0 1 -0
    outer loop
      vertex 9.96 0.48 5.8
      vertex 0.179999 0.48 6.8
      vertex 9.96 0.48 7.8
    endloop
  endfacet
  facet normal 0 1 0
    outer loop
      vertex 0.179999 0.48 2
      vertex 9.96 0.48 5.8
      vertex 9.96 0.48 2
    endloop
  endfacet
  facet normal 0 1 0
    outer loop
      vertex 9.96 0.48 5.8
      vertex 0.179999 0.48 2
      vertex 0.179999 0.48 6.8
    endloop
  endfacet
  facet normal 0 -1 0
    outer loop
      vertex 0.179999 0.299999 6.8
      vertex 9.96 0.299999 7.8
      vertex 0.179999 0.299999 7.8
    endloop
  endfacet
  facet normal 0 -1 0
    outer loop
      vertex 0.179999 0.299999 6.8
      vertex 9.96 0.299999 5.8
      vertex 9.96 0.299999 7.8
    endloop
  endfacet
  facet normal 0 -1 0
    outer loop
      vertex 0.179999 0.299999 2
      vertex 9.96 0.299999 5.8
      vertex 0.179999 0.299999 6.8
    endloop
  endfacet
  facet normal 0 -1 -0
    outer loop
      vertex 9.96 0.299999 5.8
      vertex 0.179999 0.299999 2
      vertex 9.96 0.299999 2
    endloop
  endfacet
  facet normal -0 0 1
    outer loop
      vertex 0.179999 2.98 7.8
      vertex 9.96 2.8 7.8
      vertex 9.96 2.98 7.8
    endloop
  endfacet
  facet normal 0 0 1
    outer loop
      vertex 9.96 2.8 7.8
      vertex 0.179999 2.98 7.8
      vertex 0.179999 2.8 7.8
    endloop
  endfacet
  facet normal 0 0 -1
    outer loop
      vertex 0.179999 2.8 2
      vertex 9.96 2.98 2
      vertex 9.96 2.8 2
    endloop
  endfacet
  facet normal -0 0 -1
    outer loop
      vertex 9.96 2.98 2
      vertex 0.179999 2.8 2
      vertex 0.179999 2.98 2
    endloop
  endfacet
  facet normal 0 1 0
    outer loop
      vertex 9.96 2.98 7.8
      vertex 0.179999 2.98 6.8
      vertex 0.179999 2.98 7.8
    endloop
  endfacet
  facet normal 0 1 -0
    outer loop
      vertex 9.96 2.98 5.8
      vertex 0.179999 2.98 6.8
      vertex 9.96 2.98 7.8
    endloop
  endfacet
  facet normal 0 1 0
    outer loop
      vertex 0.179999 2.98 2
      vertex 9.96 2.98 5.8
      vertex 9.96 2.98 2
    endloop
  endfacet
  facet normal 0 1 0
    outer loop
      vertex 9.96 2.98 5.8
      vertex 0.179999 2.98 2
      vertex 0.179999 2.98 6.8
    endloop
  endfacet
  facet normal 0 -1 0
    outer loop
      vertex 0.179999 2.8 6.8
      vertex 9.96 2.8 7.8
      vertex 0.179999 2.8 7.8
    endloop
  endfacet
  facet normal 0 -1 0
    outer loop
      vertex 0.179999 2.8 6.8
      vertex 9.96 2.8 5.8
      vertex 9.96 2.8 7.8
    endloop
  endfacet
  facet normal 0 -1 0
    outer loop
      vertex 0.179999 2.8 2
      vertex 9.96 2.8 5.8
      vertex 0.179999 2.8 6.8
    endloop
  endfacet
  facet normal 0 -1 -0
    outer loop
      vertex 9.96 2.8 5.8
      vertex 0.179999 2.8 2
      vertex 9.96 2.8 2
    endloop
  endfacet
  facet normal -1 0 0
    outer loop
      vertex 0 0 0
      vertex 0 26.8 6.8
      vertex 0 26.8 0
    endloop
  endfacet
  facet normal -1 -0 0
    outer loop
      vertex 0 26.8 6.8
      vertex 0 0 0
      vertex 0 0 6.8
    endloop
  endfacet
  facet normal 0 -1 0
    outer loop
      vertex 0 0 0
      vertex 0.179999 0 6.8
      vertex 0 0 6.8
    endloop
  endfacet
  facet normal 0 -1 -0
    outer loop
      vertex 0.179999 0 6.8
      vertex 0 0 0
      vertex 0.179999 0 0
    endloop
  endfacet
  facet normal 1 -0 0
    outer loop
      vertex 17 0 5.12224
      vertex 17 26.8 0
      vertex 17 26.8 5.12224
    endloop
  endfacet
  facet normal 1 0 0
    outer loop
      vertex 17 26.8 0
      vertex 17 0 5.12224
      vertex 17 0 0
    endloop
  endfacet
  facet normal -1 0 0
    outer loop
      vertex 15.14 5.18 0
      vertex 15.14 20 5.8
      vertex 15.14 20 0
    endloop
  endfacet
  facet normal -1 -0 0
    outer loop
      vertex 15.14 20 5.8
      vertex 15.14 5.18 0
      vertex 15.14 5.18 5.8
    endloop
  endfacet
  facet normal -1 0 0
    outer loop
      vertex 15.14 0 0
      vertex 15.14 2.5 5.8
      vertex 15.14 2.5 0
    endloop
  endfacet
  facet normal -1 -0 0
    outer loop
      vertex 15.14 2.5 5.8
      vertex 15.14 0 0
      vertex 15.14 0 5.8
    endloop
  endfacet
  facet normal -1 0 0
    outer loop
      vertex 15.14 2.68 0
      vertex 15.14 5 5.8
      vertex 15.14 5 0
    endloop
  endfacet
  facet normal -1 -0 0
    outer loop
      vertex 15.14 5 5.8
      vertex 15.14 2.68 0
      vertex 15.14 2.68 5.8
    endloop
  endfacet
  facet normal 0 -1 0
    outer loop
      vertex 15.14 0 0
      vertex 15.32 0 5.8
      vertex 15.14 0 5.8
    endloop
  endfacet
  facet normal 0 -1 -0
    outer loop
      vertex 15.32 0 5.8
      vertex 15.14 0 0
      vertex 15.32 0 0
    endloop
  endfacet
  facet normal 0 -1 0
    outer loop
      vertex 9.96 0 0
      vertex 10.14 0 5.8
      vertex 9.96 0 5.8
    endloop
  endfacet
  facet normal 0 -1 -0
    outer loop
      vertex 10.14 0 5.8
      vertex 9.96 0 0
      vertex 10.14 0 0
    endloop
  endfacet
  facet normal 0.984762 -0 0.173908
    outer loop
      vertex 16.9691 0 5.32879
      vertex 16.9918 26.8 5.20025
      vertex 16.9691 26.8 5.32879
    endloop
  endfacet
  facet normal 0.984762 0 0.173908
    outer loop
      vertex 16.9918 26.8 5.20025
      vertex 16.9691 0 5.32879
      vertex 16.9918 0 5.20025
    endloop
  endfacet
  facet normal 0.207886 0 0.978153
    outer loop
      vertex 15.4647 26.8 6.78159
      vertex 15.5924 26.62 6.75445
      vertex 15.5924 26.8 6.75445
    endloop
  endfacet
  facet normal 0.207886 0 0.978153
    outer loop
      vertex 15.5924 26.62 6.75445
      vertex 15.4647 26.8 6.78159
      vertex 15.4647 26.62 6.78159
    endloop
  endfacet
  facet normal 0.139264 0 0.990255
    outer loop
      vertex 15.3355 26.8 6.79976
      vertex 15.4647 26.62 6.78159
      vertex 15.4647 26.8 6.78159
    endloop
  endfacet
  facet normal 0.139264 0 0.990255
    outer loop
      vertex 15.4647 26.62 6.78159
      vertex 15.3355 26.8 6.79976
      vertex 15.3355 26.62 6.79976
    endloop
  endfacet
  facet normal 0.865905 -0 0.500209
    outer loop
      vertex 16.7258 26.62 5.93095
      vertex 16.7911 26.8 5.81791
      vertex 16.7258 26.8 5.93095
    endloop
  endfacet
  facet normal 0.865905 0 0.500209
    outer loop
      vertex 16.7911 26.8 5.81791
      vertex 16.7258 26.62 5.93095
      vertex 16.7911 26.62 5.81791
    endloop
  endfacet
  facet normal 0.970435 -0 0.241364
    outer loop
      vertex 16.9376 0 5.45544
      vertex 16.9691 26.8 5.32879
      vertex 16.9376 26.8 5.45544
    endloop
  endfacet
  facet normal 0.970435 0 0.241364
    outer loop
      vertex 16.9691 26.8 5.32879
      vertex 16.9376 0 5.45544
      vertex 16.9691 0 5.32879
    endloop
  endfacet
  facet normal 0.642743 0 0.766082
    outer loop
      vertex 16.2913 26.8 6.41358
      vertex 16.3913 26.62 6.32968
      vertex 16.3913 26.8 6.32968
    endloop
  endfacet
  facet normal 0.642743 0 0.766082
    outer loop
      vertex 16.3913 26.62 6.32968
      vertex 16.2913 26.8 6.41358
      vertex 16.2913 26.62 6.41358
    endloop
  endfacet
  facet normal 0.342137 0 0.93965
    outer loop
      vertex 15.7179 26.8 6.71847
      vertex 15.8405 26.62 6.67383
      vertex 15.8405 26.8 6.67383
    endloop
  endfacet
  facet normal 0.342137 0 0.93965
    outer loop
      vertex 15.8405 26.62 6.67383
      vertex 15.7179 26.8 6.71847
      vertex 15.7179 26.62 6.71847
    endloop
  endfacet
  facet normal 0.0684108 0 0.997657
    outer loop
      vertex 15.332 26.8 6.8
      vertex 15.3355 26.62 6.79976
      vertex 15.3355 26.8 6.79976
    endloop
  endfacet
  facet normal 0.0684108 0 0.997657
    outer loop
      vertex 15.3355 26.62 6.79976
      vertex 15.332 26.8 6.8
      vertex 15.332 26.62 6.8
    endloop
  endfacet
  facet normal 0.994521 -0 0.104539
    outer loop
      vertex 16.9918 0 5.20025
      vertex 17 26.8 5.12224
      vertex 16.9918 26.8 5.20025
    endloop
  endfacet
  facet normal 0.994521 0 0.104539
    outer loop
      vertex 17 26.8 5.12224
      vertex 16.9918 0 5.20025
      vertex 17 0 5.12224
    endloop
  endfacet
  facet normal 0.743294 -0 0.668965
    outer loop
      vertex 16.4852 26.62 6.23901
      vertex 16.5725 26.8 6.14201
      vertex 16.4852 26.8 6.23901
    endloop
  endfacet
  facet normal 0.743294 0 0.668965
    outer loop
      vertex 16.5725 26.8 6.14201
      vertex 16.4852 26.62 6.23901
      vertex 16.5725 26.62 6.14201
    endloop
  endfacet
  facet normal 0.275591 0 0.961275
    outer loop
      vertex 15.5924 26.8 6.75445
      vertex 15.7179 26.62 6.71847
      vertex 15.7179 26.8 6.71847
    endloop
  endfacet
  facet normal 0.275591 0 0.961275
    outer loop
      vertex 15.7179 26.62 6.71847
      vertex 15.5924 26.8 6.75445
      vertex 15.5924 26.62 6.75445
    endloop
  endfacet
  facet normal 0.829352 -0 0.558726
    outer loop
      vertex 16.6529 26.62 6.03916
      vertex 16.7258 26.8 5.93095
      vertex 16.6529 26.8 6.03916
    endloop
  endfacet
  facet normal 0.829352 0 0.558726
    outer loop
      vertex 16.7258 26.8 5.93095
      vertex 16.6529 26.62 6.03916
      vertex 16.7258 26.62 5.93095
    endloop
  endfacet
  facet normal 0.927171 -0 0.374638
    outer loop
      vertex 16.8483 0 5.7006
      vertex 16.8972 26.8 5.57958
      vertex 16.8483 26.8 5.7006
    endloop
  endfacet
  facet normal 0.927171 0 0.374638
    outer loop
      vertex 16.8972 26.8 5.57958
      vertex 16.8483 0 5.7006
      vertex 16.8972 0 5.57958
    endloop
  endfacet
  facet normal 0.406572 0 0.913619
    outer loop
      vertex 15.8405 26.8 6.67383
      vertex 15.9598 26.62 6.62074
      vertex 15.9598 26.8 6.62074
    endloop
  endfacet
  facet normal 0.406572 0 0.913619
    outer loop
      vertex 15.9598 26.62 6.62074
      vertex 15.8405 26.8 6.67383
      vertex 15.8405 26.62 6.67383
    endloop
  endfacet
  facet normal 0.950911 -0 0.309464
    outer loop
      vertex 16.8972 0 5.57958
      vertex 16.9376 26.8 5.45544
      vertex 16.8972 26.8 5.57958
    endloop
  endfacet
  facet normal 0.950911 0 0.309464
    outer loop
      vertex 16.9376 26.8 5.45544
      vertex 16.8972 0 5.57958
      vertex 16.9376 0 5.45544
    endloop
  endfacet
  facet normal 0.787844 -0 0.615874
    outer loop
      vertex 16.5725 26.62 6.14201
      vertex 16.6529 26.8 6.03916
      vertex 16.5725 26.8 6.14201
    endloop
  endfacet
  facet normal 0.787844 0 0.615874
    outer loop
      vertex 16.6529 26.8 6.03916
      vertex 16.5725 26.62 6.14201
      vertex 16.6529 26.62 6.03916
    endloop
  endfacet
  facet normal 0.694626 0 0.719371
    outer loop
      vertex 16.3913 26.8 6.32968
      vertex 16.4852 26.62 6.23901
      vertex 16.4852 26.8 6.23901
    endloop
  endfacet
  facet normal 0.694626 0 0.719371
    outer loop
      vertex 16.4852 26.62 6.23901
      vertex 16.3913 26.8 6.32968
      vertex 16.3913 26.62 6.32968
    endloop
  endfacet
  facet normal 0.529903 0 0.848059
    outer loop
      vertex 16.075 26.8 6.55947
      vertex 16.1857 26.62 6.4903
      vertex 16.1857 26.8 6.4903
    endloop
  endfacet
  facet normal 0.529903 0 0.848059
    outer loop
      vertex 16.1857 26.62 6.4903
      vertex 16.075 26.8 6.55947
      vertex 16.075 26.62 6.55947
    endloop
  endfacet
  facet normal 0.898392 0 0.439195
    outer loop
      vertex 16.7998 20.18 5.8
      vertex 16.7998 20 5.8
      vertex 16.82 20.18 5.75868
    endloop
  endfacet
  facet normal 0.898392 0 0.439195
    outer loop
      vertex 16.7998 23.58 5.8
      vertex 16.7998 23.4 5.8
      vertex 16.82 23.58 5.75868
    endloop
  endfacet
  facet normal 0.898725 0 0.438513
    outer loop
      vertex 16.82 26.62 5.75868
      vertex 16.7911 26.8 5.81791
      vertex 16.7911 26.62 5.81791
    endloop
  endfacet
  facet normal 0.898842 9.80324e-05 0.438273
    outer loop
      vertex 16.7911 26.8 5.81791
      vertex 16.82 26.62 5.75868
      vertex 16.8483 26.8 5.7006
    endloop
  endfacet
  facet normal 0.898962 -0 0.438027
    outer loop
      vertex 16.82 23.58 5.75868
      vertex 16.8483 26.8 5.7006
      vertex 16.82 26.62 5.75868
    endloop
  endfacet
  facet normal 0.898392 -0 0.439195
    outer loop
      vertex 16.82 23.4 5.75868
      vertex 16.82 23.58 5.75868
      vertex 16.7998 23.4 5.8
    endloop
  endfacet
  facet normal 0.898962 -0 0.438027
    outer loop
      vertex 16.82 23.4 5.75868
      vertex 16.8483 26.8 5.7006
      vertex 16.82 23.58 5.75868
    endloop
  endfacet
  facet normal 0.898962 -0 0.438027
    outer loop
      vertex 16.82 20.18 5.75868
      vertex 16.8483 26.8 5.7006
      vertex 16.82 23.4 5.75868
    endloop
  endfacet
  facet normal 0.898392 -0 0.439195
    outer loop
      vertex 16.82 20 5.75868
      vertex 16.82 20.18 5.75868
      vertex 16.7998 20 5.8
    endloop
  endfacet
  facet normal 0.898962 -0 0.438027
    outer loop
      vertex 16.82 20 5.75868
      vertex 16.8483 26.8 5.7006
      vertex 16.82 20.18 5.75868
    endloop
  endfacet
  facet normal 0.898962 0 0.438027
    outer loop
      vertex 16.8483 0 5.7006
      vertex 16.82 20 5.75868
      vertex 16.82 0 5.75868
    endloop
  endfacet
  facet normal 0.898962 0 0.438027
    outer loop
      vertex 16.82 20 5.75868
      vertex 16.8483 0 5.7006
      vertex 16.8483 26.8 5.7006
    endloop
  endfacet
  facet normal 0.469574 0 0.882893
    outer loop
      vertex 15.9598 26.8 6.62074
      vertex 16.075 26.62 6.55947
      vertex 16.075 26.8 6.55947
    endloop
  endfacet
  facet normal 0.469574 0 0.882893
    outer loop
      vertex 16.075 26.62 6.55947
      vertex 15.9598 26.8 6.62074
      vertex 15.9598 26.62 6.62074
    endloop
  endfacet
  facet normal 0.587771 0 0.809028
    outer loop
      vertex 16.1857 26.8 6.4903
      vertex 16.2913 26.62 6.41358
      vertex 16.2913 26.8 6.41358
    endloop
  endfacet
  facet normal 0.587771 0 0.809028
    outer loop
      vertex 16.2913 26.62 6.41358
      vertex 16.1857 26.8 6.4903
      vertex 16.1857 26.62 6.4903
    endloop
  endfacet
endsolid OpenSCAD_Model
