solid OpenSCAD_Model
  facet normal 1 -0 0
    outer loop
      vertex -1.90735e-07 0 26.8
      vertex -1.90735e-07 1 0
      vertex -1.90735e-07 1 26.8
    endloop
  endfacet
  facet normal 1 0 0
    outer loop
      vertex -1.90735e-07 1 0
      vertex -1.90735e-07 0 26.8
      vertex -1.90735e-07 0 0
    endloop
  endfacet
  facet normal 0 -1 0
    outer loop
      vertex -30.2 0 26.8
      vertex -21.029 0 23
      vertex -1.90735e-07 0 26.8
    endloop
  endfacet
  facet normal 0 -1 0
    outer loop
      vertex -30.2 0 26.8
      vertex -21.029 0 5
      vertex -21.029 0 23
    endloop
  endfacet
  facet normal 0 -1 0
    outer loop
      vertex -1.90735e-07 0 0
      vertex -21.029 0 5
      vertex -30.2 0 0
    endloop
  endfacet
  facet normal 0 -1 0
    outer loop
      vertex -30.2 0 0
      vertex -21.029 0 5
      vertex -30.2 0 26.8
    endloop
  endfacet
  facet normal 0 -1 0
    outer loop
      vertex -5.029 0 23
      vertex -1.90735e-07 0 26.8
      vertex -21.029 0 23
    endloop
  endfacet
  facet normal 0 -1 0
    outer loop
      vertex -5.029 0 5
      vertex -1.90735e-07 0 26.8
      vertex -5.029 0 23
    endloop
  endfacet
  facet normal 0 -1 0
    outer loop
      vertex -5.029 0 5
      vertex -1.90735e-07 0 0
      vertex -1.90735e-07 0 26.8
    endloop
  endfacet
  facet normal 0 -1 0
    outer loop
      vertex -21.029 0 5
      vertex -1.90735e-07 0 0
      vertex -5.029 0 5
    endloop
  endfacet
  facet normal 0 1 0
    outer loop
      vertex -21.029 1 23
      vertex -1.90735e-07 1 26.8
      vertex -5.029 1 23
    endloop
  endfacet
  facet normal 0 1 0
    outer loop
      vertex -1.90735e-07 1 26.8
      vertex -5.029 1 5
      vertex -5.029 1 23
    endloop
  endfacet
  facet normal 0 1 0
    outer loop
      vertex -5.029 1 5
      vertex -1.90735e-07 1 0
      vertex -21.029 1 5
    endloop
  endfacet
  facet normal 0 1 -0
    outer loop
      vertex -1.90735e-07 1 0
      vertex -5.029 1 5
      vertex -1.90735e-07 1 26.8
    endloop
  endfacet
  facet normal 0 1 0
    outer loop
      vertex -1.90735e-07 1 26.8
      vertex -21.029 1 23
      vertex -30.2 1 26.8
    endloop
  endfacet
  facet normal 0 1 -0
    outer loop
      vertex -21.029 1 5
      vertex -30.2 1 26.8
      vertex -21.029 1 23
    endloop
  endfacet
  facet normal 0 1 0
    outer loop
      vertex -21.029 1 5
      vertex -30.2 1 0
      vertex -30.2 1 26.8
    endloop
  endfacet
  facet normal 0 1 0
    outer loop
      vertex -30.2 1 0
      vertex -21.029 1 5
      vertex -1.90735e-07 1 0
    endloop
  endfacet
  facet normal -1 0 0
    outer loop
      vertex -30.2 0 0
      vertex -30.2 1 26.8
      vertex -30.2 1 0
    endloop
  endfacet
  facet normal -1 -0 0
    outer loop
      vertex -30.2 1 26.8
      vertex -30.2 0 0
      vertex -30.2 0 26.8
    endloop
  endfacet
  facet normal -0 0 1
    outer loop
      vertex -30.2 1 26.8
      vertex -1.90735e-07 0 26.8
      vertex -1.90735e-07 1 26.8
    endloop
  endfacet
  facet normal 0 0 1
    outer loop
      vertex -1.90735e-07 0 26.8
      vertex -30.2 1 26.8
      vertex -30.2 0 26.8
    endloop
  endfacet
  facet normal 0 0 -1
    outer loop
      vertex -30.2 0 0
      vertex -1.90735e-07 1 0
      vertex -1.90735e-07 0 0
    endloop
  endfacet
  facet normal -0 0 -1
    outer loop
      vertex -1.90735e-07 1 0
      vertex -30.2 0 0
      vertex -30.2 1 0
    endloop
  endfacet
  facet normal -1 0 0
    outer loop
      vertex -5.029 0 5
      vertex -5.029 1 23
      vertex -5.029 1 5
    endloop
  endfacet
  facet normal -1 -0 0
    outer loop
      vertex -5.029 1 23
      vertex -5.029 0 5
      vertex -5.029 0 23
    endloop
  endfacet
  facet normal 1 -0 0
    outer loop
      vertex -21.029 0 23
      vertex -21.029 1 5
      vertex -21.029 1 23
    endloop
  endfacet
  facet normal 1 0 0
    outer loop
      vertex -21.029 1 5
      vertex -21.029 0 23
      vertex -21.029 0 5
    endloop
  endfacet
  facet normal 0 0 -1
    outer loop
      vertex -21.029 0 23
      vertex -5.029 1 23
      vertex -5.029 0 23
    endloop
  endfacet
  facet normal -0 0 -1
    outer loop
      vertex -5.029 1 23
      vertex -21.029 0 23
      vertex -21.029 1 23
    endloop
  endfacet
  facet normal -0 0 1
    outer loop
      vertex -21.029 1 5
      vertex -5.029 0 5
      vertex -5.029 1 5
    endloop
  endfacet
  facet normal 0 0 1
    outer loop
      vertex -5.029 0 5
      vertex -21.029 1 5
      vertex -21.029 0 5
    endloop
  endfacet
endsolid OpenSCAD_Model
