solid OpenSCAD_Model
  facet normal -0.681944 0.731404 0
    outer loop
      vertex -44.5507 1.11472 25.3
      vertex -44.589 1.07901 26.8
      vertex -44.5507 1.11472 26.8
    endloop
  endfacet
  facet normal -0.681944 0.731404 0
    outer loop
      vertex -44.589 1.07901 26.8
      vertex -44.5507 1.11472 25.3
      vertex -44.589 1.07901 25.3
    endloop
  endfacet
  facet normal -0.920213 0.391418 0
    outer loop
      vertex -44.9378 0.56191 25.3
      vertex -44.9173 0.610105 26.8
      vertex -44.9173 0.610105 25.3
    endloop
  endfacet
  facet normal -0.920213 0.391418 0
    outer loop
      vertex -44.9173 0.610105 26.8
      vertex -44.9378 0.56191 25.3
      vertex -44.9378 0.56191 26.8
    endloop
  endfacet
  facet normal -0.981734 0.190259 0
    outer loop
      vertex -45.0165 0.299999 25.3
      vertex -45.0142 0.311867 26.8
      vertex -45.0142 0.311867 25.3
    endloop
  endfacet
  facet normal -0.981734 0.190259 0
    outer loop
      vertex -45.0142 0.311867 26.8
      vertex -45.0165 0.299999 25.3
      vertex -45.0165 0.299999 26.8
    endloop
  endfacet
  facet normal -0.190788 0.981631 0
    outer loop
      vertex -43.8075 1.47721 25.3
      vertex -43.8589 1.46722 26.8
      vertex -43.8075 1.47721 26.8
    endloop
  endfacet
  facet normal -0.190788 0.981631 0
    outer loop
      vertex -43.8589 1.46722 26.8
      vertex -43.8075 1.47721 25.3
      vertex -43.8589 1.46722 25.3
    endloop
  endfacet
  facet normal -0.9452 0.326491 0
    outer loop
      vertex -44.9736 0.463525 25.3
      vertex -44.9565 0.51303 26.8
      vertex -44.9565 0.51303 25.3
    endloop
  endfacet
  facet normal -0.9452 0.326491 0
    outer loop
      vertex -44.9565 0.51303 26.8
      vertex -44.9736 0.463525 25.3
      vertex -44.9736 0.463525 26.8
    endloop
  endfacet
  facet normal -0.292782 0.956179 0
    outer loop
      vertex -43.9605 1.44189 25.3
      vertex -44.0105 1.42658 26.8
      vertex -43.9605 1.44189 26.8
    endloop
  endfacet
  facet normal -0.292782 0.956179 0
    outer loop
      vertex -44.0105 1.42658 26.8
      vertex -43.9605 1.44189 25.3
      vertex -44.0105 1.42658 25.3
    endloop
  endfacet
  facet normal -0.390736 0.920503 0
    outer loop
      vertex -44.1089 1.39078 25.3
      vertex -44.1571 1.37032 26.8
      vertex -44.1089 1.39078 26.8
    endloop
  endfacet
  facet normal -0.390736 0.920503 0
    outer loop
      vertex -44.1571 1.37032 26.8
      vertex -44.1089 1.39078 25.3
      vertex -44.1571 1.37032 25.3
    endloop
  endfacet
  facet normal -0.656202 0.754585 0
    outer loop
      vertex -44.5112 1.14907 25.3
      vertex -44.5507 1.11472 26.8
      vertex -44.5112 1.14907 26.8
    endloop
  endfacet
  facet normal -0.656202 0.754585 0
    outer loop
      vertex -44.5507 1.11472 26.8
      vertex -44.5112 1.14907 25.3
      vertex -44.5507 1.11472 25.3
    endloop
  endfacet
  facet normal -0.857719 0.514119 0
    outer loop
      vertex -44.846 0.75 25.3
      vertex -44.8191 0.794878 26.8
      vertex -44.8191 0.794878 25.3
    endloop
  endfacet
  facet normal -0.857719 0.514119 0
    outer loop
      vertex -44.8191 0.794878 26.8
      vertex -44.846 0.75 25.3
      vertex -44.846 0.75 26.8
    endloop
  endfacet
  facet normal -0.601833 0.798622 0
    outer loop
      vertex -44.4287 1.21352 25.3
      vertex -44.4705 1.18202 26.8
      vertex -44.4287 1.21352 26.8
    endloop
  endfacet
  facet normal -0.601833 0.798622 0
    outer loop
      vertex -44.4705 1.18202 26.8
      vertex -44.4287 1.21352 25.3
      vertex -44.4705 1.18202 25.3
    endloop
  endfacet
  facet normal -0.933984 0.357314 0
    outer loop
      vertex -44.9565 0.51303 25.3
      vertex -44.9378 0.56191 26.8
      vertex -44.9378 0.56191 25.3
    endloop
  endfacet
  facet normal -0.933984 0.357314 0
    outer loop
      vertex -44.9378 0.56191 26.8
      vertex -44.9565 0.51303 25.3
      vertex -44.9565 0.51303 26.8
    endloop
  endfacet
  facet normal -0.454387 0.890805 0
    outer loop
      vertex -44.2046 1.34819 25.3
      vertex -44.2512 1.32442 26.8
      vertex -44.2046 1.34819 26.8
    endloop
  endfacet
  facet normal -0.454387 0.890805 0
    outer loop
      vertex -44.2512 1.32442 26.8
      vertex -44.2046 1.34819 25.3
      vertex -44.2512 1.32442 25.3
    endloop
  endfacet
  facet normal -0.731411 0.681937 0
    outer loop
      vertex -44.6617 1.0037 25.3
      vertex -44.626 1.04199 26.8
      vertex -44.626 1.04199 25.3
    endloop
  endfacet
  facet normal -0.731411 0.681937 0
    outer loop
      vertex -44.626 1.04199 26.8
      vertex -44.6617 1.0037 25.3
      vertex -44.6617 1.0037 26.8
    endloop
  endfacet
  facet normal -0.890766 0.454463 0
    outer loop
      vertex -44.8952 0.657557 25.3
      vertex -44.8714 0.704206 26.8
      vertex -44.8714 0.704206 25.3
    endloop
  endfacet
  facet normal -0.890766 0.454463 0
    outer loop
      vertex -44.8714 0.704206 26.8
      vertex -44.8952 0.657557 25.3
      vertex -44.8952 0.657557 26.8
    endloop
  endfacet
  facet normal -0.798712 0.601713 0
    outer loop
      vertex -44.7605 0.881678 25.3
      vertex -44.729 0.923491 26.8
      vertex -44.729 0.923491 25.3
    endloop
  endfacet
  facet normal -0.798712 0.601713 0
    outer loop
      vertex -44.729 0.923491 26.8
      vertex -44.7605 0.881678 25.3
      vertex -44.7605 0.881678 26.8
    endloop
  endfacet
  facet normal -0.0872143 0.99619 0
    outer loop
      vertex -43.6516 1.49635 25.3
      vertex -43.7038 1.49178 26.8
      vertex -43.6516 1.49635 26.8
    endloop
  endfacet
  facet normal -0.0872143 0.99619 0
    outer loop
      vertex -43.7038 1.49178 26.8
      vertex -43.6516 1.49635 25.3
      vertex -43.7038 1.49178 25.3
    endloop
  endfacet
  facet normal -0.57359 0.819142 0
    outer loop
      vertex -44.3858 1.24356 25.3
      vertex -44.4287 1.21352 26.8
      vertex -44.3858 1.24356 26.8
    endloop
  endfacet
  facet normal -0.57359 0.819142 0
    outer loop
      vertex -44.4287 1.21352 26.8
      vertex -44.3858 1.24356 25.3
      vertex -44.4287 1.21352 25.3
    endloop
  endfacet
  facet normal -0.258672 0.965965 0
    outer loop
      vertex -43.9099 1.45544 25.3
      vertex -43.9605 1.44189 26.8
      vertex -43.9099 1.45544 26.8
    endloop
  endfacet
  facet normal -0.258672 0.965965 0
    outer loop
      vertex -43.9605 1.44189 26.8
      vertex -43.9099 1.45544 25.3
      vertex -43.9605 1.44189 25.3
    endloop
  endfacet
  facet normal -0.0523183 0.99863 0
    outer loop
      vertex -43.5993 1.49909 25.3
      vertex -43.6516 1.49635 26.8
      vertex -43.5993 1.49909 26.8
    endloop
  endfacet
  facet normal -0.0523183 0.99863 0
    outer loop
      vertex -43.6516 1.49635 26.8
      vertex -43.5993 1.49909 25.3
      vertex -43.6516 1.49635 25.3
    endloop
  endfacet
  facet normal -0.017397 0.999849 0
    outer loop
      vertex -43.547 1.5 25.3
      vertex -43.5993 1.49909 26.8
      vertex -43.547 1.5 26.8
    endloop
  endfacet
  facet normal -0.017397 0.999849 0
    outer loop
      vertex -43.5993 1.49909 26.8
      vertex -43.547 1.5 25.3
      vertex -43.5993 1.49909 25.3
    endloop
  endfacet
  facet normal -0.358186 0.93365 0
    outer loop
      vertex -44.06 1.40954 25.3
      vertex -44.1089 1.39078 26.8
      vertex -44.06 1.40954 26.8
    endloop
  endfacet
  facet normal -0.358186 0.93365 0
    outer loop
      vertex -44.1089 1.39078 26.8
      vertex -44.06 1.40954 25.3
      vertex -44.1089 1.39078 25.3
    endloop
  endfacet
  facet normal -0.754268 0.656566 0
    outer loop
      vertex -44.6961 0.964181 25.3
      vertex -44.6617 1.0037 26.8
      vertex -44.6617 1.0037 25.3
    endloop
  endfacet
  facet normal -0.754268 0.656566 0
    outer loop
      vertex -44.6617 1.0037 26.8
      vertex -44.6961 0.964181 25.3
      vertex -44.6961 0.964181 26.8
    endloop
  endfacet
  facet normal -0.121779 0.992557 0
    outer loop
      vertex -43.7038 1.49178 25.3
      vertex -43.7558 1.4854 26.8
      vertex -43.7038 1.49178 26.8
    endloop
  endfacet
  facet normal -0.121779 0.992557 0
    outer loop
      vertex -43.7558 1.4854 26.8
      vertex -43.7038 1.49178 25.3
      vertex -43.7558 1.4854 25.3
    endloop
  endfacet
  facet normal -0.422311 0.906451 0
    outer loop
      vertex -44.1571 1.37032 25.3
      vertex -44.2046 1.34819 26.8
      vertex -44.1571 1.37032 26.8
    endloop
  endfacet
  facet normal -0.422311 0.906451 0
    outer loop
      vertex -44.2046 1.34819 26.8
      vertex -44.1571 1.37032 25.3
      vertex -44.2046 1.34819 25.3
    endloop
  endfacet
  facet normal -0.484702 0.874679 0
    outer loop
      vertex -44.2512 1.32442 25.3
      vertex -44.297 1.29904 26.8
      vertex -44.2512 1.32442 26.8
    endloop
  endfacet
  facet normal -0.484702 0.874679 0
    outer loop
      vertex -44.297 1.29904 26.8
      vertex -44.2512 1.32442 25.3
      vertex -44.297 1.29904 25.3
    endloop
  endfacet
  facet normal -0.974278 0.22535 0
    outer loop
      vertex -45.0142 0.311867 25.3
      vertex -45.0024 0.362883 26.8
      vertex -45.0024 0.362883 25.3
    endloop
  endfacet
  facet normal -0.974278 0.22535 0
    outer loop
      vertex -45.0024 0.362883 26.8
      vertex -45.0142 0.311867 25.3
      vertex -45.0142 0.311867 26.8
    endloop
  endfacet
  facet normal -0.956345 0.292238 0
    outer loop
      vertex -44.9889 0.413456 25.3
      vertex -44.9736 0.463525 26.8
      vertex -44.9736 0.463525 25.3
    endloop
  endfacet
  facet normal -0.956345 0.292238 0
    outer loop
      vertex -44.9736 0.463525 26.8
      vertex -44.9889 0.413456 25.3
      vertex -44.9889 0.413456 26.8
    endloop
  endfacet
  facet normal -0.777614 0.628742 0
    outer loop
      vertex -44.729 0.923491 25.3
      vertex -44.6961 0.964181 26.8
      vertex -44.6961 0.964181 25.3
    endloop
  endfacet
  facet normal -0.777614 0.628742 0
    outer loop
      vertex -44.6961 0.964181 26.8
      vertex -44.729 0.923491 25.3
      vertex -44.729 0.923491 26.8
    endloop
  endfacet
  facet normal -0.629226 0.777223 0
    outer loop
      vertex -44.4705 1.18202 25.3
      vertex -44.5112 1.14907 26.8
      vertex -44.4705 1.18202 26.8
    endloop
  endfacet
  facet normal -0.629226 0.777223 0
    outer loop
      vertex -44.5112 1.14907 26.8
      vertex -44.4705 1.18202 25.3
      vertex -44.5112 1.14907 25.3
    endloop
  endfacet
  facet normal -0.87449 0.485043 0
    outer loop
      vertex -44.8714 0.704206 25.3
      vertex -44.846 0.75 26.8
      vertex -44.846 0.75 25.3
    endloop
  endfacet
  facet normal -0.87449 0.485043 0
    outer loop
      vertex -44.846 0.75 26.8
      vertex -44.8714 0.704206 25.3
      vertex -44.8714 0.704206 26.8
    endloop
  endfacet
  facet normal -0.818535 0.574457 0
    outer loop
      vertex -44.7906 0.838789 25.3
      vertex -44.7605 0.881678 26.8
      vertex -44.7605 0.881678 25.3
    endloop
  endfacet
  facet normal -0.818535 0.574457 0
    outer loop
      vertex -44.7605 0.881678 26.8
      vertex -44.7906 0.838789 25.3
      vertex -44.7906 0.838789 26.8
    endloop
  endfacet
  facet normal -0.225055 0.974346 0
    outer loop
      vertex -43.8589 1.46722 25.3
      vertex -43.9099 1.45544 26.8
      vertex -43.8589 1.46722 26.8
    endloop
  endfacet
  facet normal -0.225055 0.974346 0
    outer loop
      vertex -43.9099 1.45544 26.8
      vertex -43.8589 1.46722 25.3
      vertex -43.9099 1.45544 25.3
    endloop
  endfacet
  facet normal -0.325496 0.945543 0
    outer loop
      vertex -44.0105 1.42658 25.3
      vertex -44.06 1.40954 26.8
      vertex -44.0105 1.42658 26.8
    endloop
  endfacet
  facet normal -0.325496 0.945543 0
    outer loop
      vertex -44.06 1.40954 26.8
      vertex -44.0105 1.42658 25.3
      vertex -44.06 1.40954 25.3
    endloop
  endfacet
  facet normal -0.156463 0.987684 0
    outer loop
      vertex -43.7558 1.4854 25.3
      vertex -43.8075 1.47721 26.8
      vertex -43.7558 1.4854 26.8
    endloop
  endfacet
  facet normal -0.156463 0.987684 0
    outer loop
      vertex -43.8075 1.47721 26.8
      vertex -43.7558 1.4854 25.3
      vertex -43.8075 1.47721 25.3
    endloop
  endfacet
  facet normal -0.906507 0.422191 0
    outer loop
      vertex -44.9173 0.610105 25.3
      vertex -44.8952 0.657557 26.8
      vertex -44.8952 0.657557 25.3
    endloop
  endfacet
  facet normal -0.906507 0.422191 0
    outer loop
      vertex -44.8952 0.657557 26.8
      vertex -44.9173 0.610105 25.3
      vertex -44.9173 0.610105 26.8
    endloop
  endfacet
  facet normal -0.707298 0.706916 0
    outer loop
      vertex -44.626 1.04199 25.3
      vertex -44.589 1.07901 26.8
      vertex -44.589 1.07901 25.3
    endloop
  endfacet
  facet normal -0.707298 0.706916 0
    outer loop
      vertex -44.589 1.07901 26.8
      vertex -44.626 1.04199 25.3
      vertex -44.626 1.04199 26.8
    endloop
  endfacet
  facet normal -0.544653 0.838662 0
    outer loop
      vertex -44.3419 1.27207 25.3
      vertex -44.3858 1.24356 26.8
      vertex -44.3419 1.27207 26.8
    endloop
  endfacet
  facet normal -0.544653 0.838662 0
    outer loop
      vertex -44.3858 1.24356 26.8
      vertex -44.3419 1.27207 25.3
      vertex -44.3858 1.24356 25.3
    endloop
  endfacet
  facet normal -0.514917 0.85724 0
    outer loop
      vertex -44.297 1.29904 25.3
      vertex -44.3419 1.27207 26.8
      vertex -44.297 1.29904 26.8
    endloop
  endfacet
  facet normal -0.514917 0.85724 0
    outer loop
      vertex -44.3419 1.27207 26.8
      vertex -44.297 1.29904 25.3
      vertex -44.3419 1.27207 25.3
    endloop
  endfacet
  facet normal -0.838811 0.544422 0
    outer loop
      vertex -44.8191 0.794878 25.3
      vertex -44.7906 0.838789 26.8
      vertex -44.7906 0.838789 25.3
    endloop
  endfacet
  facet normal -0.838811 0.544422 0
    outer loop
      vertex -44.7906 0.838789 26.8
      vertex -44.8191 0.794878 25.3
      vertex -44.8191 0.794878 26.8
    endloop
  endfacet
  facet normal -0.966169 0.25791 0
    outer loop
      vertex -45.0024 0.362883 25.3
      vertex -44.9889 0.413456 26.8
      vertex -44.9889 0.413456 25.3
    endloop
  endfacet
  facet normal -0.966169 0.25791 0
    outer loop
      vertex -44.9889 0.413456 26.8
      vertex -45.0024 0.362883 25.3
      vertex -45.0024 0.362883 26.8
    endloop
  endfacet
  facet normal 0 0 -1
    outer loop
      vertex -43.547 1.4 25.3
      vertex -7.62939e-08 1.5 25.3
      vertex -7.62939e-08 1.4 25.3
    endloop
  endfacet
  facet normal 0 0 -1
    outer loop
      vertex -43.547 1.4 25.3
      vertex -43.547 1.5 25.3
      vertex -7.62939e-08 1.5 25.3
    endloop
  endfacet
  facet normal 0 0 -1
    outer loop
      vertex -43.5959 1.39915 25.3
      vertex -43.547 1.5 25.3
      vertex -43.547 1.4 25.3
    endloop
  endfacet
  facet normal 0 0 -1
    outer loop
      vertex -43.5959 1.39915 25.3
      vertex -43.5993 1.49909 25.3
      vertex -43.547 1.5 25.3
    endloop
  endfacet
  facet normal 0 0 -1
    outer loop
      vertex -43.6447 1.39659 25.3
      vertex -43.5993 1.49909 25.3
      vertex -43.5959 1.39915 25.3
    endloop
  endfacet
  facet normal 0 0 -1
    outer loop
      vertex -43.6447 1.39659 25.3
      vertex -43.6516 1.49635 25.3
      vertex -43.5993 1.49909 25.3
    endloop
  endfacet
  facet normal 0 0 -1
    outer loop
      vertex -43.6933 1.39233 25.3
      vertex -43.6516 1.49635 25.3
      vertex -43.6447 1.39659 25.3
    endloop
  endfacet
  facet normal 0 0 -1
    outer loop
      vertex -43.6933 1.39233 25.3
      vertex -43.7038 1.49178 25.3
      vertex -43.6516 1.49635 25.3
    endloop
  endfacet
  facet normal 0 0 -1
    outer loop
      vertex -43.7418 1.38637 25.3
      vertex -43.7038 1.49178 25.3
      vertex -43.6933 1.39233 25.3
    endloop
  endfacet
  facet normal 0 0 -1
    outer loop
      vertex -43.7418 1.38637 25.3
      vertex -43.7558 1.4854 25.3
      vertex -43.7038 1.49178 25.3
    endloop
  endfacet
  facet normal 0 0 -1
    outer loop
      vertex -43.7901 1.37873 25.3
      vertex -43.7558 1.4854 25.3
      vertex -43.7418 1.38637 25.3
    endloop
  endfacet
  facet normal 0 0 -1
    outer loop
      vertex -43.7901 1.37873 25.3
      vertex -43.8075 1.47721 25.3
      vertex -43.7558 1.4854 25.3
    endloop
  endfacet
  facet normal 0 0 -1
    outer loop
      vertex -43.8381 1.36941 25.3
      vertex -43.8075 1.47721 25.3
      vertex -43.7901 1.37873 25.3
    endloop
  endfacet
  facet normal 0 0 -1
    outer loop
      vertex -43.8381 1.36941 25.3
      vertex -43.8589 1.46722 25.3
      vertex -43.8075 1.47721 25.3
    endloop
  endfacet
  facet normal 0 0 -1
    outer loop
      vertex -43.8857 1.35841 25.3
      vertex -43.8589 1.46722 25.3
      vertex -43.8381 1.36941 25.3
    endloop
  endfacet
  facet normal 0 0 -1
    outer loop
      vertex -43.8857 1.35841 25.3
      vertex -43.9099 1.45544 25.3
      vertex -43.8589 1.46722 25.3
    endloop
  endfacet
  facet normal 0 0 -1
    outer loop
      vertex -43.9329 1.34577 25.3
      vertex -43.9099 1.45544 25.3
      vertex -43.8857 1.35841 25.3
    endloop
  endfacet
  facet normal 0 0 -1
    outer loop
      vertex -43.9329 1.34577 25.3
      vertex -43.9605 1.44189 25.3
      vertex -43.9099 1.45544 25.3
    endloop
  endfacet
  facet normal 0 0 -1
    outer loop
      vertex -43.9796 1.33148 25.3
      vertex -43.9605 1.44189 25.3
      vertex -43.9329 1.34577 25.3
    endloop
  endfacet
  facet normal 0 0 -1
    outer loop
      vertex -43.9796 1.33148 25.3
      vertex -44.0105 1.42658 25.3
      vertex -43.9605 1.44189 25.3
    endloop
  endfacet
  facet normal 0 0 -1
    outer loop
      vertex -44.0258 1.31557 25.3
      vertex -44.0105 1.42658 25.3
      vertex -43.9796 1.33148 25.3
    endloop
  endfacet
  facet normal 0 0 -1
    outer loop
      vertex -44.0258 1.31557 25.3
      vertex -44.06 1.40954 25.3
      vertex -44.0105 1.42658 25.3
    endloop
  endfacet
  facet normal 0 0 -1
    outer loop
      vertex -44.0714 1.29806 25.3
      vertex -44.06 1.40954 25.3
      vertex -44.0258 1.31557 25.3
    endloop
  endfacet
  facet normal 0 0 -1
    outer loop
      vertex -44.0714 1.29806 25.3
      vertex -44.1089 1.39078 25.3
      vertex -44.06 1.40954 25.3
    endloop
  endfacet
  facet normal 0 0 -1
    outer loop
      vertex -44.1164 1.27896 25.3
      vertex -44.1089 1.39078 25.3
      vertex -44.0714 1.29806 25.3
    endloop
  endfacet
  facet normal 0 0 -1
    outer loop
      vertex -44.1164 1.27896 25.3
      vertex -44.1571 1.37032 25.3
      vertex -44.1089 1.39078 25.3
    endloop
  endfacet
  facet normal 0 0 -1
    outer loop
      vertex -44.1607 1.25831 25.3
      vertex -44.1571 1.37032 25.3
      vertex -44.1164 1.27896 25.3
    endloop
  endfacet
  facet normal 0 0 -1
    outer loop
      vertex -44.2046 1.34819 25.3
      vertex -44.1607 1.25831 25.3
      vertex -44.2043 1.23613 25.3
    endloop
  endfacet
  facet normal 0 0 -1
    outer loop
      vertex -44.1607 1.25831 25.3
      vertex -44.2046 1.34819 25.3
      vertex -44.1571 1.37032 25.3
    endloop
  endfacet
  facet normal 0 0 -1
    outer loop
      vertex -44.2512 1.32442 25.3
      vertex -44.2043 1.23613 25.3
      vertex -44.247 1.21243 25.3
    endloop
  endfacet
  facet normal 0 0 -1
    outer loop
      vertex -44.2043 1.23613 25.3
      vertex -44.2512 1.32442 25.3
      vertex -44.2046 1.34819 25.3
    endloop
  endfacet
  facet normal 0 0 -1
    outer loop
      vertex -44.297 1.29904 25.3
      vertex -44.247 1.21243 25.3
      vertex -44.2889 1.18727 25.3
    endloop
  endfacet
  facet normal 0 0 -1
    outer loop
      vertex -44.247 1.21243 25.3
      vertex -44.297 1.29904 25.3
      vertex -44.2512 1.32442 25.3
    endloop
  endfacet
  facet normal 0 0 -1
    outer loop
      vertex -44.3419 1.27207 25.3
      vertex -44.2889 1.18727 25.3
      vertex -44.3299 1.16065 25.3
    endloop
  endfacet
  facet normal 0 0 -1
    outer loop
      vertex -44.2889 1.18727 25.3
      vertex -44.3419 1.27207 25.3
      vertex -44.297 1.29904 25.3
    endloop
  endfacet
  facet normal 0 0 -1
    outer loop
      vertex -44.3858 1.24356 25.3
      vertex -44.3299 1.16065 25.3
      vertex -44.3699 1.13262 25.3
    endloop
  endfacet
  facet normal 0 0 -1
    outer loop
      vertex -44.3299 1.16065 25.3
      vertex -44.3858 1.24356 25.3
      vertex -44.3419 1.27207 25.3
    endloop
  endfacet
  facet normal 0 0 -1
    outer loop
      vertex -44.4287 1.21352 25.3
      vertex -44.3699 1.13262 25.3
      vertex -44.4089 1.10321 25.3
    endloop
  endfacet
  facet normal 0 0 -1
    outer loop
      vertex -44.3699 1.13262 25.3
      vertex -44.4287 1.21352 25.3
      vertex -44.3858 1.24356 25.3
    endloop
  endfacet
  facet normal 0 0 -1
    outer loop
      vertex -44.4705 1.18202 25.3
      vertex -44.4089 1.10321 25.3
      vertex -44.4469 1.07246 25.3
    endloop
  endfacet
  facet normal 0 0 -1
    outer loop
      vertex -44.4089 1.10321 25.3
      vertex -44.4705 1.18202 25.3
      vertex -44.4287 1.21352 25.3
    endloop
  endfacet
  facet normal 0 0 -1
    outer loop
      vertex -44.5112 1.14907 25.3
      vertex -44.4469 1.07246 25.3
      vertex -44.4838 1.0404 25.3
    endloop
  endfacet
  facet normal 0 0 -1
    outer loop
      vertex -44.4469 1.07246 25.3
      vertex -44.5112 1.14907 25.3
      vertex -44.4705 1.18202 25.3
    endloop
  endfacet
  facet normal 0 0 -1
    outer loop
      vertex -44.5507 1.11472 25.3
      vertex -44.4838 1.0404 25.3
      vertex -44.5195 1.00708 25.3
    endloop
  endfacet
  facet normal 0 0 -1
    outer loop
      vertex -44.4838 1.0404 25.3
      vertex -44.5507 1.11472 25.3
      vertex -44.5112 1.14907 25.3
    endloop
  endfacet
  facet normal 0 0 -1
    outer loop
      vertex -44.589 1.07901 25.3
      vertex -44.5195 1.00708 25.3
      vertex -44.5541 0.972521 25.3
    endloop
  endfacet
  facet normal 0 0 -1
    outer loop
      vertex -44.626 1.04199 25.3
      vertex -44.5541 0.972521 25.3
      vertex -44.5874 0.936783 25.3
    endloop
  endfacet
  facet normal 0 0 -1
    outer loop
      vertex -44.5195 1.00708 25.3
      vertex -44.589 1.07901 25.3
      vertex -44.5507 1.11472 25.3
    endloop
  endfacet
  facet normal 0 0 -1
    outer loop
      vertex -44.6617 1.0037 25.3
      vertex -44.5874 0.936783 25.3
      vertex -44.6195 0.899902 25.3
    endloop
  endfacet
  facet normal 0 0 -1
    outer loop
      vertex -44.5541 0.972521 25.3
      vertex -44.626 1.04199 25.3
      vertex -44.589 1.07901 25.3
    endloop
  endfacet
  facet normal 0 0 -1
    outer loop
      vertex -44.6961 0.964181 25.3
      vertex -44.6195 0.899902 25.3
      vertex -44.6502 0.861925 25.3
    endloop
  endfacet
  facet normal 0 0 -1
    outer loop
      vertex -44.5874 0.936783 25.3
      vertex -44.6617 1.0037 25.3
      vertex -44.626 1.04199 25.3
    endloop
  endfacet
  facet normal 0 0 -1
    outer loop
      vertex -44.729 0.923491 25.3
      vertex -44.6502 0.861925 25.3
      vertex -44.6796 0.822899 25.3
    endloop
  endfacet
  facet normal 0 0 -1
    outer loop
      vertex -44.6195 0.899902 25.3
      vertex -44.6961 0.964181 25.3
      vertex -44.6617 1.0037 25.3
    endloop
  endfacet
  facet normal 0 0 -1
    outer loop
      vertex -44.7605 0.881678 25.3
      vertex -44.6796 0.822899 25.3
      vertex -44.7077 0.782869 25.3
    endloop
  endfacet
  facet normal 0 0 -1
    outer loop
      vertex -44.6502 0.861925 25.3
      vertex -44.729 0.923491 25.3
      vertex -44.6961 0.964181 25.3
    endloop
  endfacet
  facet normal 0 0 -1
    outer loop
      vertex -44.7906 0.838789 25.3
      vertex -44.7077 0.782869 25.3
      vertex -44.7343 0.741886 25.3
    endloop
  endfacet
  facet normal 0 0 -1
    outer loop
      vertex -44.8191 0.794878 25.3
      vertex -44.7343 0.741886 25.3
      vertex -44.7594 0.7 25.3
    endloop
  endfacet
  facet normal 0 0 -1
    outer loop
      vertex -44.6796 0.822899 25.3
      vertex -44.7605 0.881678 25.3
      vertex -44.729 0.923491 25.3
    endloop
  endfacet
  facet normal 0 0 -1
    outer loop
      vertex -44.846 0.75 25.3
      vertex -44.7594 0.7 25.3
      vertex -44.7831 0.65726 25.3
    endloop
  endfacet
  facet normal 0 0 -1
    outer loop
      vertex -44.7077 0.782869 25.3
      vertex -44.7906 0.838789 25.3
      vertex -44.7605 0.881678 25.3
    endloop
  endfacet
  facet normal 0 0 -1
    outer loop
      vertex -44.8714 0.704206 25.3
      vertex -44.7831 0.65726 25.3
      vertex -44.8053 0.613719 25.3
    endloop
  endfacet
  facet normal 0 0 -1
    outer loop
      vertex -44.7343 0.741886 25.3
      vertex -44.8191 0.794878 25.3
      vertex -44.7906 0.838789 25.3
    endloop
  endfacet
  facet normal 0 0 -1
    outer loop
      vertex -44.8952 0.657557 25.3
      vertex -44.8053 0.613719 25.3
      vertex -44.826 0.56943 25.3
    endloop
  endfacet
  facet normal 0 0 -1
    outer loop
      vertex -44.9173 0.610105 25.3
      vertex -44.826 0.56943 25.3
      vertex -44.8451 0.524448 25.3
    endloop
  endfacet
  facet normal 0 0 -1
    outer loop
      vertex -44.7594 0.7 25.3
      vertex -44.846 0.75 25.3
      vertex -44.8191 0.794878 25.3
    endloop
  endfacet
  facet normal 0 0 -1
    outer loop
      vertex -44.9378 0.56191 25.3
      vertex -44.8451 0.524448 25.3
      vertex -44.8626 0.478827 25.3
    endloop
  endfacet
  facet normal 0 0 -1
    outer loop
      vertex -44.7831 0.65726 25.3
      vertex -44.8714 0.704206 25.3
      vertex -44.846 0.75 25.3
    endloop
  endfacet
  facet normal 0 0 -1
    outer loop
      vertex -44.9565 0.51303 25.3
      vertex -44.8626 0.478827 25.3
      vertex -44.8785 0.432623 25.3
    endloop
  endfacet
  facet normal 0 0 -1
    outer loop
      vertex -44.9736 0.463525 25.3
      vertex -44.8785 0.432623 25.3
      vertex -44.8928 0.385892 25.3
    endloop
  endfacet
  facet normal 0 0 -1
    outer loop
      vertex -44.8053 0.613719 25.3
      vertex -44.8952 0.657557 25.3
      vertex -44.8714 0.704206 25.3
    endloop
  endfacet
  facet normal 0 0 -1
    outer loop
      vertex -44.9889 0.413456 25.3
      vertex -44.8928 0.385892 25.3
      vertex -44.9054 0.33869 25.3
    endloop
  endfacet
  facet normal 0 0 -1
    outer loop
      vertex -45.0024 0.362883 25.3
      vertex -44.9054 0.33869 25.3
      vertex -44.9143 0.299999 25.3
    endloop
  endfacet
  facet normal 0 0 -1
    outer loop
      vertex -44.826 0.56943 25.3
      vertex -44.9173 0.610105 25.3
      vertex -44.8952 0.657557 25.3
    endloop
  endfacet
  facet normal 0 0 -1
    outer loop
      vertex -44.8451 0.524448 25.3
      vertex -44.9378 0.56191 25.3
      vertex -44.9173 0.610105 25.3
    endloop
  endfacet
  facet normal 0 0 -1
    outer loop
      vertex -44.8626 0.478827 25.3
      vertex -44.9565 0.51303 25.3
      vertex -44.9378 0.56191 25.3
    endloop
  endfacet
  facet normal 0 0 -1
    outer loop
      vertex -44.8785 0.432623 25.3
      vertex -44.9736 0.463525 25.3
      vertex -44.9565 0.51303 25.3
    endloop
  endfacet
  facet normal 0 0 -1
    outer loop
      vertex -44.8928 0.385892 25.3
      vertex -44.9889 0.413456 25.3
      vertex -44.9736 0.463525 25.3
    endloop
  endfacet
  facet normal 0 0 -1
    outer loop
      vertex -44.9054 0.33869 25.3
      vertex -45.0024 0.362883 25.3
      vertex -44.9889 0.413456 25.3
    endloop
  endfacet
  facet normal 0 0 -1
    outer loop
      vertex -44.9143 0.299999 25.3
      vertex -45.0142 0.311867 25.3
      vertex -45.0024 0.362883 25.3
    endloop
  endfacet
  facet normal 0 -0 -1
    outer loop
      vertex -45.0142 0.311867 25.3
      vertex -44.9143 0.299999 25.3
      vertex -45.0165 0.299999 25.3
    endloop
  endfacet
  facet normal 0.0173798 -0.999849 0
    outer loop
      vertex -43.5959 1.39915 25.3
      vertex -43.547 1.4 26.8
      vertex -43.5959 1.39915 26.8
    endloop
  endfacet
  facet normal 0.0173798 -0.999849 0
    outer loop
      vertex -43.547 1.4 26.8
      vertex -43.5959 1.39915 25.3
      vertex -43.547 1.4 25.3
    endloop
  endfacet
  facet normal 0.777678 -0.628663 0
    outer loop
      vertex -44.6502 0.861925 26.8
      vertex -44.6195 0.899902 25.3
      vertex -44.6195 0.899902 26.8
    endloop
  endfacet
  facet normal 0.777678 -0.628663 0
    outer loop
      vertex -44.6195 0.899902 25.3
      vertex -44.6502 0.861925 26.8
      vertex -44.6502 0.861925 25.3
    endloop
  endfacet
  facet normal 0.0873195 -0.99618 0
    outer loop
      vertex -43.6933 1.39233 25.3
      vertex -43.6447 1.39659 26.8
      vertex -43.6933 1.39233 26.8
    endloop
  endfacet
  facet normal 0.0873195 -0.99618 0
    outer loop
      vertex -43.6447 1.39659 26.8
      vertex -43.6933 1.39233 25.3
      vertex -43.6447 1.39659 25.3
    endloop
  endfacet
  facet normal 0.682318 -0.731055 0
    outer loop
      vertex -44.5195 1.00708 25.3
      vertex -44.4838 1.0404 26.8
      vertex -44.5195 1.00708 26.8
    endloop
  endfacet
  facet normal 0.682318 -0.731055 0
    outer loop
      vertex -44.4838 1.0404 26.8
      vertex -44.5195 1.00708 25.3
      vertex -44.4838 1.0404 25.3
    endloop
  endfacet
  facet normal 0.655865 -0.754879 0
    outer loop
      vertex -44.4838 1.0404 25.3
      vertex -44.4469 1.07246 26.8
      vertex -44.4838 1.0404 26.8
    endloop
  endfacet
  facet normal 0.655865 -0.754879 0
    outer loop
      vertex -44.4469 1.07246 26.8
      vertex -44.4838 1.0404 25.3
      vertex -44.4469 1.07246 25.3
    endloop
  endfacet
  facet normal 0.485295 -0.87435 0
    outer loop
      vertex -44.247 1.21243 25.3
      vertex -44.2043 1.23613 26.8
      vertex -44.247 1.21243 26.8
    endloop
  endfacet
  facet normal 0.485295 -0.87435 0
    outer loop
      vertex -44.2043 1.23613 26.8
      vertex -44.247 1.21243 25.3
      vertex -44.2043 1.23613 25.3
    endloop
  endfacet
  facet normal 0.933664 -0.358149 0
    outer loop
      vertex -44.8626 0.478827 26.8
      vertex -44.8451 0.524448 25.3
      vertex -44.8451 0.524448 26.8
    endloop
  endfacet
  facet normal 0.933664 -0.358149 0
    outer loop
      vertex -44.8451 0.524448 25.3
      vertex -44.8626 0.478827 26.8
      vertex -44.8626 0.478827 25.3
    endloop
  endfacet
  facet normal 0.573874 -0.818943 0
    outer loop
      vertex -44.3699 1.13262 25.3
      vertex -44.3299 1.16065 26.8
      vertex -44.3699 1.13262 26.8
    endloop
  endfacet
  facet normal 0.573874 -0.818943 0
    outer loop
      vertex -44.3299 1.16065 26.8
      vertex -44.3699 1.13262 25.3
      vertex -44.3299 1.16065 25.3
    endloop
  endfacet
  facet normal 0.052387 -0.998627 0
    outer loop
      vertex -43.6447 1.39659 25.3
      vertex -43.5959 1.39915 26.8
      vertex -43.6447 1.39659 26.8
    endloop
  endfacet
  facet normal 0.052387 -0.998627 0
    outer loop
      vertex -43.5959 1.39915 26.8
      vertex -43.6447 1.39659 25.3
      vertex -43.5959 1.39915 25.3
    endloop
  endfacet
  facet normal 0.838808 -0.544428 0
    outer loop
      vertex -44.7343 0.741886 26.8
      vertex -44.7077 0.782869 25.3
      vertex -44.7077 0.782869 26.8
    endloop
  endfacet
  facet normal 0.838808 -0.544428 0
    outer loop
      vertex -44.7077 0.782869 25.3
      vertex -44.7343 0.741886 26.8
      vertex -44.7343 0.741886 25.3
    endloop
  endfacet
  facet normal 0.905934 -0.42342 0
    outer loop
      vertex -44.826 0.56943 26.8
      vertex -44.8053 0.613719 25.3
      vertex -44.8053 0.613719 26.8
    endloop
  endfacet
  facet normal 0.905934 -0.42342 0
    outer loop
      vertex -44.8053 0.613719 25.3
      vertex -44.826 0.56943 26.8
      vertex -44.826 0.56943 25.3
    endloop
  endfacet
  facet normal 0.292603 -0.956234 0
    outer loop
      vertex -43.9796 1.33148 25.3
      vertex -43.9329 1.34577 26.8
      vertex -43.9796 1.33148 26.8
    endloop
  endfacet
  facet normal 0.292603 -0.956234 0
    outer loop
      vertex -43.9329 1.34577 26.8
      vertex -43.9796 1.33148 25.3
      vertex -43.9329 1.34577 25.3
    endloop
  endfacet
  facet normal 0.857778 -0.51402 0
    outer loop
      vertex -44.7594 0.7 26.8
      vertex -44.7343 0.741886 25.3
      vertex -44.7343 0.741886 26.8
    endloop
  endfacet
  facet normal 0.857778 -0.51402 0
    outer loop
      vertex -44.7343 0.741886 25.3
      vertex -44.7594 0.7 26.8
      vertex -44.7594 0.7 25.3
    endloop
  endfacet
  facet normal 0.818472 -0.574546 0
    outer loop
      vertex -44.7077 0.782869 26.8
      vertex -44.6796 0.822899 25.3
      vertex -44.6796 0.822899 26.8
    endloop
  endfacet
  facet normal 0.818472 -0.574546 0
    outer loop
      vertex -44.6796 0.822899 25.3
      vertex -44.7077 0.782869 26.8
      vertex -44.7077 0.782869 25.3
    endloop
  endfacet
  facet normal 0.754306 -0.656523 0
    outer loop
      vertex -44.6195 0.899902 26.8
      vertex -44.5874 0.936783 25.3
      vertex -44.5874 0.936783 26.8
    endloop
  endfacet
  facet normal 0.754306 -0.656523 0
    outer loop
      vertex -44.5874 0.936783 25.3
      vertex -44.6195 0.899902 26.8
      vertex -44.6195 0.899902 25.3
    endloop
  endfacet
  facet normal 0.956231 -0.292613 0
    outer loop
      vertex -44.8928 0.385892 26.8
      vertex -44.8785 0.432623 25.3
      vertex -44.8785 0.432623 26.8
    endloop
  endfacet
  facet normal 0.956231 -0.292613 0
    outer loop
      vertex -44.8785 0.432623 25.3
      vertex -44.8928 0.385892 26.8
      vertex -44.8928 0.385892 25.3
    endloop
  endfacet
  facet normal 0.945577 -0.325398 0
    outer loop
      vertex -44.8785 0.432623 26.8
      vertex -44.8626 0.478827 25.3
      vertex -44.8626 0.478827 26.8
    endloop
  endfacet
  facet normal 0.945577 -0.325398 0
    outer loop
      vertex -44.8626 0.478827 25.3
      vertex -44.8785 0.432623 26.8
      vertex -44.8785 0.432623 25.3
    endloop
  endfacet
  facet normal 0.731621 -0.681711 0
    outer loop
      vertex -44.5874 0.936783 26.8
      vertex -44.5541 0.972521 25.3
      vertex -44.5541 0.972521 26.8
    endloop
  endfacet
  facet normal 0.731621 -0.681711 0
    outer loop
      vertex -44.5541 0.972521 25.3
      vertex -44.5874 0.936783 26.8
      vertex -44.5874 0.936783 25.3
    endloop
  endfacet
  facet normal 0.798716 -0.601708 0
    outer loop
      vertex -44.6796 0.822899 26.8
      vertex -44.6502 0.861925 25.3
      vertex -44.6502 0.861925 26.8
    endloop
  endfacet
  facet normal 0.798716 -0.601708 0
    outer loop
      vertex -44.6502 0.861925 25.3
      vertex -44.6796 0.822899 26.8
      vertex -44.6796 0.822899 25.3
    endloop
  endfacet
  facet normal 0.258682 -0.965963 0
    outer loop
      vertex -43.9329 1.34577 25.3
      vertex -43.8857 1.35841 26.8
      vertex -43.9329 1.34577 26.8
    endloop
  endfacet
  facet normal 0.258682 -0.965963 0
    outer loop
      vertex -43.8857 1.35841 26.8
      vertex -43.9329 1.34577 25.3
      vertex -43.8857 1.35841 25.3
    endloop
  endfacet
  facet normal 0.96617 -0.257907 0
    outer loop
      vertex -44.9054 0.33869 26.8
      vertex -44.8928 0.385892 25.3
      vertex -44.8928 0.385892 26.8
    endloop
  endfacet
  facet normal 0.96617 -0.257907 0
    outer loop
      vertex -44.8928 0.385892 25.3
      vertex -44.9054 0.33869 26.8
      vertex -44.9054 0.33869 25.3
    endloop
  endfacet
  facet normal 0.225158 -0.974322 0
    outer loop
      vertex -43.8857 1.35841 25.3
      vertex -43.8381 1.36941 26.8
      vertex -43.8857 1.35841 26.8
    endloop
  endfacet
  facet normal 0.225158 -0.974322 0
    outer loop
      vertex -43.8381 1.36941 26.8
      vertex -43.8857 1.35841 25.3
      vertex -43.8381 1.36941 25.3
    endloop
  endfacet
  facet normal 0.706687 -0.707526 0
    outer loop
      vertex -44.5541 0.972521 25.3
      vertex -44.5195 1.00708 26.8
      vertex -44.5541 0.972521 26.8
    endloop
  endfacet
  facet normal 0.706687 -0.707526 0
    outer loop
      vertex -44.5195 1.00708 26.8
      vertex -44.5541 0.972521 25.3
      vertex -44.5195 1.00708 25.3
    endloop
  endfacet
  facet normal 0.121969 -0.992534 0
    outer loop
      vertex -43.7418 1.38637 25.3
      vertex -43.6933 1.39233 26.8
      vertex -43.7418 1.38637 26.8
    endloop
  endfacet
  facet normal 0.121969 -0.992534 0
    outer loop
      vertex -43.6933 1.39233 26.8
      vertex -43.7418 1.38637 25.3
      vertex -43.6933 1.39233 25.3
    endloop
  endfacet
  facet normal 0.602094 -0.798425 0
    outer loop
      vertex -44.4089 1.10321 25.3
      vertex -44.3699 1.13262 26.8
      vertex -44.4089 1.10321 26.8
    endloop
  endfacet
  facet normal 0.602094 -0.798425 0
    outer loop
      vertex -44.3699 1.13262 26.8
      vertex -44.4089 1.10321 25.3
      vertex -44.3699 1.13262 25.3
    endloop
  endfacet
  facet normal 0.325606 -0.945506 0
    outer loop
      vertex -44.0258 1.31557 25.3
      vertex -43.9796 1.33148 26.8
      vertex -44.0258 1.31557 26.8
    endloop
  endfacet
  facet normal 0.325606 -0.945506 0
    outer loop
      vertex -43.9796 1.33148 26.8
      vertex -44.0258 1.31557 25.3
      vertex -43.9796 1.33148 25.3
    endloop
  endfacet
  facet normal 0.974549 -0.224173 0
    outer loop
      vertex -44.9143 0.299999 26.8
      vertex -44.9054 0.33869 25.3
      vertex -44.9054 0.33869 26.8
    endloop
  endfacet
  facet normal 0.974549 -0.224173 0
    outer loop
      vertex -44.9054 0.33869 25.3
      vertex -44.9143 0.299999 26.8
      vertex -44.9143 0.299999 25.3
    endloop
  endfacet
  facet normal 0.890884 -0.45423 0
    outer loop
      vertex -44.8053 0.613719 26.8
      vertex -44.7831 0.65726 25.3
      vertex -44.7831 0.65726 26.8
    endloop
  endfacet
  facet normal 0.890884 -0.45423 0
    outer loop
      vertex -44.7831 0.65726 25.3
      vertex -44.8053 0.613719 26.8
      vertex -44.8053 0.613719 25.3
    endloop
  endfacet
  facet normal 0.390707 -0.920515 0
    outer loop
      vertex -44.1164 1.27896 25.3
      vertex -44.0714 1.29806 26.8
      vertex -44.1164 1.27896 26.8
    endloop
  endfacet
  facet normal 0.390707 -0.920515 0
    outer loop
      vertex -44.0714 1.29806 26.8
      vertex -44.1164 1.27896 25.3
      vertex -44.0714 1.29806 25.3
    endloop
  endfacet
  facet normal 0.156236 -0.98772 0
    outer loop
      vertex -43.7901 1.37873 25.3
      vertex -43.7418 1.38637 26.8
      vertex -43.7901 1.37873 26.8
    endloop
  endfacet
  facet normal 0.156236 -0.98772 0
    outer loop
      vertex -43.7418 1.38637 26.8
      vertex -43.7901 1.37873 25.3
      vertex -43.7418 1.38637 25.3
    endloop
  endfacet
  facet normal 0.453417 -0.891298 0
    outer loop
      vertex -44.2043 1.23613 25.3
      vertex -44.1607 1.25831 26.8
      vertex -44.2043 1.23613 26.8
    endloop
  endfacet
  facet normal 0.453417 -0.891298 0
    outer loop
      vertex -44.1607 1.25831 26.8
      vertex -44.2043 1.23613 25.3
      vertex -44.1607 1.25831 25.3
    endloop
  endfacet
  facet normal 0.422493 -0.906366 0
    outer loop
      vertex -44.1607 1.25831 25.3
      vertex -44.1164 1.27896 26.8
      vertex -44.1607 1.25831 26.8
    endloop
  endfacet
  facet normal 0.422493 -0.906366 0
    outer loop
      vertex -44.1164 1.27896 26.8
      vertex -44.1607 1.25831 25.3
      vertex -44.1164 1.27896 25.3
    endloop
  endfacet
  facet normal 0.920459 -0.39084 0
    outer loop
      vertex -44.8451 0.524448 26.8
      vertex -44.826 0.56943 25.3
      vertex -44.826 0.56943 26.8
    endloop
  endfacet
  facet normal 0.920459 -0.39084 0
    outer loop
      vertex -44.826 0.56943 25.3
      vertex -44.8451 0.524448 26.8
      vertex -44.8451 0.524448 25.3
    endloop
  endfacet
  facet normal 0.190607 -0.981666 0
    outer loop
      vertex -43.8381 1.36941 25.3
      vertex -43.7901 1.37873 26.8
      vertex -43.8381 1.36941 26.8
    endloop
  endfacet
  facet normal 0.190607 -0.981666 0
    outer loop
      vertex -43.7901 1.37873 26.8
      vertex -43.8381 1.36941 25.3
      vertex -43.7901 1.37873 25.3
    endloop
  endfacet
  facet normal 0.629051 -0.777364 0
    outer loop
      vertex -44.4469 1.07246 25.3
      vertex -44.4089 1.10321 26.8
      vertex -44.4469 1.07246 26.8
    endloop
  endfacet
  facet normal 0.629051 -0.777364 0
    outer loop
      vertex -44.4089 1.10321 26.8
      vertex -44.4469 1.07246 25.3
      vertex -44.4089 1.10321 25.3
    endloop
  endfacet
  facet normal 0.874543 -0.484948 0
    outer loop
      vertex -44.7831 0.65726 26.8
      vertex -44.7594 0.7 25.3
      vertex -44.7594 0.7 26.8
    endloop
  endfacet
  facet normal 0.874543 -0.484948 0
    outer loop
      vertex -44.7594 0.7 25.3
      vertex -44.7831 0.65726 26.8
      vertex -44.7831 0.65726 25.3
    endloop
  endfacet
  facet normal 0.358471 -0.933541 0
    outer loop
      vertex -44.0714 1.29806 25.3
      vertex -44.0258 1.31557 26.8
      vertex -44.0714 1.29806 26.8
    endloop
  endfacet
  facet normal 0.358471 -0.933541 0
    outer loop
      vertex -44.0258 1.31557 26.8
      vertex -44.0714 1.29806 25.3
      vertex -44.0258 1.31557 25.3
    endloop
  endfacet
  facet normal 0.514797 -0.857312 0
    outer loop
      vertex -44.2889 1.18727 25.3
      vertex -44.247 1.21243 26.8
      vertex -44.2889 1.18727 26.8
    endloop
  endfacet
  facet normal 0.514797 -0.857312 0
    outer loop
      vertex -44.247 1.21243 26.8
      vertex -44.2889 1.18727 25.3
      vertex -44.247 1.21243 25.3
    endloop
  endfacet
  facet normal 0.544557 -0.838724 0
    outer loop
      vertex -44.3299 1.16065 25.3
      vertex -44.2889 1.18727 26.8
      vertex -44.3299 1.16065 26.8
    endloop
  endfacet
  facet normal 0.544557 -0.838724 0
    outer loop
      vertex -44.2889 1.18727 26.8
      vertex -44.3299 1.16065 25.3
      vertex -44.2889 1.18727 25.3
    endloop
  endfacet
  facet normal 0 1 -0
    outer loop
      vertex -7.62939e-08 1.5 25.3
      vertex -43.547 1.5 26.8
      vertex -7.62939e-08 1.5 26.8
    endloop
  endfacet
  facet normal 0 1 0
    outer loop
      vertex -43.547 1.5 26.8
      vertex -7.62939e-08 1.5 25.3
      vertex -43.547 1.5 25.3
    endloop
  endfacet
  facet normal 0 -1 0
    outer loop
      vertex -43.547 1.4 25.3
      vertex -7.62939e-08 1.4 26.8
      vertex -43.547 1.4 26.8
    endloop
  endfacet
  facet normal 0 -1 -0
    outer loop
      vertex -7.62939e-08 1.4 26.8
      vertex -43.547 1.4 25.3
      vertex -7.62939e-08 1.4 25.3
    endloop
  endfacet
  facet normal 1 -0 0
    outer loop
      vertex -7.62939e-08 1.4 26.8
      vertex -7.62939e-08 1.5 25.3
      vertex -7.62939e-08 1.5 26.8
    endloop
  endfacet
  facet normal 1 0 0
    outer loop
      vertex -7.62939e-08 1.5 25.3
      vertex -7.62939e-08 1.4 26.8
      vertex -7.62939e-08 1.4 25.3
    endloop
  endfacet
  facet normal 0 -1 0
    outer loop
      vertex -45.0165 0.299999 25.3
      vertex -44.9143 0.299999 26.8
      vertex -45.0165 0.299999 26.8
    endloop
  endfacet
  facet normal 0 -1 -0
    outer loop
      vertex -44.9143 0.299999 26.8
      vertex -45.0165 0.299999 25.3
      vertex -44.9143 0.299999 25.3
    endloop
  endfacet
  facet normal -0 0 1
    outer loop
      vertex -43.547 1.5 26.8
      vertex -7.62939e-08 1.4 26.8
      vertex -7.62939e-08 1.5 26.8
    endloop
  endfacet
  facet normal 0 0 1
    outer loop
      vertex -43.547 1.5 26.8
      vertex -43.547 1.4 26.8
      vertex -7.62939e-08 1.4 26.8
    endloop
  endfacet
  facet normal 0 0 1
    outer loop
      vertex -43.547 1.5 26.8
      vertex -43.5959 1.39915 26.8
      vertex -43.547 1.4 26.8
    endloop
  endfacet
  facet normal -0 0 1
    outer loop
      vertex -43.5993 1.49909 26.8
      vertex -43.5959 1.39915 26.8
      vertex -43.547 1.5 26.8
    endloop
  endfacet
  facet normal 0 0 1
    outer loop
      vertex -43.5993 1.49909 26.8
      vertex -43.6447 1.39659 26.8
      vertex -43.5959 1.39915 26.8
    endloop
  endfacet
  facet normal -0 0 1
    outer loop
      vertex -43.6516 1.49635 26.8
      vertex -43.6447 1.39659 26.8
      vertex -43.5993 1.49909 26.8
    endloop
  endfacet
  facet normal 0 0 1
    outer loop
      vertex -43.6516 1.49635 26.8
      vertex -43.6933 1.39233 26.8
      vertex -43.6447 1.39659 26.8
    endloop
  endfacet
  facet normal -0 0 1
    outer loop
      vertex -43.7038 1.49178 26.8
      vertex -43.6933 1.39233 26.8
      vertex -43.6516 1.49635 26.8
    endloop
  endfacet
  facet normal 0 0 1
    outer loop
      vertex -43.7038 1.49178 26.8
      vertex -43.7418 1.38637 26.8
      vertex -43.6933 1.39233 26.8
    endloop
  endfacet
  facet normal -0 0 1
    outer loop
      vertex -43.7558 1.4854 26.8
      vertex -43.7418 1.38637 26.8
      vertex -43.7038 1.49178 26.8
    endloop
  endfacet
  facet normal 0 0 1
    outer loop
      vertex -43.7558 1.4854 26.8
      vertex -43.7901 1.37873 26.8
      vertex -43.7418 1.38637 26.8
    endloop
  endfacet
  facet normal -0 0 1
    outer loop
      vertex -43.8075 1.47721 26.8
      vertex -43.7901 1.37873 26.8
      vertex -43.7558 1.4854 26.8
    endloop
  endfacet
  facet normal 0 0 1
    outer loop
      vertex -43.8075 1.47721 26.8
      vertex -43.8381 1.36941 26.8
      vertex -43.7901 1.37873 26.8
    endloop
  endfacet
  facet normal -0 0 1
    outer loop
      vertex -43.8589 1.46722 26.8
      vertex -43.8381 1.36941 26.8
      vertex -43.8075 1.47721 26.8
    endloop
  endfacet
  facet normal 0 0 1
    outer loop
      vertex -43.8589 1.46722 26.8
      vertex -43.8857 1.35841 26.8
      vertex -43.8381 1.36941 26.8
    endloop
  endfacet
  facet normal -0 0 1
    outer loop
      vertex -43.9099 1.45544 26.8
      vertex -43.8857 1.35841 26.8
      vertex -43.8589 1.46722 26.8
    endloop
  endfacet
  facet normal 0 0 1
    outer loop
      vertex -43.9099 1.45544 26.8
      vertex -43.9329 1.34577 26.8
      vertex -43.8857 1.35841 26.8
    endloop
  endfacet
  facet normal -0 0 1
    outer loop
      vertex -43.9605 1.44189 26.8
      vertex -43.9329 1.34577 26.8
      vertex -43.9099 1.45544 26.8
    endloop
  endfacet
  facet normal 0 0 1
    outer loop
      vertex -43.9605 1.44189 26.8
      vertex -43.9796 1.33148 26.8
      vertex -43.9329 1.34577 26.8
    endloop
  endfacet
  facet normal -0 0 1
    outer loop
      vertex -44.0105 1.42658 26.8
      vertex -43.9796 1.33148 26.8
      vertex -43.9605 1.44189 26.8
    endloop
  endfacet
  facet normal 0 0 1
    outer loop
      vertex -44.0105 1.42658 26.8
      vertex -44.0258 1.31557 26.8
      vertex -43.9796 1.33148 26.8
    endloop
  endfacet
  facet normal -0 0 1
    outer loop
      vertex -44.06 1.40954 26.8
      vertex -44.0258 1.31557 26.8
      vertex -44.0105 1.42658 26.8
    endloop
  endfacet
  facet normal 0 0 1
    outer loop
      vertex -44.06 1.40954 26.8
      vertex -44.0714 1.29806 26.8
      vertex -44.0258 1.31557 26.8
    endloop
  endfacet
  facet normal -0 0 1
    outer loop
      vertex -44.1089 1.39078 26.8
      vertex -44.0714 1.29806 26.8
      vertex -44.06 1.40954 26.8
    endloop
  endfacet
  facet normal 0 0 1
    outer loop
      vertex -44.1089 1.39078 26.8
      vertex -44.1164 1.27896 26.8
      vertex -44.0714 1.29806 26.8
    endloop
  endfacet
  facet normal -0 0 1
    outer loop
      vertex -44.1571 1.37032 26.8
      vertex -44.1164 1.27896 26.8
      vertex -44.1089 1.39078 26.8
    endloop
  endfacet
  facet normal 0 0 1
    outer loop
      vertex -44.1571 1.37032 26.8
      vertex -44.1607 1.25831 26.8
      vertex -44.1164 1.27896 26.8
    endloop
  endfacet
  facet normal -0 0 1
    outer loop
      vertex -44.2046 1.34819 26.8
      vertex -44.1607 1.25831 26.8
      vertex -44.1571 1.37032 26.8
    endloop
  endfacet
  facet normal 0 0 1
    outer loop
      vertex -44.1607 1.25831 26.8
      vertex -44.2046 1.34819 26.8
      vertex -44.2043 1.23613 26.8
    endloop
  endfacet
  facet normal -0 0 1
    outer loop
      vertex -44.2512 1.32442 26.8
      vertex -44.2043 1.23613 26.8
      vertex -44.2046 1.34819 26.8
    endloop
  endfacet
  facet normal 0 0 1
    outer loop
      vertex -44.2043 1.23613 26.8
      vertex -44.2512 1.32442 26.8
      vertex -44.247 1.21243 26.8
    endloop
  endfacet
  facet normal -0 0 1
    outer loop
      vertex -44.297 1.29904 26.8
      vertex -44.247 1.21243 26.8
      vertex -44.2512 1.32442 26.8
    endloop
  endfacet
  facet normal 0 0 1
    outer loop
      vertex -44.247 1.21243 26.8
      vertex -44.297 1.29904 26.8
      vertex -44.2889 1.18727 26.8
    endloop
  endfacet
  facet normal -0 0 1
    outer loop
      vertex -44.3419 1.27207 26.8
      vertex -44.2889 1.18727 26.8
      vertex -44.297 1.29904 26.8
    endloop
  endfacet
  facet normal 0 0 1
    outer loop
      vertex -44.2889 1.18727 26.8
      vertex -44.3419 1.27207 26.8
      vertex -44.3299 1.16065 26.8
    endloop
  endfacet
  facet normal -0 0 1
    outer loop
      vertex -44.3858 1.24356 26.8
      vertex -44.3299 1.16065 26.8
      vertex -44.3419 1.27207 26.8
    endloop
  endfacet
  facet normal 0 0 1
    outer loop
      vertex -44.3299 1.16065 26.8
      vertex -44.3858 1.24356 26.8
      vertex -44.3699 1.13262 26.8
    endloop
  endfacet
  facet normal -0 0 1
    outer loop
      vertex -44.4287 1.21352 26.8
      vertex -44.3699 1.13262 26.8
      vertex -44.3858 1.24356 26.8
    endloop
  endfacet
  facet normal 0 0 1
    outer loop
      vertex -44.3699 1.13262 26.8
      vertex -44.4287 1.21352 26.8
      vertex -44.4089 1.10321 26.8
    endloop
  endfacet
  facet normal -0 0 1
    outer loop
      vertex -44.4705 1.18202 26.8
      vertex -44.4089 1.10321 26.8
      vertex -44.4287 1.21352 26.8
    endloop
  endfacet
  facet normal 0 0 1
    outer loop
      vertex -44.4089 1.10321 26.8
      vertex -44.4705 1.18202 26.8
      vertex -44.4469 1.07246 26.8
    endloop
  endfacet
  facet normal -0 0 1
    outer loop
      vertex -44.5112 1.14907 26.8
      vertex -44.4469 1.07246 26.8
      vertex -44.4705 1.18202 26.8
    endloop
  endfacet
  facet normal 0 0 1
    outer loop
      vertex -44.4469 1.07246 26.8
      vertex -44.5112 1.14907 26.8
      vertex -44.4838 1.0404 26.8
    endloop
  endfacet
  facet normal -0 0 1
    outer loop
      vertex -44.5507 1.11472 26.8
      vertex -44.4838 1.0404 26.8
      vertex -44.5112 1.14907 26.8
    endloop
  endfacet
  facet normal 0 0 1
    outer loop
      vertex -44.4838 1.0404 26.8
      vertex -44.5507 1.11472 26.8
      vertex -44.5195 1.00708 26.8
    endloop
  endfacet
  facet normal -0 0 1
    outer loop
      vertex -44.589 1.07901 26.8
      vertex -44.5195 1.00708 26.8
      vertex -44.5507 1.11472 26.8
    endloop
  endfacet
  facet normal 0 0 1
    outer loop
      vertex -44.5195 1.00708 26.8
      vertex -44.589 1.07901 26.8
      vertex -44.5541 0.972521 26.8
    endloop
  endfacet
  facet normal -0 0 1
    outer loop
      vertex -44.626 1.04199 26.8
      vertex -44.5541 0.972521 26.8
      vertex -44.589 1.07901 26.8
    endloop
  endfacet
  facet normal 0 0 1
    outer loop
      vertex -44.5541 0.972521 26.8
      vertex -44.626 1.04199 26.8
      vertex -44.5874 0.936783 26.8
    endloop
  endfacet
  facet normal -0 0 1
    outer loop
      vertex -44.6617 1.0037 26.8
      vertex -44.5874 0.936783 26.8
      vertex -44.626 1.04199 26.8
    endloop
  endfacet
  facet normal 0 0 1
    outer loop
      vertex -44.5874 0.936783 26.8
      vertex -44.6617 1.0037 26.8
      vertex -44.6195 0.899902 26.8
    endloop
  endfacet
  facet normal -0 0 1
    outer loop
      vertex -44.6961 0.964181 26.8
      vertex -44.6195 0.899902 26.8
      vertex -44.6617 1.0037 26.8
    endloop
  endfacet
  facet normal 0 0 1
    outer loop
      vertex -44.6195 0.899902 26.8
      vertex -44.6961 0.964181 26.8
      vertex -44.6502 0.861925 26.8
    endloop
  endfacet
  facet normal -0 0 1
    outer loop
      vertex -44.729 0.923491 26.8
      vertex -44.6502 0.861925 26.8
      vertex -44.6961 0.964181 26.8
    endloop
  endfacet
  facet normal 0 0 1
    outer loop
      vertex -44.6502 0.861925 26.8
      vertex -44.729 0.923491 26.8
      vertex -44.6796 0.822899 26.8
    endloop
  endfacet
  facet normal -0 0 1
    outer loop
      vertex -44.7605 0.881678 26.8
      vertex -44.6796 0.822899 26.8
      vertex -44.729 0.923491 26.8
    endloop
  endfacet
  facet normal 0 0 1
    outer loop
      vertex -44.6796 0.822899 26.8
      vertex -44.7605 0.881678 26.8
      vertex -44.7077 0.782869 26.8
    endloop
  endfacet
  facet normal -0 0 1
    outer loop
      vertex -44.7906 0.838789 26.8
      vertex -44.7077 0.782869 26.8
      vertex -44.7605 0.881678 26.8
    endloop
  endfacet
  facet normal 0 0 1
    outer loop
      vertex -44.7077 0.782869 26.8
      vertex -44.7906 0.838789 26.8
      vertex -44.7343 0.741886 26.8
    endloop
  endfacet
  facet normal -0 0 1
    outer loop
      vertex -44.8191 0.794878 26.8
      vertex -44.7343 0.741886 26.8
      vertex -44.7906 0.838789 26.8
    endloop
  endfacet
  facet normal 0 0 1
    outer loop
      vertex -44.7343 0.741886 26.8
      vertex -44.8191 0.794878 26.8
      vertex -44.7594 0.7 26.8
    endloop
  endfacet
  facet normal -0 0 1
    outer loop
      vertex -44.846 0.75 26.8
      vertex -44.7594 0.7 26.8
      vertex -44.8191 0.794878 26.8
    endloop
  endfacet
  facet normal 0 0 1
    outer loop
      vertex -44.7594 0.7 26.8
      vertex -44.846 0.75 26.8
      vertex -44.7831 0.65726 26.8
    endloop
  endfacet
  facet normal -0 0 1
    outer loop
      vertex -44.8714 0.704206 26.8
      vertex -44.7831 0.65726 26.8
      vertex -44.846 0.75 26.8
    endloop
  endfacet
  facet normal 0 0 1
    outer loop
      vertex -44.7831 0.65726 26.8
      vertex -44.8714 0.704206 26.8
      vertex -44.8053 0.613719 26.8
    endloop
  endfacet
  facet normal -0 0 1
    outer loop
      vertex -44.8952 0.657557 26.8
      vertex -44.8053 0.613719 26.8
      vertex -44.8714 0.704206 26.8
    endloop
  endfacet
  facet normal 0 0 1
    outer loop
      vertex -44.8053 0.613719 26.8
      vertex -44.8952 0.657557 26.8
      vertex -44.826 0.56943 26.8
    endloop
  endfacet
  facet normal -0 0 1
    outer loop
      vertex -44.9173 0.610105 26.8
      vertex -44.826 0.56943 26.8
      vertex -44.8952 0.657557 26.8
    endloop
  endfacet
  facet normal 0 0 1
    outer loop
      vertex -44.826 0.56943 26.8
      vertex -44.9173 0.610105 26.8
      vertex -44.8451 0.524448 26.8
    endloop
  endfacet
  facet normal -0 0 1
    outer loop
      vertex -44.9378 0.56191 26.8
      vertex -44.8451 0.524448 26.8
      vertex -44.9173 0.610105 26.8
    endloop
  endfacet
  facet normal 0 0 1
    outer loop
      vertex -44.8451 0.524448 26.8
      vertex -44.9378 0.56191 26.8
      vertex -44.8626 0.478827 26.8
    endloop
  endfacet
  facet normal -0 0 1
    outer loop
      vertex -44.9565 0.51303 26.8
      vertex -44.8626 0.478827 26.8
      vertex -44.9378 0.56191 26.8
    endloop
  endfacet
  facet normal 0 0 1
    outer loop
      vertex -44.8626 0.478827 26.8
      vertex -44.9565 0.51303 26.8
      vertex -44.8785 0.432623 26.8
    endloop
  endfacet
  facet normal -0 0 1
    outer loop
      vertex -44.9736 0.463525 26.8
      vertex -44.8785 0.432623 26.8
      vertex -44.9565 0.51303 26.8
    endloop
  endfacet
  facet normal 0 0 1
    outer loop
      vertex -44.8785 0.432623 26.8
      vertex -44.9736 0.463525 26.8
      vertex -44.8928 0.385892 26.8
    endloop
  endfacet
  facet normal -0 0 1
    outer loop
      vertex -44.9889 0.413456 26.8
      vertex -44.8928 0.385892 26.8
      vertex -44.9736 0.463525 26.8
    endloop
  endfacet
  facet normal 0 0 1
    outer loop
      vertex -44.8928 0.385892 26.8
      vertex -44.9889 0.413456 26.8
      vertex -44.9054 0.33869 26.8
    endloop
  endfacet
  facet normal -0 0 1
    outer loop
      vertex -45.0024 0.362883 26.8
      vertex -44.9054 0.33869 26.8
      vertex -44.9889 0.413456 26.8
    endloop
  endfacet
  facet normal 0 0 1
    outer loop
      vertex -44.9054 0.33869 26.8
      vertex -45.0024 0.362883 26.8
      vertex -44.9143 0.299999 26.8
    endloop
  endfacet
  facet normal -0 0 1
    outer loop
      vertex -45.0142 0.311867 26.8
      vertex -44.9143 0.299999 26.8
      vertex -45.0024 0.362883 26.8
    endloop
  endfacet
  facet normal 0 0 1
    outer loop
      vertex -44.9143 0.299999 26.8
      vertex -45.0142 0.311867 26.8
      vertex -45.0165 0.299999 26.8
    endloop
  endfacet
endsolid OpenSCAD_Model
