solid OpenSCAD_Model
  facet normal 1 -0 0
    outer loop
      vertex -7.62939e-08 0 26.8
      vertex -7.62939e-08 1 0
      vertex -7.62939e-08 1 26.8
    endloop
  endfacet
  facet normal 1 0 0
    outer loop
      vertex -7.62939e-08 1 0
      vertex -7.62939e-08 0 26.8
      vertex -7.62939e-08 0 0
    endloop
  endfacet
  facet normal 0 1 0
    outer loop
      vertex -27.706 1 23.99
      vertex -34.547 1 8
      vertex -34.547 1 23
    endloop
  endfacet
  facet normal 0 1 0
    outer loop
      vertex -34.547 1 8
      vertex -27.706 1 0
      vertex -43.547 1 8
    endloop
  endfacet
  facet normal 0 1 -0
    outer loop
      vertex -27.706 1 0
      vertex -34.547 1 8
      vertex -27.706 1 23.99
    endloop
  endfacet
  facet normal 0 1 0
    outer loop
      vertex -27.706 1 23.99
      vertex -7.62939e-08 1 26.8
      vertex -9.706 1 23.99
    endloop
  endfacet
  facet normal 0 1 -0
    outer loop
      vertex -7.62939e-08 1 0
      vertex -9.706 1 23.99
      vertex -7.62939e-08 1 26.8
    endloop
  endfacet
  facet normal 0 1 0
    outer loop
      vertex -9.706 1 23.99
      vertex -7.62939e-08 1 0
      vertex -9.706 1 0
    endloop
  endfacet
  facet normal 0 1 0
    outer loop
      vertex -7.62939e-08 1 26.8
      vertex -27.706 1 23.99
      vertex -52.33 1 26.8
    endloop
  endfacet
  facet normal 0 1 -0
    outer loop
      vertex -34.547 1 23
      vertex -52.33 1 26.8
      vertex -27.706 1 23.99
    endloop
  endfacet
  facet normal 0 1 -0
    outer loop
      vertex -43.547 1 23
      vertex -52.33 1 26.8
      vertex -34.547 1 23
    endloop
  endfacet
  facet normal 0 1 -0
    outer loop
      vertex -43.547 1 8
      vertex -52.33 1 26.8
      vertex -43.547 1 23
    endloop
  endfacet
  facet normal 0 1 0
    outer loop
      vertex -43.547 1 8
      vertex -52.33 1 0
      vertex -52.33 1 26.8
    endloop
  endfacet
  facet normal 0 1 0
    outer loop
      vertex -52.33 1 0
      vertex -43.547 1 8
      vertex -27.706 1 0
    endloop
  endfacet
  facet normal 0 -1 0
    outer loop
      vertex -52.33 0 26.8
      vertex -27.706 0 23.99
      vertex -7.62939e-08 0 26.8
    endloop
  endfacet
  facet normal 0 -1 0
    outer loop
      vertex -34.547 0 23
      vertex -52.33 0 26.8
      vertex -43.547 0 23
    endloop
  endfacet
  facet normal 0 -1 0
    outer loop
      vertex -52.33 0 26.8
      vertex -43.547 0 8
      vertex -43.547 0 23
    endloop
  endfacet
  facet normal 0 -1 0
    outer loop
      vertex -27.706 0 0
      vertex -43.547 0 8
      vertex -52.33 0 0
    endloop
  endfacet
  facet normal 0 -1 0
    outer loop
      vertex -52.33 0 0
      vertex -43.547 0 8
      vertex -52.33 0 26.8
    endloop
  endfacet
  facet normal 0 -1 0
    outer loop
      vertex -9.706 0 23.99
      vertex -7.62939e-08 0 26.8
      vertex -27.706 0 23.99
    endloop
  endfacet
  facet normal 0 -1 0
    outer loop
      vertex -7.62939e-08 0 0
      vertex -9.706 0 23.99
      vertex -9.706 0 0
    endloop
  endfacet
  facet normal 0 -1 0
    outer loop
      vertex -9.706 0 23.99
      vertex -7.62939e-08 0 0
      vertex -7.62939e-08 0 26.8
    endloop
  endfacet
  facet normal 0 -1 0
    outer loop
      vertex -52.33 0 26.8
      vertex -34.547 0 23
      vertex -27.706 0 23.99
    endloop
  endfacet
  facet normal 0 -1 0
    outer loop
      vertex -34.547 0 8
      vertex -27.706 0 23.99
      vertex -34.547 0 23
    endloop
  endfacet
  facet normal 0 -1 0
    outer loop
      vertex -34.547 0 8
      vertex -27.706 0 0
      vertex -27.706 0 23.99
    endloop
  endfacet
  facet normal 0 -1 0
    outer loop
      vertex -43.547 0 8
      vertex -27.706 0 0
      vertex -34.547 0 8
    endloop
  endfacet
  facet normal -1 0 0
    outer loop
      vertex -52.33 0 0
      vertex -52.33 1 26.8
      vertex -52.33 1 0
    endloop
  endfacet
  facet normal -1 -0 0
    outer loop
      vertex -52.33 1 26.8
      vertex -52.33 0 0
      vertex -52.33 0 26.8
    endloop
  endfacet
  facet normal -0 0 1
    outer loop
      vertex -52.33 1 26.8
      vertex -7.62939e-08 0 26.8
      vertex -7.62939e-08 1 26.8
    endloop
  endfacet
  facet normal 0 0 1
    outer loop
      vertex -7.62939e-08 0 26.8
      vertex -52.33 1 26.8
      vertex -52.33 0 26.8
    endloop
  endfacet
  facet normal 0 0 -1
    outer loop
      vertex -52.33 0 0
      vertex -27.706 1 0
      vertex -27.706 0 0
    endloop
  endfacet
  facet normal -0 0 -1
    outer loop
      vertex -27.706 1 0
      vertex -52.33 0 0
      vertex -52.33 1 0
    endloop
  endfacet
  facet normal 0 0 -1
    outer loop
      vertex -9.706 0 0
      vertex -7.62939e-08 1 0
      vertex -7.62939e-08 0 0
    endloop
  endfacet
  facet normal -0 0 -1
    outer loop
      vertex -7.62939e-08 1 0
      vertex -9.706 0 0
      vertex -9.706 1 0
    endloop
  endfacet
  facet normal -1 0 0
    outer loop
      vertex -34.547 0 8
      vertex -34.547 1 23
      vertex -34.547 1 8
    endloop
  endfacet
  facet normal -1 -0 0
    outer loop
      vertex -34.547 1 23
      vertex -34.547 0 8
      vertex -34.547 0 23
    endloop
  endfacet
  facet normal 1 -0 0
    outer loop
      vertex -43.547 0 23
      vertex -43.547 1 8
      vertex -43.547 1 23
    endloop
  endfacet
  facet normal 1 0 0
    outer loop
      vertex -43.547 1 8
      vertex -43.547 0 23
      vertex -43.547 0 8
    endloop
  endfacet
  facet normal 0 0 -1
    outer loop
      vertex -43.547 0 23
      vertex -34.547 1 23
      vertex -34.547 0 23
    endloop
  endfacet
  facet normal -0 0 -1
    outer loop
      vertex -34.547 1 23
      vertex -43.547 0 23
      vertex -43.547 1 23
    endloop
  endfacet
  facet normal -0 0 1
    outer loop
      vertex -43.547 1 8
      vertex -34.547 0 8
      vertex -34.547 1 8
    endloop
  endfacet
  facet normal 0 0 1
    outer loop
      vertex -34.547 0 8
      vertex -43.547 1 8
      vertex -43.547 0 8
    endloop
  endfacet
  facet normal -1 0 0
    outer loop
      vertex -9.706 0 0
      vertex -9.706 1 23.99
      vertex -9.706 1 0
    endloop
  endfacet
  facet normal -1 -0 0
    outer loop
      vertex -9.706 1 23.99
      vertex -9.706 0 0
      vertex -9.706 0 23.99
    endloop
  endfacet
  facet normal 1 -0 0
    outer loop
      vertex -27.706 0 23.99
      vertex -27.706 1 0
      vertex -27.706 1 23.99
    endloop
  endfacet
  facet normal 1 0 0
    outer loop
      vertex -27.706 1 0
      vertex -27.706 0 23.99
      vertex -27.706 0 0
    endloop
  endfacet
  facet normal 0 0 -1
    outer loop
      vertex -27.706 0 23.99
      vertex -9.706 1 23.99
      vertex -9.706 0 23.99
    endloop
  endfacet
  facet normal -0 0 -1
    outer loop
      vertex -9.706 1 23.99
      vertex -27.706 0 23.99
      vertex -27.706 1 23.99
    endloop
  endfacet
endsolid OpenSCAD_Model
