solid OpenSCAD_Model
  facet normal -1 0 0
    outer loop
      vertex 5.02 9.18 0
      vertex 5.02 12 3.96826
      vertex 5.02 12 0
    endloop
  endfacet
  facet normal -1 -0 0
    outer loop
      vertex 5.02 12 3.96826
      vertex 5.02 9.18 0
      vertex 5.02 9.18 3.96826
    endloop
  endfacet
  facet normal -1 0 0
    outer loop
      vertex 5.02 6.18 0
      vertex 5.02 9 3.96826
      vertex 5.02 9 0
    endloop
  endfacet
  facet normal -1 -0 0
    outer loop
      vertex 5.02 9 3.96826
      vertex 5.02 6.18 0
      vertex 5.02 6.18 3.96826
    endloop
  endfacet
  facet normal -1 0 0
    outer loop
      vertex 5.02 12.18 0
      vertex 5.02 16 3.98425
      vertex 5.02 16 0
    endloop
  endfacet
  facet normal -1 -0 0
    outer loop
      vertex 5.02 16 3.98425
      vertex 5.02 12.18 0
      vertex 5.02 12.18 3.98425
    endloop
  endfacet
  facet normal -1 0 0
    outer loop
      vertex 5.02 20.18 0
      vertex 5.02 23.4 3.9763
      vertex 5.02 23.4 0
    endloop
  endfacet
  facet normal -1 -0 0
    outer loop
      vertex 5.02 23.4 3.9763
      vertex 5.02 20.18 0
      vertex 5.02 20.18 3.9763
    endloop
  endfacet
  facet normal -1 0 0
    outer loop
      vertex 5.02 16.18 0
      vertex 5.02 20 3.98425
      vertex 5.02 20 0
    endloop
  endfacet
  facet normal -1 -0 0
    outer loop
      vertex 5.02 20 3.98425
      vertex 5.02 16.18 0
      vertex 5.02 16.18 3.98425
    endloop
  endfacet
  facet normal -1 0 0
    outer loop
      vertex 5.02 23.58 0
      vertex 5.02 26.62 3.9763
      vertex 5.02 26.62 0
    endloop
  endfacet
  facet normal -1 -0 0
    outer loop
      vertex 5.02 26.62 3.9763
      vertex 5.02 23.58 0
      vertex 5.02 23.58 3.9763
    endloop
  endfacet
  facet normal -1 0 0
    outer loop
      vertex 5.02 0 0
      vertex 5.02 6 4
      vertex 5.02 6 0
    endloop
  endfacet
  facet normal -1 -0 0
    outer loop
      vertex 5.02 6 4
      vertex 5.02 0 0
      vertex 5.02 0 4
    endloop
  endfacet
  facet normal -0 0 1
    outer loop
      vertex 0 26.8 4
      vertex 0.179999 26.62 4
      vertex 0.179999 26.8 4
    endloop
  endfacet
  facet normal 0 0 1
    outer loop
      vertex 0.179999 26.62 4
      vertex 0 26.8 4
      vertex 0.179999 23.58 4
    endloop
  endfacet
  facet normal 0 0 1
    outer loop
      vertex 0.179999 23.58 4
      vertex 0 26.8 4
      vertex 0.179999 23.4 4
    endloop
  endfacet
  facet normal 0 0 1
    outer loop
      vertex 0.179999 23.4 4
      vertex 0 26.8 4
      vertex 0.179999 20.18 4
    endloop
  endfacet
  facet normal 0 0 1
    outer loop
      vertex 0.179999 20.18 4
      vertex 0 26.8 4
      vertex 0.179999 20 4
    endloop
  endfacet
  facet normal 0 0 1
    outer loop
      vertex 0.179999 20 4
      vertex 0 26.8 4
      vertex 0.179999 16.18 4
    endloop
  endfacet
  facet normal 0 0 1
    outer loop
      vertex 0.179999 16.18 4
      vertex 0 26.8 4
      vertex 0.179999 16 4
    endloop
  endfacet
  facet normal 0 0 1
    outer loop
      vertex 0.179999 16 4
      vertex 0 26.8 4
      vertex 0.179999 12.18 4
    endloop
  endfacet
  facet normal 0 0 1
    outer loop
      vertex 0.179999 12.18 4
      vertex 0 26.8 4
      vertex 0.179999 12 4
    endloop
  endfacet
  facet normal 0 0 1
    outer loop
      vertex 0.179999 12 4
      vertex 0 26.8 4
      vertex 0.179999 9.18 4
    endloop
  endfacet
  facet normal 0 0 1
    outer loop
      vertex 0.179999 9.18 4
      vertex 0 26.8 4
      vertex 0.179999 9 4
    endloop
  endfacet
  facet normal 0 0 1
    outer loop
      vertex 0 0 4
      vertex 0.179999 9 4
      vertex 0 26.8 4
    endloop
  endfacet
  facet normal 0 0 1
    outer loop
      vertex 0.179999 9 4
      vertex 0 0 4
      vertex 0.179999 6.18 4
    endloop
  endfacet
  facet normal 0 0 1
    outer loop
      vertex 0.179999 6.18 4
      vertex 0 0 4
      vertex 0.179999 6 4
    endloop
  endfacet
  facet normal 0 0 1
    outer loop
      vertex 0.179999 6 4
      vertex 0 0 4
      vertex 0.179999 0 4
    endloop
  endfacet
  facet normal -0 0 1
    outer loop
      vertex 0.179999 6.18 4
      vertex 2.6 6 4
      vertex 2.6 6.18 4
    endloop
  endfacet
  facet normal 0 0 1
    outer loop
      vertex 2.6 6 4
      vertex 0.179999 6.18 4
      vertex 0.179999 6 4
    endloop
  endfacet
  facet normal -0 0 1
    outer loop
      vertex 0.179999 9.18 4
      vertex 2.6 9 4
      vertex 2.6 9.18 4
    endloop
  endfacet
  facet normal 0 0 1
    outer loop
      vertex 2.6 9 4
      vertex 0.179999 9.18 4
      vertex 0.179999 9 4
    endloop
  endfacet
  facet normal -0 0 1
    outer loop
      vertex 0.179999 12.18 4
      vertex 2.6 12 4
      vertex 2.6 12.18 4
    endloop
  endfacet
  facet normal 0 0 1
    outer loop
      vertex 2.6 12 4
      vertex 0.179999 12.18 4
      vertex 0.179999 12 4
    endloop
  endfacet
  facet normal -0 0 1
    outer loop
      vertex 0.179999 16.18 4
      vertex 2.6 16 4
      vertex 2.6 16.18 4
    endloop
  endfacet
  facet normal 0 0 1
    outer loop
      vertex 2.6 16 4
      vertex 0.179999 16.18 4
      vertex 0.179999 16 4
    endloop
  endfacet
  facet normal 0 0 1
    outer loop
      vertex 5.01365 20.18 4
      vertex 2.78 20 4
      vertex 5.01365 20 4
    endloop
  endfacet
  facet normal 0 0 1
    outer loop
      vertex 2.6 16.18 4
      vertex 2.78 16.18 4
      vertex 2.78 20 4
    endloop
  endfacet
  facet normal 0 0 1
    outer loop
      vertex 2.78 16.18 4
      vertex 2.6 16.18 4
      vertex 2.78 16 4
    endloop
  endfacet
  facet normal 0 0 1
    outer loop
      vertex 2.78 16 4
      vertex 2.6 16 4
      vertex 2.78 12.18 4
    endloop
  endfacet
  facet normal 0 0 1
    outer loop
      vertex 2.6 12.18 4
      vertex 2.78 12.18 4
      vertex 2.6 16 4
    endloop
  endfacet
  facet normal 0 0 1
    outer loop
      vertex 2.78 12.18 4
      vertex 2.6 12.18 4
      vertex 2.78 12 4
    endloop
  endfacet
  facet normal 0 0 1
    outer loop
      vertex 2.6 12 4
      vertex 2.78 12 4
      vertex 2.6 12.18 4
    endloop
  endfacet
  facet normal 0 0 1
    outer loop
      vertex 2.6 9.18 4
      vertex 2.78 9.18 4
      vertex 2.6 12 4
    endloop
  endfacet
  facet normal 0 0 1
    outer loop
      vertex 2.78 9.18 4
      vertex 2.6 9.18 4
      vertex 2.78 9 4
    endloop
  endfacet
  facet normal 0 0 1
    outer loop
      vertex 2.6 16.18 4
      vertex 2.78 20 4
      vertex 2.6 20 4
    endloop
  endfacet
  facet normal 0 0 1
    outer loop
      vertex 5.01365 20.18 4
      vertex 2.6 20 4
      vertex 2.78 20 4
    endloop
  endfacet
  facet normal -0 0 1
    outer loop
      vertex 0.179999 20.18 4
      vertex 2.6 20 4
      vertex 5.01365 20.18 4
    endloop
  endfacet
  facet normal 0 0 1
    outer loop
      vertex 2.6 20 4
      vertex 0.179999 20.18 4
      vertex 0.179999 20 4
    endloop
  endfacet
  facet normal -0 0 1
    outer loop
      vertex 2.78 16.18 4
      vertex 5.01722 16 4
      vertex 5.01722 16.18 4
    endloop
  endfacet
  facet normal 0 0 1
    outer loop
      vertex 5.01722 16 4
      vertex 2.78 16.18 4
      vertex 2.78 16 4
    endloop
  endfacet
  facet normal 0 0 1
    outer loop
      vertex 5.01722 12.18 4
      vertex 5.00845 12 4
      vertex 5.01722 12 4
    endloop
  endfacet
  facet normal -0 0 1
    outer loop
      vertex 2.78 12.18 4
      vertex 5.00845 12 4
      vertex 5.01722 12.18 4
    endloop
  endfacet
  facet normal 0 0 1
    outer loop
      vertex 5.00845 12 4
      vertex 2.78 12.18 4
      vertex 2.78 12 4
    endloop
  endfacet
  facet normal -0 0 1
    outer loop
      vertex 2.78 9.18 4
      vertex 5.00845 9 4
      vertex 5.00845 9.18 4
    endloop
  endfacet
  facet normal 0 0 1
    outer loop
      vertex 5.00845 9 4
      vertex 2.78 9.18 4
      vertex 2.78 9 4
    endloop
  endfacet
  facet normal -0 0 1
    outer loop
      vertex 2.78 6.18 4
      vertex 5.00845 6 4
      vertex 5.00845 6.18 4
    endloop
  endfacet
  facet normal 0 0 1
    outer loop
      vertex 5.00845 6 4
      vertex 2.78 6.18 4
      vertex 2.78 6 4
    endloop
  endfacet
  facet normal 0 0 1
    outer loop
      vertex 2.78 16 4
      vertex 2.6 16.18 4
      vertex 2.6 16 4
    endloop
  endfacet
  facet normal 0 0 1
    outer loop
      vertex 2.78 12 4
      vertex 2.6 12 4
      vertex 2.78 9.18 4
    endloop
  endfacet
  facet normal 0 0 1
    outer loop
      vertex 2.6 9 4
      vertex 2.78 9 4
      vertex 2.6 9.18 4
    endloop
  endfacet
  facet normal 0 0 1
    outer loop
      vertex 2.78 9 4
      vertex 2.6 9 4
      vertex 2.78 6.18 4
    endloop
  endfacet
  facet normal 0 0 1
    outer loop
      vertex 2.6 6.18 4
      vertex 2.78 6.18 4
      vertex 2.6 9 4
    endloop
  endfacet
  facet normal 0 0 1
    outer loop
      vertex 2.78 6.18 4
      vertex 2.6 6.18 4
      vertex 2.78 6 4
    endloop
  endfacet
  facet normal 0 0 1
    outer loop
      vertex 2.6 6 4
      vertex 2.78 6 4
      vertex 2.6 6.18 4
    endloop
  endfacet
  facet normal 0 0 1
    outer loop
      vertex 2.78 6 4
      vertex 2.6 6 4
      vertex 2.78 0 4
    endloop
  endfacet
  facet normal 0 0 1
    outer loop
      vertex 2.78 0 4
      vertex 2.6 6 4
      vertex 2.6 0 4
    endloop
  endfacet
  facet normal -0 0 1
    outer loop
      vertex 0.179999 26.8 4
      vertex 5.01365 26.62 4
      vertex 5.01365 26.8 4
    endloop
  endfacet
  facet normal 0 0 1
    outer loop
      vertex 5.01365 26.62 4
      vertex 0.179999 26.8 4
      vertex 0.179999 26.62 4
    endloop
  endfacet
  facet normal -0 0 1
    outer loop
      vertex 5.02 6 4
      vertex 5.2 0 4
      vertex 5.2 6 4
    endloop
  endfacet
  facet normal 0 0 1
    outer loop
      vertex 5.2 0 4
      vertex 5.02 6 4
      vertex 5.02 0 4
    endloop
  endfacet
  facet normal -0 0 1
    outer loop
      vertex 0.179999 23.58 4
      vertex 5.01365 23.4 4
      vertex 5.01365 23.58 4
    endloop
  endfacet
  facet normal 0 0 1
    outer loop
      vertex 5.01365 23.4 4
      vertex 0.179999 23.58 4
      vertex 0.179999 23.4 4
    endloop
  endfacet
  facet normal 0 0 -1
    outer loop
      vertex 0 0 0
      vertex 0.179999 6 0
      vertex 0.179999 0 0
    endloop
  endfacet
  facet normal -0 0 -1
    outer loop
      vertex 0.179999 6 0
      vertex 0 0 0
      vertex 0.179999 6.18 0
    endloop
  endfacet
  facet normal -0 0 -1
    outer loop
      vertex 0.179999 6.18 0
      vertex 0 0 0
      vertex 0.179999 9 0
    endloop
  endfacet
  facet normal -0 0 -1
    outer loop
      vertex 0.179999 9 0
      vertex 0 0 0
      vertex 0.179999 9.18 0
    endloop
  endfacet
  facet normal -0 0 -1
    outer loop
      vertex 0.179999 9.18 0
      vertex 0 0 0
      vertex 0.179999 12 0
    endloop
  endfacet
  facet normal -0 0 -1
    outer loop
      vertex 0.179999 12 0
      vertex 0 0 0
      vertex 0.179999 12.18 0
    endloop
  endfacet
  facet normal -0 0 -1
    outer loop
      vertex 0.179999 12.18 0
      vertex 0 0 0
      vertex 0.179999 16 0
    endloop
  endfacet
  facet normal -0 0 -1
    outer loop
      vertex 0.179999 16 0
      vertex 0 0 0
      vertex 0.179999 16.18 0
    endloop
  endfacet
  facet normal 0 0 -1
    outer loop
      vertex 0 26.8 0
      vertex 0.179999 16.18 0
      vertex 0 0 0
    endloop
  endfacet
  facet normal 0 0 -1
    outer loop
      vertex 0.179999 16.18 0
      vertex 0 26.8 0
      vertex 0.179999 20 0
    endloop
  endfacet
  facet normal 0 0 -1
    outer loop
      vertex 0.179999 20 0
      vertex 0 26.8 0
      vertex 0.179999 20.18 0
    endloop
  endfacet
  facet normal 0 0 -1
    outer loop
      vertex 0.179999 20.18 0
      vertex 0 26.8 0
      vertex 0.179999 23.4 0
    endloop
  endfacet
  facet normal 0 0 -1
    outer loop
      vertex 0.179999 23.4 0
      vertex 0 26.8 0
      vertex 0.179999 23.58 0
    endloop
  endfacet
  facet normal 0 0 -1
    outer loop
      vertex 0.179999 16 0
      vertex 2.6 16.18 0
      vertex 2.6 16 0
    endloop
  endfacet
  facet normal -0 0 -1
    outer loop
      vertex 2.6 16.18 0
      vertex 0.179999 16 0
      vertex 0.179999 16.18 0
    endloop
  endfacet
  facet normal 0 0 -1
    outer loop
      vertex 0.179999 12 0
      vertex 2.6 12.18 0
      vertex 2.6 12 0
    endloop
  endfacet
  facet normal -0 0 -1
    outer loop
      vertex 2.6 12.18 0
      vertex 0.179999 12 0
      vertex 0.179999 12.18 0
    endloop
  endfacet
  facet normal 0 0 -1
    outer loop
      vertex 0.179999 9 0
      vertex 2.6 9.18 0
      vertex 2.6 9 0
    endloop
  endfacet
  facet normal -0 0 -1
    outer loop
      vertex 2.6 9.18 0
      vertex 0.179999 9 0
      vertex 0.179999 9.18 0
    endloop
  endfacet
  facet normal 0 0 -1
    outer loop
      vertex 0.179999 6 0
      vertex 2.6 6.18 0
      vertex 2.6 6 0
    endloop
  endfacet
  facet normal -0 0 -1
    outer loop
      vertex 2.6 6.18 0
      vertex 0.179999 6 0
      vertex 0.179999 6.18 0
    endloop
  endfacet
  facet normal 0 0 -1
    outer loop
      vertex 2.6 6 0
      vertex 2.78 6 0
      vertex 2.78 0 0
    endloop
  endfacet
  facet normal 0 0 -1
    outer loop
      vertex 2.78 6 0
      vertex 2.6 6 0
      vertex 2.78 6.18 0
    endloop
  endfacet
  facet normal 0 0 -1
    outer loop
      vertex 2.6 6.18 0
      vertex 2.78 6.18 0
      vertex 2.6 6 0
    endloop
  endfacet
  facet normal 0 0 -1
    outer loop
      vertex 2.78 6.18 0
      vertex 2.6 6.18 0
      vertex 2.78 9 0
    endloop
  endfacet
  facet normal 0 0 -1
    outer loop
      vertex 2.78 9 0
      vertex 2.6 9 0
      vertex 2.78 9.18 0
    endloop
  endfacet
  facet normal 0 0 -1
    outer loop
      vertex 2.6 9.18 0
      vertex 2.78 9.18 0
      vertex 2.6 9 0
    endloop
  endfacet
  facet normal 0 0 -1
    outer loop
      vertex 2.6 12 0
      vertex 2.78 12 0
      vertex 2.6 9.18 0
    endloop
  endfacet
  facet normal 0 0 -1
    outer loop
      vertex 2.78 12 0
      vertex 2.6 12 0
      vertex 2.78 12.18 0
    endloop
  endfacet
  facet normal 0 0 -1
    outer loop
      vertex 2.6 6 0
      vertex 2.78 0 0
      vertex 2.6 0 0
    endloop
  endfacet
  facet normal 0 0 -1
    outer loop
      vertex 0.179999 23.4 0
      vertex 5.02 23.58 0
      vertex 5.02 23.4 0
    endloop
  endfacet
  facet normal -0 0 -1
    outer loop
      vertex 5.02 23.58 0
      vertex 0.179999 23.4 0
      vertex 0.179999 23.58 0
    endloop
  endfacet
  facet normal 0 0 -1
    outer loop
      vertex 2.78 20 0
      vertex 5.02 20.18 0
      vertex 5.02 20 0
    endloop
  endfacet
  facet normal 0 0 -1
    outer loop
      vertex 2.6 9 0
      vertex 2.78 9 0
      vertex 2.6 6.18 0
    endloop
  endfacet
  facet normal 0 0 -1
    outer loop
      vertex 2.78 9.18 0
      vertex 2.6 9.18 0
      vertex 2.78 12 0
    endloop
  endfacet
  facet normal 0 0 -1
    outer loop
      vertex 2.6 12.18 0
      vertex 2.78 12.18 0
      vertex 2.6 12 0
    endloop
  endfacet
  facet normal 0 0 -1
    outer loop
      vertex 2.78 12.18 0
      vertex 2.6 12.18 0
      vertex 2.78 16 0
    endloop
  endfacet
  facet normal 0 0 -1
    outer loop
      vertex 2.6 16 0
      vertex 2.78 16 0
      vertex 2.6 12.18 0
    endloop
  endfacet
  facet normal 0 0 -1
    outer loop
      vertex 2.78 16 0
      vertex 2.6 16 0
      vertex 2.78 16.18 0
    endloop
  endfacet
  facet normal 0 0 -1
    outer loop
      vertex 2.6 16.18 0
      vertex 2.78 16.18 0
      vertex 2.6 16 0
    endloop
  endfacet
  facet normal 0 0 -1
    outer loop
      vertex 2.78 16.18 0
      vertex 2.6 16.18 0
      vertex 2.78 20 0
    endloop
  endfacet
  facet normal 0 0 -1
    outer loop
      vertex 2.6 20 0
      vertex 2.78 20 0
      vertex 2.6 16.18 0
    endloop
  endfacet
  facet normal 0 0 -1
    outer loop
      vertex 2.6 20 0
      vertex 5.02 20.18 0
      vertex 2.78 20 0
    endloop
  endfacet
  facet normal 0 0 -1
    outer loop
      vertex 0.179999 20.18 0
      vertex 2.6 20 0
      vertex 0.179999 20 0
    endloop
  endfacet
  facet normal 0 0 -1
    outer loop
      vertex 2.6 20 0
      vertex 0.179999 20.18 0
      vertex 5.02 20.18 0
    endloop
  endfacet
  facet normal 0 0 -1
    outer loop
      vertex 2.78 16 0
      vertex 5.02 16.18 0
      vertex 5.02 16 0
    endloop
  endfacet
  facet normal -0 0 -1
    outer loop
      vertex 5.02 16.18 0
      vertex 2.78 16 0
      vertex 2.78 16.18 0
    endloop
  endfacet
  facet normal 0 0 -1
    outer loop
      vertex 2.78 12 0
      vertex 5.02 12.18 0
      vertex 5.02 12 0
    endloop
  endfacet
  facet normal -0 0 -1
    outer loop
      vertex 5.02 12.18 0
      vertex 2.78 12 0
      vertex 2.78 12.18 0
    endloop
  endfacet
  facet normal 0 0 -1
    outer loop
      vertex 2.78 9 0
      vertex 5.02 9.18 0
      vertex 5.02 9 0
    endloop
  endfacet
  facet normal -0 0 -1
    outer loop
      vertex 5.02 9.18 0
      vertex 2.78 9 0
      vertex 2.78 9.18 0
    endloop
  endfacet
  facet normal 0 0 -1
    outer loop
      vertex 2.78 6 0
      vertex 5.02 6.18 0
      vertex 5.02 6 0
    endloop
  endfacet
  facet normal -0 0 -1
    outer loop
      vertex 5.02 6.18 0
      vertex 2.78 6 0
      vertex 2.78 6.18 0
    endloop
  endfacet
  facet normal 0 0 -1
    outer loop
      vertex 5.02 6 0
      vertex 5.2 0 0
      vertex 5.02 0 0
    endloop
  endfacet
  facet normal 0 0 -1
    outer loop
      vertex 5.02 6.18 0
      vertex 5.2 0 0
      vertex 5.02 6 0
    endloop
  endfacet
  facet normal 0 0 -1
    outer loop
      vertex 5.02 9 0
      vertex 5.2 0 0
      vertex 5.02 6.18 0
    endloop
  endfacet
  facet normal 0 0 -1
    outer loop
      vertex 5.2 0 0
      vertex 5.02 9 0
      vertex 5.2 26.8 0
    endloop
  endfacet
  facet normal 0 0 -1
    outer loop
      vertex 5.02 9.18 0
      vertex 5.2 26.8 0
      vertex 5.02 9 0
    endloop
  endfacet
  facet normal 0 0 -1
    outer loop
      vertex 5.02 12 0
      vertex 5.2 26.8 0
      vertex 5.02 9.18 0
    endloop
  endfacet
  facet normal 0 0 -1
    outer loop
      vertex 5.02 12.18 0
      vertex 5.2 26.8 0
      vertex 5.02 12 0
    endloop
  endfacet
  facet normal 0 0 -1
    outer loop
      vertex 5.02 16 0
      vertex 5.2 26.8 0
      vertex 5.02 12.18 0
    endloop
  endfacet
  facet normal 0 0 -1
    outer loop
      vertex 5.02 16.18 0
      vertex 5.2 26.8 0
      vertex 5.02 16 0
    endloop
  endfacet
  facet normal 0 0 -1
    outer loop
      vertex 5.02 20 0
      vertex 5.2 26.8 0
      vertex 5.02 16.18 0
    endloop
  endfacet
  facet normal 0 0 -1
    outer loop
      vertex 5.02 20.18 0
      vertex 5.2 26.8 0
      vertex 5.02 20 0
    endloop
  endfacet
  facet normal 0 0 -1
    outer loop
      vertex 5.02 23.4 0
      vertex 5.2 26.8 0
      vertex 5.02 20.18 0
    endloop
  endfacet
  facet normal 0 0 -1
    outer loop
      vertex 5.02 23.58 0
      vertex 5.2 26.8 0
      vertex 5.02 23.4 0
    endloop
  endfacet
  facet normal 0 0 -1
    outer loop
      vertex 5.02 26.62 0
      vertex 5.2 26.8 0
      vertex 5.02 23.58 0
    endloop
  endfacet
  facet normal 0 0 -1
    outer loop
      vertex 0.179999 26.62 0
      vertex 5.2 26.8 0
      vertex 5.02 26.62 0
    endloop
  endfacet
  facet normal 0 0 -1
    outer loop
      vertex 0.179999 26.62 0
      vertex 0 26.8 0
      vertex 5.2 26.8 0
    endloop
  endfacet
  facet normal 0 0 -1
    outer loop
      vertex 0.179999 23.58 0
      vertex 0 26.8 0
      vertex 0.179999 26.62 0
    endloop
  endfacet
  facet normal 1 -0 0
    outer loop
      vertex 0.179999 9.18 4
      vertex 0.179999 12 0
      vertex 0.179999 12 4
    endloop
  endfacet
  facet normal 1 0 0
    outer loop
      vertex 0.179999 12 0
      vertex 0.179999 9.18 4
      vertex 0.179999 9.18 0
    endloop
  endfacet
  facet normal 1 -0 0
    outer loop
      vertex 0.179999 6.18 4
      vertex 0.179999 9 0
      vertex 0.179999 9 4
    endloop
  endfacet
  facet normal 1 0 0
    outer loop
      vertex 0.179999 9 0
      vertex 0.179999 6.18 4
      vertex 0.179999 6.18 0
    endloop
  endfacet
  facet normal 1 -0 0
    outer loop
      vertex 0.179999 16.18 4
      vertex 0.179999 20 0
      vertex 0.179999 20 4
    endloop
  endfacet
  facet normal 1 0 0
    outer loop
      vertex 0.179999 20 0
      vertex 0.179999 16.18 4
      vertex 0.179999 16.18 0
    endloop
  endfacet
  facet normal 1 -0 0
    outer loop
      vertex 0.179999 12.18 4
      vertex 0.179999 16 0
      vertex 0.179999 16 4
    endloop
  endfacet
  facet normal 1 0 0
    outer loop
      vertex 0.179999 16 0
      vertex 0.179999 12.18 4
      vertex 0.179999 12.18 0
    endloop
  endfacet
  facet normal 1 -0 0
    outer loop
      vertex 0.179999 0 4
      vertex 0.179999 6 0
      vertex 0.179999 6 4
    endloop
  endfacet
  facet normal 1 0 0
    outer loop
      vertex 0.179999 6 0
      vertex 0.179999 0 4
      vertex 0.179999 0 0
    endloop
  endfacet
  facet normal 1 -0 0
    outer loop
      vertex 0.179999 20.18 4
      vertex 0.179999 23.4 0
      vertex 0.179999 23.4 4
    endloop
  endfacet
  facet normal 1 0 0
    outer loop
      vertex 0.179999 23.4 0
      vertex 0.179999 20.18 4
      vertex 0.179999 20.18 0
    endloop
  endfacet
  facet normal 1 -0 0
    outer loop
      vertex 0.179999 23.58 4
      vertex 0.179999 26.62 0
      vertex 0.179999 26.62 4
    endloop
  endfacet
  facet normal 1 0 0
    outer loop
      vertex 0.179999 26.62 0
      vertex 0.179999 23.58 4
      vertex 0.179999 23.58 0
    endloop
  endfacet
  facet normal 0 1 -0
    outer loop
      vertex 5.01365 26.8 4
      vertex 4.52707 26.8 6.51141
      vertex 5.2 26.8 4
    endloop
  endfacet
  facet normal 0 1 0
    outer loop
      vertex 4.52707 26.8 6.51141
      vertex 5.01365 26.8 4
      vertex 4.3532 26.8 6.46482
    endloop
  endfacet
  facet normal 0 1 -0
    outer loop
      vertex 5.2 26.8 0
      vertex 5.01365 26.8 4
      vertex 5.2 26.8 4
    endloop
  endfacet
  facet normal 0 1 0
    outer loop
      vertex 5.01365 26.8 4
      vertex 5.2 26.8 0
      vertex 0.179999 26.8 4
    endloop
  endfacet
  facet normal 0 1 0
    outer loop
      vertex 0 26.8 0
      vertex 0.179999 26.8 4
      vertex 5.2 26.8 0
    endloop
  endfacet
  facet normal 0 1 0
    outer loop
      vertex 0.179999 26.8 4
      vertex 0 26.8 0
      vertex 0 26.8 4
    endloop
  endfacet
  facet normal 0 -1 0
    outer loop
      vertex 0.179999 26.62 4
      vertex 5.02 26.62 3.9763
      vertex 5.01365 26.62 4
    endloop
  endfacet
  facet normal 0 -1 0
    outer loop
      vertex 0.179999 26.62 0
      vertex 5.02 26.62 3.9763
      vertex 0.179999 26.62 4
    endloop
  endfacet
  facet normal 0 -1 -0
    outer loop
      vertex 5.02 26.62 3.9763
      vertex 0.179999 26.62 0
      vertex 5.02 26.62 0
    endloop
  endfacet
  facet normal 0 1 0
    outer loop
      vertex 5.02 20.18 3.9763
      vertex 0.179999 20.18 4
      vertex 5.01365 20.18 4
    endloop
  endfacet
  facet normal 0 1 -0
    outer loop
      vertex 5.02 20.18 0
      vertex 0.179999 20.18 4
      vertex 5.02 20.18 3.9763
    endloop
  endfacet
  facet normal 0 1 0
    outer loop
      vertex 0.179999 20.18 4
      vertex 5.02 20.18 0
      vertex 0.179999 20.18 0
    endloop
  endfacet
  facet normal 0 -1 0
    outer loop
      vertex 2.78 20 4
      vertex 5.02 20 3.98425
      vertex 5.01365 20 4
    endloop
  endfacet
  facet normal 0 -1 0
    outer loop
      vertex 2.78 20 0
      vertex 5.02 20 3.98425
      vertex 2.78 20 4
    endloop
  endfacet
  facet normal 0 -1 -0
    outer loop
      vertex 5.02 20 3.98425
      vertex 2.78 20 0
      vertex 5.02 20 0
    endloop
  endfacet
  facet normal 0 -1 0
    outer loop
      vertex 4.3532 20 6.46482
      vertex 4.66547 20 5.9949
      vertex 4.52707 20 6.51141
    endloop
  endfacet
  facet normal 0 -1 0
    outer loop
      vertex 5.01365 20 4
      vertex 4.66547 20 5.9949
      vertex 4.3532 20 6.46482
    endloop
  endfacet
  facet normal 0 -1 0
    outer loop
      vertex 4.66547 20 5.9949
      vertex 5.01365 20 4
      vertex 5.02 20 3.98425
    endloop
  endfacet
  facet normal 0 1 0
    outer loop
      vertex 4.74851 20 6.5605
      vertex 4.66547 20 5.9949
      vertex 4.57125 20 6.52924
    endloop
  endfacet
  facet normal -0 1 0
    outer loop
      vertex 4.66547 20 5.9949
      vertex 4.74851 20 6.5605
      vertex 5.2 20 4
    endloop
  endfacet
  facet normal 0 -1 0
    outer loop
      vertex 0.179999 20 0
      vertex 2.6 20 4
      vertex 0.179999 20 4
    endloop
  endfacet
  facet normal 0 -1 -0
    outer loop
      vertex 2.6 20 4
      vertex 0.179999 20 0
      vertex 2.6 20 0
    endloop
  endfacet
  facet normal 0 1 0
    outer loop
      vertex 5.02 23.58 3.9763
      vertex 0.179999 23.58 4
      vertex 5.01365 23.58 4
    endloop
  endfacet
  facet normal 0 1 -0
    outer loop
      vertex 5.02 23.58 0
      vertex 0.179999 23.58 4
      vertex 5.02 23.58 3.9763
    endloop
  endfacet
  facet normal 0 1 0
    outer loop
      vertex 0.179999 23.58 4
      vertex 5.02 23.58 0
      vertex 0.179999 23.58 0
    endloop
  endfacet
  facet normal 0 -1 0
    outer loop
      vertex 0.179999 23.4 4
      vertex 5.02 23.4 3.9763
      vertex 5.01365 23.4 4
    endloop
  endfacet
  facet normal 0 -1 0
    outer loop
      vertex 0.179999 23.4 0
      vertex 5.02 23.4 3.9763
      vertex 0.179999 23.4 4
    endloop
  endfacet
  facet normal 0 -1 -0
    outer loop
      vertex 5.02 23.4 3.9763
      vertex 0.179999 23.4 0
      vertex 5.02 23.4 0
    endloop
  endfacet
  facet normal 0 1 -0
    outer loop
      vertex 2.6 6.18 0
      vertex 0.179999 6.18 4
      vertex 2.6 6.18 4
    endloop
  endfacet
  facet normal 0 1 0
    outer loop
      vertex 0.179999 6.18 4
      vertex 2.6 6.18 0
      vertex 0.179999 6.18 0
    endloop
  endfacet
  facet normal 0 1 0
    outer loop
      vertex 5.02 6.18 3.96826
      vertex 2.78 6.18 4
      vertex 5.00845 6.18 4
    endloop
  endfacet
  facet normal 0 1 0
    outer loop
      vertex 2.78 6.18 0
      vertex 5.02 6.18 3.96826
      vertex 5.02 6.18 0
    endloop
  endfacet
  facet normal 0 1 0
    outer loop
      vertex 5.02 6.18 3.96826
      vertex 2.78 6.18 0
      vertex 2.78 6.18 4
    endloop
  endfacet
  facet normal 0 -1 0
    outer loop
      vertex 0.179999 6 0
      vertex 2.6 6 4
      vertex 0.179999 6 4
    endloop
  endfacet
  facet normal 0 -1 -0
    outer loop
      vertex 2.6 6 4
      vertex 0.179999 6 0
      vertex 2.6 6 0
    endloop
  endfacet
  facet normal 0 -1 0
    outer loop
      vertex 5.00845 6 4
      vertex 4.31075 6 6.4432
      vertex 4.1416 6 6.38164
    endloop
  endfacet
  facet normal 0 -1 0
    outer loop
      vertex 5.02 6 4
      vertex 4.31075 6 6.4432
      vertex 5.00845 6 4
    endloop
  endfacet
  facet normal 0 -1 0
    outer loop
      vertex 4.31075 6 6.4432
      vertex 5.02 6 4
      vertex 5.2 6 4
    endloop
  endfacet
  facet normal 0 -1 0
    outer loop
      vertex 2.78 6 0
      vertex 5.00845 6 4
      vertex 2.78 6 4
    endloop
  endfacet
  facet normal 0 -1 0
    outer loop
      vertex 5.02 6 0
      vertex 5.00845 6 4
      vertex 2.78 6 0
    endloop
  endfacet
  facet normal 0 -1 0
    outer loop
      vertex 5.00845 6 4
      vertex 5.02 6 0
      vertex 5.02 6 4
    endloop
  endfacet
  facet normal 0 1 -0
    outer loop
      vertex 2.6 9.18 0
      vertex 0.179999 9.18 4
      vertex 2.6 9.18 4
    endloop
  endfacet
  facet normal 0 1 0
    outer loop
      vertex 0.179999 9.18 4
      vertex 2.6 9.18 0
      vertex 0.179999 9.18 0
    endloop
  endfacet
  facet normal 0 1 0
    outer loop
      vertex 5.02 9.18 3.96826
      vertex 2.78 9.18 4
      vertex 5.00845 9.18 4
    endloop
  endfacet
  facet normal 0 1 0
    outer loop
      vertex 2.78 9.18 0
      vertex 5.02 9.18 3.96826
      vertex 5.02 9.18 0
    endloop
  endfacet
  facet normal 0 1 0
    outer loop
      vertex 5.02 9.18 3.96826
      vertex 2.78 9.18 0
      vertex 2.78 9.18 4
    endloop
  endfacet
  facet normal 0 -1 0
    outer loop
      vertex 0.179999 9 0
      vertex 2.6 9 4
      vertex 0.179999 9 4
    endloop
  endfacet
  facet normal 0 -1 -0
    outer loop
      vertex 2.6 9 4
      vertex 0.179999 9 0
      vertex 2.6 9 0
    endloop
  endfacet
  facet normal 0 -1 0
    outer loop
      vertex 2.78 9 4
      vertex 5.02 9 3.96826
      vertex 5.00845 9 4
    endloop
  endfacet
  facet normal 0 -1 0
    outer loop
      vertex 2.78 9 0
      vertex 5.02 9 3.96826
      vertex 2.78 9 4
    endloop
  endfacet
  facet normal 0 -1 -0
    outer loop
      vertex 5.02 9 3.96826
      vertex 2.78 9 0
      vertex 5.02 9 0
    endloop
  endfacet
  facet normal 0 1 -0
    outer loop
      vertex 2.6 12.18 0
      vertex 0.179999 12.18 4
      vertex 2.6 12.18 4
    endloop
  endfacet
  facet normal 0 1 0
    outer loop
      vertex 0.179999 12.18 4
      vertex 2.6 12.18 0
      vertex 0.179999 12.18 0
    endloop
  endfacet
  facet normal 0 1 0
    outer loop
      vertex 5.02 12.18 3.98425
      vertex 2.78 12.18 4
      vertex 5.01722 12.18 4
    endloop
  endfacet
  facet normal 0 1 -0
    outer loop
      vertex 5.02 12.18 0
      vertex 2.78 12.18 4
      vertex 5.02 12.18 3.98425
    endloop
  endfacet
  facet normal 0 1 0
    outer loop
      vertex 2.78 12.18 4
      vertex 5.02 12.18 0
      vertex 2.78 12.18 0
    endloop
  endfacet
  facet normal 0 -1 0
    outer loop
      vertex 0.179999 12 0
      vertex 2.6 12 4
      vertex 0.179999 12 4
    endloop
  endfacet
  facet normal 0 -1 -0
    outer loop
      vertex 2.6 12 4
      vertex 0.179999 12 0
      vertex 2.6 12 0
    endloop
  endfacet
  facet normal 0 -1 0
    outer loop
      vertex 2.78 12 4
      vertex 5.02 12 3.96826
      vertex 5.00845 12 4
    endloop
  endfacet
  facet normal 0 -1 0
    outer loop
      vertex 2.78 12 0
      vertex 5.02 12 3.96826
      vertex 2.78 12 4
    endloop
  endfacet
  facet normal 0 -1 -0
    outer loop
      vertex 5.02 12 3.96826
      vertex 2.78 12 0
      vertex 5.02 12 0
    endloop
  endfacet
  facet normal 0 1 0
    outer loop
      vertex 4.84547 12 4.97407
      vertex 4.1416 12 6.38164
      vertex 4.31075 12 6.4432
    endloop
  endfacet
  facet normal 0 1 -0
    outer loop
      vertex 5.00845 12 4
      vertex 4.84547 12 4.97407
      vertex 5.01722 12 4
    endloop
  endfacet
  facet normal 0 1 0
    outer loop
      vertex 4.84547 12 4.97407
      vertex 5.00845 12 4
      vertex 4.1416 12 6.38164
    endloop
  endfacet
  facet normal 0 -1 0
    outer loop
      vertex 4.84547 12 4.97407
      vertex 4.74851 12 6.5605
      vertex 4.57125 12 6.52924
    endloop
  endfacet
  facet normal 0 -1 0
    outer loop
      vertex 4.74851 12 6.5605
      vertex 4.84547 12 4.97407
      vertex 5.2 12 4
    endloop
  endfacet
  facet normal 0 1 -0
    outer loop
      vertex 2.6 16.18 0
      vertex 0.179999 16.18 4
      vertex 2.6 16.18 4
    endloop
  endfacet
  facet normal 0 1 0
    outer loop
      vertex 0.179999 16.18 4
      vertex 2.6 16.18 0
      vertex 0.179999 16.18 0
    endloop
  endfacet
  facet normal 0 1 0
    outer loop
      vertex 5.02 16.18 3.98425
      vertex 2.78 16.18 4
      vertex 5.01722 16.18 4
    endloop
  endfacet
  facet normal 0 1 -0
    outer loop
      vertex 5.02 16.18 0
      vertex 2.78 16.18 4
      vertex 5.02 16.18 3.98425
    endloop
  endfacet
  facet normal 0 1 0
    outer loop
      vertex 2.78 16.18 4
      vertex 5.02 16.18 0
      vertex 2.78 16.18 0
    endloop
  endfacet
  facet normal 0 -1 0
    outer loop
      vertex 0.179999 16 0
      vertex 2.6 16 4
      vertex 0.179999 16 4
    endloop
  endfacet
  facet normal 0 -1 -0
    outer loop
      vertex 2.6 16 4
      vertex 0.179999 16 0
      vertex 2.6 16 0
    endloop
  endfacet
  facet normal 0 -1 0
    outer loop
      vertex 2.78 16 4
      vertex 5.02 16 3.98425
      vertex 5.01722 16 4
    endloop
  endfacet
  facet normal 0 -1 0
    outer loop
      vertex 2.78 16 0
      vertex 5.02 16 3.98425
      vertex 2.78 16 4
    endloop
  endfacet
  facet normal 0 -1 -0
    outer loop
      vertex 5.02 16 3.98425
      vertex 2.78 16 0
      vertex 5.02 16 0
    endloop
  endfacet
  facet normal -1 0 0
    outer loop
      vertex 0 0 0
      vertex 0 26.8 4
      vertex 0 26.8 0
    endloop
  endfacet
  facet normal -1 -0 0
    outer loop
      vertex 0 26.8 4
      vertex 0 0 0
      vertex 0 0 4
    endloop
  endfacet
  facet normal 0 -1 0
    outer loop
      vertex 0 0 0
      vertex 0.179999 0 4
      vertex 0 0 4
    endloop
  endfacet
  facet normal 0 -1 -0
    outer loop
      vertex 0.179999 0 4
      vertex 0 0 0
      vertex 0.179999 0 0
    endloop
  endfacet
  facet normal 1 -0 0
    outer loop
      vertex 5.2 20 4
      vertex 5.2 26.8 0
      vertex 5.2 26.8 4
    endloop
  endfacet
  facet normal 1 -0 0
    outer loop
      vertex 5.2 12 4
      vertex 5.2 26.8 0
      vertex 5.2 20 4
    endloop
  endfacet
  facet normal 1 0 0
    outer loop
      vertex 5.2 0 0
      vertex 5.2 12 4
      vertex 5.2 6 4
    endloop
  endfacet
  facet normal 1 0 0
    outer loop
      vertex 5.2 0 0
      vertex 5.2 6 4
      vertex 5.2 0 4
    endloop
  endfacet
  facet normal 1 0 0
    outer loop
      vertex 5.2 12 4
      vertex 5.2 0 0
      vertex 5.2 26.8 0
    endloop
  endfacet
  facet normal 0 -1 0
    outer loop
      vertex 5.02 0 0
      vertex 5.2 0 4
      vertex 5.02 0 4
    endloop
  endfacet
  facet normal 0 -1 -0
    outer loop
      vertex 5.2 0 4
      vertex 5.02 0 0
      vertex 5.2 0 0
    endloop
  endfacet
  facet normal 1 -0 0
    outer loop
      vertex 2.78 16.18 4
      vertex 2.78 20 0
      vertex 2.78 20 4
    endloop
  endfacet
  facet normal 1 0 0
    outer loop
      vertex 2.78 20 0
      vertex 2.78 16.18 4
      vertex 2.78 16.18 0
    endloop
  endfacet
  facet normal 1 -0 0
    outer loop
      vertex 2.78 0 4
      vertex 2.78 6 0
      vertex 2.78 6 4
    endloop
  endfacet
  facet normal 1 0 0
    outer loop
      vertex 2.78 6 0
      vertex 2.78 0 4
      vertex 2.78 0 0
    endloop
  endfacet
  facet normal 1 -0 0
    outer loop
      vertex 2.78 6.18 4
      vertex 2.78 9 0
      vertex 2.78 9 4
    endloop
  endfacet
  facet normal 1 0 0
    outer loop
      vertex 2.78 9 0
      vertex 2.78 6.18 4
      vertex 2.78 6.18 0
    endloop
  endfacet
  facet normal 1 -0 0
    outer loop
      vertex 2.78 12.18 4
      vertex 2.78 16 0
      vertex 2.78 16 4
    endloop
  endfacet
  facet normal 1 0 0
    outer loop
      vertex 2.78 16 0
      vertex 2.78 12.18 4
      vertex 2.78 12.18 0
    endloop
  endfacet
  facet normal 1 -0 0
    outer loop
      vertex 2.78 9.18 4
      vertex 2.78 12 0
      vertex 2.78 12 4
    endloop
  endfacet
  facet normal 1 0 0
    outer loop
      vertex 2.78 12 0
      vertex 2.78 9.18 4
      vertex 2.78 9.18 0
    endloop
  endfacet
  facet normal -1 0 0
    outer loop
      vertex 2.6 0 0
      vertex 2.6 6 4
      vertex 2.6 6 0
    endloop
  endfacet
  facet normal -1 -0 0
    outer loop
      vertex 2.6 6 4
      vertex 2.6 0 0
      vertex 2.6 0 4
    endloop
  endfacet
  facet normal -1 0 0
    outer loop
      vertex 2.6 16.18 0
      vertex 2.6 20 4
      vertex 2.6 20 0
    endloop
  endfacet
  facet normal -1 -0 0
    outer loop
      vertex 2.6 20 4
      vertex 2.6 16.18 0
      vertex 2.6 16.18 4
    endloop
  endfacet
  facet normal -1 0 0
    outer loop
      vertex 2.6 6.18 0
      vertex 2.6 9 4
      vertex 2.6 9 0
    endloop
  endfacet
  facet normal -1 -0 0
    outer loop
      vertex 2.6 9 4
      vertex 2.6 6.18 0
      vertex 2.6 6.18 4
    endloop
  endfacet
  facet normal -1 0 0
    outer loop
      vertex 2.6 12.18 0
      vertex 2.6 16 4
      vertex 2.6 16 0
    endloop
  endfacet
  facet normal -1 -0 0
    outer loop
      vertex 2.6 16 4
      vertex 2.6 12.18 0
      vertex 2.6 12.18 4
    endloop
  endfacet
  facet normal -1 0 0
    outer loop
      vertex 2.6 9.18 0
      vertex 2.6 12 4
      vertex 2.6 12 0
    endloop
  endfacet
  facet normal -1 -0 0
    outer loop
      vertex 2.6 12 4
      vertex 2.6 9.18 0
      vertex 2.6 9.18 4
    endloop
  endfacet
  facet normal 0 -1 0
    outer loop
      vertex 2.6 0 0
      vertex 2.78 0 4
      vertex 2.6 0 4
    endloop
  endfacet
  facet normal 0 -1 -0
    outer loop
      vertex 2.78 0 4
      vertex 2.6 0 0
      vertex 2.78 0 0
    endloop
  endfacet
  facet normal -1 0 0
    outer loop
      vertex 0 0 4
      vertex 0 5.57659 6.22126
      vertex 0 5.63815 6.05212
    endloop
  endfacet
  facet normal -1 0 0
    outer loop
      vertex 0 5.57659 6.22126
      vertex 0 0 4
      vertex 0 -0.0615635 4.16914
    endloop
  endfacet
  facet normal 1 0 0
    outer loop
      vertex 2.6 5.57659 6.22126
      vertex 2.6 0.959264 4.34914
      vertex 2.6 5.63815 6.05212
    endloop
  endfacet
  facet normal 1 0 0
    outer loop
      vertex 2.6 5.57659 6.22126
      vertex 2.6 0 4.18
      vertex 2.6 0.959264 4.34914
    endloop
  endfacet
  facet normal 1 0 0
    outer loop
      vertex 2.6 0 4.18
      vertex 2.6 -0.0615635 4.16914
      vertex 2.6 0 4
    endloop
  endfacet
  facet normal 1 0 0
    outer loop
      vertex 2.6 -0.0615635 4.16914
      vertex 2.6 0 4.18
      vertex 2.6 5.57659 6.22126
    endloop
  endfacet
  facet normal 1 0 0
    outer loop
      vertex 2.6 0.0298238 4.01086
      vertex 2.6 0 4.18
      vertex 2.6 0 4
    endloop
  endfacet
  facet normal -1 -0 0
    outer loop
      vertex 2.6 5.9401 5.04462
      vertex 2.6 0.959264 4.34914
      vertex 2.6 5.90885 5.22189
    endloop
  endfacet
  facet normal -1 0 0
    outer loop
      vertex 2.6 0.0312557 4.00273
      vertex 2.6 0.959264 4.34914
      vertex 2.6 5.9401 5.04462
    endloop
  endfacet
  facet normal -1 0 0
    outer loop
      vertex 2.6 0.959264 4.34914
      vertex 2.6 0.0312557 4.00273
      vertex 2.6 0.0298238 4.01086
    endloop
  endfacet
  facet normal 0 -0.34202 0.939693
    outer loop
      vertex 0 5.57659 6.22126
      vertex 2.6 -0.0615635 4.16914
      vertex 2.6 5.57659 6.22126
    endloop
  endfacet
  facet normal 0 -0.34202 0.939693
    outer loop
      vertex 2.6 -0.0615635 4.16914
      vertex 0 5.57659 6.22126
      vertex 0 -0.0615635 4.16914
    endloop
  endfacet
  facet normal 0 0.34216 -0.939642
    outer loop
      vertex 0.179999 0 4
      vertex 2.6 0.0298238 4.01086
      vertex 2.6 0 4
    endloop
  endfacet
  facet normal 2.05779e-06 0.342012 -0.939695
    outer loop
      vertex 2.6 0.0298238 4.01086
      vertex 0.179999 0 4
      vertex 2.6 0.959264 4.34914
    endloop
  endfacet
  facet normal -1.43832e-06 0.34202 -0.939693
    outer loop
      vertex 0 5.63815 6.05212
      vertex 2.6 0.959264 4.34914
      vertex 0.179999 0 4
    endloop
  endfacet
  facet normal 0 0.34202 -0.939693
    outer loop
      vertex 0 5.63815 6.05212
      vertex 0.179999 0 4
      vertex 0 0 4
    endloop
  endfacet
  facet normal 0 0.342021 -0.939692
    outer loop
      vertex 2.6 0.959264 4.34914
      vertex 0 5.63815 6.05212
      vertex 2.6 5.63815 6.05212
    endloop
  endfacet
  facet normal -0 -0.93969 -0.342028
    outer loop
      vertex 0.179999 0 4
      vertex 0 -0.0615635 4.16914
      vertex 0 0 4
    endloop
  endfacet
  facet normal 0 -0.93969 -0.342028
    outer loop
      vertex 0 -0.0615635 4.16914
      vertex 0.179999 0 4
      vertex 2.6 -0.0615635 4.16914
    endloop
  endfacet
  facet normal 0 -0.93969 -0.342028
    outer loop
      vertex 2.6 -0.0615635 4.16914
      vertex 0.179999 0 4
      vertex 2.6 0 4
    endloop
  endfacet
  facet normal 0 0.939696 0.342011
    outer loop
      vertex 2.6 5.63815 6.05212
      vertex 0 5.57659 6.22126
      vertex 2.6 5.57659 6.22126
    endloop
  endfacet
  facet normal 0 0.939696 0.342011
    outer loop
      vertex 0 5.57659 6.22126
      vertex 2.6 5.63815 6.05212
      vertex 0 5.63815 6.05212
    endloop
  endfacet
  facet normal 0 0.173648 -0.984808
    outer loop
      vertex 2.6 0.0312557 4.00273
      vertex 5.2 5.9401 5.04462
      vertex 5.2 0.0312557 4.00273
    endloop
  endfacet
  facet normal 0 0.173648 -0.984808
    outer loop
      vertex 5.2 5.9401 5.04462
      vertex 2.6 0.0312557 4.00273
      vertex 2.6 5.9401 5.04462
    endloop
  endfacet
  facet normal 0 -0.173649 0.984808
    outer loop
      vertex 2.6 0.959264 4.34914
      vertex 5.2 5.90885 5.22189
      vertex 2.6 5.90885 5.22189
    endloop
  endfacet
  facet normal -1.58205e-06 -0.173648 0.984808
    outer loop
      vertex 5.2 5.90885 5.22189
      vertex 2.6 0.959264 4.34914
      vertex 5.2 0 4.18
    endloop
  endfacet
  facet normal 0 -0.173644 0.984808
    outer loop
      vertex 5.2 0 4.18
      vertex 2.6 0.959264 4.34914
      vertex 2.6 0 4.18
    endloop
  endfacet
  facet normal 1 0 0
    outer loop
      vertex 5.2 5.90885 5.22189
      vertex 5.2 0.0312557 4.00273
      vertex 5.2 5.9401 5.04462
    endloop
  endfacet
  facet normal 1 0 -0
    outer loop
      vertex 5.2 0.0312557 4.00273
      vertex 5.2 5.90885 5.22189
      vertex 5.2 0 4.18
    endloop
  endfacet
  facet normal 0 0.984815 0.173608
    outer loop
      vertex 5.2 5.9401 5.04462
      vertex 2.6 5.90885 5.22189
      vertex 5.2 5.90885 5.22189
    endloop
  endfacet
  facet normal 0 0.984815 0.173608
    outer loop
      vertex 2.6 5.90885 5.22189
      vertex 5.2 5.9401 5.04462
      vertex 2.6 5.9401 5.04462
    endloop
  endfacet
  facet normal 0 -0.984808 -0.173647
    outer loop
      vertex 2.6 0.0298238 4.01086
      vertex 5.2 0 4.18
      vertex 2.6 0 4.18
    endloop
  endfacet
  facet normal -0 -0.984842 -0.173456
    outer loop
      vertex 5.2 0.0312557 4.00273
      vertex 2.6 0.0298238 4.01086
      vertex 2.6 0.0312557 4.00273
    endloop
  endfacet
  facet normal -5.89575e-07 -0.984809 -0.173639
    outer loop
      vertex 2.6 0.0298238 4.01086
      vertex 5.2 0.0312557 4.00273
      vertex 5.2 0 4.18
    endloop
  endfacet
  facet normal -0.342003 0 -0.939699
    outer loop
      vertex 0.0108547 6 4.06156
      vertex 0.179999 6.18 4
      vertex 0.179999 6 4
    endloop
  endfacet
  facet normal -0.342003 0 -0.939699
    outer loop
      vertex 0.179999 6.18 4
      vertex 0.0108547 6 4.06156
      vertex 0.179999 9 4
    endloop
  endfacet
  facet normal -0.342003 0 -0.939699
    outer loop
      vertex 0.179999 9 4
      vertex 0.0108547 6 4.06156
      vertex 0.179999 9.18 4
    endloop
  endfacet
  facet normal -0.342003 -0 -0.939699
    outer loop
      vertex 0.0108547 12 4.06156
      vertex 0.179999 9.18 4
      vertex 0.0108547 6 4.06156
    endloop
  endfacet
  facet normal -0.342003 0 -0.939699
    outer loop
      vertex 0.179999 9.18 4
      vertex 0.0108547 12 4.06156
      vertex 0.179999 12 4
    endloop
  endfacet
  facet normal 0.342005 0 0.939698
    outer loop
      vertex 0.900107 12 6.50476
      vertex 1.06925 6 6.4432
      vertex 1.06925 12 6.4432
    endloop
  endfacet
  facet normal 0.342005 0 0.939698
    outer loop
      vertex 1.06925 6 6.4432
      vertex 0.900107 12 6.50476
      vertex 0.900107 6 6.50476
    endloop
  endfacet
  facet normal -0.939693 0 0.342019
    outer loop
      vertex 0.0108547 6 4.06156
      vertex 0.359999 12 5.02083
      vertex 0.0108547 12 4.06156
    endloop
  endfacet
  facet normal -0.939693 -2.37183e-07 0.34202
    outer loop
      vertex 0.900107 6 6.50476
      vertex 0.359999 12 5.02083
      vertex 0.0108547 6 4.06156
    endloop
  endfacet
  facet normal -0.939692 0 0.342021
    outer loop
      vertex 0.359999 12 5.02083
      vertex 0.900107 6 6.50476
      vertex 0.900107 12 6.50476
    endloop
  endfacet
  facet normal 0.939693 0 -0.34202
    outer loop
      vertex 1.06925 12 6.4432
      vertex 0.179999 9.18 4
      vertex 0.179999 12 4
    endloop
  endfacet
  facet normal 0.939693 0 -0.34202
    outer loop
      vertex 1.06925 12 6.4432
      vertex 0.179999 9 4
      vertex 0.179999 9.18 4
    endloop
  endfacet
  facet normal 0.939693 0 -0.34202
    outer loop
      vertex 1.06925 6 6.4432
      vertex 0.179999 9 4
      vertex 1.06925 12 6.4432
    endloop
  endfacet
  facet normal 0.939693 0 -0.34202
    outer loop
      vertex 0.179999 9 4
      vertex 1.06925 6 6.4432
      vertex 0.179999 6.18 4
    endloop
  endfacet
  facet normal 0.939693 0 -0.34202
    outer loop
      vertex 0.179999 6.18 4
      vertex 1.06925 6 6.4432
      vertex 0.179999 6 4
    endloop
  endfacet
  facet normal 0 -1 0
    outer loop
      vertex 0.0108547 6 4.06156
      vertex 1.06925 6 6.4432
      vertex 0.900107 6 6.50476
    endloop
  endfacet
  facet normal 0 -1 0
    outer loop
      vertex 1.06925 6 6.4432
      vertex 0.0108547 6 4.06156
      vertex 0.179999 6 4
    endloop
  endfacet
  facet normal 0 -1 -0
    outer loop
      vertex 0.45422 12 6.59176
      vertex 0.359999 12 5.02083
      vertex 0.631485 12 6.5605
    endloop
  endfacet
  facet normal 0 -1 0
    outer loop
      vertex 0.45422 12 6.59176
      vertex 0.0108547 12 4.06156
      vertex 0.359999 12 5.02083
    endloop
  endfacet
  facet normal 0 -1 0
    outer loop
      vertex 0.00273418 12 4.03126
      vertex 0.0108547 12 4.06156
      vertex 0.45422 12 6.59176
    endloop
  endfacet
  facet normal 0 -1 -0
    outer loop
      vertex 0.0108547 12 4.06156
      vertex 0.00273418 12 4.03126
      vertex 0.179999 12 4
    endloop
  endfacet
  facet normal 0 1 0
    outer loop
      vertex 1.06925 12 6.4432
      vertex 0.359999 12 5.02083
      vertex 0.900107 12 6.50476
    endloop
  endfacet
  facet normal -0 1 0
    outer loop
      vertex 0.359999 12 5.02083
      vertex 1.06925 12 6.4432
      vertex 0.179999 12 4
    endloop
  endfacet
  facet normal -0.939716 -0 -0.341957
    outer loop
      vertex 5.02 9 3.96826
      vertex 5.02 6.18 3.96826
      vertex 5.00845 9 4
    endloop
  endfacet
  facet normal -0.939716 0 -0.341957
    outer loop
      vertex 5.00845 9.18 4
      vertex 5.00845 12 4
      vertex 5.02 12 3.96826
    endloop
  endfacet
  facet normal -0.939716 0 -0.341957
    outer loop
      vertex 5.00845 9.18 4
      vertex 5.02 12 3.96826
      vertex 5.02 9.18 3.96826
    endloop
  endfacet
  facet normal -0.939692 -0 -0.342022
    outer loop
      vertex 5.00845 12 4
      vertex 5.00845 9.18 4
      vertex 4.1416 12 6.38164
    endloop
  endfacet
  facet normal -0.939692 0 -0.342022
    outer loop
      vertex 5.00845 9 4
      vertex 4.1416 12 6.38164
      vertex 5.00845 9.18 4
    endloop
  endfacet
  facet normal -0.939716 0 -0.341957
    outer loop
      vertex 5.00845 6.18 4
      vertex 5.00845 9 4
      vertex 5.02 6.18 3.96826
    endloop
  endfacet
  facet normal -0.939692 0 -0.342022
    outer loop
      vertex 4.1416 6 6.38164
      vertex 5.00845 9 4
      vertex 5.00845 6.18 4
    endloop
  endfacet
  facet normal -0.939692 0 -0.342022
    outer loop
      vertex 4.1416 6 6.38164
      vertex 5.00845 6.18 4
      vertex 5.00845 6 4
    endloop
  endfacet
  facet normal -0.939692 0 -0.342022
    outer loop
      vertex 5.00845 9 4
      vertex 4.1416 6 6.38164
      vertex 4.1416 12 6.38164
    endloop
  endfacet
  facet normal -0.341993 0 0.939703
    outer loop
      vertex 4.1416 12 6.38164
      vertex 4.31075 6 6.4432
      vertex 4.31075 12 6.4432
    endloop
  endfacet
  facet normal -0.341993 0 0.939703
    outer loop
      vertex 4.31075 6 6.4432
      vertex 4.1416 12 6.38164
      vertex 4.1416 6 6.38164
    endloop
  endfacet
  facet normal 0.939693 -0 0.34202
    outer loop
      vertex 4.31075 6 6.4432
      vertex 4.84547 12 4.97407
      vertex 4.31075 12 6.4432
    endloop
  endfacet
  facet normal 0.939693 -2.59712e-07 0.342019
    outer loop
      vertex 5.2 6 4
      vertex 4.84547 12 4.97407
      vertex 4.31075 6 6.4432
    endloop
  endfacet
  facet normal 0.939693 0 0.342018
    outer loop
      vertex 4.84547 12 4.97407
      vertex 5.2 6 4
      vertex 5.2 12 4
    endloop
  endfacet
  facet normal -0.984808 0 0.173649
    outer loop
      vertex 0.00273418 12 4.03126
      vertex 0.36 20 6.05741
      vertex 0.00273418 20 4.03126
    endloop
  endfacet
  facet normal -0.984808 5.47075e-08 0.173648
    outer loop
      vertex 0.45422 12 6.59176
      vertex 0.36 20 6.05741
      vertex 0.00273418 12 4.03126
    endloop
  endfacet
  facet normal -0.984808 0 0.173648
    outer loop
      vertex 0.36 20 6.05741
      vertex 0.45422 12 6.59176
      vertex 0.45422 20 6.59176
    endloop
  endfacet
  facet normal 0.173666 0 0.984805
    outer loop
      vertex 0.45422 20 6.59176
      vertex 0.631485 12 6.5605
      vertex 0.631485 20 6.5605
    endloop
  endfacet
  facet normal 0.173666 0 0.984805
    outer loop
      vertex 0.631485 12 6.5605
      vertex 0.45422 20 6.59176
      vertex 0.45422 12 6.59176
    endloop
  endfacet
  facet normal 0.984808 0 -0.173648
    outer loop
      vertex 0.631485 20 6.5605
      vertex 0.179999 16.18 4
      vertex 0.179999 20 4
    endloop
  endfacet
  facet normal 0.984808 0 -0.173648
    outer loop
      vertex 0.631485 20 6.5605
      vertex 0.179999 16 4
      vertex 0.179999 16.18 4
    endloop
  endfacet
  facet normal 0.984808 0 -0.173648
    outer loop
      vertex 0.631485 12 6.5605
      vertex 0.179999 16 4
      vertex 0.631485 20 6.5605
    endloop
  endfacet
  facet normal 0.984808 -7.2498e-08 -0.173649
    outer loop
      vertex 0.179999 16 4
      vertex 0.631485 12 6.5605
      vertex 0.359999 12 5.02083
    endloop
  endfacet
  facet normal 0.984808 0 -0.173648
    outer loop
      vertex 0.179999 16 4
      vertex 0.359999 12 5.02083
      vertex 0.179999 12.18 4
    endloop
  endfacet
  facet normal 0.984808 0 -0.173648
    outer loop
      vertex 0.179999 12.18 4
      vertex 0.359999 12 5.02083
      vertex 0.179999 12 4
    endloop
  endfacet
  facet normal 0 -1 0
    outer loop
      vertex 0.227289 20 6.60579
      vertex 0.36 20 6.05741
      vertex 0.406605 20 6.59011
    endloop
  endfacet
  facet normal 0 -1 -0
    outer loop
      vertex 0.227289 20 6.60579
      vertex 0.00273418 20 4.03126
      vertex 0.36 20 6.05741
    endloop
  endfacet
  facet normal 0 -1 0
    outer loop
      vertex 0.000684738 20 4.01569
      vertex 0.00273418 20 4.03126
      vertex 0.227289 20 6.60579
    endloop
  endfacet
  facet normal 0 -1 -0
    outer loop
      vertex 0.00273418 20 4.03126
      vertex 0.000684738 20 4.01569
      vertex 0.179999 20 4
    endloop
  endfacet
  facet normal 0 1 0
    outer loop
      vertex 0.631485 20 6.5605
      vertex 0.36 20 6.05741
      vertex 0.45422 20 6.59176
    endloop
  endfacet
  facet normal -0 1 0
    outer loop
      vertex 0.36 20 6.05741
      vertex 0.631485 20 6.5605
      vertex 0.179999 20 4
    endloop
  endfacet
  facet normal -0.173667 0 -0.984804
    outer loop
      vertex 0.00273418 12 4.03126
      vertex 0.179999 12.18 4
      vertex 0.179999 12 4
    endloop
  endfacet
  facet normal -0.173667 0 -0.984804
    outer loop
      vertex 0.179999 12.18 4
      vertex 0.00273418 12 4.03126
      vertex 0.179999 16 4
    endloop
  endfacet
  facet normal -0.173667 0 -0.984804
    outer loop
      vertex 0.179999 16 4
      vertex 0.00273418 12 4.03126
      vertex 0.179999 16.18 4
    endloop
  endfacet
  facet normal -0.173667 -0 -0.984804
    outer loop
      vertex 0.00273418 20 4.03126
      vertex 0.179999 16.18 4
      vertex 0.00273418 12 4.03126
    endloop
  endfacet
  facet normal -0.173667 0 -0.984804
    outer loop
      vertex 0.179999 16.18 4
      vertex 0.00273418 20 4.03126
      vertex 0.179999 20 4
    endloop
  endfacet
  facet normal -0.984777 -0 -0.173821
    outer loop
      vertex 5.02 16 3.98425
      vertex 5.02 12.18 3.98425
      vertex 5.01722 16 4
    endloop
  endfacet
  facet normal -0.984808 7.38476e-07 -0.173647
    outer loop
      vertex 5.01722 16.18 4
      vertex 4.66547 20 5.9949
      vertex 5.02 20 3.98425
    endloop
  endfacet
  facet normal -0.984777 0 -0.173821
    outer loop
      vertex 5.01722 16.18 4
      vertex 5.02 20 3.98425
      vertex 5.02 16.18 3.98425
    endloop
  endfacet
  facet normal -0.984807 2.59714e-06 -0.173651
    outer loop
      vertex 4.66547 20 5.9949
      vertex 5.01722 16.18 4
      vertex 4.57125 20 6.52924
    endloop
  endfacet
  facet normal -0.984808 0 -0.173647
    outer loop
      vertex 5.01722 16 4
      vertex 4.57125 20 6.52924
      vertex 5.01722 16.18 4
    endloop
  endfacet
  facet normal -0.984777 0 -0.173821
    outer loop
      vertex 5.01722 12.18 4
      vertex 5.01722 16 4
      vertex 5.02 12.18 3.98425
    endloop
  endfacet
  facet normal -0.984809 0 -0.173643
    outer loop
      vertex 4.84547 12 4.97407
      vertex 5.01722 16 4
      vertex 5.01722 12.18 4
    endloop
  endfacet
  facet normal -0.984809 0 -0.173643
    outer loop
      vertex 4.84547 12 4.97407
      vertex 5.01722 12.18 4
      vertex 5.01722 12 4
    endloop
  endfacet
  facet normal -0.984808 -1.42922e-06 -0.173649
    outer loop
      vertex 4.57125 12 6.52924
      vertex 5.01722 16 4
      vertex 4.84547 12 4.97407
    endloop
  endfacet
  facet normal -0.984808 0 -0.173647
    outer loop
      vertex 5.01722 16 4
      vertex 4.57125 12 6.52924
      vertex 4.57125 20 6.52924
    endloop
  endfacet
  facet normal -0.173671 0 0.984804
    outer loop
      vertex 4.57125 20 6.52924
      vertex 4.74851 12 6.5605
      vertex 4.74851 20 6.5605
    endloop
  endfacet
  facet normal -0.173671 0 0.984804
    outer loop
      vertex 4.74851 12 6.5605
      vertex 4.57125 20 6.52924
      vertex 4.57125 12 6.52924
    endloop
  endfacet
  facet normal 0.984807 -0 0.17365
    outer loop
      vertex 4.74851 12 6.5605
      vertex 5.2 20 4
      vertex 4.74851 20 6.5605
    endloop
  endfacet
  facet normal 0.984807 0 0.17365
    outer loop
      vertex 5.2 20 4
      vertex 4.74851 12 6.5605
      vertex 5.2 12 4
    endloop
  endfacet
  facet normal 0 1 0
    outer loop
      vertex 0.406605 26.8 6.59011
      vertex 0.000684738 26.8 4.01569
      vertex 0.227289 26.8 6.60579
    endloop
  endfacet
  facet normal -0 1 0
    outer loop
      vertex 0.000684738 26.8 4.01569
      vertex 0.406605 26.8 6.59011
      vertex 0.179999 26.8 4
    endloop
  endfacet
  facet normal -0.996195 0 0.0871557
    outer loop
      vertex 0.000684738 20 4.01569
      vertex 0.227289 26.8 6.60579
      vertex 0.000684738 26.8 4.01569
    endloop
  endfacet
  facet normal -0.996195 0 0.0871557
    outer loop
      vertex 0.227289 26.8 6.60579
      vertex 0.000684738 20 4.01569
      vertex 0.227289 20 6.60579
    endloop
  endfacet
  facet normal 0.087111 0 0.996199
    outer loop
      vertex 0.227289 26.8 6.60579
      vertex 0.406605 20 6.59011
      vertex 0.406605 26.8 6.59011
    endloop
  endfacet
  facet normal 0.087111 0 0.996199
    outer loop
      vertex 0.406605 20 6.59011
      vertex 0.227289 26.8 6.60579
      vertex 0.227289 20 6.60579
    endloop
  endfacet
  facet normal 0.996195 0 -0.087156
    outer loop
      vertex 0.406605 26.8 6.59011
      vertex 0.179999 26.62 4
      vertex 0.179999 26.8 4
    endloop
  endfacet
  facet normal 0.996195 0 -0.087156
    outer loop
      vertex 0.406605 26.8 6.59011
      vertex 0.179999 23.58 4
      vertex 0.179999 26.62 4
    endloop
  endfacet
  facet normal 0.996195 0 -0.087156
    outer loop
      vertex 0.406605 26.8 6.59011
      vertex 0.179999 23.4 4
      vertex 0.179999 23.58 4
    endloop
  endfacet
  facet normal 0.996195 0 -0.087156
    outer loop
      vertex 0.406605 20 6.59011
      vertex 0.179999 23.4 4
      vertex 0.406605 26.8 6.59011
    endloop
  endfacet
  facet normal 0.996195 5.16831e-07 -0.0871554
    outer loop
      vertex 0.179999 23.4 4
      vertex 0.406605 20 6.59011
      vertex 0.36 20 6.05741
    endloop
  endfacet
  facet normal 0.996195 0 -0.0871562
    outer loop
      vertex 0.179999 23.4 4
      vertex 0.36 20 6.05741
      vertex 0.179999 20.18 4
    endloop
  endfacet
  facet normal 0.996195 0 -0.0871562
    outer loop
      vertex 0.179999 20.18 4
      vertex 0.36 20 6.05741
      vertex 0.179999 20 4
    endloop
  endfacet
  facet normal -0.087167 0 -0.996194
    outer loop
      vertex 0.000684738 20 4.01569
      vertex 0.179999 20.18 4
      vertex 0.179999 20 4
    endloop
  endfacet
  facet normal -0.087167 0 -0.996194
    outer loop
      vertex 0.179999 20.18 4
      vertex 0.000684738 20 4.01569
      vertex 0.179999 23.4 4
    endloop
  endfacet
  facet normal -0.087167 0 -0.996194
    outer loop
      vertex 0.179999 23.4 4
      vertex 0.000684738 20 4.01569
      vertex 0.179999 23.58 4
    endloop
  endfacet
  facet normal -0.087167 -0 -0.996194
    outer loop
      vertex 0.000684738 26.8 4.01569
      vertex 0.179999 23.58 4
      vertex 0.000684738 20 4.01569
    endloop
  endfacet
  facet normal -0.087167 0 -0.996194
    outer loop
      vertex 0.179999 23.58 4
      vertex 0.000684738 26.8 4.01569
      vertex 0.179999 26.62 4
    endloop
  endfacet
  facet normal -0.087167 0 -0.996194
    outer loop
      vertex 0.179999 26.62 4
      vertex 0.000684738 26.8 4.01569
      vertex 0.179999 26.8 4
    endloop
  endfacet
  facet normal -0.96593 -0 -0.258804
    outer loop
      vertex 5.02 23.4 3.9763
      vertex 5.02 20.18 3.9763
      vertex 5.01365 23.4 4
    endloop
  endfacet
  facet normal -0.96593 -0 -0.258804
    outer loop
      vertex 5.02 26.62 3.9763
      vertex 5.02 23.58 3.9763
      vertex 5.01365 26.62 4
    endloop
  endfacet
  facet normal -0.965925 0 -0.25882
    outer loop
      vertex 5.01365 26.62 4
      vertex 4.3532 26.8 6.46482
      vertex 5.01365 26.8 4
    endloop
  endfacet
  facet normal -0.96593 0 -0.258804
    outer loop
      vertex 5.01365 23.58 4
      vertex 5.01365 26.62 4
      vertex 5.02 23.58 3.9763
    endloop
  endfacet
  facet normal -0.965925 -0 -0.25882
    outer loop
      vertex 5.01365 26.62 4
      vertex 5.01365 23.58 4
      vertex 4.3532 26.8 6.46482
    endloop
  endfacet
  facet normal -0.965925 0 -0.25882
    outer loop
      vertex 5.01365 23.4 4
      vertex 4.3532 26.8 6.46482
      vertex 5.01365 23.58 4
    endloop
  endfacet
  facet normal -0.96593 0 -0.258804
    outer loop
      vertex 5.01365 20.18 4
      vertex 5.01365 23.4 4
      vertex 5.02 20.18 3.9763
    endloop
  endfacet
  facet normal -0.965925 0 -0.25882
    outer loop
      vertex 4.3532 20 6.46482
      vertex 5.01365 23.4 4
      vertex 5.01365 20.18 4
    endloop
  endfacet
  facet normal -0.965925 0 -0.25882
    outer loop
      vertex 4.3532 20 6.46482
      vertex 5.01365 20.18 4
      vertex 5.01365 20 4
    endloop
  endfacet
  facet normal -0.965925 0 -0.25882
    outer loop
      vertex 5.01365 23.4 4
      vertex 4.3532 20 6.46482
      vertex 4.3532 26.8 6.46482
    endloop
  endfacet
  facet normal -0.258828 0 0.965924
    outer loop
      vertex 4.3532 26.8 6.46482
      vertex 4.52707 20 6.51141
      vertex 4.52707 26.8 6.51141
    endloop
  endfacet
  facet normal -0.258828 0 0.965924
    outer loop
      vertex 4.52707 20 6.51141
      vertex 4.3532 26.8 6.46482
      vertex 4.3532 20 6.46482
    endloop
  endfacet
  facet normal 0.965925 0 0.258822
    outer loop
      vertex 4.66547 20 5.9949
      vertex 4.52707 26.8 6.51141
      vertex 4.52707 20 6.51141
    endloop
  endfacet
  facet normal 0.965926 2.30186e-07 0.258819
    outer loop
      vertex 4.52707 26.8 6.51141
      vertex 4.66547 20 5.9949
      vertex 5.2 26.8 4
    endloop
  endfacet
  facet normal 0.965926 0 0.258818
    outer loop
      vertex 5.2 26.8 4
      vertex 4.66547 20 5.9949
      vertex 5.2 20 4
    endloop
  endfacet
endsolid OpenSCAD_Model
