solid OpenSCAD_Model
  facet normal 0.0523355 -0.99863 0
    outer loop
      vertex -13.604 0.0243673 0
      vertex -12.2097 0.0974388 4.2
      vertex -13.604 0.0243673 4.2
    endloop
  endfacet
  facet normal 0.0523355 -0.99863 0
    outer loop
      vertex -12.2097 0.0974388 4.2
      vertex -13.604 0.0243673 0
      vertex -12.2097 0.0974388 0
    endloop
  endfacet
  facet normal 0.0174524 -0.999848 0
    outer loop
      vertex -15 0 0
      vertex -13.604 0.0243673 4.2
      vertex -15 0 4.2
    endloop
  endfacet
  facet normal 0.0174524 -0.999848 0
    outer loop
      vertex -13.604 0.0243673 4.2
      vertex -15 0 0
      vertex -13.604 0.0243673 0
    endloop
  endfacet
  facet normal 0.0871607 -0.996194 0
    outer loop
      vertex -12.2097 0.0974388 0
      vertex -10.8189 0.219125 4.2
      vertex -12.2097 0.0974388 4.2
    endloop
  endfacet
  facet normal 0.0871607 -0.996194 0
    outer loop
      vertex -10.8189 0.219125 4.2
      vertex -12.2097 0.0974388 0
      vertex -10.8189 0.219125 0
    endloop
  endfacet
  facet normal -0.156436 -0.987688 0
    outer loop
      vertex -21.9459 0.607691 0
      vertex -20.5669 0.389277 4.2
      vertex -21.9459 0.607691 4.2
    endloop
  endfacet
  facet normal -0.156436 -0.987688 -0
    outer loop
      vertex -20.5669 0.389277 4.2
      vertex -21.9459 0.607691 0
      vertex -20.5669 0.389277 0
    endloop
  endfacet
  facet normal 0.25882 -0.965926 0
    outer loop
      vertex -5.32312 1.18817 0
      vertex -3.97451 1.54953 4.2
      vertex -5.32312 1.18817 4.2
    endloop
  endfacet
  facet normal 0.25882 -0.965926 0
    outer loop
      vertex -3.97451 1.54953 4.2
      vertex -5.32312 1.18817 0
      vertex -3.97451 1.54953 0
    endloop
  endfacet
  facet normal 0.32557 -0.945518 0
    outer loop
      vertex -2.63932 1.95774 0
      vertex -1.31919 2.4123 4.2
      vertex -2.63932 1.95774 4.2
    endloop
  endfacet
  facet normal 0.32557 -0.945518 0
    outer loop
      vertex -1.31919 2.4123 4.2
      vertex -2.63932 1.95774 0
      vertex -1.31919 2.4123 0
    endloop
  endfacet
  facet normal 0.121866 -0.992547 0
    outer loop
      vertex -10.8189 0.219125 0
      vertex -9.43308 0.389277 4.2
      vertex -10.8189 0.219125 4.2
    endloop
  endfacet
  facet normal 0.121866 -0.992547 0
    outer loop
      vertex -9.43308 0.389277 4.2
      vertex -10.8189 0.219125 0
      vertex -9.43308 0.389277 0
    endloop
  endfacet
  facet normal -0.0871607 -0.996194 0
    outer loop
      vertex -19.1811 0.219125 0
      vertex -17.7903 0.0974388 4.2
      vertex -19.1811 0.219125 4.2
    endloop
  endfacet
  facet normal -0.0871607 -0.996194 -0
    outer loop
      vertex -17.7903 0.0974388 4.2
      vertex -19.1811 0.219125 0
      vertex -17.7903 0.0974388 0
    endloop
  endfacet
  facet normal 0.358369 -0.93358 0
    outer loop
      vertex -1.31919 2.4123 0
      vertex -0.0157366 2.91265 4.2
      vertex -1.31919 2.4123 4.2
    endloop
  endfacet
  facet normal 0.358369 -0.93358 0
    outer loop
      vertex -0.0157366 2.91265 4.2
      vertex -1.31919 2.4123 0
      vertex -0.0157366 2.91265 0
    endloop
  endfacet
  facet normal -0.224951 -0.97437 0
    outer loop
      vertex -24.6769 1.18817 0
      vertex -23.3165 0.874097 4.2
      vertex -24.6769 1.18817 4.2
    endloop
  endfacet
  facet normal -0.224951 -0.97437 -0
    outer loop
      vertex -23.3165 0.874097 4.2
      vertex -24.6769 1.18817 0
      vertex -23.3165 0.874097 0
    endloop
  endfacet
  facet normal -0.121867 -0.992546 0
    outer loop
      vertex -20.5669 0.389277 0
      vertex -19.1811 0.219125 4.2
      vertex -20.5669 0.389277 4.2
    endloop
  endfacet
  facet normal -0.121867 -0.992546 -0
    outer loop
      vertex -19.1811 0.219125 4.2
      vertex -20.5669 0.389277 0
      vertex -19.1811 0.219125 0
    endloop
  endfacet
  facet normal -0.292371 -0.956305 0
    outer loop
      vertex -27.3607 1.95774 0
      vertex -26.0255 1.54953 4.2
      vertex -27.3607 1.95774 4.2
    endloop
  endfacet
  facet normal -0.292371 -0.956305 -0
    outer loop
      vertex -26.0255 1.54953 4.2
      vertex -27.3607 1.95774 0
      vertex -26.0255 1.54953 0
    endloop
  endfacet
  facet normal -0.325577 -0.945516 0
    outer loop
      vertex -28.6808 2.4123 0
      vertex -27.3607 1.95774 4.2
      vertex -28.6808 2.4123 4.2
    endloop
  endfacet
  facet normal -0.325577 -0.945516 -0
    outer loop
      vertex -27.3607 1.95774 4.2
      vertex -28.6808 2.4123 0
      vertex -27.3607 1.95774 0
    endloop
  endfacet
  facet normal 0.156435 -0.987688 0
    outer loop
      vertex -9.43308 0.389277 0
      vertex -8.05407 0.607691 4.2
      vertex -9.43308 0.389277 4.2
    endloop
  endfacet
  facet normal 0.156435 -0.987688 0
    outer loop
      vertex -8.05407 0.607691 4.2
      vertex -9.43308 0.389277 0
      vertex -8.05407 0.607691 0
    endloop
  endfacet
  facet normal -0.0174524 -0.999848 0
    outer loop
      vertex -16.396 0.0243673 0
      vertex -15 0 4.2
      vertex -16.396 0.0243673 4.2
    endloop
  endfacet
  facet normal -0.0174524 -0.999848 -0
    outer loop
      vertex -15 0 4.2
      vertex -16.396 0.0243673 0
      vertex -15 0 0
    endloop
  endfacet
  facet normal 0.224949 -0.97437 0
    outer loop
      vertex -6.68353 0.874097 0
      vertex -5.32312 1.18817 4.2
      vertex -6.68353 0.874097 4.2
    endloop
  endfacet
  facet normal 0.224949 -0.97437 0
    outer loop
      vertex -5.32312 1.18817 4.2
      vertex -6.68353 0.874097 0
      vertex -5.32312 1.18817 0
    endloop
  endfacet
  facet normal -0.391513 -0.920173 0
    outer loop
      vertex -30 2.91933 0
      vertex -29.9843 2.91265 4.2
      vertex -30 2.91933 4.2
    endloop
  endfacet
  facet normal -0.391513 -0.920173 -0
    outer loop
      vertex -29.9843 2.91265 4.2
      vertex -30 2.91933 0
      vertex -29.9843 2.91265 0
    endloop
  endfacet
  facet normal 0.292373 -0.956304 0
    outer loop
      vertex -3.97451 1.54953 0
      vertex -2.63932 1.95774 4.2
      vertex -3.97451 1.54953 4.2
    endloop
  endfacet
  facet normal 0.292373 -0.956304 0
    outer loop
      vertex -2.63932 1.95774 4.2
      vertex -3.97451 1.54953 0
      vertex -2.63932 1.95774 0
    endloop
  endfacet
  facet normal -0.258822 -0.965925 0
    outer loop
      vertex -26.0255 1.54953 0
      vertex -24.6769 1.18817 4.2
      vertex -26.0255 1.54953 4.2
    endloop
  endfacet
  facet normal -0.258822 -0.965925 -0
    outer loop
      vertex -24.6769 1.18817 4.2
      vertex -26.0255 1.54953 0
      vertex -24.6769 1.18817 0
    endloop
  endfacet
  facet normal 0.190809 -0.981627 0
    outer loop
      vertex -8.05407 0.607691 0
      vertex -6.68353 0.874097 4.2
      vertex -8.05407 0.607691 4.2
    endloop
  endfacet
  facet normal 0.190809 -0.981627 0
    outer loop
      vertex -6.68353 0.874097 4.2
      vertex -8.05407 0.607691 0
      vertex -6.68353 0.874097 0
    endloop
  endfacet
  facet normal 0.390742 -0.9205 0
    outer loop
      vertex -0.0157366 2.91265 0
      vertex 0 2.91933 4.2
      vertex -0.0157366 2.91265 4.2
    endloop
  endfacet
  facet normal 0.390742 -0.9205 0
    outer loop
      vertex 0 2.91933 4.2
      vertex -0.0157366 2.91265 0
      vertex 0 2.91933 0
    endloop
  endfacet
  facet normal -0.0523355 -0.99863 0
    outer loop
      vertex -17.7903 0.0974388 0
      vertex -16.396 0.0243673 4.2
      vertex -17.7903 0.0974388 4.2
    endloop
  endfacet
  facet normal -0.0523355 -0.99863 -0
    outer loop
      vertex -16.396 0.0243673 4.2
      vertex -17.7903 0.0974388 0
      vertex -16.396 0.0243673 0
    endloop
  endfacet
  facet normal -0.358357 -0.933584 0
    outer loop
      vertex -29.9843 2.91265 0
      vertex -28.6808 2.4123 4.2
      vertex -29.9843 2.91265 4.2
    endloop
  endfacet
  facet normal -0.358357 -0.933584 -0
    outer loop
      vertex -28.6808 2.4123 4.2
      vertex -29.9843 2.91265 0
      vertex -28.6808 2.4123 0
    endloop
  endfacet
  facet normal -0 0 1
    outer loop
      vertex -0.972124 11.2386 4.2
      vertex 0 2.91933 4.2
      vertex 0 11.7339 4.2
    endloop
  endfacet
  facet normal -0 0 1
    outer loop
      vertex -1.98443 10.7665 4.2
      vertex 0 2.91933 4.2
      vertex -0.972124 11.2386 4.2
    endloop
  endfacet
  facet normal -0 0 1
    outer loop
      vertex -3.01259 10.3301 4.2
      vertex 0 2.91933 4.2
      vertex -1.98443 10.7665 4.2
    endloop
  endfacet
  facet normal 0 0 1
    outer loop
      vertex 0 2.91933 4.2
      vertex -3.01259 10.3301 4.2
      vertex -0.0157366 2.91265 4.2
    endloop
  endfacet
  facet normal 0 0 1
    outer loop
      vertex -0.0157366 2.91265 4.2
      vertex -3.01259 10.3301 4.2
      vertex -1.31919 2.4123 4.2
    endloop
  endfacet
  facet normal -0 0 1
    outer loop
      vertex -4.05536 9.92984 4.2
      vertex -1.31919 2.4123 4.2
      vertex -3.01259 10.3301 4.2
    endloop
  endfacet
  facet normal 0 0 1
    outer loop
      vertex -1.31919 2.4123 4.2
      vertex -4.05536 9.92984 4.2
      vertex -2.63932 1.95774 4.2
    endloop
  endfacet
  facet normal -0 0 1
    outer loop
      vertex -5.11146 9.56619 4.2
      vertex -2.63932 1.95774 4.2
      vertex -4.05536 9.92984 4.2
    endloop
  endfacet
  facet normal 0 0 1
    outer loop
      vertex -2.63932 1.95774 4.2
      vertex -5.11146 9.56619 4.2
      vertex -3.97451 1.54953 4.2
    endloop
  endfacet
  facet normal -0 0 1
    outer loop
      vertex -6.17961 9.23963 4.2
      vertex -3.97451 1.54953 4.2
      vertex -5.11146 9.56619 4.2
    endloop
  endfacet
  facet normal 0 0 1
    outer loop
      vertex -3.97451 1.54953 4.2
      vertex -6.17961 9.23963 4.2
      vertex -5.32312 1.18817 4.2
    endloop
  endfacet
  facet normal -0 0 1
    outer loop
      vertex -7.2585 8.95054 4.2
      vertex -5.32312 1.18817 4.2
      vertex -6.17961 9.23963 4.2
    endloop
  endfacet
  facet normal 0 0 1
    outer loop
      vertex -5.32312 1.18817 4.2
      vertex -7.2585 8.95054 4.2
      vertex -6.68353 0.874097 4.2
    endloop
  endfacet
  facet normal -0 0 1
    outer loop
      vertex -8.34683 8.69928 4.2
      vertex -6.68353 0.874097 4.2
      vertex -7.2585 8.95054 4.2
    endloop
  endfacet
  facet normal 0 0 1
    outer loop
      vertex -6.68353 0.874097 4.2
      vertex -8.34683 8.69928 4.2
      vertex -8.05407 0.607691 4.2
    endloop
  endfacet
  facet normal -0 0 1
    outer loop
      vertex -9.44326 8.48615 4.2
      vertex -8.05407 0.607691 4.2
      vertex -8.34683 8.69928 4.2
    endloop
  endfacet
  facet normal 0 0 1
    outer loop
      vertex -8.05407 0.607691 4.2
      vertex -9.44326 8.48615 4.2
      vertex -9.43308 0.389277 4.2
    endloop
  endfacet
  facet normal -0 0 1
    outer loop
      vertex -10.5465 8.31142 4.2
      vertex -9.43308 0.389277 4.2
      vertex -9.44326 8.48615 4.2
    endloop
  endfacet
  facet normal 0 0 1
    outer loop
      vertex -10.5465 8.31142 4.2
      vertex -10.8189 0.219125 4.2
      vertex -9.43308 0.389277 4.2
    endloop
  endfacet
  facet normal -0 0 1
    outer loop
      vertex -11.6551 8.1753 4.2
      vertex -10.8189 0.219125 4.2
      vertex -10.5465 8.31142 4.2
    endloop
  endfacet
  facet normal 0 0 1
    outer loop
      vertex -11.6551 8.1753 4.2
      vertex -12.2097 0.0974388 4.2
      vertex -10.8189 0.219125 4.2
    endloop
  endfacet
  facet normal -0 0 1
    outer loop
      vertex -12.7678 8.07795 4.2
      vertex -12.2097 0.0974388 4.2
      vertex -11.6551 8.1753 4.2
    endloop
  endfacet
  facet normal 0 0 1
    outer loop
      vertex -12.7678 8.07795 4.2
      vertex -13.604 0.0243673 4.2
      vertex -12.2097 0.0974388 4.2
    endloop
  endfacet
  facet normal -0 0 1
    outer loop
      vertex -13.8832 8.01949 4.2
      vertex -13.604 0.0243673 4.2
      vertex -12.7678 8.07795 4.2
    endloop
  endfacet
  facet normal -0 0 1
    outer loop
      vertex -15 8 4.2
      vertex -13.604 0.0243673 4.2
      vertex -13.8832 8.01949 4.2
    endloop
  endfacet
  facet normal 0 0 1
    outer loop
      vertex -15 8 4.2
      vertex -15 0 4.2
      vertex -13.604 0.0243673 4.2
    endloop
  endfacet
  facet normal 0 0 1
    outer loop
      vertex -16.1168 8.01949 4.2
      vertex -15 0 4.2
      vertex -15 8 4.2
    endloop
  endfacet
  facet normal 0 0 1
    outer loop
      vertex -16.1168 8.01949 4.2
      vertex -16.396 0.0243673 4.2
      vertex -15 0 4.2
    endloop
  endfacet
  facet normal 0 0 1
    outer loop
      vertex -17.2322 8.07795 4.2
      vertex -16.396 0.0243673 4.2
      vertex -16.1168 8.01949 4.2
    endloop
  endfacet
  facet normal 0 0 1
    outer loop
      vertex -17.2322 8.07795 4.2
      vertex -17.7903 0.0974388 4.2
      vertex -16.396 0.0243673 4.2
    endloop
  endfacet
  facet normal 0 0 1
    outer loop
      vertex -18.3449 8.1753 4.2
      vertex -17.7903 0.0974388 4.2
      vertex -17.2322 8.07795 4.2
    endloop
  endfacet
  facet normal 0 0 1
    outer loop
      vertex -18.3449 8.1753 4.2
      vertex -19.1811 0.219125 4.2
      vertex -17.7903 0.0974388 4.2
    endloop
  endfacet
  facet normal 0 0 1
    outer loop
      vertex -19.4535 8.31142 4.2
      vertex -19.1811 0.219125 4.2
      vertex -18.3449 8.1753 4.2
    endloop
  endfacet
  facet normal 0 0 1
    outer loop
      vertex -20.5669 0.389277 4.2
      vertex -19.4535 8.31142 4.2
      vertex -20.5567 8.48615 4.2
    endloop
  endfacet
  facet normal 0 0 1
    outer loop
      vertex -19.4535 8.31142 4.2
      vertex -20.5669 0.389277 4.2
      vertex -19.1811 0.219125 4.2
    endloop
  endfacet
  facet normal 0 0 1
    outer loop
      vertex -21.9459 0.607691 4.2
      vertex -20.5567 8.48615 4.2
      vertex -21.6532 8.69928 4.2
    endloop
  endfacet
  facet normal 0 0 1
    outer loop
      vertex -20.5567 8.48615 4.2
      vertex -21.9459 0.607691 4.2
      vertex -20.5669 0.389277 4.2
    endloop
  endfacet
  facet normal 0 0 1
    outer loop
      vertex -23.3165 0.874097 4.2
      vertex -21.6532 8.69928 4.2
      vertex -22.7415 8.95054 4.2
    endloop
  endfacet
  facet normal 0 0 1
    outer loop
      vertex -21.6532 8.69928 4.2
      vertex -23.3165 0.874097 4.2
      vertex -21.9459 0.607691 4.2
    endloop
  endfacet
  facet normal 0 0 1
    outer loop
      vertex -24.6769 1.18817 4.2
      vertex -22.7415 8.95054 4.2
      vertex -23.8204 9.23963 4.2
    endloop
  endfacet
  facet normal 0 0 1
    outer loop
      vertex -22.7415 8.95054 4.2
      vertex -24.6769 1.18817 4.2
      vertex -23.3165 0.874097 4.2
    endloop
  endfacet
  facet normal 0 0 1
    outer loop
      vertex -26.0255 1.54953 4.2
      vertex -23.8204 9.23963 4.2
      vertex -24.8885 9.56619 4.2
    endloop
  endfacet
  facet normal 0 0 1
    outer loop
      vertex -27.3607 1.95774 4.2
      vertex -24.8885 9.56619 4.2
      vertex -25.9446 9.92984 4.2
    endloop
  endfacet
  facet normal 0 0 1
    outer loop
      vertex -23.8204 9.23963 4.2
      vertex -26.0255 1.54953 4.2
      vertex -24.6769 1.18817 4.2
    endloop
  endfacet
  facet normal 0 0 1
    outer loop
      vertex -28.6808 2.4123 4.2
      vertex -25.9446 9.92984 4.2
      vertex -26.9874 10.3301 4.2
    endloop
  endfacet
  facet normal 0 0 1
    outer loop
      vertex -24.8885 9.56619 4.2
      vertex -27.3607 1.95774 4.2
      vertex -26.0255 1.54953 4.2
    endloop
  endfacet
  facet normal 0 0 1
    outer loop
      vertex -30 2.91933 4.2
      vertex -26.9874 10.3301 4.2
      vertex -28.0156 10.7665 4.2
    endloop
  endfacet
  facet normal 0 0 1
    outer loop
      vertex -25.9446 9.92984 4.2
      vertex -28.6808 2.4123 4.2
      vertex -27.3607 1.95774 4.2
    endloop
  endfacet
  facet normal 0 0 1
    outer loop
      vertex -30 2.91933 4.2
      vertex -28.0156 10.7665 4.2
      vertex -29.0279 11.2386 4.2
    endloop
  endfacet
  facet normal 0 0 1
    outer loop
      vertex -26.9874 10.3301 4.2
      vertex -29.9843 2.91265 4.2
      vertex -28.6808 2.4123 4.2
    endloop
  endfacet
  facet normal 0 0 1
    outer loop
      vertex -30 2.91933 4.2
      vertex -29.0279 11.2386 4.2
      vertex -30 11.7339 4.2
    endloop
  endfacet
  facet normal 0 0 1
    outer loop
      vertex -26.9874 10.3301 4.2
      vertex -30 2.91933 4.2
      vertex -29.9843 2.91265 4.2
    endloop
  endfacet
  facet normal -0.190801 -0.981629 0
    outer loop
      vertex -23.3165 0.874097 0
      vertex -21.9459 0.607691 4.2
      vertex -23.3165 0.874097 4.2
    endloop
  endfacet
  facet normal -0.190801 -0.981629 -0
    outer loop
      vertex -21.9459 0.607691 4.2
      vertex -23.3165 0.874097 0
      vertex -21.9459 0.607691 0
    endloop
  endfacet
  facet normal 0 0 -1
    outer loop
      vertex -3.01259 10.3301 0
      vertex 0 2.91933 0
      vertex -0.0157366 2.91265 0
    endloop
  endfacet
  facet normal 0 0 -1
    outer loop
      vertex 0 2.91933 0
      vertex -0.972124 11.2386 0
      vertex 0 11.7339 0
    endloop
  endfacet
  facet normal 0 0 -1
    outer loop
      vertex -3.01259 10.3301 0
      vertex -0.0157366 2.91265 0
      vertex -1.31919 2.4123 0
    endloop
  endfacet
  facet normal 0 0 -1
    outer loop
      vertex 0 2.91933 0
      vertex -1.98443 10.7665 0
      vertex -0.972124 11.2386 0
    endloop
  endfacet
  facet normal 0 0 -1
    outer loop
      vertex -4.05536 9.92984 0
      vertex -1.31919 2.4123 0
      vertex -2.63932 1.95774 0
    endloop
  endfacet
  facet normal 0 0 -1
    outer loop
      vertex 0 2.91933 0
      vertex -3.01259 10.3301 0
      vertex -1.98443 10.7665 0
    endloop
  endfacet
  facet normal 0 0 -1
    outer loop
      vertex -5.11146 9.56619 0
      vertex -2.63932 1.95774 0
      vertex -3.97451 1.54953 0
    endloop
  endfacet
  facet normal 0 0 -1
    outer loop
      vertex -1.31919 2.4123 0
      vertex -4.05536 9.92984 0
      vertex -3.01259 10.3301 0
    endloop
  endfacet
  facet normal 0 0 -1
    outer loop
      vertex -2.63932 1.95774 0
      vertex -5.11146 9.56619 0
      vertex -4.05536 9.92984 0
    endloop
  endfacet
  facet normal 0 0 -1
    outer loop
      vertex -6.17961 9.23963 0
      vertex -3.97451 1.54953 0
      vertex -5.32312 1.18817 0
    endloop
  endfacet
  facet normal 0 0 -1
    outer loop
      vertex -3.97451 1.54953 0
      vertex -6.17961 9.23963 0
      vertex -5.11146 9.56619 0
    endloop
  endfacet
  facet normal 0 0 -1
    outer loop
      vertex -7.2585 8.95054 0
      vertex -5.32312 1.18817 0
      vertex -6.68353 0.874097 0
    endloop
  endfacet
  facet normal 0 0 -1
    outer loop
      vertex -5.32312 1.18817 0
      vertex -7.2585 8.95054 0
      vertex -6.17961 9.23963 0
    endloop
  endfacet
  facet normal 0 0 -1
    outer loop
      vertex -8.34683 8.69928 0
      vertex -6.68353 0.874097 0
      vertex -8.05407 0.607691 0
    endloop
  endfacet
  facet normal 0 0 -1
    outer loop
      vertex -6.68353 0.874097 0
      vertex -8.34683 8.69928 0
      vertex -7.2585 8.95054 0
    endloop
  endfacet
  facet normal 0 0 -1
    outer loop
      vertex -9.44326 8.48615 0
      vertex -8.05407 0.607691 0
      vertex -9.43308 0.389277 0
    endloop
  endfacet
  facet normal 0 0 -1
    outer loop
      vertex -8.05407 0.607691 0
      vertex -9.44326 8.48615 0
      vertex -8.34683 8.69928 0
    endloop
  endfacet
  facet normal 0 0 -1
    outer loop
      vertex -9.43308 0.389277 0
      vertex -10.5465 8.31142 0
      vertex -9.44326 8.48615 0
    endloop
  endfacet
  facet normal 0 0 -1
    outer loop
      vertex -10.8189 0.219125 0
      vertex -10.5465 8.31142 0
      vertex -9.43308 0.389277 0
    endloop
  endfacet
  facet normal 0 0 -1
    outer loop
      vertex -10.8189 0.219125 0
      vertex -11.6551 8.1753 0
      vertex -10.5465 8.31142 0
    endloop
  endfacet
  facet normal 0 0 -1
    outer loop
      vertex -12.2097 0.0974388 0
      vertex -11.6551 8.1753 0
      vertex -10.8189 0.219125 0
    endloop
  endfacet
  facet normal 0 0 -1
    outer loop
      vertex -12.2097 0.0974388 0
      vertex -12.7678 8.07795 0
      vertex -11.6551 8.1753 0
    endloop
  endfacet
  facet normal 0 0 -1
    outer loop
      vertex -13.604 0.0243673 0
      vertex -12.7678 8.07795 0
      vertex -12.2097 0.0974388 0
    endloop
  endfacet
  facet normal 0 0 -1
    outer loop
      vertex -13.604 0.0243673 0
      vertex -13.8832 8.01949 0
      vertex -12.7678 8.07795 0
    endloop
  endfacet
  facet normal 0 0 -1
    outer loop
      vertex -15 0 0
      vertex -13.8832 8.01949 0
      vertex -13.604 0.0243673 0
    endloop
  endfacet
  facet normal 0 0 -1
    outer loop
      vertex -15 0 0
      vertex -15 8 0
      vertex -13.8832 8.01949 0
    endloop
  endfacet
  facet normal 0 0 -1
    outer loop
      vertex -15 0 0
      vertex -16.1168 8.01949 0
      vertex -15 8 0
    endloop
  endfacet
  facet normal 0 0 -1
    outer loop
      vertex -16.396 0.0243673 0
      vertex -16.1168 8.01949 0
      vertex -15 0 0
    endloop
  endfacet
  facet normal 0 0 -1
    outer loop
      vertex -16.396 0.0243673 0
      vertex -17.2322 8.07795 0
      vertex -16.1168 8.01949 0
    endloop
  endfacet
  facet normal 0 0 -1
    outer loop
      vertex -17.7903 0.0974388 0
      vertex -17.2322 8.07795 0
      vertex -16.396 0.0243673 0
    endloop
  endfacet
  facet normal 0 0 -1
    outer loop
      vertex -17.7903 0.0974388 0
      vertex -18.3449 8.1753 0
      vertex -17.2322 8.07795 0
    endloop
  endfacet
  facet normal 0 0 -1
    outer loop
      vertex -19.1811 0.219125 0
      vertex -18.3449 8.1753 0
      vertex -17.7903 0.0974388 0
    endloop
  endfacet
  facet normal 0 0 -1
    outer loop
      vertex -19.1811 0.219125 0
      vertex -19.4535 8.31142 0
      vertex -18.3449 8.1753 0
    endloop
  endfacet
  facet normal 0 0 -1
    outer loop
      vertex -20.5669 0.389277 0
      vertex -19.4535 8.31142 0
      vertex -19.1811 0.219125 0
    endloop
  endfacet
  facet normal -0 0 -1
    outer loop
      vertex -19.4535 8.31142 0
      vertex -20.5669 0.389277 0
      vertex -20.5567 8.48615 0
    endloop
  endfacet
  facet normal 0 0 -1
    outer loop
      vertex -21.9459 0.607691 0
      vertex -20.5567 8.48615 0
      vertex -20.5669 0.389277 0
    endloop
  endfacet
  facet normal -0 0 -1
    outer loop
      vertex -20.5567 8.48615 0
      vertex -21.9459 0.607691 0
      vertex -21.6532 8.69928 0
    endloop
  endfacet
  facet normal 0 0 -1
    outer loop
      vertex -23.3165 0.874097 0
      vertex -21.6532 8.69928 0
      vertex -21.9459 0.607691 0
    endloop
  endfacet
  facet normal -0 0 -1
    outer loop
      vertex -21.6532 8.69928 0
      vertex -23.3165 0.874097 0
      vertex -22.7415 8.95054 0
    endloop
  endfacet
  facet normal 0 0 -1
    outer loop
      vertex -24.6769 1.18817 0
      vertex -22.7415 8.95054 0
      vertex -23.3165 0.874097 0
    endloop
  endfacet
  facet normal -0 0 -1
    outer loop
      vertex -22.7415 8.95054 0
      vertex -24.6769 1.18817 0
      vertex -23.8204 9.23963 0
    endloop
  endfacet
  facet normal 0 0 -1
    outer loop
      vertex -26.0255 1.54953 0
      vertex -23.8204 9.23963 0
      vertex -24.6769 1.18817 0
    endloop
  endfacet
  facet normal -0 0 -1
    outer loop
      vertex -23.8204 9.23963 0
      vertex -26.0255 1.54953 0
      vertex -24.8885 9.56619 0
    endloop
  endfacet
  facet normal 0 0 -1
    outer loop
      vertex -27.3607 1.95774 0
      vertex -24.8885 9.56619 0
      vertex -26.0255 1.54953 0
    endloop
  endfacet
  facet normal -0 0 -1
    outer loop
      vertex -24.8885 9.56619 0
      vertex -27.3607 1.95774 0
      vertex -25.9446 9.92984 0
    endloop
  endfacet
  facet normal 0 0 -1
    outer loop
      vertex -28.6808 2.4123 0
      vertex -25.9446 9.92984 0
      vertex -27.3607 1.95774 0
    endloop
  endfacet
  facet normal -0 0 -1
    outer loop
      vertex -25.9446 9.92984 0
      vertex -28.6808 2.4123 0
      vertex -26.9874 10.3301 0
    endloop
  endfacet
  facet normal 0 0 -1
    outer loop
      vertex -29.9843 2.91265 0
      vertex -26.9874 10.3301 0
      vertex -28.6808 2.4123 0
    endloop
  endfacet
  facet normal 0 0 -1
    outer loop
      vertex -30 2.91933 0
      vertex -26.9874 10.3301 0
      vertex -29.9843 2.91265 0
    endloop
  endfacet
  facet normal -0 0 -1
    outer loop
      vertex -26.9874 10.3301 0
      vertex -30 2.91933 0
      vertex -28.0156 10.7665 0
    endloop
  endfacet
  facet normal -0 0 -1
    outer loop
      vertex -28.0156 10.7665 0
      vertex -30 2.91933 0
      vertex -29.0279 11.2386 0
    endloop
  endfacet
  facet normal -0 0 -1
    outer loop
      vertex -29.0279 11.2386 0
      vertex -30 2.91933 0
      vertex -30 11.7339 0
    endloop
  endfacet
  facet normal -0.0523399 0.998629 0
    outer loop
      vertex -12.7678 8.07795 0
      vertex -13.8832 8.01949 4.2
      vertex -12.7678 8.07795 4.2
    endloop
  endfacet
  facet normal -0.0523399 0.998629 0
    outer loop
      vertex -13.8832 8.01949 4.2
      vertex -12.7678 8.07795 0
      vertex -13.8832 8.01949 0
    endloop
  endfacet
  facet normal -0.017449 0.999848 0
    outer loop
      vertex -13.8832 8.01949 0
      vertex -15 8 4.2
      vertex -13.8832 8.01949 4.2
    endloop
  endfacet
  facet normal -0.017449 0.999848 0
    outer loop
      vertex -15 8 4.2
      vertex -13.8832 8.01949 0
      vertex -15 8 0
    endloop
  endfacet
  facet normal -0.087157 0.996195 0
    outer loop
      vertex -11.6551 8.1753 0
      vertex -12.7678 8.07795 4.2
      vertex -11.6551 8.1753 4.2
    endloop
  endfacet
  facet normal -0.087157 0.996195 0
    outer loop
      vertex -12.7678 8.07795 4.2
      vertex -11.6551 8.1753 0
      vertex -12.7678 8.07795 0
    endloop
  endfacet
  facet normal -0.22495 0.97437 0
    outer loop
      vertex -7.2585 8.95054 0
      vertex -8.34683 8.69928 4.2
      vertex -7.2585 8.95054 4.2
    endloop
  endfacet
  facet normal -0.22495 0.97437 0
    outer loop
      vertex -8.34683 8.69928 4.2
      vertex -7.2585 8.95054 0
      vertex -8.34683 8.69928 0
    endloop
  endfacet
  facet normal 0.087157 0.996195 -0
    outer loop
      vertex -17.2322 8.07795 0
      vertex -18.3449 8.1753 4.2
      vertex -17.2322 8.07795 4.2
    endloop
  endfacet
  facet normal 0.087157 0.996195 0
    outer loop
      vertex -18.3449 8.1753 4.2
      vertex -17.2322 8.07795 0
      vertex -18.3449 8.1753 0
    endloop
  endfacet
  facet normal 0.0523399 0.998629 -0
    outer loop
      vertex -16.1168 8.01949 0
      vertex -17.2322 8.07795 4.2
      vertex -16.1168 8.01949 4.2
    endloop
  endfacet
  facet normal 0.0523399 0.998629 0
    outer loop
      vertex -17.2322 8.07795 4.2
      vertex -16.1168 8.01949 0
      vertex -17.2322 8.07795 0
    endloop
  endfacet
  facet normal -0.422658 0.906289 0
    outer loop
      vertex -0.972124 11.2386 0
      vertex -1.98443 10.7665 4.2
      vertex -0.972124 11.2386 4.2
    endloop
  endfacet
  facet normal -0.422658 0.906289 0
    outer loop
      vertex -1.98443 10.7665 4.2
      vertex -0.972124 11.2386 0
      vertex -1.98443 10.7665 0
    endloop
  endfacet
  facet normal -0.292367 0.956306 0
    outer loop
      vertex -5.11146 9.56619 0
      vertex -6.17961 9.23963 4.2
      vertex -5.11146 9.56619 4.2
    endloop
  endfacet
  facet normal -0.292367 0.956306 0
    outer loop
      vertex -6.17961 9.23963 4.2
      vertex -5.11146 9.56619 0
      vertex -6.17961 9.23963 0
    endloop
  endfacet
  facet normal 0.12187 0.992546 -0
    outer loop
      vertex -18.3449 8.1753 0
      vertex -19.4535 8.31142 4.2
      vertex -18.3449 8.1753 4.2
    endloop
  endfacet
  facet normal 0.12187 0.992546 0
    outer loop
      vertex -19.4535 8.31142 4.2
      vertex -18.3449 8.1753 0
      vertex -19.4535 8.31142 0
    endloop
  endfacet
  facet normal -0.453975 0.891015 0
    outer loop
      vertex 0 11.7339 0
      vertex -0.972124 11.2386 4.2
      vertex 0 11.7339 4.2
    endloop
  endfacet
  facet normal -0.453975 0.891015 0
    outer loop
      vertex -0.972124 11.2386 4.2
      vertex 0 11.7339 0
      vertex -0.972124 11.2386 0
    endloop
  endfacet
  facet normal 0.258819 0.965926 -0
    outer loop
      vertex -22.7415 8.95054 0
      vertex -23.8204 9.23963 4.2
      vertex -22.7415 8.95054 4.2
    endloop
  endfacet
  facet normal 0.258819 0.965926 0
    outer loop
      vertex -23.8204 9.23963 4.2
      vertex -22.7415 8.95054 0
      vertex -23.8204 9.23963 0
    endloop
  endfacet
  facet normal 0.42266 0.906288 -0
    outer loop
      vertex -28.0156 10.7665 0
      vertex -29.0279 11.2386 4.2
      vertex -28.0156 10.7665 4.2
    endloop
  endfacet
  facet normal 0.42266 0.906288 0
    outer loop
      vertex -29.0279 11.2386 4.2
      vertex -28.0156 10.7665 0
      vertex -29.0279 11.2386 0
    endloop
  endfacet
  facet normal 0.453983 0.89101 -0
    outer loop
      vertex -29.0279 11.2386 0
      vertex -30 11.7339 4.2
      vertex -29.0279 11.2386 4.2
    endloop
  endfacet
  facet normal 0.453983 0.89101 0
    outer loop
      vertex -30 11.7339 4.2
      vertex -29.0279 11.2386 0
      vertex -30 11.7339 0
    endloop
  endfacet
  facet normal -0.258821 0.965925 0
    outer loop
      vertex -6.17961 9.23963 0
      vertex -7.2585 8.95054 4.2
      vertex -6.17961 9.23963 4.2
    endloop
  endfacet
  facet normal -0.258821 0.965925 0
    outer loop
      vertex -7.2585 8.95054 4.2
      vertex -6.17961 9.23963 0
      vertex -7.2585 8.95054 0
    endloop
  endfacet
  facet normal -0.39071 0.920514 0
    outer loop
      vertex -1.98443 10.7665 0
      vertex -3.01259 10.3301 4.2
      vertex -1.98443 10.7665 4.2
    endloop
  endfacet
  facet normal -0.39071 0.920514 0
    outer loop
      vertex -3.01259 10.3301 4.2
      vertex -1.98443 10.7665 0
      vertex -3.01259 10.3301 0
    endloop
  endfacet
  facet normal 0.156435 0.987688 -0
    outer loop
      vertex -19.4535 8.31142 0
      vertex -20.5567 8.48615 4.2
      vertex -19.4535 8.31142 4.2
    endloop
  endfacet
  facet normal 0.156435 0.987688 0
    outer loop
      vertex -20.5567 8.48615 4.2
      vertex -19.4535 8.31142 0
      vertex -20.5567 8.48615 0
    endloop
  endfacet
  facet normal 0.292379 0.956302 -0
    outer loop
      vertex -23.8204 9.23963 0
      vertex -24.8885 9.56619 4.2
      vertex -23.8204 9.23963 4.2
    endloop
  endfacet
  facet normal 0.292379 0.956302 0
    outer loop
      vertex -24.8885 9.56619 4.2
      vertex -23.8204 9.23963 0
      vertex -24.8885 9.56619 0
    endloop
  endfacet
  facet normal 0.224956 0.974369 -0
    outer loop
      vertex -21.6532 8.69928 0
      vertex -22.7415 8.95054 4.2
      vertex -21.6532 8.69928 4.2
    endloop
  endfacet
  facet normal 0.224956 0.974369 0
    outer loop
      vertex -22.7415 8.95054 4.2
      vertex -21.6532 8.69928 0
      vertex -22.7415 8.95054 0
    endloop
  endfacet
  facet normal -0.358351 0.933587 0
    outer loop
      vertex -3.01259 10.3301 0
      vertex -4.05536 9.92984 4.2
      vertex -3.01259 10.3301 4.2
    endloop
  endfacet
  facet normal -0.358351 0.933587 0
    outer loop
      vertex -4.05536 9.92984 4.2
      vertex -3.01259 10.3301 0
      vertex -4.05536 9.92984 0
    endloop
  endfacet
  facet normal -0.12187 0.992546 0
    outer loop
      vertex -10.5465 8.31142 0
      vertex -11.6551 8.1753 4.2
      vertex -10.5465 8.31142 4.2
    endloop
  endfacet
  facet normal -0.12187 0.992546 0
    outer loop
      vertex -11.6551 8.1753 4.2
      vertex -10.5465 8.31142 0
      vertex -11.6551 8.1753 0
    endloop
  endfacet
  facet normal -0.325573 0.945517 0
    outer loop
      vertex -4.05536 9.92984 0
      vertex -5.11146 9.56619 4.2
      vertex -4.05536 9.92984 4.2
    endloop
  endfacet
  facet normal -0.325573 0.945517 0
    outer loop
      vertex -5.11146 9.56619 4.2
      vertex -4.05536 9.92984 0
      vertex -5.11146 9.56619 0
    endloop
  endfacet
  facet normal 0.358342 0.93359 -0
    outer loop
      vertex -25.9446 9.92984 0
      vertex -26.9874 10.3301 4.2
      vertex -25.9446 9.92984 4.2
    endloop
  endfacet
  facet normal 0.358342 0.93359 0
    outer loop
      vertex -26.9874 10.3301 4.2
      vertex -25.9446 9.92984 0
      vertex -26.9874 10.3301 0
    endloop
  endfacet
  facet normal 0.325573 0.945517 -0
    outer loop
      vertex -24.8885 9.56619 0
      vertex -25.9446 9.92984 4.2
      vertex -24.8885 9.56619 4.2
    endloop
  endfacet
  facet normal 0.325573 0.945517 0
    outer loop
      vertex -25.9446 9.92984 4.2
      vertex -24.8885 9.56619 0
      vertex -25.9446 9.92984 0
    endloop
  endfacet
  facet normal 0.017449 0.999848 -0
    outer loop
      vertex -15 8 0
      vertex -16.1168 8.01949 4.2
      vertex -15 8 4.2
    endloop
  endfacet
  facet normal 0.017449 0.999848 0
    outer loop
      vertex -16.1168 8.01949 4.2
      vertex -15 8 0
      vertex -16.1168 8.01949 0
    endloop
  endfacet
  facet normal -0.190814 0.981626 0
    outer loop
      vertex -8.34683 8.69928 0
      vertex -9.44326 8.48615 4.2
      vertex -8.34683 8.69928 4.2
    endloop
  endfacet
  facet normal -0.190814 0.981626 0
    outer loop
      vertex -9.44326 8.48615 4.2
      vertex -8.34683 8.69928 0
      vertex -9.44326 8.48615 0
    endloop
  endfacet
  facet normal 0.190802 0.981629 -0
    outer loop
      vertex -20.5567 8.48615 0
      vertex -21.6532 8.69928 4.2
      vertex -20.5567 8.48615 4.2
    endloop
  endfacet
  facet normal 0.190802 0.981629 0
    outer loop
      vertex -21.6532 8.69928 4.2
      vertex -20.5567 8.48615 0
      vertex -21.6532 8.69928 0
    endloop
  endfacet
  facet normal -0.156429 0.987689 0
    outer loop
      vertex -9.44326 8.48615 0
      vertex -10.5465 8.31142 4.2
      vertex -9.44326 8.48615 4.2
    endloop
  endfacet
  facet normal -0.156429 0.987689 0
    outer loop
      vertex -10.5465 8.31142 4.2
      vertex -9.44326 8.48615 0
      vertex -10.5465 8.31142 0
    endloop
  endfacet
  facet normal 0.390697 0.920519 -0
    outer loop
      vertex -26.9874 10.3301 0
      vertex -28.0156 10.7665 4.2
      vertex -26.9874 10.3301 4.2
    endloop
  endfacet
  facet normal 0.390697 0.920519 0
    outer loop
      vertex -28.0156 10.7665 4.2
      vertex -26.9874 10.3301 0
      vertex -28.0156 10.7665 0
    endloop
  endfacet
  facet normal -0.121867 -0.992546 0
    outer loop
      vertex -20.5669 0.389277 4.2
      vertex -19.1811 0.219125 8
      vertex -20.5669 0.389277 8
    endloop
  endfacet
  facet normal -0.121867 -0.992546 -0
    outer loop
      vertex -19.1811 0.219125 8
      vertex -20.5669 0.389277 4.2
      vertex -19.1811 0.219125 4.2
    endloop
  endfacet
  facet normal 0.0174524 -0.999848 0
    outer loop
      vertex -15 0 4.2
      vertex -13.604 0.0243673 8
      vertex -15 0 8
    endloop
  endfacet
  facet normal 0.0174524 -0.999848 0
    outer loop
      vertex -13.604 0.0243673 8
      vertex -15 0 4.2
      vertex -13.604 0.0243673 4.2
    endloop
  endfacet
  facet normal -0.358357 -0.933584 0
    outer loop
      vertex -29.9843 2.91265 4.2
      vertex -28.6808 2.4123 8
      vertex -29.9843 2.91265 8
    endloop
  endfacet
  facet normal -0.358357 -0.933584 -0
    outer loop
      vertex -28.6808 2.4123 8
      vertex -29.9843 2.91265 4.2
      vertex -28.6808 2.4123 4.2
    endloop
  endfacet
  facet normal -0.292371 -0.956305 0
    outer loop
      vertex -27.3607 1.95774 4.2
      vertex -26.0255 1.54953 8
      vertex -27.3607 1.95774 8
    endloop
  endfacet
  facet normal -0.292371 -0.956305 -0
    outer loop
      vertex -26.0255 1.54953 8
      vertex -27.3607 1.95774 4.2
      vertex -26.0255 1.54953 4.2
    endloop
  endfacet
  facet normal 0.121866 -0.992547 0
    outer loop
      vertex -10.8189 0.219125 4.2
      vertex -9.43308 0.389277 8
      vertex -10.8189 0.219125 8
    endloop
  endfacet
  facet normal 0.121866 -0.992547 0
    outer loop
      vertex -9.43308 0.389277 8
      vertex -10.8189 0.219125 4.2
      vertex -9.43308 0.389277 4.2
    endloop
  endfacet
  facet normal 0.25882 -0.965926 0
    outer loop
      vertex -5.32312 1.18817 4.2
      vertex -3.97451 1.54953 8
      vertex -5.32312 1.18817 8
    endloop
  endfacet
  facet normal 0.25882 -0.965926 0
    outer loop
      vertex -3.97451 1.54953 8
      vertex -5.32312 1.18817 4.2
      vertex -3.97451 1.54953 4.2
    endloop
  endfacet
  facet normal 0.0523355 -0.99863 0
    outer loop
      vertex -13.604 0.0243673 4.2
      vertex -12.2097 0.0974388 8
      vertex -13.604 0.0243673 8
    endloop
  endfacet
  facet normal 0.0523355 -0.99863 0
    outer loop
      vertex -12.2097 0.0974388 8
      vertex -13.604 0.0243673 4.2
      vertex -12.2097 0.0974388 4.2
    endloop
  endfacet
  facet normal 0.32557 -0.945518 0
    outer loop
      vertex -2.63932 1.95774 4.2
      vertex -1.31919 2.4123 8
      vertex -2.63932 1.95774 8
    endloop
  endfacet
  facet normal 0.32557 -0.945518 0
    outer loop
      vertex -1.31919 2.4123 8
      vertex -2.63932 1.95774 4.2
      vertex -1.31919 2.4123 4.2
    endloop
  endfacet
  facet normal 0.358369 -0.93358 0
    outer loop
      vertex -1.31919 2.4123 4.2
      vertex -0.0157366 2.91265 8
      vertex -1.31919 2.4123 8
    endloop
  endfacet
  facet normal 0.358369 -0.93358 0
    outer loop
      vertex -0.0157366 2.91265 8
      vertex -1.31919 2.4123 4.2
      vertex -0.0157366 2.91265 4.2
    endloop
  endfacet
  facet normal -0.258822 -0.965925 0
    outer loop
      vertex -26.0255 1.54953 4.2
      vertex -24.6769 1.18817 8
      vertex -26.0255 1.54953 8
    endloop
  endfacet
  facet normal -0.258822 -0.965925 -0
    outer loop
      vertex -24.6769 1.18817 8
      vertex -26.0255 1.54953 4.2
      vertex -24.6769 1.18817 4.2
    endloop
  endfacet
  facet normal -0.0174524 -0.999848 0
    outer loop
      vertex -16.396 0.0243673 4.2
      vertex -15 0 8
      vertex -16.396 0.0243673 8
    endloop
  endfacet
  facet normal -0.0174524 -0.999848 -0
    outer loop
      vertex -15 0 8
      vertex -16.396 0.0243673 4.2
      vertex -15 0 4.2
    endloop
  endfacet
  facet normal 0.0871607 -0.996194 0
    outer loop
      vertex -12.2097 0.0974388 4.2
      vertex -10.8189 0.219125 8
      vertex -12.2097 0.0974388 8
    endloop
  endfacet
  facet normal 0.0871607 -0.996194 0
    outer loop
      vertex -10.8189 0.219125 8
      vertex -12.2097 0.0974388 4.2
      vertex -10.8189 0.219125 4.2
    endloop
  endfacet
  facet normal 0.190809 -0.981627 0
    outer loop
      vertex -8.05407 0.607691 4.2
      vertex -6.68353 0.874097 8
      vertex -8.05407 0.607691 8
    endloop
  endfacet
  facet normal 0.190809 -0.981627 0
    outer loop
      vertex -6.68353 0.874097 8
      vertex -8.05407 0.607691 4.2
      vertex -6.68353 0.874097 4.2
    endloop
  endfacet
  facet normal 0.224949 -0.97437 0
    outer loop
      vertex -6.68353 0.874097 4.2
      vertex -5.32312 1.18817 8
      vertex -6.68353 0.874097 8
    endloop
  endfacet
  facet normal 0.224949 -0.97437 0
    outer loop
      vertex -5.32312 1.18817 8
      vertex -6.68353 0.874097 4.2
      vertex -5.32312 1.18817 4.2
    endloop
  endfacet
  facet normal -0.325577 -0.945516 0
    outer loop
      vertex -28.6808 2.4123 4.2
      vertex -27.3607 1.95774 8
      vertex -28.6808 2.4123 8
    endloop
  endfacet
  facet normal -0.325577 -0.945516 -0
    outer loop
      vertex -27.3607 1.95774 8
      vertex -28.6808 2.4123 4.2
      vertex -27.3607 1.95774 4.2
    endloop
  endfacet
  facet normal -0.0523355 -0.99863 0
    outer loop
      vertex -17.7903 0.0974388 4.2
      vertex -16.396 0.0243673 8
      vertex -17.7903 0.0974388 8
    endloop
  endfacet
  facet normal -0.0523355 -0.99863 -0
    outer loop
      vertex -16.396 0.0243673 8
      vertex -17.7903 0.0974388 4.2
      vertex -16.396 0.0243673 4.2
    endloop
  endfacet
  facet normal -0.0871607 -0.996194 0
    outer loop
      vertex -19.1811 0.219125 4.2
      vertex -17.7903 0.0974388 8
      vertex -19.1811 0.219125 8
    endloop
  endfacet
  facet normal -0.0871607 -0.996194 -0
    outer loop
      vertex -17.7903 0.0974388 8
      vertex -19.1811 0.219125 4.2
      vertex -17.7903 0.0974388 4.2
    endloop
  endfacet
  facet normal -0.190801 -0.981629 0
    outer loop
      vertex -23.3165 0.874097 4.2
      vertex -21.9459 0.607691 8
      vertex -23.3165 0.874097 8
    endloop
  endfacet
  facet normal -0.190801 -0.981629 -0
    outer loop
      vertex -21.9459 0.607691 8
      vertex -23.3165 0.874097 4.2
      vertex -21.9459 0.607691 4.2
    endloop
  endfacet
  facet normal 0.390742 -0.9205 0
    outer loop
      vertex -0.0157366 2.91265 4.2
      vertex 0 2.91933 8
      vertex -0.0157366 2.91265 8
    endloop
  endfacet
  facet normal 0.390742 -0.9205 0
    outer loop
      vertex 0 2.91933 8
      vertex -0.0157366 2.91265 4.2
      vertex 0 2.91933 4.2
    endloop
  endfacet
  facet normal -0.224951 -0.97437 0
    outer loop
      vertex -24.6769 1.18817 4.2
      vertex -23.3165 0.874097 8
      vertex -24.6769 1.18817 8
    endloop
  endfacet
  facet normal -0.224951 -0.97437 -0
    outer loop
      vertex -23.3165 0.874097 8
      vertex -24.6769 1.18817 4.2
      vertex -23.3165 0.874097 4.2
    endloop
  endfacet
  facet normal 0.292373 -0.956304 0
    outer loop
      vertex -3.97451 1.54953 4.2
      vertex -2.63932 1.95774 8
      vertex -3.97451 1.54953 8
    endloop
  endfacet
  facet normal 0.292373 -0.956304 0
    outer loop
      vertex -2.63932 1.95774 8
      vertex -3.97451 1.54953 4.2
      vertex -2.63932 1.95774 4.2
    endloop
  endfacet
  facet normal 0.156435 -0.987688 0
    outer loop
      vertex -9.43308 0.389277 4.2
      vertex -8.05407 0.607691 8
      vertex -9.43308 0.389277 8
    endloop
  endfacet
  facet normal 0.156435 -0.987688 0
    outer loop
      vertex -8.05407 0.607691 8
      vertex -9.43308 0.389277 4.2
      vertex -8.05407 0.607691 4.2
    endloop
  endfacet
  facet normal -0 0 1
    outer loop
      vertex -0.201847 3.38243 8
      vertex 0 2.91933 8
      vertex 0 3.46811 8
    endloop
  endfacet
  facet normal 0 0 1
    outer loop
      vertex 0 2.91933 8
      vertex -0.201847 3.38243 8
      vertex -0.0157366 2.91265 8
    endloop
  endfacet
  facet normal -0 0 1
    outer loop
      vertex -0.205001 3.38109 8
      vertex -0.0157366 2.91265 8
      vertex -0.201847 3.38243 8
    endloop
  endfacet
  facet normal -0 0 1
    outer loop
      vertex -0.2082 3.37986 8
      vertex -0.0157366 2.91265 8
      vertex -0.205001 3.38109 8
    endloop
  endfacet
  facet normal 0 0 1
    outer loop
      vertex -0.2082 3.37986 8
      vertex -1.31919 2.4123 8
      vertex -0.0157366 2.91265 8
    endloop
  endfacet
  facet normal -0 0 1
    outer loop
      vertex -1.492 2.88706 8
      vertex -1.31919 2.4123 8
      vertex -0.2082 3.37986 8
    endloop
  endfacet
  facet normal 0 0 1
    outer loop
      vertex -1.492 2.88706 8
      vertex -2.63932 1.95774 8
      vertex -1.31919 2.4123 8
    endloop
  endfacet
  facet normal -0 0 1
    outer loop
      vertex -2.79221 2.43936 8
      vertex -2.63932 1.95774 8
      vertex -1.492 2.88706 8
    endloop
  endfacet
  facet normal -0 0 1
    outer loop
      vertex -2.79545 2.43825 8
      vertex -2.63932 1.95774 8
      vertex -2.79221 2.43936 8
    endloop
  endfacet
  facet normal 0 0 1
    outer loop
      vertex -2.79545 2.43825 8
      vertex -3.97451 1.54953 8
      vertex -2.63932 1.95774 8
    endloop
  endfacet
  facet normal -0 0 1
    outer loop
      vertex -4.11049 2.0362 8
      vertex -3.97451 1.54953 8
      vertex -2.79545 2.43825 8
    endloop
  endfacet
  facet normal -0 0 1
    outer loop
      vertex -4.11377 2.0352 8
      vertex -3.97451 1.54953 8
      vertex -4.11049 2.0362 8
    endloop
  endfacet
  facet normal -0 0 1
    outer loop
      vertex -4.11708 2.03431 8
      vertex -3.97451 1.54953 8
      vertex -4.11377 2.0352 8
    endloop
  endfacet
  facet normal 0 0 1
    outer loop
      vertex -4.11708 2.03431 8
      vertex -5.32312 1.18817 8
      vertex -3.97451 1.54953 8
    endloop
  endfacet
  facet normal -0 0 1
    outer loop
      vertex -5.44535 1.6784 8
      vertex -5.32312 1.18817 8
      vertex -4.11708 2.03431 8
    endloop
  endfacet
  facet normal -0 0 1
    outer loop
      vertex -5.44869 1.67763 8
      vertex -5.32312 1.18817 8
      vertex -5.44535 1.6784 8
    endloop
  endfacet
  facet normal 0 0 1
    outer loop
      vertex -5.44869 1.67763 8
      vertex -6.68353 0.874097 8
      vertex -5.32312 1.18817 8
    endloop
  endfacet
  facet normal -0 0 1
    outer loop
      vertex -6.78858 1.36829 8
      vertex -6.68353 0.874097 8
      vertex -5.44869 1.67763 8
    endloop
  endfacet
  facet normal 0 0 1
    outer loop
      vertex -6.78858 1.36829 8
      vertex -8.05407 0.607691 8
      vertex -6.68353 0.874097 8
    endloop
  endfacet
  facet normal -0 0 1
    outer loop
      vertex -8.13844 1.1059 8
      vertex -8.05407 0.607691 8
      vertex -6.78858 1.36829 8
    endloop
  endfacet
  facet normal -0 0 1
    outer loop
      vertex -8.14181 1.10525 8
      vertex -8.05407 0.607691 8
      vertex -8.13844 1.1059 8
    endloop
  endfacet
  facet normal -0 0 1
    outer loop
      vertex -8.14519 1.10471 8
      vertex -8.05407 0.607691 8
      vertex -8.14181 1.10525 8
    endloop
  endfacet
  facet normal 0 0 1
    outer loop
      vertex -8.14519 1.10471 8
      vertex -9.43308 0.389277 8
      vertex -8.05407 0.607691 8
    endloop
  endfacet
  facet normal -0 0 1
    outer loop
      vertex -9.50339 0.889597 8
      vertex -9.43308 0.389277 8
      vertex -8.14519 1.10471 8
    endloop
  endfacet
  facet normal -0 0 1
    outer loop
      vertex -9.50679 0.889179 8
      vertex -9.43308 0.389277 8
      vertex -9.50339 0.889597 8
    endloop
  endfacet
  facet normal 0 0 1
    outer loop
      vertex -9.50679 0.889179 8
      vertex -10.8189 0.219125 8
      vertex -9.43308 0.389277 8
    endloop
  endfacet
  facet normal -0 0 1
    outer loop
      vertex -10.8717 0.721593 8
      vertex -10.8189 0.219125 8
      vertex -9.50679 0.889179 8
    endloop
  endfacet
  facet normal 0 0 1
    outer loop
      vertex -10.8717 0.721593 8
      vertex -12.2097 0.0974388 8
      vertex -10.8189 0.219125 8
    endloop
  endfacet
  facet normal -0 0 1
    outer loop
      vertex -12.2416 0.601742 8
      vertex -12.2097 0.0974388 8
      vertex -10.8717 0.721593 8
    endloop
  endfacet
  facet normal -0 0 1
    outer loop
      vertex -12.245 0.601443 8
      vertex -12.2097 0.0974388 8
      vertex -12.2416 0.601742 8
    endloop
  endfacet
  facet normal -0 0 1
    outer loop
      vertex -12.2484 0.601264 8
      vertex -12.2097 0.0974388 8
      vertex -12.245 0.601443 8
    endloop
  endfacet
  facet normal 0 0 1
    outer loop
      vertex -12.2484 0.601264 8
      vertex -13.604 0.0243673 8
      vertex -12.2097 0.0974388 8
    endloop
  endfacet
  facet normal -0 0 1
    outer loop
      vertex -13.6217 0.529296 8
      vertex -13.604 0.0243673 8
      vertex -12.2484 0.601264 8
    endloop
  endfacet
  facet normal -0 0 1
    outer loop
      vertex -14.9966 0.505296 8
      vertex -13.604 0.0243673 8
      vertex -13.6217 0.529296 8
    endloop
  endfacet
  facet normal 0 0 1
    outer loop
      vertex -15 0 8
      vertex -14.9966 0.505296 8
      vertex -15 0.505236 8
    endloop
  endfacet
  facet normal 0 0 1
    outer loop
      vertex -14.9966 0.505296 8
      vertex -15 0 8
      vertex -13.604 0.0243673 8
    endloop
  endfacet
  facet normal 0 0 1
    outer loop
      vertex -15.0034 0.505296 8
      vertex -15 0 8
      vertex -15 0.505236 8
    endloop
  endfacet
  facet normal 0 0 1
    outer loop
      vertex -16.3783 0.529296 8
      vertex -15 0 8
      vertex -15.0034 0.505296 8
    endloop
  endfacet
  facet normal 0 0 1
    outer loop
      vertex -16.3783 0.529296 8
      vertex -16.396 0.0243673 8
      vertex -15 0 8
    endloop
  endfacet
  facet normal 0 0 1
    outer loop
      vertex -17.7516 0.601264 8
      vertex -16.396 0.0243673 8
      vertex -16.3783 0.529296 8
    endloop
  endfacet
  facet normal 0 0 1
    outer loop
      vertex -17.7903 0.0974388 8
      vertex -17.7516 0.601264 8
      vertex -17.755 0.601443 8
    endloop
  endfacet
  facet normal 0 0 1
    outer loop
      vertex -17.7903 0.0974388 8
      vertex -17.755 0.601443 8
      vertex -17.7584 0.601742 8
    endloop
  endfacet
  facet normal 0 0 1
    outer loop
      vertex -17.7516 0.601264 8
      vertex -17.7903 0.0974388 8
      vertex -16.396 0.0243673 8
    endloop
  endfacet
  facet normal 0 0 1
    outer loop
      vertex -19.1283 0.721593 8
      vertex -17.7903 0.0974388 8
      vertex -17.7584 0.601742 8
    endloop
  endfacet
  facet normal 0 0 1
    outer loop
      vertex -19.1283 0.721593 8
      vertex -19.1811 0.219125 8
      vertex -17.7903 0.0974388 8
    endloop
  endfacet
  facet normal 0 0 1
    outer loop
      vertex -20.4932 0.889179 8
      vertex -19.1811 0.219125 8
      vertex -19.1283 0.721593 8
    endloop
  endfacet
  facet normal 0 0 1
    outer loop
      vertex -20.5669 0.389277 8
      vertex -20.4932 0.889179 8
      vertex -20.4966 0.889597 8
    endloop
  endfacet
  facet normal 0 0 1
    outer loop
      vertex -20.4932 0.889179 8
      vertex -20.5669 0.389277 8
      vertex -19.1811 0.219125 8
    endloop
  endfacet
  facet normal 0 0 1
    outer loop
      vertex -21.8548 1.10471 8
      vertex -20.5669 0.389277 8
      vertex -20.4966 0.889597 8
    endloop
  endfacet
  facet normal 0 0 1
    outer loop
      vertex -21.9459 0.607691 8
      vertex -21.8548 1.10471 8
      vertex -21.8582 1.10525 8
    endloop
  endfacet
  facet normal 0 0 1
    outer loop
      vertex -21.9459 0.607691 8
      vertex -21.8582 1.10525 8
      vertex -21.8616 1.1059 8
    endloop
  endfacet
  facet normal 0 0 1
    outer loop
      vertex -21.8548 1.10471 8
      vertex -21.9459 0.607691 8
      vertex -20.5669 0.389277 8
    endloop
  endfacet
  facet normal 0 0 1
    outer loop
      vertex -23.2114 1.36829 8
      vertex -21.9459 0.607691 8
      vertex -21.8616 1.1059 8
    endloop
  endfacet
  facet normal 0 0 1
    outer loop
      vertex -23.2114 1.36829 8
      vertex -23.3165 0.874097 8
      vertex -21.9459 0.607691 8
    endloop
  endfacet
  facet normal 0 0 1
    outer loop
      vertex -24.5513 1.67763 8
      vertex -23.3165 0.874097 8
      vertex -23.2114 1.36829 8
    endloop
  endfacet
  facet normal 0 0 1
    outer loop
      vertex -24.6769 1.18817 8
      vertex -24.5513 1.67763 8
      vertex -24.5546 1.6784 8
    endloop
  endfacet
  facet normal 0 0 1
    outer loop
      vertex -24.5513 1.67763 8
      vertex -24.6769 1.18817 8
      vertex -23.3165 0.874097 8
    endloop
  endfacet
  facet normal 0 0 1
    outer loop
      vertex -25.8829 2.03431 8
      vertex -24.6769 1.18817 8
      vertex -24.5546 1.6784 8
    endloop
  endfacet
  facet normal 0 0 1
    outer loop
      vertex -26.0255 1.54953 8
      vertex -25.8829 2.03431 8
      vertex -25.8862 2.0352 8
    endloop
  endfacet
  facet normal 0 0 1
    outer loop
      vertex -26.0255 1.54953 8
      vertex -25.8862 2.0352 8
      vertex -25.8895 2.0362 8
    endloop
  endfacet
  facet normal 0 0 1
    outer loop
      vertex -25.8829 2.03431 8
      vertex -26.0255 1.54953 8
      vertex -24.6769 1.18817 8
    endloop
  endfacet
  facet normal 0 0 1
    outer loop
      vertex -27.2046 2.43825 8
      vertex -26.0255 1.54953 8
      vertex -25.8895 2.0362 8
    endloop
  endfacet
  facet normal 0 0 1
    outer loop
      vertex -27.3607 1.95774 8
      vertex -27.2046 2.43825 8
      vertex -27.2078 2.43936 8
    endloop
  endfacet
  facet normal 0 0 1
    outer loop
      vertex -27.2046 2.43825 8
      vertex -27.3607 1.95774 8
      vertex -26.0255 1.54953 8
    endloop
  endfacet
  facet normal 0 0 1
    outer loop
      vertex -28.508 2.88706 8
      vertex -27.3607 1.95774 8
      vertex -27.2078 2.43936 8
    endloop
  endfacet
  facet normal 0 0 1
    outer loop
      vertex -28.508 2.88706 8
      vertex -28.6808 2.4123 8
      vertex -27.3607 1.95774 8
    endloop
  endfacet
  facet normal 0 0 1
    outer loop
      vertex -29.7918 3.37986 8
      vertex -28.6808 2.4123 8
      vertex -28.508 2.88706 8
    endloop
  endfacet
  facet normal 0 0 1
    outer loop
      vertex -29.9843 2.91265 8
      vertex -29.7918 3.37986 8
      vertex -29.795 3.38109 8
    endloop
  endfacet
  facet normal 0 0 1
    outer loop
      vertex -29.9843 2.91265 8
      vertex -29.795 3.38109 8
      vertex -29.7982 3.38243 8
    endloop
  endfacet
  facet normal 0 0 1
    outer loop
      vertex -29.7918 3.37986 8
      vertex -29.9843 2.91265 8
      vertex -28.6808 2.4123 8
    endloop
  endfacet
  facet normal 0 0 1
    outer loop
      vertex -30 2.91933 8
      vertex -29.7982 3.38243 8
      vertex -30 3.46811 8
    endloop
  endfacet
  facet normal 0 0 1
    outer loop
      vertex -29.7982 3.38243 8
      vertex -30 2.91933 8
      vertex -29.9843 2.91265 8
    endloop
  endfacet
  facet normal -0.156436 -0.987688 0
    outer loop
      vertex -21.9459 0.607691 4.2
      vertex -20.5669 0.389277 8
      vertex -21.9459 0.607691 8
    endloop
  endfacet
  facet normal -0.156436 -0.987688 -0
    outer loop
      vertex -20.5669 0.389277 8
      vertex -21.9459 0.607691 4.2
      vertex -20.5669 0.389277 4.2
    endloop
  endfacet
  facet normal -0.391513 -0.920173 0
    outer loop
      vertex -30 2.91933 4.2
      vertex -29.9843 2.91265 8
      vertex -30 2.91933 8
    endloop
  endfacet
  facet normal -0.391513 -0.920173 -0
    outer loop
      vertex -29.9843 2.91265 8
      vertex -30 2.91933 4.2
      vertex -29.9843 2.91265 4.2
    endloop
  endfacet
  facet normal 0 0 -1
    outer loop
      vertex -0.950292 5.22575 4.2
      vertex 0 2.91933 4.2
      vertex -0.0157366 2.91265 4.2
    endloop
  endfacet
  facet normal 0 0 -1
    outer loop
      vertex 0 2.91933 4.2
      vertex -0.950292 5.22575 4.2
      vertex 0 5.62913 4.2
    endloop
  endfacet
  facet normal 0 0 -1
    outer loop
      vertex -1.31919 2.4123 4.2
      vertex -0.950292 5.22575 4.2
      vertex -0.0157366 2.91265 4.2
    endloop
  endfacet
  facet normal 0 0 -1
    outer loop
      vertex -1.31919 2.4123 4.2
      vertex -2.16909 4.7579 4.2
      vertex -0.950292 5.22575 4.2
    endloop
  endfacet
  facet normal 0 0 -1
    outer loop
      vertex -1.31919 2.4123 4.2
      vertex -2.17245 4.75661 4.2
      vertex -2.16909 4.7579 4.2
    endloop
  endfacet
  facet normal 0 0 -1
    outer loop
      vertex -1.31919 2.4123 4.2
      vertex -2.17587 4.75543 4.2
      vertex -2.17245 4.75661 4.2
    endloop
  endfacet
  facet normal 0 0 -1
    outer loop
      vertex -2.63932 1.95774 4.2
      vertex -2.17587 4.75543 4.2
      vertex -1.31919 2.4123 4.2
    endloop
  endfacet
  facet normal 0 0 -1
    outer loop
      vertex -2.63932 1.95774 4.2
      vertex -3.41025 4.3304 4.2
      vertex -2.17587 4.75543 4.2
    endloop
  endfacet
  facet normal 0 0 -1
    outer loop
      vertex -2.63932 1.95774 4.2
      vertex -3.4137 4.32935 4.2
      vertex -3.41025 4.3304 4.2
    endloop
  endfacet
  facet normal 0 0 -1
    outer loop
      vertex -3.97451 1.54953 4.2
      vertex -3.4137 4.32935 4.2
      vertex -2.63932 1.95774 4.2
    endloop
  endfacet
  facet normal 0 0 -1
    outer loop
      vertex -3.97451 1.54953 4.2
      vertex -4.66216 3.94765 4.2
      vertex -3.4137 4.32935 4.2
    endloop
  endfacet
  facet normal 0 0 -1
    outer loop
      vertex -5.32312 1.18817 4.2
      vertex -4.66216 3.94765 4.2
      vertex -3.97451 1.54953 4.2
    endloop
  endfacet
  facet normal 0 0 -1
    outer loop
      vertex -5.32312 1.18817 4.2
      vertex -5.92318 3.60977 4.2
      vertex -4.66216 3.94765 4.2
    endloop
  endfacet
  facet normal 0 0 -1
    outer loop
      vertex -5.32312 1.18817 4.2
      vertex -5.92666 3.60883 4.2
      vertex -5.92318 3.60977 4.2
    endloop
  endfacet
  facet normal 0 0 -1
    outer loop
      vertex -6.68353 0.874097 4.2
      vertex -5.92666 3.60883 4.2
      vertex -5.32312 1.18817 4.2
    endloop
  endfacet
  facet normal 0 0 -1
    outer loop
      vertex -6.68353 0.874097 4.2
      vertex -7.19871 3.31516 4.2
      vertex -5.92666 3.60883 4.2
    endloop
  endfacet
  facet normal 0 0 -1
    outer loop
      vertex -6.68353 0.874097 4.2
      vertex -7.20222 3.31434 4.2
      vertex -7.19871 3.31516 4.2
    endloop
  endfacet
  facet normal 0 0 -1
    outer loop
      vertex -6.68353 0.874097 4.2
      vertex -7.20577 3.31366 4.2
      vertex -7.20222 3.31434 4.2
    endloop
  endfacet
  facet normal 0 0 -1
    outer loop
      vertex -8.05407 0.607691 4.2
      vertex -7.20577 3.31366 4.2
      vertex -6.68353 0.874097 4.2
    endloop
  endfacet
  facet normal 0 0 -1
    outer loop
      vertex -8.05407 0.607691 4.2
      vertex -8.48728 3.06455 4.2
      vertex -7.20577 3.31366 4.2
    endloop
  endfacet
  facet normal 0 0 -1
    outer loop
      vertex -9.43308 0.389277 4.2
      vertex -8.48728 3.06455 4.2
      vertex -8.05407 0.607691 4.2
    endloop
  endfacet
  facet normal 0 0 -1
    outer loop
      vertex -9.43308 0.389277 4.2
      vertex -9.77672 2.86033 4.2
      vertex -8.48728 3.06455 4.2
    endloop
  endfacet
  facet normal 0 0 -1
    outer loop
      vertex -9.43308 0.389277 4.2
      vertex -9.78028 2.85976 4.2
      vertex -9.77672 2.86033 4.2
    endloop
  endfacet
  facet normal 0 0 -1
    outer loop
      vertex -10.8189 0.219125 4.2
      vertex -9.78028 2.85976 4.2
      vertex -9.43308 0.389277 4.2
    endloop
  endfacet
  facet normal 0 0 -1
    outer loop
      vertex -10.8189 0.219125 4.2
      vertex -11.0761 2.70066 4.2
      vertex -9.78028 2.85976 4.2
    endloop
  endfacet
  facet normal 0 0 -1
    outer loop
      vertex -10.8189 0.219125 4.2
      vertex -11.0796 2.70022 4.2
      vertex -11.0761 2.70066 4.2
    endloop
  endfacet
  facet normal 0 0 -1
    outer loop
      vertex -10.8189 0.219125 4.2
      vertex -11.0832 2.69991 4.2
      vertex -11.0796 2.70022 4.2
    endloop
  endfacet
  facet normal 0 0 -1
    outer loop
      vertex -12.2097 0.0974388 4.2
      vertex -11.0832 2.69991 4.2
      vertex -10.8189 0.219125 4.2
    endloop
  endfacet
  facet normal 0 0 -1
    outer loop
      vertex -12.2097 0.0974388 4.2
      vertex -12.3838 2.58613 4.2
      vertex -11.0832 2.69991 4.2
    endloop
  endfacet
  facet normal 0 0 -1
    outer loop
      vertex -13.604 0.0243673 4.2
      vertex -12.3838 2.58613 4.2
      vertex -12.2097 0.0974388 4.2
    endloop
  endfacet
  facet normal 0 0 -1
    outer loop
      vertex -13.604 0.0243673 4.2
      vertex -13.6875 2.5178 4.2
      vertex -12.3838 2.58613 4.2
    endloop
  endfacet
  facet normal 0 0 -1
    outer loop
      vertex -13.604 0.0243673 4.2
      vertex -13.6911 2.51761 4.2
      vertex -13.6875 2.5178 4.2
    endloop
  endfacet
  facet normal 0 0 -1
    outer loop
      vertex -13.604 0.0243673 4.2
      vertex -13.6947 2.51755 4.2
      vertex -13.6911 2.51761 4.2
    endloop
  endfacet
  facet normal 0 0 -1
    outer loop
      vertex -15 0 4.2
      vertex -13.6947 2.51755 4.2
      vertex -13.604 0.0243673 4.2
    endloop
  endfacet
  facet normal 0 0 -1
    outer loop
      vertex -15 0 4.2
      vertex -15 2.49476 4.2
      vertex -13.6947 2.51755 4.2
    endloop
  endfacet
  facet normal 0 0 -1
    outer loop
      vertex -15 0 4.2
      vertex -16.3053 2.51755 4.2
      vertex -15 2.49476 4.2
    endloop
  endfacet
  facet normal 0 0 -1
    outer loop
      vertex -16.396 0.0243673 4.2
      vertex -16.3053 2.51755 4.2
      vertex -15 0 4.2
    endloop
  endfacet
  facet normal -0 0 -1
    outer loop
      vertex -16.3053 2.51755 4.2
      vertex -16.396 0.0243673 4.2
      vertex -16.3089 2.51761 4.2
    endloop
  endfacet
  facet normal -0 0 -1
    outer loop
      vertex -16.3089 2.51761 4.2
      vertex -16.396 0.0243673 4.2
      vertex -16.3125 2.5178 4.2
    endloop
  endfacet
  facet normal 0 0 -1
    outer loop
      vertex -16.396 0.0243673 4.2
      vertex -17.6162 2.58613 4.2
      vertex -16.3125 2.5178 4.2
    endloop
  endfacet
  facet normal 0 0 -1
    outer loop
      vertex -17.7903 0.0974388 4.2
      vertex -17.6162 2.58613 4.2
      vertex -16.396 0.0243673 4.2
    endloop
  endfacet
  facet normal 0 0 -1
    outer loop
      vertex -17.7903 0.0974388 4.2
      vertex -18.9168 2.69991 4.2
      vertex -17.6162 2.58613 4.2
    endloop
  endfacet
  facet normal 0 0 -1
    outer loop
      vertex -19.1811 0.219125 4.2
      vertex -18.9168 2.69991 4.2
      vertex -17.7903 0.0974388 4.2
    endloop
  endfacet
  facet normal -0 0 -1
    outer loop
      vertex -18.9168 2.69991 4.2
      vertex -19.1811 0.219125 4.2
      vertex -18.9204 2.70022 4.2
    endloop
  endfacet
  facet normal -0 0 -1
    outer loop
      vertex -18.9204 2.70022 4.2
      vertex -19.1811 0.219125 4.2
      vertex -18.9239 2.70066 4.2
    endloop
  endfacet
  facet normal 0 0 -1
    outer loop
      vertex -19.1811 0.219125 4.2
      vertex -20.2197 2.85976 4.2
      vertex -18.9239 2.70066 4.2
    endloop
  endfacet
  facet normal 0 0 -1
    outer loop
      vertex -20.5669 0.389277 4.2
      vertex -20.2197 2.85976 4.2
      vertex -19.1811 0.219125 4.2
    endloop
  endfacet
  facet normal -0 0 -1
    outer loop
      vertex -20.2197 2.85976 4.2
      vertex -20.5669 0.389277 4.2
      vertex -20.2233 2.86033 4.2
    endloop
  endfacet
  facet normal 0 0 -1
    outer loop
      vertex -20.5669 0.389277 4.2
      vertex -21.5127 3.06455 4.2
      vertex -20.2233 2.86033 4.2
    endloop
  endfacet
  facet normal 0 0 -1
    outer loop
      vertex -21.9459 0.607691 4.2
      vertex -21.5127 3.06455 4.2
      vertex -20.5669 0.389277 4.2
    endloop
  endfacet
  facet normal 0 0 -1
    outer loop
      vertex -21.9459 0.607691 4.2
      vertex -22.7942 3.31366 4.2
      vertex -21.5127 3.06455 4.2
    endloop
  endfacet
  facet normal 0 0 -1
    outer loop
      vertex -23.3165 0.874097 4.2
      vertex -22.7942 3.31366 4.2
      vertex -21.9459 0.607691 4.2
    endloop
  endfacet
  facet normal -0 0 -1
    outer loop
      vertex -22.7942 3.31366 4.2
      vertex -23.3165 0.874097 4.2
      vertex -22.7978 3.31434 4.2
    endloop
  endfacet
  facet normal -0 0 -1
    outer loop
      vertex -22.7978 3.31434 4.2
      vertex -23.3165 0.874097 4.2
      vertex -22.8013 3.31516 4.2
    endloop
  endfacet
  facet normal 0 0 -1
    outer loop
      vertex -23.3165 0.874097 4.2
      vertex -24.0733 3.60883 4.2
      vertex -22.8013 3.31516 4.2
    endloop
  endfacet
  facet normal 0 0 -1
    outer loop
      vertex -24.6769 1.18817 4.2
      vertex -24.0733 3.60883 4.2
      vertex -23.3165 0.874097 4.2
    endloop
  endfacet
  facet normal -0 0 -1
    outer loop
      vertex -24.0733 3.60883 4.2
      vertex -24.6769 1.18817 4.2
      vertex -24.0768 3.60977 4.2
    endloop
  endfacet
  facet normal 0 0 -1
    outer loop
      vertex -24.6769 1.18817 4.2
      vertex -25.3378 3.94765 4.2
      vertex -24.0768 3.60977 4.2
    endloop
  endfacet
  facet normal 0 0 -1
    outer loop
      vertex -26.0255 1.54953 4.2
      vertex -25.3378 3.94765 4.2
      vertex -24.6769 1.18817 4.2
    endloop
  endfacet
  facet normal 0 0 -1
    outer loop
      vertex -26.0255 1.54953 4.2
      vertex -26.5863 4.32935 4.2
      vertex -25.3378 3.94765 4.2
    endloop
  endfacet
  facet normal 0 0 -1
    outer loop
      vertex -27.3607 1.95774 4.2
      vertex -26.5863 4.32935 4.2
      vertex -26.0255 1.54953 4.2
    endloop
  endfacet
  facet normal -0 0 -1
    outer loop
      vertex -26.5863 4.32935 4.2
      vertex -27.3607 1.95774 4.2
      vertex -26.5898 4.3304 4.2
    endloop
  endfacet
  facet normal 0 0 -1
    outer loop
      vertex -27.3607 1.95774 4.2
      vertex -27.8241 4.75543 4.2
      vertex -26.5898 4.3304 4.2
    endloop
  endfacet
  facet normal 0 0 -1
    outer loop
      vertex -28.6808 2.4123 4.2
      vertex -27.8241 4.75543 4.2
      vertex -27.3607 1.95774 4.2
    endloop
  endfacet
  facet normal -0 0 -1
    outer loop
      vertex -27.8241 4.75543 4.2
      vertex -28.6808 2.4123 4.2
      vertex -27.8275 4.75661 4.2
    endloop
  endfacet
  facet normal -0 0 -1
    outer loop
      vertex -27.8275 4.75661 4.2
      vertex -28.6808 2.4123 4.2
      vertex -27.8309 4.7579 4.2
    endloop
  endfacet
  facet normal 0 0 -1
    outer loop
      vertex -28.6808 2.4123 4.2
      vertex -29.0497 5.22575 4.2
      vertex -27.8309 4.7579 4.2
    endloop
  endfacet
  facet normal 0 0 -1
    outer loop
      vertex -29.9843 2.91265 4.2
      vertex -29.0497 5.22575 4.2
      vertex -28.6808 2.4123 4.2
    endloop
  endfacet
  facet normal 0 0 -1
    outer loop
      vertex -30 2.91933 4.2
      vertex -29.0497 5.22575 4.2
      vertex -29.9843 2.91265 4.2
    endloop
  endfacet
  facet normal -0 0 -1
    outer loop
      vertex -29.0497 5.22575 4.2
      vertex -30 2.91933 4.2
      vertex -30 5.62913 4.2
    endloop
  endfacet
  facet normal -0.015466 0.885817 0.463777
    outer loop
      vertex -15 2.49476 4.2
      vertex -14.9966 0.505296 8
      vertex -13.6947 2.51755 4.2
    endloop
  endfacet
  facet normal -0.015632 0.885815 0.463776
    outer loop
      vertex -14.9966 0.505296 8
      vertex -15 2.49476 4.2
      vertex -15 0.505236 8
    endloop
  endfacet
  facet normal 0.25693 0.84787 0.463792
    outer loop
      vertex -25.3378 3.94765 4.2
      vertex -25.8895 2.0362 8
      vertex -25.8862 2.0352 8
    endloop
  endfacet
  facet normal 0.259024 0.84724 0.463779
    outer loop
      vertex -25.8895 2.0362 8
      vertex -25.3378 3.94765 4.2
      vertex -26.5863 4.32935 4.2
    endloop
  endfacet
  facet normal 0.107968 0.879348 0.463778
    outer loop
      vertex -20.2197 2.85976 4.2
      vertex -20.4932 0.889179 8
      vertex -18.9239 2.70066 4.2
    endloop
  endfacet
  facet normal 0.108106 0.879331 0.463779
    outer loop
      vertex -20.4932 0.889179 8
      vertex -20.2197 2.85976 4.2
      vertex -20.4966 0.889597 8
    endloop
  endfacet
  facet normal 0.077216 0.88258 0.463778
    outer loop
      vertex -18.9168 2.69991 4.2
      vertex -19.1283 0.721593 8
      vertex -17.7584 0.601742 8
    endloop
  endfacet
  facet normal 0.0760094 0.88269 0.463768
    outer loop
      vertex -19.1283 0.721593 8
      vertex -18.9168 2.69991 4.2
      vertex -18.9204 2.70022 4.2
    endloop
  endfacet
  facet normal 0.0466936 0.884722 0.463775
    outer loop
      vertex -16.3125 2.5178 4.2
      vertex -16.3783 0.529296 8
      vertex -16.3089 2.51761 4.2
    endloop
  endfacet
  facet normal 0.0463648 0.884738 0.463778
    outer loop
      vertex -16.3783 0.529296 8
      vertex -16.3125 2.5178 4.2
      vertex -17.7516 0.601264 8
    endloop
  endfacet
  facet normal -0.0463648 0.884738 0.463778
    outer loop
      vertex -13.6875 2.5178 4.2
      vertex -13.6217 0.529296 8
      vertex -12.2484 0.601264 8
    endloop
  endfacet
  facet normal -0.0466936 0.884722 0.463775
    outer loop
      vertex -13.6217 0.529296 8
      vertex -13.6875 2.5178 4.2
      vertex -13.6911 2.51761 4.2
    endloop
  endfacet
  facet normal -0.230045 0.855561 0.463782
    outer loop
      vertex -4.66216 3.94765 4.2
      vertex -4.11708 2.03431 8
      vertex -4.11377 2.0352 8
    endloop
  endfacet
  facet normal -0.229295 0.855765 0.463777
    outer loop
      vertex -4.11708 2.03431 8
      vertex -4.66216 3.94765 4.2
      vertex -5.92318 3.60977 4.2
    endloop
  endfacet
  facet normal -0.0760094 0.88269 0.463768
    outer loop
      vertex -11.0832 2.69991 4.2
      vertex -10.8717 0.721593 8
      vertex -11.0796 2.70022 4.2
    endloop
  endfacet
  facet normal -0.077216 0.88258 0.463778
    outer loop
      vertex -10.8717 0.721593 8
      vertex -11.0832 2.69991 4.2
      vertex -12.2416 0.601742 8
    endloop
  endfacet
  facet normal 0.166358 0.870183 0.463796
    outer loop
      vertex -21.5127 3.06455 4.2
      vertex -21.8616 1.1059 8
      vertex -21.8582 1.10525 8
    endloop
  endfacet
  facet normal 0.169055 0.869671 0.46378
    outer loop
      vertex -21.8616 1.1059 8
      vertex -21.5127 3.06455 4.2
      vertex -22.7942 3.31366 4.2
    endloop
  endfacet
  facet normal -0.0147639 0.885831 0.463772
    outer loop
      vertex -13.6947 2.51755 4.2
      vertex -13.6217 0.529296 8
      vertex -13.6911 2.51761 4.2
    endloop
  endfacet
  facet normal -0.0154626 0.885816 0.463778
    outer loop
      vertex -13.6217 0.529296 8
      vertex -13.6947 2.51755 4.2
      vertex -14.9966 0.505296 8
    endloop
  endfacet
  facet normal 0.0154626 0.885816 0.463778
    outer loop
      vertex -16.3053 2.51755 4.2
      vertex -16.3783 0.529296 8
      vertex -15.0034 0.505296 8
    endloop
  endfacet
  facet normal 0.0147639 0.885831 0.463772
    outer loop
      vertex -16.3783 0.529296 8
      vertex -16.3053 2.51755 4.2
      vertex -16.3089 2.51761 4.2
    endloop
  endfacet
  facet normal -0.139769 0.874853 0.463786
    outer loop
      vertex -8.48728 3.06455 4.2
      vertex -8.14519 1.10471 8
      vertex -8.14181 1.10525 8
    endloop
  endfacet
  facet normal -0.138589 0.875045 0.463778
    outer loop
      vertex -8.14519 1.10471 8
      vertex -8.48728 3.06455 4.2
      vertex -9.77672 2.86033 4.2
    endloop
  endfacet
  facet normal 0.169057 0.869671 0.46378
    outer loop
      vertex -22.7942 3.31366 4.2
      vertex -23.2114 1.36829 8
      vertex -21.8616 1.1059 8
    endloop
  endfacet
  facet normal 0.164443 0.870578 0.463737
    outer loop
      vertex -23.2114 1.36829 8
      vertex -22.7942 3.31366 4.2
      vertex -22.7978 3.31434 4.2
    endloop
  endfacet
  facet normal 0.138593 0.875044 0.463779
    outer loop
      vertex -21.5127 3.06455 4.2
      vertex -21.8548 1.10471 8
      vertex -20.2233 2.86033 4.2
    endloop
  endfacet
  facet normal 0.138968 0.874983 0.463781
    outer loop
      vertex -21.8548 1.10471 8
      vertex -21.5127 3.06455 4.2
      vertex -21.8582 1.10525 8
    endloop
  endfacet
  facet normal -0.229302 0.855763 0.463779
    outer loop
      vertex -5.92318 3.60977 4.2
      vertex -5.44535 1.6784 8
      vertex -4.11708 2.03431 8
    endloop
  endfacet
  facet normal -0.231031 0.855305 0.463764
    outer loop
      vertex -5.44535 1.6784 8
      vertex -5.92318 3.60977 4.2
      vertex -5.92666 3.60883 4.2
    endloop
  endfacet
  facet normal 0.346244 0.815499 0.463764
    outer loop
      vertex -30 3.46811 8
      vertex -29.7982 3.38243 8
      vertex -30 4.43042 6.30784
    endloop
  endfacet
  facet normal -0.287073 0.837942 0.464157
    outer loop
      vertex -2.17587 4.75543 4.2
      vertex -2.79545 2.43825 8
      vertex -2.79221 2.43936 8
    endloop
  endfacet
  facet normal -0.288437 0.837684 0.463778
    outer loop
      vertex -2.79545 2.43825 8
      vertex -2.17587 4.75543 4.2
      vertex -3.41025 4.3304 4.2
    endloop
  endfacet
  facet normal -0.13859 0.875044 0.463779
    outer loop
      vertex -9.77672 2.86033 4.2
      vertex -9.50339 0.889597 8
      vertex -8.14519 1.10471 8
    endloop
  endfacet
  facet normal -0.140069 0.874815 0.463766
    outer loop
      vertex -9.50339 0.889597 8
      vertex -9.77672 2.86033 4.2
      vertex -9.78028 2.85976 4.2
    endloop
  endfacet
  facet normal -0.107968 0.879348 0.463778
    outer loop
      vertex -11.0761 2.70066 4.2
      vertex -10.8717 0.721593 8
      vertex -9.50679 0.889179 8
    endloop
  endfacet
  facet normal -0.110508 0.879044 0.463756
    outer loop
      vertex -10.8717 0.721593 8
      vertex -11.0761 2.70066 4.2
      vertex -11.0796 2.70022 4.2
    endloop
  endfacet
  facet normal 0.015632 0.885815 0.463776
    outer loop
      vertex -15 2.49476 4.2
      vertex -15.0034 0.505296 8
      vertex -15 0.505236 8
    endloop
  endfacet
  facet normal 0.015466 0.885817 0.463777
    outer loop
      vertex -15.0034 0.505296 8
      vertex -15 2.49476 4.2
      vertex -16.3053 2.51755 4.2
    endloop
  endfacet
  facet normal -0.0465782 0.884725 0.463781
    outer loop
      vertex -12.3838 2.58613 4.2
      vertex -12.2484 0.601264 8
      vertex -12.245 0.601443 8
    endloop
  endfacet
  facet normal -0.0463711 0.884736 0.463779
    outer loop
      vertex -12.2484 0.601264 8
      vertex -12.3838 2.58613 4.2
      vertex -13.6875 2.5178 4.2
    endloop
  endfacet
  facet normal -0.346173 0.815522 0.463777
    outer loop
      vertex -0.201847 3.38243 8
      vertex 0 3.46811 8
      vertex 0 4.43042 6.30784
    endloop
  endfacet
  facet normal 0.317494 0.827107 0.463779
    outer loop
      vertex -29.0497 5.22575 4.2
      vertex -29.7918 3.37986 8
      vertex -27.8309 4.7579 4.2
    endloop
  endfacet
  facet normal 0.317864 0.826964 0.463782
    outer loop
      vertex -29.7918 3.37986 8
      vertex -29.0497 5.22575 4.2
      vertex -29.795 3.38109 8
    endloop
  endfacet
  facet normal 0.0776121 0.882546 0.463776
    outer loop
      vertex -17.6162 2.58613 4.2
      vertex -17.7584 0.601742 8
      vertex -17.755 0.601443 8
    endloop
  endfacet
  facet normal 0.0772105 0.88258 0.463779
    outer loop
      vertex -17.7584 0.601742 8
      vertex -17.6162 2.58613 4.2
      vertex -18.9168 2.69991 4.2
    endloop
  endfacet
  facet normal 0.341959 0.81662 0.464969
    outer loop
      vertex -29.795 3.38109 8
      vertex -30 4.43042 6.30784
      vertex -29.7982 3.38243 8
    endloop
  endfacet
  facet normal 0.346167 0.815523 0.463779
    outer loop
      vertex -29.0497 5.22575 4.2
      vertex -30 4.43042 6.30784
      vertex -29.795 3.38109 8
    endloop
  endfacet
  facet normal 0.34617 0.815521 0.46378
    outer loop
      vertex -30 4.43042 6.30784
      vertex -29.0497 5.22575 4.2
      vertex -30 5.62913 4.2
    endloop
  endfacet
  facet normal -0.259032 0.847238 0.463777
    outer loop
      vertex -4.66216 3.94765 4.2
      vertex -4.11049 2.0362 8
      vertex -3.4137 4.32935 4.2
    endloop
  endfacet
  facet normal -0.258366 0.847439 0.463782
    outer loop
      vertex -4.11049 2.0362 8
      vertex -4.66216 3.94765 4.2
      vertex -4.11377 2.0352 8
    endloop
  endfacet
  facet normal 0.202096 0.862606 0.463753
    outer loop
      vertex -22.8013 3.31516 4.2
      vertex -23.2114 1.36829 8
      vertex -22.7978 3.31434 4.2
    endloop
  endfacet
  facet normal 0.199296 0.863245 0.463778
    outer loop
      vertex -23.2114 1.36829 8
      vertex -22.8013 3.31516 4.2
      vertex -24.5513 1.67763 8
    endloop
  endfacet
  facet normal 0.0463711 0.884736 0.463779
    outer loop
      vertex -17.6162 2.58613 4.2
      vertex -17.7516 0.601264 8
      vertex -16.3125 2.5178 4.2
    endloop
  endfacet
  facet normal 0.0465782 0.884725 0.463781
    outer loop
      vertex -17.7516 0.601264 8
      vertex -17.6162 2.58613 4.2
      vertex -17.755 0.601443 8
    endloop
  endfacet
  facet normal 0.110508 0.879044 0.463756
    outer loop
      vertex -18.9239 2.70066 4.2
      vertex -19.1283 0.721593 8
      vertex -18.9204 2.70022 4.2
    endloop
  endfacet
  facet normal 0.107969 0.879348 0.463778
    outer loop
      vertex -19.1283 0.721593 8
      vertex -18.9239 2.70066 4.2
      vertex -20.4932 0.889179 8
    endloop
  endfacet
  facet normal 0.13855 0.875051 0.463778
    outer loop
      vertex -20.2233 2.86033 4.2
      vertex -20.4966 0.889597 8
      vertex -20.2197 2.85976 4.2
    endloop
  endfacet
  facet normal 0.13859 0.875044 0.463778
    outer loop
      vertex -20.4966 0.889597 8
      vertex -20.2233 2.86033 4.2
      vertex -21.8548 1.10471 8
    endloop
  endfacet
  facet normal 0.314275 0.828322 0.463804
    outer loop
      vertex -27.8309 4.7579 4.2
      vertex -28.508 2.88706 8
      vertex -27.8275 4.75661 4.2
    endloop
  endfacet
  facet normal 0.317494 0.827107 0.463779
    outer loop
      vertex -28.508 2.88706 8
      vertex -27.8309 4.7579 4.2
      vertex -29.7918 3.37986 8
    endloop
  endfacet
  facet normal -0.108106 0.879331 0.463779
    outer loop
      vertex -9.78028 2.85976 4.2
      vertex -9.50679 0.889179 8
      vertex -9.50339 0.889597 8
    endloop
  endfacet
  facet normal -0.107966 0.879348 0.463778
    outer loop
      vertex -9.50679 0.889179 8
      vertex -9.78028 2.85976 4.2
      vertex -11.0761 2.70066 4.2
    endloop
  endfacet
  facet normal -0.199026 0.863308 0.463776
    outer loop
      vertex -5.92666 3.60883 4.2
      vertex -5.44869 1.67763 8
      vertex -5.44535 1.6784 8
    endloop
  endfacet
  facet normal -0.199292 0.863246 0.463778
    outer loop
      vertex -5.44869 1.67763 8
      vertex -5.92666 3.60883 4.2
      vertex -7.19871 3.31516 4.2
    endloop
  endfacet
  facet normal -0.317494 0.827108 0.463778
    outer loop
      vertex -2.16909 4.7579 4.2
      vertex -1.492 2.88706 8
      vertex -0.2082 3.37986 8
    endloop
  endfacet
  facet normal -0.317543 0.827089 0.463778
    outer loop
      vertex -1.492 2.88706 8
      vertex -2.16909 4.7579 4.2
      vertex -2.17245 4.75661 4.2
    endloop
  endfacet
  facet normal -0.317951 0.82693 0.463782
    outer loop
      vertex -0.950292 5.22575 4.2
      vertex -0.2082 3.37986 8
      vertex -0.205001 3.38109 8
    endloop
  endfacet
  facet normal -0.317495 0.827107 0.463779
    outer loop
      vertex -0.2082 3.37986 8
      vertex -0.950292 5.22575 4.2
      vertex -2.16909 4.7579 4.2
    endloop
  endfacet
  facet normal -0.288439 0.837683 0.463778
    outer loop
      vertex -2.17245 4.75661 4.2
      vertex -2.79221 2.43936 8
      vertex -1.492 2.88706 8
    endloop
  endfacet
  facet normal -0.288989 0.837578 0.463625
    outer loop
      vertex -2.79221 2.43936 8
      vertex -2.17245 4.75661 4.2
      vertex -2.17587 4.75543 4.2
    endloop
  endfacet
  facet normal -0.346449 0.815449 0.463699
    outer loop
      vertex 0 4.43042 6.30784
      vertex -0.205001 3.38109 8
      vertex -0.201847 3.38243 8
    endloop
  endfacet
  facet normal -0.346172 0.81552 0.463779
    outer loop
      vertex -0.950292 5.22575 4.2
      vertex 0 4.43042 6.30784
      vertex 0 5.62913 4.2
    endloop
  endfacet
  facet normal -0.346169 0.815522 0.463778
    outer loop
      vertex 0 4.43042 6.30784
      vertex -0.950292 5.22575 4.2
      vertex -0.205001 3.38109 8
    endloop
  endfacet
  facet normal -0.257956 0.847571 0.463769
    outer loop
      vertex -3.4137 4.32935 4.2
      vertex -2.79545 2.43825 8
      vertex -3.41025 4.3304 4.2
    endloop
  endfacet
  facet normal -0.259028 0.847239 0.463778
    outer loop
      vertex -2.79545 2.43825 8
      vertex -3.4137 4.32935 4.2
      vertex -4.11049 2.0362 8
    endloop
  endfacet
  facet normal -0.199297 0.863244 0.463779
    outer loop
      vertex -7.19871 3.31516 4.2
      vertex -6.78858 1.36829 8
      vertex -5.44869 1.67763 8
    endloop
  endfacet
  facet normal -0.20155 0.862731 0.46376
    outer loop
      vertex -6.78858 1.36829 8
      vertex -7.19871 3.31516 4.2
      vertex -7.20222 3.31434 4.2
    endloop
  endfacet
  facet normal 0.259017 0.847241 0.463781
    outer loop
      vertex -26.5863 4.32935 4.2
      vertex -27.2046 2.43825 8
      vertex -25.8895 2.0362 8
    endloop
  endfacet
  facet normal 0.254582 0.848607 0.463739
    outer loop
      vertex -27.2046 2.43825 8
      vertex -26.5863 4.32935 4.2
      vertex -26.5898 4.3304 4.2
    endloop
  endfacet
  facet normal 0.199299 0.863243 0.463779
    outer loop
      vertex -24.0733 3.60883 4.2
      vertex -24.5513 1.67763 8
      vertex -22.8013 3.31516 4.2
    endloop
  endfacet
  facet normal 0.201313 0.862769 0.463791
    outer loop
      vertex -24.5513 1.67763 8
      vertex -24.0733 3.60883 4.2
      vertex -24.5546 1.6784 8
    endloop
  endfacet
  facet normal 0.229299 0.855764 0.463778
    outer loop
      vertex -25.3378 3.94765 4.2
      vertex -25.8829 2.03431 8
      vertex -24.0768 3.60977 4.2
    endloop
  endfacet
  facet normal 0.230694 0.855384 0.463787
    outer loop
      vertex -25.8829 2.03431 8
      vertex -25.3378 3.94765 4.2
      vertex -25.8862 2.0352 8
    endloop
  endfacet
  facet normal 0.229798 0.855632 0.463774
    outer loop
      vertex -24.0768 3.60977 4.2
      vertex -24.5546 1.6784 8
      vertex -24.0733 3.60883 4.2
    endloop
  endfacet
  facet normal 0.229297 0.855765 0.463778
    outer loop
      vertex -24.5546 1.6784 8
      vertex -24.0768 3.60977 4.2
      vertex -25.8829 2.03431 8
    endloop
  endfacet
  facet normal -0.0772105 0.88258 0.463779
    outer loop
      vertex -12.3838 2.58613 4.2
      vertex -12.2416 0.601742 8
      vertex -11.0832 2.69991 4.2
    endloop
  endfacet
  facet normal -0.0776121 0.882546 0.463776
    outer loop
      vertex -12.2416 0.601742 8
      vertex -12.3838 2.58613 4.2
      vertex -12.245 0.601443 8
    endloop
  endfacet
  facet normal -0.169054 0.869673 0.463778
    outer loop
      vertex -8.48728 3.06455 4.2
      vertex -8.13844 1.1059 8
      vertex -7.20577 3.31366 4.2
    endloop
  endfacet
  facet normal -0.167787 0.869914 0.463786
    outer loop
      vertex -8.13844 1.1059 8
      vertex -8.48728 3.06455 4.2
      vertex -8.14181 1.10525 8
    endloop
  endfacet
  facet normal -0.166675 0.870142 0.463759
    outer loop
      vertex -7.20577 3.31366 4.2
      vertex -6.78858 1.36829 8
      vertex -7.20222 3.31434 4.2
    endloop
  endfacet
  facet normal -0.16905 0.869673 0.463779
    outer loop
      vertex -6.78858 1.36829 8
      vertex -7.20577 3.31366 4.2
      vertex -8.13844 1.1059 8
    endloop
  endfacet
  facet normal 0.290582 0.837272 0.463183
    outer loop
      vertex -27.8275 4.75661 4.2
      vertex -27.2078 2.43936 8
      vertex -27.8241 4.75543 4.2
    endloop
  endfacet
  facet normal 0.28844 0.837681 0.463781
    outer loop
      vertex -27.2078 2.43936 8
      vertex -27.8275 4.75661 4.2
      vertex -28.508 2.88706 8
    endloop
  endfacet
  facet normal 0.290346 0.837033 0.463762
    outer loop
      vertex -26.5898 4.3304 4.2
      vertex -27.2078 2.43936 8
      vertex -27.2046 2.43825 8
    endloop
  endfacet
  facet normal 0.288454 0.837679 0.463776
    outer loop
      vertex -27.2078 2.43936 8
      vertex -26.5898 4.3304 4.2
      vertex -27.8241 4.75543 4.2
    endloop
  endfacet
  facet normal -1 0 0
    outer loop
      vertex -30 2.91933 0
      vertex -30 11.7339 4.2
      vertex -30 11.7339 0
    endloop
  endfacet
  facet normal -1 -0 0
    outer loop
      vertex -30 11.7339 4.2
      vertex -30 2.91933 0
      vertex -30 2.91933 4.2
    endloop
  endfacet
  facet normal -1 0 0
    outer loop
      vertex -30 2.91933 4.2
      vertex -30 4.43042 6.30784
      vertex -30 5.62913 4.2
    endloop
  endfacet
  facet normal -1 0 0
    outer loop
      vertex -30 2.91933 8
      vertex -30 4.43042 6.30784
      vertex -30 2.91933 4.2
    endloop
  endfacet
  facet normal -1 0 0
    outer loop
      vertex -30 4.43042 6.30784
      vertex -30 2.91933 8
      vertex -30 3.46811 8
    endloop
  endfacet
  facet normal 1 -0 0
    outer loop
      vertex 0 2.91933 4.2
      vertex 0 11.7339 0
      vertex 0 11.7339 4.2
    endloop
  endfacet
  facet normal 1 0 0
    outer loop
      vertex 0 11.7339 0
      vertex 0 2.91933 4.2
      vertex 0 2.91933 0
    endloop
  endfacet
  facet normal 1 -0 0
    outer loop
      vertex 0 2.91933 8
      vertex 0 4.43042 6.30784
      vertex 0 3.46811 8
    endloop
  endfacet
  facet normal 1 0 0
    outer loop
      vertex 0 4.43042 6.30784
      vertex 0 2.91933 8
      vertex 0 2.91933 4.2
    endloop
  endfacet
  facet normal 1 0 0
    outer loop
      vertex 0 4.43042 6.30784
      vertex 0 2.91933 4.2
      vertex 0 5.62913 4.2
    endloop
  endfacet
endsolid OpenSCAD_Model
